<svg xmlns="http://www.w3.org/2000/svg" width="56" height="448" fill="none" viewBox="0 0 56 448"><mask id="a" width="10" height="10" x="3" y="322" maskUnits="userSpaceOnUse" style="mask-type:luminance"><path fill="#fff" d="M13 332c0-5.5-4.5-10-10-10v10z"/></mask><g mask="url(#a)"><path stroke="#bdbebe" stroke-miterlimit="10" stroke-width="4" d="M13 332c0-5.5-4.5-10-10-10v10z"/></g><path stroke="#bdbebe" stroke-miterlimit="10" stroke-width="2" d="M24 332c0-11.6-9.4-21-21-21"/><path stroke="#bdbebe" stroke-miterlimit="10" stroke-width="2" d="M18 332c0-8.3-6.7-15-15-15"/><g opacity=".5"><mask id="b" width="10" height="10" x="3" y="294" maskUnits="userSpaceOnUse" style="mask-type:luminance"><path fill="#fff" d="M13 304c0-5.5-4.5-10-10-10v10z"/></mask><g mask="url(#b)"><path stroke="#bdbebe" stroke-miterlimit="10" stroke-width="4" d="M13 304c0-5.5-4.5-10-10-10v10z"/></g><path stroke="#bdbebe" stroke-miterlimit="10" stroke-width="2" d="M24 304c0-11.6-9.4-21-21-21"/><path stroke="#bdbebe" stroke-miterlimit="10" stroke-width="2" d="M18 304c0-8.3-6.7-15-15-15"/></g><mask id="c" width="7" height="7" x="31" y="270" maskUnits="userSpaceOnUse" style="mask-type:luminance"><path fill="#fff" d="M38 277c0-3.9-3.1-7-7-7v7z"/></mask><g mask="url(#c)"><path fill="#fff" d="M43 265H26v17h17z"/></g><mask id="d" width="15" height="15" x="31" y="262" maskUnits="userSpaceOnUse" style="mask-type:luminance"><path fill="#fff" d="M40 277c0-5-4-9-9-9v-5.5c8 0 14.5 6.5 14.5 14.5z"/></mask><g mask="url(#d)"><path fill="#fff" d="M50.5 257.5H26V282h24.5z"/></g><mask id="e" width="22" height="22" x="31" y="255" maskUnits="userSpaceOnUse" style="mask-type:luminance"><path fill="#fff" d="M47.5 277c0-9.1-7.4-16.5-16.5-16.5V255c12.2 0 22 9.8 22 22z"/></mask><g mask="url(#e)"><path fill="#fff" d="M58 250H26v32h32z"/></g><mask id="f" width="10" height="10" x="3" y="266" maskUnits="userSpaceOnUse" style="mask-type:luminance"><path fill="#fff" d="M13 276c0-5.5-4.5-10-10-10v10z"/></mask><g mask="url(#f)"><path stroke="#bdbebe" stroke-miterlimit="10" stroke-width="4" d="M13 276c0-5.5-4.5-10-10-10v10z"/></g><path stroke="#bdbebe" stroke-miterlimit="10" stroke-width="2" d="M24 276c0-11.6-9.4-21-21-21"/><path stroke="#bdbebe" stroke-miterlimit="10" stroke-width="2" d="M18 276c0-8.3-6.7-15-15-15"/><path fill="#fff" d="M37 207v2h2.6c.1-.5.1-1.5 0-2z"/><path fill="#fff" d="M42 198c-6.6 0-12 5.4-12 12s5.4 12 12 12 12-5.4 12-12-5.4-12-12-12m5 17v1c0 .6-.4 1-1 1s-1-.4-1-1v-1h-3c-.2 0-.4-.1-.6-.2l-4.4-3.5v2.7c0 .6-.4 1-1 1s-1-.4-1-1v-8c0-.6.4-1 1-1h4c1.1 0 1.7 1.1 1.7 3 0 .6-.1 1.2-.2 1.7-.4 1.2-1.2 1.3-1.5 1.3h-.1l2.5 2H47c.3 0 .5-.5.5-1 0-.4-.1-1-.5-1h-2c-1.4 0-2.5-1.3-2.5-3 0-.7.2-1.4.5-1.9.5-.7 1.2-1.1 2-1.1v-1c0-.6.4-1 1-1s1 .4 1 1v1h1c.6 0 1 .4 1 1s-.4 1-1 1h-3c-.1 0-.2 0-.3.2s-.2.5-.2.8c0 .4.2 1 .5 1h2c1.4 0 2.5 1.3 2.5 3s-1.1 3-2.5 3M14 222c-6.6 0-12-5.4-12-12s5.4-12 12-12 12 5.4 12 12-5.4 12-12 12m0-22c-5.5 0-10 4.5-10 10s4.5 10 10 10 10-4.5 10-10-4.5-10-10-10"/><path fill="#fff" d="M19 215h-5c-.2 0-.4-.1-.6-.2L9 211.3v2.7c0 .6-.4 1-1 1s-1-.4-1-1v-8c0-.6.4-1 1-1h4c1.1 0 1.7 1.1 1.7 3 0 .6-.1 1.2-.2 1.7-.4 1.2-1.2 1.3-1.5 1.3h-.1l2.5 2H19c.3 0 .5-.5.5-1 0-.4-.1-1-.5-1h-2c-1.4 0-2.5-1.3-2.5-3 0-.7.2-1.4.5-1.9.5-.7 1.2-1.1 2-1.1h3c.6 0 1 .4 1 1s-.4 1-1 1h-3c-.1 0-.2 0-.3.2s-.2.5-.2.8c0 .4.2 1 .5 1h2c1.4 0 2.5 1.3 2.5 3s-1.1 3-2.5 3m-10-6h2.6c.1-.5.1-1.5 0-2H9z"/><path fill="#fff" d="M18 206c-.6 0-1-.4-1-1v-1c0-.6.4-1 1-1s1 .4 1 1v1c0 .6-.4 1-1 1M18 217c-.6 0-1-.4-1-1v-1c0-.6.4-1 1-1s1 .4 1 1v1c0 .6-.4 1-1 1"/><path fill="#bdbebe" d="M37 179v2h2.6c.1-.5.1-1.5 0-2z"/><path fill="#bdbebe" d="M42 170c-6.6 0-12 5.4-12 12s5.4 12 12 12 12-5.4 12-12-5.4-12-12-12m5 17v1c0 .6-.4 1-1 1s-1-.4-1-1v-1h-3c-.2 0-.4-.1-.6-.2l-4.4-3.5v2.7c0 .6-.4 1-1 1s-1-.4-1-1v-8c0-.6.4-1 1-1h4c1.1 0 1.7 1.1 1.7 3 0 .6-.1 1.2-.2 1.7-.4 1.2-1.2 1.3-1.5 1.3h-.1l2.5 2H47c.3 0 .5-.5.5-1 0-.4-.1-1-.5-1h-2c-1.4 0-2.5-1.3-2.5-3 0-.7.2-1.4.5-1.9.5-.7 1.2-1.1 2-1.1v-1c0-.6.4-1 1-1s1 .4 1 1v1h1c.6 0 1 .4 1 1s-.4 1-1 1h-3c-.1 0-.2 0-.3.2s-.2.5-.2.8c0 .4.2 1 .5 1h2c1.4 0 2.5 1.3 2.5 3s-1.1 3-2.5 3M14 194c-6.6 0-12-5.4-12-12s5.4-12 12-12 12 5.4 12 12-5.4 12-12 12m0-22c-5.5 0-10 4.5-10 10s4.5 10 10 10 10-4.5 10-10-4.5-10-10-10"/><path fill="#bdbebe" d="M19 187h-5c-.2 0-.4-.1-.6-.2L9 183.3v2.7c0 .6-.4 1-1 1s-1-.4-1-1v-8c0-.6.4-1 1-1h4c1.1 0 1.7 1.1 1.7 3 0 .6-.1 1.2-.2 1.7-.4 1.2-1.2 1.3-1.5 1.3h-.1l2.5 2H19c.3 0 .5-.5.5-1 0-.4-.1-1-.5-1h-2c-1.4 0-2.5-1.3-2.5-3 0-.7.2-1.4.5-1.9.5-.7 1.2-1.1 2-1.1h3c.6 0 1 .4 1 1s-.4 1-1 1h-3c-.1 0-.2 0-.3.2s-.2.5-.2.8c0 .4.2 1 .5 1h2c1.4 0 2.5 1.3 2.5 3s-1.1 3-2.5 3m-10-6h2.6c.1-.5.1-1.5 0-2H9z"/><path fill="#bdbebe" d="M18 178c-.6 0-1-.4-1-1v-1c0-.6.4-1 1-1s1 .4 1 1v1c0 .6-.4 1-1 1M18 189c-.6 0-1-.4-1-1v-1c0-.6.4-1 1-1s1 .4 1 1v1c0 .6-.4 1-1 1M51 149h-2l-2-2v-2l-3-3-14 14 3 3h2l2 2v2l3 3 14-14zm-6.3 7.7c-.2.2-.5.3-.7.3s-.5-.1-.7-.3l-3.3-3.3-1.3 1.3c-.2.2-.5.3-.7.3s-.5-.1-.7-.3c-.4-.4-.4-1 0-1.4l4-4c.4-.4 1-.4 1.4 0s.4 1 0 1.4l-1.3 1.3 3.3 3.3c.4.4.4 1 0 1.4M12 166c-.3 0-.5-.1-.7-.3l-3-3c-.2-.2-.3-.4-.3-.7v-1.6l-.4-.4H6c-.3 0-.5-.1-.7-.3l-3-3c-.4-.4-.4-1 0-1.4l13-13c.4-.4 1-.4 1.4 0l3 3c.2.2.3.4.3.7v1.6l.4.4H22c.3 0 .5.1.7.3l3 3c.4.4.4 1 0 1.4l-13 13c-.2.2-.4.3-.7.3m-2-4.4 2 2L23.6 152l-2-2H20c-.3 0-.5-.1-.7-.3l-1-1c-.2-.2-.3-.4-.3-.7v-1.6l-2-2L4.4 156l2 2H8c.3 0 .5.1.7.3l1 1c.2.2.3.4.3.7z"/><path fill="#bdbebe" d="M10 155c-.3 0-.5-.1-.7-.3-.4-.4-.4-1 0-1.4l4-4c.4-.4 1-.4 1.4 0s.4 1 0 1.4l-4 4c-.2.2-.4.3-.7.3"/><path fill="#bdbebe" d="M16 157c-.3 0-.5-.1-.7-.3l-4-4c-.4-.4-.4-1 0-1.4s1-.4 1.4 0l4 4c.4.4.4 1 0 1.4-.2.2-.4.3-.7.3M37 123v2h2.6c.1-.5.1-1.5 0-2z"/><path fill="#bdbebe" d="M42 114c-6.6 0-12 5.4-12 12s5.4 12 12 12 12-5.4 12-12-5.4-12-12-12m5 17v1c0 .6-.4 1-1 1s-1-.4-1-1v-1h-3c-.2 0-.4-.1-.6-.2l-4.4-3.5v2.7c0 .6-.4 1-1 1s-1-.4-1-1v-8c0-.6.4-1 1-1h4c1.1 0 1.7 1.1 1.7 3 0 .6-.1 1.2-.2 1.7-.4 1.2-1.2 1.3-1.5 1.3h-.1l2.5 2H47c.3 0 .5-.5.5-1 0-.4-.1-1-.5-1h-2c-1.4 0-2.5-1.3-2.5-3 0-.7.2-1.4.5-1.9.5-.7 1.2-1.1 2-1.1v-1c0-.6.4-1 1-1s1 .4 1 1v1h1c.6 0 1 .4 1 1s-.4 1-1 1h-3c-.1 0-.2 0-.3.2s-.2.5-.2.8c0 .4.2 1 .5 1h2c1.4 0 2.5 1.3 2.5 3s-1.1 3-2.5 3M14 138c-6.6 0-12-5.4-12-12s5.4-12 12-12 12 5.4 12 12-5.4 12-12 12m0-22c-5.5 0-10 4.5-10 10s4.5 10 10 10 10-4.5 10-10-4.5-10-10-10"/><path fill="#bdbebe" d="M19 131h-5c-.2 0-.4-.1-.6-.2L9 127.3v2.7c0 .6-.4 1-1 1s-1-.4-1-1v-8c0-.6.4-1 1-1h4c1.1 0 1.7 1.1 1.7 3 0 .6-.1 1.2-.2 1.7-.4 1.2-1.2 1.3-1.5 1.3h-.1l2.5 2H19c.3 0 .5-.5.5-1 0-.4-.1-1-.5-1h-2c-1.4 0-2.5-1.3-2.5-3 0-.7.2-1.4.5-1.9.5-.7 1.2-1.1 2-1.1h3c.6 0 1 .4 1 1s-.4 1-1 1h-3c-.1 0-.2 0-.3.2s-.2.5-.2.8c0 .4.2 1 .5 1h2c1.4 0 2.5 1.3 2.5 3s-1.1 3-2.5 3m-10-6h2.6c.1-.5.1-1.5 0-2H9z"/><path fill="#bdbebe" d="M18 122c-.6 0-1-.4-1-1v-1c0-.6.4-1 1-1s1 .4 1 1v1c0 .6-.4 1-1 1M18 133c-.6 0-1-.4-1-1v-1c0-.6.4-1 1-1s1 .4 1 1v1c0 .6-.4 1-1 1"/><path fill="#fff" d="M49 110c-.2 0-.3 0-.5-.1l-6.5-3.7-6.5 3.7c-.3.2-.7.2-1.1 0-.3-.2-.5-.6-.4-1l.9-7.5-4.7-4.7c-.3-.3-.4-.7-.2-1 .1-.4.4-.6.8-.7l6.5-.9 3.8-6.6c.4-.6 1.4-.6 1.7 0l3.8 6.6 6.5.9c.4.1.7.3.8.7s0 .8-.2 1l-4.7 4.7.9 7.5c0 .4-.1.7-.4 1-.1 0-.3.1-.5.1"/><path fill="#bdbebe" d="M21 110c-.2 0-.3 0-.5-.1l-6.5-3.7-6.5 3.7c-.3.2-.7.2-1.1 0-.3-.2-.5-.6-.4-1l.9-7.5-4.7-4.7c-.3-.3-.4-.7-.2-1 .1-.4.4-.6.8-.7l6.5-.9 3.8-6.6c.4-.6 1.4-.6 1.7 0l3.8 6.6 6.5.9c.4.1.7.3.8.7s0 .8-.2 1l-4.7 4.7.9 7.5c0 .4-.1.7-.4 1-.1 0-.3.1-.5.1m-7-6c.2 0 .3 0 .5.1l5.3 3-.8-6c0-.3.1-.6.3-.8l3.6-3.6-5-.7c-.3 0-.6-.2-.7-.5L14 90l-3.1 5.5c-.2.3-.4.5-.7.5l-5 .7 3.6 3.6c.2.2.3.5.3.8l-.8 6 5.3-3c.1-.1.2-.1.4-.1"/><path fill="#fff" d="M35 60v8.5c0 .3.1.6.4.8l4.2 3.4c.2.2.4.5.4.8v1.9q0 .6-.6.9l-4.9 2.4c-.3.2-.6.5-.6.9v.4c0 .6.4 1 1 1h14c.6 0 1-.4 1-1v-.4q0-.6-.6-.9l-4.9-2.4c-.3-.2-.6-.5-.6-.9v-1.9c0-.3.1-.6.4-.8l4.2-3.4c.2-.2.4-.5.4-.8V60c0-.6-.4-1-1-1H36c-.6 0-1 .4-1 1M33 69c-.3 0-.5-.1-.7-.3l-2-2c-.2-.2-.3-.4-.3-.7v-4c0-.6.4-1 1-1h2c.6 0 1 .4 1 1s-.4 1-1 1h-1v2.6l1.7 1.7c.4.4.4 1 0 1.4-.2.2-.4.3-.7.3M51 69c-.3 0-.5-.1-.7-.3-.4-.4-.4-1 0-1.4l1.7-1.7V63h-1c-.6 0-1-.4-1-1s.4-1 1-1h2c.6 0 1 .4 1 1v4c0 .3-.1.5-.3.7l-2 2c-.2.2-.4.3-.7.3"/><path fill="#bdbebe" d="M21 81H7c-.6 0-1-.4-1-1v-2c0-.4.2-.8.6-.9l4.4-1.7v-1.8l-3.6-2.7c-.3-.3-.4-.6-.4-.9V60c0-.6.4-1 1-1h12c.6 0 1 .4 1 1v10c0 .3-.1.6-.4.8L17 73.5v1.8l4.4 1.7q.6.3.6.9v2c0 .7-.4 1.1-1 1.1M8 79h12v-.3L15.6 77c-.4-.2-.6-.6-.6-1v-3c0-.3.1-.6.4-.8l3.6-2.7V61H9v8.5l3.6 2.7c.3.2.4.5.4.8v3c0 .4-.2.8-.6.9L8 78.7zM5 69c-.3 0-.5-.1-.7-.3l-2-2c-.2-.2-.3-.4-.3-.7v-4c0-.6.4-1 1-1h2c.6 0 1 .4 1 1s-.4 1-1 1H4v2.6l1.7 1.7c.4.4.4 1 0 1.4-.2.2-.4.3-.7.3M23 69c-.3 0-.5-.1-.7-.3-.4-.4-.4-1 0-1.4l1.7-1.7V63h-1c-.6 0-1-.4-1-1s.4-1 1-1h2c.6 0 1 .4 1 1v4c0 .3-.1.5-.3.7l-2 2c-.2.2-.4.3-.7.3M14 50c-.1 0-.2 0-.4-.1S8 47.7 8 43.5V38c0-.6.4-1 1-1h10c.6 0 1 .4 1 1v5.5c0 4.1-5.4 6.3-5.6 6.4-.1.1-.3.1-.4.1m-4-11v4.5c0 2.1 2.6 3.7 4 4.4 1.4-.7 4-2.3 4-4.4V39z"/><path fill="#bdbebe" d="M14 54C7.4 54 2 48.6 2 42s5.4-12 12-12 12 5.4 12 12-5.4 12-12 12m0-22C8.5 32 4 36.5 4 42s4.5 10 10 10 10-4.5 10-10-4.5-10-10-10"/><path fill="#bdbebe" d="M14 39c-.6 0-1-.4-1-1v-2c0-.6.4-1 1-1s1 .4 1 1v2c0 .6-.4 1-1 1M9 39c-.6 0-1-.4-1-1v-2c0-.6.4-1 1-1s1 .4 1 1v2c0 .6-.4 1-1 1M19 39c-.6 0-1-.4-1-1v-2c0-.6.4-1 1-1s1 .4 1 1v2c0 .6-.4 1-1 1M14 26C7.4 26 2 20.6 2 14S7.4 2 14 2s12 5.4 12 12-5.4 12-12 12m0-22C8.5 4 4 8.5 4 14s4.5 10 10 10 10-4.5 10-10S19.5 4 14 4"/><path fill="#bdbebe" d="M17.8 20.2c-.2 0-.3 0-.5-.1L14 18.2l-3.3 1.9c-.3.2-.7.2-1.1 0-.3-.2-.5-.6-.4-1l.5-3.9-2.4-2.4c-.3-.3-.4-.7-.2-1 .1-.4.4-.6.8-.7l3.3-.5 1.9-3.4c.4-.6 1.4-.6 1.7 0l1.9 3.4 3.3.5c.4.1.7.3.8.7s0 .8-.2 1l-2.4 2.4.5 3.9c0 .4-.1.7-.4 1-.1.1-.3.1-.5.1M14 16c.2 0 .3 0 .5.1l2.1 1.2-.3-2.3c0-.3.1-.6.3-.8l1.3-1.3-1.9-.3c-.3 0-.6-.2-.7-.5L14 9.8l-1.3 2.3c-.2.3-.4.5-.7.5l-1.8.3 1.3 1.3c.2.2.3.5.3.8l-.3 2.4 2.1-1.2c.1-.1.2-.2.4-.2"/><path fill="#fff" d="m14 226.1 2 1.5 2.4-.7 1.2 2.1 2.5.2.4 2.5 2.3 1-.5 2.5L26 237l-1.4 2.1 1 2.3-2 1.5v2.5l-2.4.6-.9 2.3-2.4-.2-1.7 1.8-2.2-1.1-2.2 1.1-1.7-1.8-2.4.2-.9-2.3-2.4-.6v-2.5l-2-1.5 1-2.3L2 237l1.7-1.8-.5-2.5 2.3-1 .4-2.5 2.5-.2 1.2-2.1 2.4.7z"/><path fill="#bdbebe" fill-rule="evenodd" d="M16 340.7c0 .373-.12.717-.323.998 1.213.19 2.33.657 3.223 1.402 1.6 1.3 2.6 3.3 2.7 5.4l.1 3.8v.1c1.6.6 2.7 2.1 2.7 3.9v.5c-.391 2.541-5.176 3.267-8.1 3.486.06.191.1.392.1.614 0 1.1-1 2.1-2.1 2.1s-2.1-.9-2.1-2.1q-.002-.323.065-.602C9.16 360.095 4 359.389 4 356.5v-.3c0-1.8 1.2-3.3 2.7-3.8v-.1l.2-3.9q.15-2.55 1.8-4.5c1.031-1.19 2.503-2.002 4.166-2.287A1.7 1.7 0 1 1 16 340.7m-1.8 2.3h.3c1.3 0 2.6.4 3.6 1.2 1.3 1 2.1 2.6 2.2 4.3l.1 3.8c-1.3.4-3.2.7-6.1.7-2.8 0-4.7-.3-6-.7l.2-3.8c0-1.4.5-2.7 1.4-3.6 1.1-1.3 2.7-1.9 4.3-1.9m-6.4 10.6c1.6.5 3.7.8 6.5.8s5-.3 6.6-.7c1.3.2 2.2 1.3 2.2 2.7v.3c-.2 1.1-3 2-6.9 2.2h-3.8c-3.9-.2-6.9-1.2-6.9-2.3v-.2c0-1.5 1-2.6 2.3-2.8" clip-rule="evenodd"/><path fill="#fff" fill-rule="evenodd" d="M43.9 340.7c0 .3-.078.581-.213.826 1.014.2 1.964.637 2.813 1.274 1.5 1.2 2.4 3 2.5 5l.2 4.3c-1.4.4-3.7.8-7 .8s-5.5-.4-7-.8l.2-4.4c0-1.6.6-3 1.6-4.1.982-1.133 2.306-1.81 3.714-2.073a1.7 1.7 0 1 1 3.186-.827m.4 19c4.4-.3 7.8-1.3 7.9-2.6v-.3c0-1.5-1.1-2.8-2.6-3.1-1.8.5-4.3.9-7.6.9-3.2 0-5.7-.4-7.5-.9-1.3.3-2.5 1.5-2.5 3.1v.3c0 1.3 3.4 2.4 8 2.7l.286-.007A2.5 2.5 0 0 0 40 360.9c0 1.1 1 2.1 2.2 2.1s2.1-1 2.1-2.1c0-.455-.166-.827-.346-1.192z" clip-rule="evenodd"/><path fill="#7b7c7d" fill-rule="evenodd" d="M16 368.7c0 .373-.12.717-.323.998 1.213.19 2.33.657 3.223 1.402 1.6 1.3 2.6 3.3 2.7 5.4l.1 3.8v.1c1.6.6 2.7 2.1 2.7 3.9v.5c-.391 2.541-5.176 3.267-8.1 3.486.06.191.1.392.1.614 0 1.1-1 2.1-2.1 2.1s-2.1-.9-2.1-2.1q-.002-.323.065-.602C9.16 388.095 4 387.389 4 384.5v-.3c0-1.8 1.2-3.3 2.7-3.8v-.1l.2-3.9q.15-2.55 1.8-4.5c1.031-1.19 2.503-2.002 4.166-2.287A1.7 1.7 0 1 1 16 368.7m-1.8 2.3h.3c1.3 0 2.6.4 3.6 1.2 1.3 1 2.1 2.6 2.2 4.3l.1 3.8c-1.3.4-3.2.7-6.1.7-2.8 0-4.7-.3-6-.7l.2-3.8c0-1.4.5-2.7 1.4-3.6 1.1-1.3 2.7-1.9 4.3-1.9m-6.4 10.6c1.6.5 3.7.8 6.5.8s5-.3 6.6-.7c1.3.2 2.2 1.3 2.2 2.7v.3c-.2 1.1-3 2-6.9 2.2h-3.8c-3.9-.2-6.9-1.2-6.9-2.3v-.2c0-1.5 1-2.6 2.3-2.8" clip-rule="evenodd" opacity=".5"/><path fill="#bdbebe" fill-rule="evenodd" d="M15.855 399.498a5.112 5.112 0 1 1 7.23 7.23l-2.977 2.977a.901.901 0 1 1-1.276-1.276l2.977-2.977a3.309 3.309 0 0 0-4.678-4.679l-2.978 2.978a.903.903 0 0 1-1.276-1.276zm3.19 4.04a.9.9 0 0 1 0 1.276l-7.23 7.231a.903.903 0 0 1-1.277-1.276l7.23-7.231a.903.903 0 0 1 1.277 0m-8.294 2.339a.9.9 0 0 1 0 1.276l-2.978 2.978a3.308 3.308 0 1 0 4.679 4.678l2.977-2.977a.903.903 0 0 1 1.276 1.276l-2.977 2.977a5.112 5.112 0 1 1-7.23-7.23l2.977-2.978a.903.903 0 0 1 1.276 0" clip-rule="evenodd"/><path fill="#fff" fill-rule="evenodd" d="M43.855 399.498a5.112 5.112 0 1 1 7.23 7.23l-2.977 2.977a.901.901 0 1 1-1.276-1.276l2.977-2.977a3.309 3.309 0 0 0-4.678-4.679l-2.978 2.978a.903.903 0 0 1-1.276-1.276zm3.19 4.04a.9.9 0 0 1 0 1.276l-7.23 7.231a.903.903 0 0 1-1.277-1.276l7.23-7.231a.903.903 0 0 1 1.277 0m-8.294 2.339a.9.9 0 0 1 0 1.276l-2.977 2.978a3.307 3.307 0 1 0 4.678 4.678l2.977-2.977a.903.903 0 0 1 1.276 1.276l-2.977 2.977a5.112 5.112 0 1 1-7.23-7.23l2.977-2.978a.903.903 0 0 1 1.276 0M24.28 425.22a.75.75 0 0 1 0 1.06l-12.53 12.531-6.53-6.531a.75.75 0 1 1 1.06-1.06l5.47 5.469 11.47-11.469a.75.75 0 0 1 1.06 0" clip-rule="evenodd"/></svg>