<svg xmlns="http://www.w3.org/2000/svg" xml:space="preserve" id="social" width="56" height="280" x="0" y="0" preserveAspectRatio="none" viewBox="0 0 56 280"><style>.st0{fill:none}.st0,.st1{stroke:#00a2ff;stroke-width:2;stroke-linecap:round;stroke-linejoin:round;stroke-miterlimit:10}.st1,.st2{fill:#00a2ff}</style><g id="acceptfriend-on"><path d="m44 274 3 3 6-6" class="st0"/><circle cx="42" cy="260" r="5" class="st1"/><path d="M42 277c-4.9 0-8-2-8-2s1-5 2-6 6-1 6-1 5 0 6 1c.2.2.4.6.6 1l-1.6 2-3-3-5 5z" class="st1"/></g><g id="acceptfriend"><path d="m16 274 3 3 6-6" class="st0"/><circle cx="14" cy="260" r="5" class="st0"/><path d="M14 277c-4.9 0-8-2-8-2s1-5 2-6 6-1 6-1 5 0 6 1c.2.2.4.6.6 1" class="st0"/></g><path id="share-on" d="M49 241c-1.4 0-2.6.7-3.3 1.7l-6.9-3.5c.1-.4.2-.8.2-1.3s-.1-.9-.2-1.3l6.9-3.5c.7 1 1.9 1.7 3.3 1.7 2.2 0 4-1.8 4-4s-1.8-4-4-4-4 1.8-4 4v.4l-7.4 3.7c-.7-.6-1.6-1-2.7-1-2.2 0-4 1.8-4 4s1.8 4 4 4c1 0 2-.4 2.7-1l7.4 3.7v.4c0 2.2 1.8 4 4 4s4-1.8 4-4-1.8-4-4-4" class="st2"/><path id="share_1_" d="M21 241c-1.4 0-2.6.7-3.3 1.7l-6.9-3.5c.1-.4.2-.8.2-1.3s-.1-.9-.2-1.3l6.9-3.5c.7 1 1.9 1.7 3.3 1.7 2.2 0 4-1.8 4-4s-1.8-4-4-4-4 1.8-4 4v.4L9.7 235c-.7-.6-1.7-1-2.7-1-2.2 0-4 1.8-4 4s1.8 4 4 4c1 0 2-.4 2.7-1l7.4 3.7v.4c0 2.2 1.8 4 4 4s4-1.8 4-4-1.9-4.1-4.1-4.1m0-12c1.1 0 2 .9 2 2s-.9 2-2 2-2-.9-2-2 .9-2 2-2M7 240c-1.1 0-2-.9-2-2s.9-2 2-2 2 .9 2 2-.9 2-2 2m14 7c-1.1 0-2-.9-2-2s.9-2 2-2 2 .9 2 2-.9 2-2 2" class="st2"/><path id="chat-on" d="M54 200v14c0 .6-.4 1-1 1h-8.4l-4.8 5.6c-.2.2-.5.4-.8.4-.1 0-.2 0-.3-.1-.4-.1-.7-.5-.7-.9v-5h-7c-.6 0-1-.4-1-1v-14c0-.6.4-1 1-1h22c.6 0 1 .4 1 1m-16 7c0-1.1-.9-2-2-2s-2 .9-2 2 .9 2 2 2 2-.9 2-2m6 0c0-1.1-.9-2-2-2s-2 .9-2 2 .9 2 2 2 2-.9 2-2m6 0c0-1.1-.9-2-2-2s-2 .9-2 2 .9 2 2 2 2-.9 2-2" class="st2"/><g id="chat"><path d="M11 221c-.1 0-.2 0-.3-.1-.4-.1-.7-.5-.7-.9v-5H3c-.6 0-1-.4-1-1v-14c0-.6.4-1 1-1h22c.6 0 1 .4 1 1v14c0 .6-.4 1-1 1h-8.4l-4.8 5.6c-.2.3-.5.4-.8.4m-7-8h7c.6 0 1 .4 1 1v3.3l3.4-3.9c.2-.2.5-.4.8-.4H24v-12H4z" class="st2"/><circle cx="8" cy="207" r="2" class="st2"/><circle cx="14" cy="207" r="2" class="st2"/><circle cx="20" cy="207" r="2" class="st2"/></g><g id="trade-on"><path d="m53.3 179.3-8.6-8.6c-.4-.4-.7-.3-.7.3v2c0 .5-.5 1-1 1h-4c-.5 0-1.3.3-1.7.7l-2.6 2.6c-.4.4-.7 1.2-.7 1.7v3c0 .5.4.7.8.4l2.4-1.8c.4-.3 1.2-.6 1.8-.6h14c.5 0 .7-.3.3-.7M49.2 181.6l-2.4 1.8c-.4.3-1.2.6-1.8.6H31c-.5 0-.7.3-.3.7l8.6 8.6c.4.4.7.3.7-.3v-2c0-.5.5-1 1-1h4c.5 0 1.3-.3 1.7-.7l2.6-2.6c.4-.4.7-1.2.7-1.7v-3c0-.5-.4-.7-.8-.4" class="st2"/></g><g id="trade"><path d="M6 183c-.2 0-.3 0-.4-.1q-.6-.3-.6-.9v-5c0-.3.1-.6.4-.8l4-3c.2-.1.4-.2.6-.2h5v-2c0-.4.2-.8.6-.9.4-.2.8-.1 1.1.2l9 8c.3.3.4.7.3 1.1s-.6.6-1 .6H10.3l-3.7 2.8c-.2.1-.4.2-.6.2m1-5.5v2.5l2.4-1.8c.2-.1.4-.2.6-.2h12.4l-5.4-4.8v.8c0 .6-.4 1-1 1h-5.7zM12 194c-.2 0-.5-.1-.7-.3l-9-8c-.3-.3-.4-.7-.3-1.1s.6-.6 1-.6h14.7l3.7-2.8c.3-.2.7-.3 1-.1s.6.5.6.9v5c0 .3-.1.6-.4.8l-4 3c-.2.1-.4.2-.6.2h-5v2c0 .4-.2.8-.6.9-.1.1-.3.1-.4.1m-6.4-8 5.4 4.8v-.8c0-.6.4-1 1-1h5.7l3.3-2.5V184l-2.4 1.8c-.2.1-.4.2-.6.2z" class="st2"/></g><path id="blog-on" d="m51.1 144.4-12.2 6.1c-.5.2-1.3.4-1.9.4s-1.4-.1-2-.2l-2.1-.5c-.5-.1-1 .2-1 .8v7c0 .5.4.9 1 .8l2.1-.5c.3-.1.6-.1 1-.2v2.9q0 .6.6.9l6 3c.1.1.3.1.4.1q.6 0 .9-.6l1.6-3.2 5.6 2.4c.5.2.9-.1.9-.6v-18c0-.5-.4-.8-.9-.6m-8.5 18.3-4.6-2.3v-2.3c.3.1.7.2.9.3l4.7 2z" class="st2"/><g id="blog"><path d="M23 164c-.1 0-.3 0-.4-.1L8.8 158H7.2l-1.8.9c-.3.2-.7.1-1 0-.2-.2-.4-.6-.4-.9v-7c0-.3.2-.7.5-.9s.7-.2 1 0l1.8.9h1.5l13.8-6.9c.3-.2.7-.1 1 0 .3.2.5.5.5.9v18c0 .3-.2.6-.4.8-.3.1-.5.2-.7.2m-16-8h2c.1 0 .3 0 .4.1l12.6 5.4v-14.9l-12.6 6.3c-.1.1-.2.1-.4.1H7c-.2 0-.3 0-.4-.1l-.6-.3v3.8l.6-.3c.1-.1.2-.1.4-.1" class="st2"/><path d="M14 165c-.1 0-.3 0-.4-.1l-6-3q-.6-.3-.6-.9v-3c0-.6.4-1 1-1s1 .4 1 1v2.4l4.6 2.3 1.6-3.1c.2-.5.8-.7 1.3-.4.5.2.7.8.4 1.3l-2 4c-.2.3-.5.5-.9.5" class="st2"/></g><g id="forum-on"><path d="M49 129v-12c0-.5-.5-1-1-1H31c-.5 0-1 .5-1 1v12c0 .5.5 1 1 1h3.2l5.1 4.3c.4.4.8.2.8-.3v-4h8c.4 0 .9-.5.9-1" class="st2"/><path d="M53 124h-2c-.5 0-1 .5-1 1v5c0 .5-.5 1-1 1h-6c-.5 0-1 .5-1 1s.5 1 1 1h2v2c0 .5.4.8.8.4l3.7-2.4H53c.5 0 1-.5 1-1v-7c0-.5-.5-1-1-1" class="st2"/></g><g id="forum"><path d="M18 136c-.1 0-.3 0-.4-.1q-.6-.3-.6-.9v-2h-2c-.6 0-1-.4-1-1s.4-1 1-1h3c.6 0 1 .4 1 1v.9l2-1.6c.2-.1.4-.2.6-.2H24v-5h-1c-.6 0-1-.4-1-1s.4-1 1-1h2c.6 0 1 .4 1 1v7c0 .6-.4 1-1 1h-3l-3.3 2.8c-.2 0-.5.1-.7.1" class="st2"/><path d="M11 135c-.3 0-.5-.1-.7-.3L5.6 130H3c-.6 0-1-.4-1-1v-12c0-.6.4-1 1-1h17c.6 0 1 .4 1 1v12c0 .6-.4 1-1 1h-8v4c0 .4-.2.8-.6.9-.1.1-.3.1-.4.1m-7-7h2c.3 0 .5.1.7.3l3.3 3.3V129c0-.6.4-1 1-1h8v-10H4z" class="st2"/></g><g id="group-on"><path d="M33.2 104c-.4-.1-.8-.3-1.1-.5.3-1.4.7-2.7.9-2.9.4-.3 2.7-1.6 3.2-1.7h.1c.1 0 .1 0 .2-.1.1 0 .1-.1.2-.1l.1-.1s.1-.1.1-.2.1-.1.1-.2v-.6c0-.1 0-.1-.1-.2 0-.1-.1-.1-.1-.2l-.1-.1s-.1-.1-.2-.1-.1-.1-.2-.1H36c-1.1 0-2-.9-2-2 0-.8.5-1.6 1.3-1.9.5-.2.8-.8.6-1.3s-.8-.8-1.3-.6c-1.5.7-2.6 2.2-2.6 3.9 0 1.2.6 2.3 1.4 3.1-.9.5-1.6.9-1.8 1.1-.8.8-1.3 3.2-1.6 4.6-.1.4.1.7.3 1 .1.1 1.1.9 2.4 1.2h.2c.5 0 .9-.3 1-.8.2-.5-.2-1.1-.7-1.2M54 103.8c-.3-1.4-.8-3.9-1.6-4.6-.2-.2-1-.7-1.8-1.1.9-.7 1.4-1.8 1.4-3.1 0-1.7-1.1-3.2-2.7-3.8-.5-.2-1.1.1-1.3.6s.1 1.1.6 1.3c.8.3 1.3 1 1.3 1.9 0 1.1-.9 2-2 2h-.3c-.1 0-.1.1-.2.1 0 0-.1 0-.1.1l-.2.2s0 .1-.1.1c-.1.1-.1.2-.1.3v.4c0 .1.1.2.1.3.1.1.1.2.2.2 0 0 .1 0 .1.1.1 0 .1.1.2.1h.1c.5.1 2.8 1.3 3.1 1.6.2.3.6 1.6.9 3-.3.2-.7.4-1.1.5-.5.1-.9.6-.8 1.2.1.5.5.8 1 .8h.2c1.3-.3 2.3-1.1 2.4-1.2.6-.3.7-.6.7-1" class="st2"/><circle cx="42" cy="93" r="5" class="st2"/><path d="M42 100c-.6 0-5.3.3-6 1-.6.6-.9 4-1 5.4 0 .4.2.8.5.9 1.1.6 3.6 1.7 6.4 1.7s5.4-1.1 6.4-1.7c.3-.2.6-.5.5-.9-.1-1.4-.4-4.8-1-5.4-.5-.7-5.2-1-5.8-1" class="st2"/></g><g id="group"><path d="M14 98c-2.8 0-5-2.2-5-5s2.2-5 5-5 5 2.2 5 5-2.2 5-5 5m0-8c-1.7 0-3 1.3-3 3s1.3 3 3 3 3-1.3 3-3-1.3-3-3-3M14 109c-4.2 0-6.6-2.2-6.7-2.3-.2-.2-.3-.5-.3-.8.1-1.7.4-4.7 1.3-5.7s3.9-1.2 5.7-1.3h.1c1.7.1 4.7.4 5.7 1.3s1.2 3.9 1.3 5.7c0 .3-.1.6-.3.8-.2.1-2.6 2.3-6.8 2.3m-5-3.5c.7.5 2.4 1.5 5 1.5s4.3-1 5-1.5c-.1-1.8-.4-3.5-.7-3.9-.3-.2-2.4-.6-4.3-.7-1.9.1-3.9.4-4.3.7-.2.4-.5 2.2-.7 3.9M8 99c-2.2 0-4-1.8-4-4 0-1.7 1.1-3.2 2.7-3.8.5-.2 1.1.1 1.3.6s-.1 1.1-.6 1.3C6.5 93.4 6 94.2 6 95c0 1.1.9 2 2 2 .6 0 1 .4 1 1s-.4 1-1 1" class="st2"/><path d="M5 106h-.2c-1.3-.3-2.3-1.1-2.4-1.2-.3-.2-.4-.6-.3-1 .3-1.4.8-3.9 1.6-4.6.4-.4 3.3-2 4.2-2.2.5-.1 1.1.3 1.2.8s-.4 1.1-.9 1.2-2.8 1.3-3.2 1.7c-.2.2-.6 1.5-.9 2.9.3.2.7.4 1.1.5.5.1.9.6.8 1.2-.1.4-.5.7-1 .7M20 99c-.6 0-1-.4-1-1s.4-1 1-1c1.1 0 2-.9 2-2 0-.8-.5-1.6-1.3-1.9-.5-.2-.8-.8-.6-1.3s.8-.8 1.3-.6c1.6.6 2.7 2.1 2.7 3.8-.1 2.2-1.9 4-4.1 4" class="st2"/><path d="M23 106c-.5 0-.9-.3-1-.8s.2-1.1.8-1.2c.4-.1.8-.3 1.1-.5-.3-1.4-.7-2.7-.9-3-.4-.3-2.6-1.5-3.1-1.6s-.9-.6-.8-1.2c.1-.5.6-.9 1.1-.8.9.2 3.8 1.8 4.2 2.2.8.8 1.3 3.2 1.6 4.6.1.4-.1.7-.3 1-.1.1-1.1.9-2.4 1.2-.2.1-.2.1-.3.1" class="st2"/></g><g id="friends-on"><path d="M51.7 71.3c-.2-.2-1.4-1.2-2.6-1.9 1.2-1.1 1.9-2.7 1.9-4.4 0-2.8-2-5.3-4.8-5.9-.5-.1-1.1.2-1.2.8-.1.5.2 1.1.8 1.2 1.9.4 3.2 2 3.2 3.9 0 1.6-.9 3-2.4 3.7 0 0-.1 0-.1.1-.1 0-.1.1-.2.1l-.1.1c0 .1-.1.1-.1.2s0 .1-.1.2v.7c0 .1.1.1.1.2v.1c.1.1.2.2.3.2h.1c.1 0 .2.1.3.1h.1c.8.1 2.8 1.6 3.4 2.1.4.4 1.2 2.8 1.6 5-.4.4-1.1 1-2.2 1.3-.5.2-.8.7-.7 1.2.1.4.5.7 1 .7h.3c2.2-.7 3.5-2.3 3.5-2.4.2-.2.2-.5.2-.8-.3-1.2-1.2-5.4-2.3-6.5" class="st2"/><circle cx="39" cy="64" r="6" class="st2"/><path d="M46 73c-1-1-7-1-7-1s-6 0-7 1c-.8.8-1.6 4.6-1.9 6.2-.1.5.2.9.6 1.1 1.4.6 4.6 1.7 8.3 1.7s6.9-1.1 8.3-1.7c.4-.2.7-.6.6-1.1-.3-1.6-1.1-5.4-1.9-6.2" class="st2"/></g><g id="friends"><path d="M11 70c-3.3 0-6-2.7-6-6s2.7-6 6-6 6 2.7 6 6-2.7 6-6 6m0-10c-2.2 0-4 1.8-4 4s1.8 4 4 4 4-1.8 4-4-1.8-4-4-4M19 70.6c-.4 0-.8-.2-.9-.6-.2-.5 0-1.1.5-1.3C20.1 68 21 66.6 21 65c0-1.9-1.3-3.5-3.2-3.9-.5-.1-.9-.6-.8-1.2.1-.5.6-.9 1.2-.8 2.8.6 4.8 3 4.8 5.9 0 2.4-1.4 4.5-3.6 5.5-.1.1-.3.1-.4.1M11 82c-5.2 0-8.4-2.1-8.5-2.2-.3-.2-.5-.6-.4-1 .2-1.2 1.1-5.4 2.3-6.5 1.1-1.2 5-1.3 6.6-1.3s5.5.1 6.7 1.3c1.1 1.1 2 5.3 2.3 6.5.1.4-.1.8-.4 1-.2.1-3.4 2.2-8.6 2.2m-6.9-3.5C5.2 79 7.6 80 11 80s5.8-1 6.9-1.5c-.5-2.1-1.2-4.3-1.6-4.8-.4-.4-2.9-.7-5.3-.7s-4.9.3-5.3.7-1.1 2.7-1.6 4.8" class="st2"/><path d="M22 81c-.4 0-.8-.3-1-.7-.2-.5.1-1.1.7-1.2 1.1-.3 1.8-1 2.2-1.3-.5-2.2-1.2-4.6-1.6-5-.6-.6-2.6-2-3.4-2.1-.5-.1-.9-.6-.9-1.1.1-.5.5-1 1.1-.9 1.7.2 4.3 2.4 4.6 2.7 1.1 1.1 2 5.3 2.3 6.5.1.3 0 .6-.2.8-.1.1-1.3 1.7-3.5 2.4-.1-.1-.2-.1-.3-.1" class="st2"/></g><g id="addfriend-on"><circle cx="42" cy="36" r="6" class="st2"/><path d="M46 51h-2c-.6 0-1-.4-1-1v-2c0-.6.4-1 1-1h2c.6 0 1-.4 1-1v-1c-1.6-1-5-1-5-1s-6 0-7 1-2 7-2 7 4.1 2 9 2c1.1 0 3.1 0 5-1v-1c0-.6-.4-1-1-1" class="st2"/><path d="M53 48h-3v-3c0-.6-.4-1-1-1s-1 .4-1 1v3h-3c-.6 0-1 .4-1 1s.4 1 1 1h3v3c0 .6.4 1 1 1s1-.4 1-1v-3h3c.6 0 1-.4 1-1s-.4-1-1-1" class="st2"/></g><g id="addfriend"><path d="M14 42c-3.3 0-6-2.7-6-6s2.7-6 6-6 6 2.7 6 6-2.7 6-6 6m0-10c-2.2 0-4 1.8-4 4s1.8 4 4 4 4-1.8 4-4-1.8-4-4-4M14 54c-5.2 0-8.4-2.1-8.5-2.2-.3-.2-.5-.6-.4-1 .2-1.2 1.1-5.4 2.3-6.5 1.1-1.2 5-1.3 6.6-1.3.1 0 1.6 0 3.1.2.5.1.9.6.9 1.1s-.6.9-1.1.9C15.5 45 14 45 14 45c-2.4 0-4.8.3-5.3.7-.4.4-1.1 2.7-1.6 4.8C8.2 51 10.6 52 14 52c1 0 1.9-.1 2.8-.2.5-.1 1.1.3 1.2.8s-.3 1.1-.8 1.2c-1.1.1-2.1.2-3.2.2" class="st2"/><path d="M25 50h-8c-.6 0-1-.4-1-1s.4-1 1-1h8c.6 0 1 .4 1 1s-.4 1-1 1" class="st2"/><path d="M21 54c-.6 0-1-.4-1-1v-8c0-.6.4-1 1-1s1 .4 1 1v8c0 .6-.4 1-1 1" class="st2"/></g><path id="message-on" d="M53 3H31c-.5 0-1 .5-1 1v16c0 .5.5 1 1 1h7l3.3 3.3c.4.4 1 .4 1.4 0L46 21h7c.5 0 1-.5 1-1V4c0-.5-.5-1-1-1m-5 12H36c-.6 0-1-.4-1-1s.4-1 1-1h12c.6 0 1 .4 1 1s-.4 1-1 1m0-4H36c-.6 0-1-.4-1-1s.4-1 1-1h12c.6 0 1 .4 1 1s-.4 1-1 1" class="st2"/><g id="message"><path d="M14 25c-.3 0-.5-.1-.7-.3L9.6 21H3c-.6 0-1-.4-1-1V4c0-.6.4-1 1-1h22c.6 0 1 .4 1 1v16c0 .6-.4 1-1 1h-6.6l-3.7 3.7c-.2.2-.4.3-.7.3M4 19h6c.3 0 .5.1.7.3l3.3 3.3 3.3-3.3c.2-.2.4-.3.7-.3h6V5H4z" class="st2"/><path d="M20 11H8c-.6 0-1-.4-1-1s.4-1 1-1h12c.6 0 1 .4 1 1s-.4 1-1 1M20 15H8c-.6 0-1-.4-1-1s.4-1 1-1h12c.6 0 1 .4 1 1s-.4 1-1 1" class="st2"/></g></svg>