<svg xmlns="http://www.w3.org/2000/svg" xml:space="preserve" id="label" width="123" height="450" x="0" y="0" preserveAspectRatio="none" viewBox="0 0 123 450"><style>.st0{fill:#191919}.st1{fill:#fff}.st2{fill:#757575}.st3{fill:#02b757}.st4{fill:#ffe000}.st5{fill:#f68802}.st6{fill:#00a2ff}.st7{fill:#393b3d}.st8{enable-background:new}</style><g id="ltd-u-obc-13_1_"><path d="M88 412H54l-8-14h34z" class="st0"/><path d="M57.6 405c0-2.5 1.4-4 3.5-4 2 0 3.5 1.5 3.5 4s-1.4 4.1-3.5 4.1-3.5-1.5-3.5-4.1m5.5 0c0-1.8-.8-2.8-2-2.8s-2 1.1-2 2.8c0 1.8.8 2.9 2 2.9s2-1.1 2-2.9M65.9 401.2h2.5c1.6 0 2.8.5 2.8 1.9 0 .7-.4 1.5-1.3 1.7 1.1.2 1.8.8 1.8 1.9 0 1.6-1.3 2.3-3 2.3H66zm2.4 3.2c1.1 0 1.6-.4 1.6-1.2 0-.7-.5-1-1.5-1h-1v2.2zm.2 3.5c1.2 0 1.8-.4 1.8-1.3q0-1.2-1.8-1.2h-1.2v2.5zM76.1 401c1 0 1.7.5 2.2 1l-.8.9q-.6-.6-1.5-.6c-1.3 0-2.2 1.1-2.2 2.8 0 1.8.9 2.9 2.2 2.9.7 0 1.2-.3 1.7-.8l.8.9c-.6.7-1.5 1.1-2.4 1.1-2 0-3.6-1.4-3.6-4 0-2.7 1.6-4.2 3.6-4.2" class="st1"/><path d="M120 412H90l-8-14h30z" class="st2"/><path d="M93.9 407.9h1.7v-5h-1.4v-.9c.8-.1 1.3-.3 1.8-.6h1v6.5h1.5v1.1h-4.6zM100 407.2c.5.5 1 .8 1.8.8s1.4-.4 1.4-1.2-.5-1.3-2.2-1.3v-1c1.5 0 2-.5 2-1.2 0-.6-.4-1-1.1-1-.6 0-1.1.3-1.5.7l-.7-.9c.6-.6 1.4-1 2.3-1 1.5 0 2.5.7 2.5 2 0 .9-.5 1.4-1.3 1.8.9.2 1.6.9 1.6 1.9 0 1.4-1.2 2.2-2.7 2.2-1.2 0-2.1-.5-2.6-1.1zM107.6 405.5h-2.1v-1h2.1v-2.3h1v2.3h2.1v1h-2.1v2.3h-1z" class="st1"/><path d="M34 412H2v-14h24z" class="st3"/><path d="M6 401.2h1.4v6.7h3.2v1.2H6zM13.4 402.3h-2.3v-1.2H17v1.2h-2.3v6.7h-1.4zM18.2 401.2h2.1c2.4 0 3.8 1.3 3.8 3.9s-1.4 4-3.8 4h-2.2v-7.9zm2 6.7c1.6 0 2.5-.9 2.5-2.8s-.9-2.8-2.5-2.8h-.6v5.6z" class="st1"/><path d="M52 412H34l-8-14h18z" class="st4"/><path d="M35.9 401.2h1.4v4.5c0 1.7.6 2.3 1.6 2.3s1.6-.6 1.6-2.3v-4.5h1.3v4.4c0 2.6-1.2 3.6-3 3.6s-3-1-3-3.6v-4.4z" class="st0"/></g><g id="ltd-u-tbc-13_1_"><path d="M88 394H54l-8-14h34z" class="st5"/><path d="M59.6 384.3h-2.3v-1.2h5.9v1.2H61v6.7h-1.4zM64.4 383.2h2.5c1.6 0 2.8.5 2.8 1.9 0 .7-.4 1.5-1.3 1.7 1.1.2 1.8.8 1.8 1.9 0 1.6-1.3 2.3-3 2.3h-2.7v-7.8zm2.3 3.2c1.1 0 1.6-.4 1.6-1.2 0-.7-.5-1-1.5-1h-1v2.2zm.2 3.5c1.2 0 1.8-.4 1.8-1.3q0-1.2-1.8-1.2h-1.2v2.5zM74.5 383c1 0 1.7.5 2.2 1l-.8.9q-.6-.6-1.5-.6c-1.3 0-2.2 1.1-2.2 2.8 0 1.8.9 2.9 2.2 2.9.7 0 1.2-.3 1.7-.8l.8.9c-.6.7-1.5 1.1-2.4 1.1-2 0-3.6-1.4-3.6-4 0-2.7 1.6-4.2 3.6-4.2" class="st1"/><path d="M120 394H90l-8-14h30z" class="st2"/><path d="M93.9 389.9h1.7v-5h-1.4v-.9c.8-.1 1.3-.3 1.8-.6h1v6.5h1.5v1.1h-4.6zM100 389.2c.5.5 1 .8 1.8.8s1.4-.4 1.4-1.2-.5-1.3-2.2-1.3v-1c1.5 0 2-.5 2-1.2 0-.6-.4-1-1.1-1-.6 0-1.1.3-1.5.7l-.7-.9c.6-.6 1.4-1 2.3-1 1.5 0 2.5.7 2.5 2 0 .9-.5 1.4-1.3 1.8.9.2 1.6.9 1.6 1.9 0 1.4-1.2 2.2-2.7 2.2-1.2 0-2.1-.5-2.6-1.1zM107.6 387.5h-2.1v-1h2.1v-2.3h1v2.3h2.1v1h-2.1v2.3h-1z" class="st1"/><path d="M34 394H2v-14h24z" class="st3"/><path d="M6 383.2h1.4v6.7h3.2v1.2H6zM13.4 384.3h-2.3v-1.2H17v1.2h-2.3v6.7h-1.4zM18.2 383.2h2.1c2.4 0 3.8 1.3 3.8 3.9s-1.4 4-3.8 4h-2.2v-7.9zm2 6.7c1.6 0 2.5-.9 2.5-2.8s-.9-2.8-2.5-2.8h-.6v5.6z" class="st1"/><path d="M52 394H34l-8-14h18z" class="st4"/><path d="M35.9 383.2h1.4v4.5c0 1.7.6 2.3 1.6 2.3s1.6-.6 1.6-2.3v-4.5h1.3v4.4c0 2.6-1.2 3.6-3 3.6s-3-1-3-3.6v-4.4z" class="st0"/></g><g id="ltd-u-bc-13_1_"><path d="M80 376H54l-8-14h26z" class="st6"/><path d="M58 365.2h2.5c1.6 0 2.8.5 2.8 1.9 0 .7-.4 1.5-1.3 1.7 1.1.2 1.8.8 1.8 1.9 0 1.6-1.3 2.3-3 2.3H58zm2.4 3.2c1.1 0 1.6-.4 1.6-1.2 0-.7-.5-1-1.5-1h-1v2.2zm.1 3.5c1.2 0 1.8-.4 1.8-1.3q0-1.2-1.8-1.2h-1.2v2.5zM68.2 365c1 0 1.7.5 2.2 1l-.8.9q-.6-.6-1.5-.6c-1.3 0-2.2 1.1-2.2 2.8 0 1.8.9 2.9 2.2 2.9.7 0 1.2-.3 1.7-.8l.8.9c-.6.7-1.5 1.1-2.4 1.1-2 0-3.6-1.4-3.6-4-.1-2.7 1.6-4.2 3.6-4.2" class="st1"/><path d="M112 376H82l-8-14h30z" class="st2"/><path d="M85.9 371.9h1.7v-5h-1.4v-.9c.8-.1 1.3-.3 1.8-.6h1v6.5h1.5v1.1h-4.6zM92 371.2c.5.5 1 .8 1.8.8s1.4-.4 1.4-1.2-.5-1.3-2.2-1.3v-1c1.5 0 2-.5 2-1.2 0-.6-.4-1-1.1-1-.6 0-1.1.3-1.5.7l-.7-.9c.6-.6 1.4-1 2.3-1 1.5 0 2.5.7 2.5 2 0 .9-.5 1.4-1.3 1.8.9.2 1.6.9 1.6 1.9 0 1.4-1.2 2.2-2.7 2.2-1.2 0-2.1-.5-2.6-1.1zM99.6 369.5h-2.1v-1h2.1v-2.3h1v2.3h2.1v1h-2.1v2.3h-1z" class="st1"/><path d="M34 376H2v-14h24z" class="st3"/><path d="M6 365.2h1.4v6.7h3.2v1.2H6zM13.4 366.3h-2.3v-1.2H17v1.2h-2.3v6.7h-1.4zM18.2 365.2h2.1c2.4 0 3.8 1.3 3.8 3.9s-1.4 4-3.8 4h-2.2v-7.9zm2 6.7c1.6 0 2.5-.9 2.5-2.8s-.9-2.8-2.5-2.8h-.6v5.6z" class="st1"/><path d="M52 376H34l-8-14h18z" class="st4"/><path d="M35.9 365.2h1.4v4.5c0 1.7.6 2.3 1.6 2.3s1.6-.6 1.6-2.3v-4.5h1.3v4.4c0 2.6-1.2 3.6-3 3.6s-3-1-3-3.6v-4.4z" class="st0"/></g><g id="ltd-u-13"><path d="M84 358H54l-8-14h30z" class="st2"/><path d="M57.9 353.9h1.7v-5h-1.4v-.9c.8-.1 1.3-.3 1.8-.6h1v6.5h1.5v1.1h-4.6zM64 353.2c.5.5 1 .8 1.8.8s1.4-.4 1.4-1.2-.5-1.3-2.2-1.3v-1c1.5 0 2-.5 2-1.2 0-.6-.4-1-1.1-1-.6 0-1.1.3-1.5.7l-.7-.9c.6-.6 1.4-1 2.3-1 1.5 0 2.5.7 2.5 2 0 .9-.5 1.4-1.3 1.8.9.2 1.6.9 1.6 1.9 0 1.4-1.2 2.2-2.7 2.2-1.2 0-2.1-.5-2.6-1.1zM71.6 351.5h-2.1v-1h2.1v-2.3h1v2.3h2.1v1h-2.1v2.3h-1z" class="st1"/><path d="M34 358H2v-14h24z" class="st3"/><path d="M6 347.2h1.4v6.7h3.2v1.2H6zM13.4 348.3h-2.3v-1.2H17v1.2h-2.3v6.7h-1.4zM18.2 347.2h2.1c2.4 0 3.8 1.3 3.8 3.9s-1.4 4-3.8 4h-2.2v-7.9zm2 6.7c1.6 0 2.5-.9 2.5-2.8s-.9-2.8-2.5-2.8h-.6v5.6z" class="st1"/><path d="M52 358H34l-8-14h18z" class="st4"/><path d="M35.9 347.2h1.4v4.5c0 1.7.6 2.3 1.6 2.3s1.6-.6 1.6-2.3v-4.5h1.3v4.4c0 2.6-1.2 3.6-3 3.6s-3-1-3-3.6v-4.4z" class="st0"/></g><g id="ltd-obc-13"><path d="M70 340H36l-8-14h34z" class="st0"/><path d="M39.6 333c0-2.5 1.4-4 3.5-4 2 0 3.5 1.5 3.5 4s-1.4 4.1-3.5 4.1-3.5-1.5-3.5-4.1m5.5 0c0-1.8-.8-2.8-2-2.8s-2 1.1-2 2.8c0 1.8.8 2.9 2 2.9s2-1.1 2-2.9M47.9 329.2h2.5c1.6 0 2.8.5 2.8 1.9 0 .7-.4 1.5-1.3 1.7 1.1.2 1.8.8 1.8 1.9 0 1.6-1.3 2.3-3 2.3H48zm2.4 3.2c1.1 0 1.6-.4 1.6-1.2 0-.7-.5-1-1.5-1h-1v2.2zm.2 3.5c1.2 0 1.8-.4 1.8-1.3q0-1.2-1.8-1.2h-1.2v2.5zM58.1 329c1 0 1.7.5 2.2 1l-.8.9q-.6-.6-1.5-.6c-1.3 0-2.2 1.1-2.2 2.8 0 1.8.9 2.9 2.2 2.9.7 0 1.2-.3 1.7-.8l.8.9c-.6.7-1.5 1.1-2.4 1.1-2 0-3.6-1.4-3.6-4 0-2.7 1.6-4.2 3.6-4.2" class="st1"/><path d="M102 340H72l-8-14h30z" class="st2"/><path d="M75.9 335.9h1.7v-5h-1.4v-.9c.8-.1 1.3-.3 1.8-.6h1v6.5h1.5v1.1h-4.6zM82 335.2c.5.5 1 .8 1.8.8s1.4-.4 1.4-1.2-.5-1.3-2.2-1.3v-1c1.5 0 2-.5 2-1.2 0-.6-.4-1-1.1-1-.6 0-1.1.3-1.5.7l-.7-.9c.6-.6 1.4-1 2.3-1 1.5 0 2.5.7 2.5 2 0 .9-.5 1.4-1.3 1.8.9.2 1.6.9 1.6 1.9 0 1.4-1.2 2.2-2.7 2.2-1.2 0-2.1-.5-2.6-1.1zM89.6 333.5h-2.1v-1h2.1v-2.3h1v2.3h2.1v1h-2.1v2.3h-1z" class="st1"/><g id="ltd_3_"><path d="M34 340H2v-14h24z" class="st3"/><path d="M6 329.2h1.4v6.7h3.2v1.2H6zM13.4 330.3h-2.3v-1.2H17v1.2h-2.3v6.7h-1.4zM18.2 329.2h2.1c2.4 0 3.8 1.3 3.8 3.9s-1.4 4-3.8 4h-2.2v-7.9zm2 6.7c1.6 0 2.5-.9 2.5-2.8s-.9-2.8-2.5-2.8h-.6v5.6z" class="st1"/></g></g><g id="ltd-tbc-13"><path d="M70 322H36l-8-14h34z" class="st5"/><path d="M41.6 312.3h-2.3v-1.2h5.9v1.2H43v6.7h-1.4zM46.4 311.2h2.5c1.6 0 2.8.5 2.8 1.9 0 .7-.4 1.5-1.3 1.7 1.1.2 1.8.8 1.8 1.9 0 1.6-1.3 2.3-3 2.3h-2.7zm2.3 3.2c1.1 0 1.6-.4 1.6-1.2 0-.7-.5-1-1.5-1h-1v2.2zm.2 3.5c1.2 0 1.8-.4 1.8-1.3q0-1.2-1.8-1.2h-1.2v2.5zM56.5 311c1 0 1.7.5 2.2 1l-.7.9q-.6-.6-1.5-.6c-1.3 0-2.2 1.1-2.2 2.8 0 1.8.9 2.9 2.2 2.9.7 0 1.2-.3 1.7-.8l.8.9c-.6.7-1.5 1.1-2.4 1.1-2 0-3.6-1.4-3.6-4-.1-2.7 1.5-4.2 3.5-4.2" class="st1"/><path d="M102 322H72l-8-14h30z" class="st2"/><path d="M75.9 317.9h1.7v-5h-1.4v-.9c.8-.1 1.3-.3 1.8-.6h1v6.5h1.5v1.1h-4.6zM82 317.2c.5.5 1 .8 1.8.8s1.4-.4 1.4-1.2-.5-1.3-2.2-1.3v-1c1.5 0 2-.5 2-1.2 0-.6-.4-1-1.1-1-.6 0-1.1.3-1.5.7l-.7-.9c.6-.6 1.4-1 2.3-1 1.5 0 2.5.7 2.5 2 0 .9-.5 1.4-1.3 1.8.9.2 1.6.9 1.6 1.9 0 1.4-1.2 2.2-2.7 2.2-1.2 0-2.1-.5-2.6-1.1zM89.6 315.5h-2.1v-1h2.1v-2.3h1v2.3h2.1v1h-2.1v2.3h-1z" class="st1"/><g id="ltd_2_"><path d="M34 322H2v-14h24z" class="st3"/><path d="M6 311.2h1.4v6.7h3.2v1.2H6zM13.4 312.3h-2.3v-1.2H17v1.2h-2.3v6.7h-1.4zM18.2 311.2h2.1c2.4 0 3.8 1.3 3.8 3.9s-1.4 4-3.8 4h-2.2v-7.9zm2 6.7c1.6 0 2.5-.9 2.5-2.8s-.9-2.8-2.5-2.8h-.6v5.6z" class="st1"/></g></g><g id="ltd-bc-13"><path d="M62 304H36l-8-14h26z" class="st6"/><path d="M40 293.2h2.5c1.6 0 2.8.5 2.8 1.9 0 .7-.4 1.5-1.3 1.7 1.1.2 1.8.8 1.8 1.9 0 1.6-1.3 2.3-3 2.3H40zm2.4 3.2c1.1 0 1.6-.4 1.6-1.2 0-.7-.5-1-1.5-1h-1v2.2zm.1 3.5c1.2 0 1.8-.4 1.8-1.3q0-1.2-1.8-1.2h-1.2v2.5zM50.2 293c1 0 1.7.5 2.2 1l-.8.9q-.6-.6-1.5-.6c-1.3 0-2.2 1.1-2.2 2.8 0 1.8.9 2.9 2.2 2.9.7 0 1.2-.3 1.7-.8l.8.9c-.6.7-1.5 1.1-2.4 1.1-2 0-3.6-1.4-3.6-4-.1-2.7 1.6-4.2 3.6-4.2" class="st1"/><path d="M94 304H64l-8-14h30z" class="st2"/><path d="M67.9 299.9h1.7v-5h-1.4v-.9c.8-.1 1.3-.3 1.8-.6h1v6.5h1.5v1.1h-4.6zM74 299.2c.5.5 1 .8 1.8.8s1.4-.4 1.4-1.2-.5-1.3-2.2-1.3v-1c1.5 0 2-.5 2-1.2 0-.6-.4-1-1.1-1-.6 0-1.1.3-1.5.7l-.7-.9c.6-.6 1.4-1 2.3-1 1.5 0 2.5.7 2.5 2 0 .9-.5 1.4-1.3 1.8.9.2 1.6.9 1.6 1.9 0 1.4-1.2 2.2-2.7 2.2-1.2 0-2.1-.5-2.6-1.1zM81.6 297.5h-2.1v-1h2.1v-2.3h1v2.3h2.1v1h-2.1v2.3h-1z" class="st1"/><g id="ltd_1_"><path d="M34 304H2v-14h24z" class="st3"/><path d="M6 293.2h1.4v6.7h3.2v1.2H6zM13.4 294.3h-2.3v-1.2H17v1.2h-2.3v6.7h-1.4zM18.2 293.2h2.1c2.4 0 3.8 1.3 3.8 3.9s-1.4 4-3.8 4h-2.2v-7.9zm2 6.7c1.6 0 2.5-.9 2.5-2.8s-.9-2.8-2.5-2.8h-.6v5.6z" class="st1"/></g></g><g id="ltd-13"><path d="M66 286H36l-8-14h30z" class="st2"/><path d="M39.9 281.9h1.7v-5h-1.4v-.9c.8-.1 1.3-.3 1.8-.6h1v6.5h1.5v1.1h-4.6zM46 281.2c.5.5 1 .8 1.8.8s1.4-.4 1.4-1.2-.5-1.3-2.2-1.3v-1c1.5 0 2-.5 2-1.2 0-.6-.4-1-1.1-1-.6 0-1.1.3-1.5.7l-.7-.9c.6-.6 1.4-1 2.3-1 1.5 0 2.5.7 2.5 2 0 .9-.5 1.4-1.3 1.8.9.2 1.6.9 1.6 1.9 0 1.4-1.2 2.2-2.7 2.2-1.2 0-2.1-.5-2.6-1.1zM53.6 279.5h-2.1v-1h2.1v-2.3h1v2.3h2.1v1h-2.1v2.3h-1z" class="st1"/><g id="ltd"><path d="M34 286H2v-14h24z" class="st3"/><path d="M6 275.2h1.4v6.7h3.2v1.2H6zM13.4 276.3h-2.3v-1.2H17v1.2h-2.3v6.7h-1.4zM18.2 275.2h2.1c2.4 0 3.8 1.3 3.8 3.9s-1.4 4-3.8 4h-2.2v-7.9zm2 6.7c1.6 0 2.5-.9 2.5-2.8s-.9-2.8-2.5-2.8h-.6v5.6z" class="st1"/></g></g><g id="_x31_3_x2B_-obc"><path d="M36 268H2v-14h26z" class="st0"/><path d="M5.6 261c0-2.5 1.4-4 3.5-4 2 0 3.5 1.5 3.5 4s-1.4 4.1-3.5 4.1-3.5-1.5-3.5-4.1m5.5 0c0-1.8-.8-2.8-2-2.8s-2 1.1-2 2.8c0 1.8.8 2.9 2 2.9s2-1.1 2-2.9M13.9 257.2h2.5c1.6 0 2.8.5 2.8 1.9 0 .7-.4 1.5-1.3 1.7 1.1.2 1.8.8 1.8 1.9 0 1.6-1.3 2.3-3 2.3H14zm2.4 3.2c1.1 0 1.6-.4 1.6-1.2 0-.7-.5-1-1.5-1h-1v2.2zm.2 3.5c1.2 0 1.8-.4 1.8-1.3q0-1.2-1.8-1.2h-1.2v2.5zM24.1 257c1 0 1.7.5 2.2 1l-.8.9q-.6-.6-1.5-.6c-1.3 0-2.2 1.1-2.2 2.8 0 1.8.9 2.9 2.2 2.9.7 0 1.2-.3 1.7-.8l.8.9c-.6.7-1.5 1.1-2.4 1.1-2 0-3.6-1.4-3.6-4 0-2.7 1.6-4.2 3.6-4.2" class="st1"/><path d="M68 268H38l-8-14h30z" class="st2"/><path d="M41.9 263.9h1.7v-5h-1.4v-.9c.8-.1 1.3-.3 1.8-.6h1v6.5h1.5v1.1h-4.6zM48 263.2c.5.5 1 .8 1.8.8s1.4-.4 1.4-1.2-.5-1.3-2.2-1.3v-1c1.5 0 2-.5 2-1.2 0-.6-.4-1-1.1-1-.6 0-1.1.3-1.5.7l-.7-.9c.6-.6 1.4-1 2.3-1 1.5 0 2.5.7 2.5 2 0 .9-.5 1.4-1.3 1.8.9.2 1.6.9 1.6 1.9 0 1.4-1.2 2.2-2.7 2.2-1.2 0-2.1-.5-2.6-1.1zM55.6 261.5h-2.1v-1h2.1v-2.3h1v2.3h2.1v1h-2.1v2.3h-1z" class="st1"/></g><g id="_x31_3_x2B_-tbc"><path d="M36 250H2v-14h26z" class="st5"/><path d="M7.6 240.3H5.3v-1.2h5.9v1.2H9v6.7H7.6zM12.4 239.2h2.5c1.6 0 2.8.5 2.8 1.9 0 .7-.4 1.5-1.3 1.7 1.1.2 1.8.8 1.8 1.9 0 1.6-1.3 2.3-3 2.3h-2.7zm2.3 3.2c1.1 0 1.6-.4 1.6-1.2 0-.7-.5-1-1.5-1h-1v2.2zm.2 3.5c1.2 0 1.8-.4 1.8-1.3q0-1.2-1.8-1.2h-1.2v2.5zM22.5 239c1 0 1.7.5 2.2 1l-.8.9q-.6-.6-1.5-.6c-1.3 0-2.2 1.1-2.2 2.8 0 1.8.9 2.9 2.2 2.9.7 0 1.2-.3 1.7-.8l.8.9c-.6.7-1.5 1.1-2.4 1.1-2 0-3.6-1.4-3.6-4 0-2.7 1.6-4.2 3.6-4.2" class="st1"/><path d="M68 250H38l-8-14h30z" class="st2"/><path d="M41.9 245.9h1.7v-5h-1.4v-.9c.8-.1 1.3-.3 1.8-.6h1v6.5h1.5v1.1h-4.6zM48 245.2c.5.5 1 .8 1.8.8s1.4-.4 1.4-1.2-.5-1.3-2.2-1.3v-1c1.5 0 2-.5 2-1.2 0-.6-.4-1-1.1-1-.6 0-1.1.3-1.5.7l-.7-.9c.6-.6 1.4-1 2.3-1 1.5 0 2.5.7 2.5 2 0 .9-.5 1.4-1.3 1.8.9.2 1.6.9 1.6 1.9 0 1.4-1.2 2.2-2.7 2.2-1.2 0-2.1-.5-2.6-1.1zM55.6 243.5h-2.1v-1h2.1v-2.3h1v2.3h2.1v1h-2.1v2.3h-1z" class="st1"/></g><path d="M28 232H2v-14h18z" class="st6"/><path d="M6 221.2h2.5c1.6 0 2.8.5 2.8 1.9 0 .7-.4 1.5-1.3 1.7 1.1.2 1.8.8 1.8 1.9 0 1.6-1.3 2.3-3 2.3H6zm2.4 3.2c1.1 0 1.6-.4 1.6-1.2 0-.7-.5-1-1.5-1h-1v2.2zm.2 3.5c1.2 0 1.8-.4 1.8-1.3q0-1.2-1.8-1.2H7.4v2.5zM16.2 221c1 0 1.7.5 2.2 1l-.8.9q-.6-.6-1.5-.6c-1.3 0-2.2 1.1-2.2 2.8 0 1.8.9 2.9 2.2 2.9.7 0 1.2-.3 1.7-.8l.8.9c-.6.7-1.5 1.1-2.4 1.1-2 0-3.6-1.4-3.6-4-.1-2.7 1.6-4.2 3.6-4.2" class="st1"/><path d="M60 232H30l-8-14h30z" class="st2"/><path d="M33.9 227.9h1.7v-5h-1.4v-.9c.8-.1 1.3-.3 1.8-.6h1v6.5h1.5v1.1h-4.6zM40 227.2c.5.5 1 .8 1.8.8s1.4-.4 1.4-1.2-.5-1.3-2.2-1.3v-1c1.5 0 2-.5 2-1.2 0-.6-.4-1-1.1-1-.6 0-1.1.3-1.5.7l-.7-.9c.6-.6 1.4-1 2.3-1 1.5 0 2.5.7 2.5 2 0 .9-.5 1.4-1.3 1.8.9.2 1.6.9 1.6 1.9 0 1.4-1.2 2.2-2.7 2.2-1.2 0-2.1-.5-2.6-1.1zM47.6 225.5h-2.1v-1h2.1v-2.3h1v2.3h2.1v1h-2.1v2.3h-1z" class="st1"/><g id="_x31_3_x2B_"><path d="M32 214H2v-14h22z" class="st2"/><path d="M5.9 209.9h1.7v-5H6.2v-.9c.8-.1 1.3-.3 1.8-.6h1v6.5h1.5v1.1H5.9zM12 209.2c.5.5 1 .8 1.8.8s1.4-.4 1.4-1.2-.5-1.3-2.2-1.3v-1c1.5 0 2-.5 2-1.2 0-.6-.4-1-1.1-1-.6 0-1.1.3-1.5.7l-.7-.9c.6-.6 1.4-1 2.3-1 1.5 0 2.5.7 2.5 2 0 .9-.5 1.4-1.3 1.8.9.2 1.6.9 1.6 1.9 0 1.4-1.2 2.2-2.7 2.2-1.2 0-2.1-.5-2.6-1.1zM19.6 207.5h-2.1v-1h2.1v-2.3h1v2.3h2.1v1h-2.1v2.3h-1z" class="st1"/></g><g id="unique-obc"><path d="M108 196H74l-8-14h34z" class="st0"/><path d="M77.6 189c0-2.5 1.4-4 3.5-4 2 0 3.5 1.5 3.5 4s-1.4 4.1-3.5 4.1-3.5-1.5-3.5-4.1m5.5 0c0-1.8-.8-2.8-2-2.8s-2 1.1-2 2.8c0 1.8.8 2.9 2 2.9s2-1.1 2-2.9M85.9 185.2h2.5c1.6 0 2.8.5 2.8 1.9 0 .7-.4 1.5-1.3 1.7 1.1.2 1.8.8 1.8 1.9 0 1.6-1.3 2.3-3 2.3H86zm2.4 3.2c1.1 0 1.6-.4 1.6-1.2 0-.7-.5-1-1.5-1h-1v2.2zm.2 3.5c1.2 0 1.8-.4 1.8-1.3q0-1.2-1.8-1.2h-1.2v2.5zM96.1 185c1 0 1.7.5 2.2 1l-.8.9q-.6-.6-1.5-.6c-1.3 0-2.2 1.1-2.2 2.8 0 1.8.9 2.9 2.2 2.9.7 0 1.2-.3 1.7-.8l.8.9c-.6.7-1.5 1.1-2.4 1.1-2 0-3.6-1.4-3.6-4 0-2.7 1.6-4.2 3.6-4.2" class="st1"/><path d="M72 196H54l-8-14h18z" class="st4"/><path d="M54 196H2v-14h44z" class="st3"/><path d="M6 185.2h1.4v6.7h3.2v1.2H6zM11.8 185.2h1.4v7.8h-1.4zM15 185.2h1.5L18 189l.5 1.5.5-1.5 1.4-3.9H22v7.8h-1.3v-3.6c0-.7.1-1.8.2-2.5l-.6 1.8-1.4 3.6h-.6l-1.4-3.6-.6-1.8c.1.7.2 1.8.2 2.5v3.6H15zM23.8 185.2h1.4v7.8h-1.4zM28.6 186.3h-2.3v-1.2h5.9v1.2H30v6.7h-1.4zM33.4 185.2h4.7v1.2h-3.3v2h2.8v1.2h-2.8v2.3h3.4v1.2h-4.8zM39.6 185.2h2.1c2.4 0 3.8 1.3 3.8 3.9s-1.4 4-3.8 4h-2.2v-7.9zm2 6.7c1.6 0 2.5-.9 2.5-2.8s-.9-2.8-2.5-2.8H41v5.6z" class="st1"/><path d="M55.9 185.2h1.4v4.5c0 1.7.6 2.3 1.6 2.3s1.6-.6 1.6-2.3v-4.5h1.3v4.4c0 2.6-1.2 3.6-3 3.6s-3-1-3-3.6v-4.4z" class="st0"/></g><g id="unique-tbc"><path d="M108 178H74l-8-14h34z" class="st5"/><path d="M79.6 168.3h-2.3v-1.2h5.9v1.2H81v6.7h-1.4zM84.4 167.2h2.5c1.6 0 2.8.5 2.8 1.9 0 .7-.4 1.5-1.3 1.7 1.1.2 1.8.8 1.8 1.9 0 1.6-1.3 2.3-3 2.3h-2.7v-7.8zm2.3 3.2c1.1 0 1.6-.4 1.6-1.2 0-.7-.5-1-1.5-1h-1v2.2zm.2 3.5c1.2 0 1.8-.4 1.8-1.3q0-1.2-1.8-1.2h-1.2v2.5zM94.5 167c1 0 1.7.5 2.2 1l-.8.9q-.6-.6-1.5-.6c-1.3 0-2.2 1.1-2.2 2.8 0 1.8.9 2.9 2.2 2.9.7 0 1.2-.3 1.7-.8l.8.9c-.6.7-1.5 1.1-2.4 1.1-2 0-3.6-1.4-3.6-4 0-2.7 1.6-4.2 3.6-4.2" class="st1"/><path d="M72 178H54l-8-14h18z" class="st4"/><path d="M54 178H2v-14h44z" class="st3"/><path d="M6 167.2h1.4v6.7h3.2v1.2H6zM11.8 167.2h1.4v7.8h-1.4zM15 167.2h1.5L18 171l.5 1.5.5-1.5 1.4-3.9H22v7.8h-1.3v-3.6c0-.7.1-1.8.2-2.5l-.6 1.8-1.4 3.6h-.6l-1.4-3.6-.6-1.8c.1.7.2 1.8.2 2.5v3.6H15zM23.8 167.2h1.4v7.8h-1.4zM28.6 168.3h-2.3v-1.2h5.9v1.2H30v6.7h-1.4zM33.4 167.2h4.7v1.2h-3.3v2h2.8v1.2h-2.8v2.3h3.4v1.2h-4.8zM39.6 167.2h2.1c2.4 0 3.8 1.3 3.8 3.9s-1.4 4-3.8 4h-2.2v-7.9zm2 6.7c1.6 0 2.5-.9 2.5-2.8s-.9-2.8-2.5-2.8H41v5.6z" class="st1"/><path d="M55.9 167.2h1.4v4.5c0 1.7.6 2.3 1.6 2.3s1.6-.6 1.6-2.3v-4.5h1.3v4.4c0 2.6-1.2 3.6-3 3.6s-3-1-3-3.6v-4.4z" class="st0"/></g><g id="unique-bc"><path d="M100 160H74l-8-14h26z" class="st6"/><path d="M78 149.2h2.5c1.6 0 2.8.5 2.8 1.9 0 .7-.4 1.5-1.3 1.7 1.1.2 1.8.8 1.8 1.9 0 1.6-1.3 2.3-3 2.3H78zm2.4 3.2c1.1 0 1.6-.4 1.6-1.2 0-.7-.5-1-1.5-1h-1v2.2zm.1 3.5c1.2 0 1.8-.4 1.8-1.3q0-1.2-1.8-1.2h-1.2v2.5zM88.2 149c1 0 1.7.5 2.2 1l-.8.9q-.6-.6-1.5-.6c-1.3 0-2.2 1.1-2.2 2.8 0 1.8.9 2.9 2.2 2.9.7 0 1.2-.3 1.7-.8l.8.9c-.6.7-1.5 1.1-2.4 1.1-2 0-3.6-1.4-3.6-4-.1-2.7 1.6-4.2 3.6-4.2" class="st1"/><path d="M72 160H54l-8-14h18z" class="st4"/><path d="M54 160H2v-14h44z" class="st3"/><path d="M6 149.2h1.4v6.7h3.2v1.2H6zM11.8 149.2h1.4v7.8h-1.4zM15 149.2h1.5L18 153l.5 1.5.5-1.5 1.4-3.9H22v7.8h-1.3v-3.6c0-.7.1-1.8.2-2.5l-.6 1.8-1.4 3.6h-.6l-1.4-3.6-.6-1.8c.1.7.2 1.8.2 2.5v3.6H15zM23.8 149.2h1.4v7.8h-1.4zM28.6 150.3h-2.3v-1.2h5.9v1.2H30v6.7h-1.4zM33.4 149.2h4.7v1.2h-3.3v2h2.8v1.2h-2.8v2.3h3.4v1.2h-4.8zM39.6 149.2h2.1c2.4 0 3.8 1.3 3.8 3.9s-1.4 4-3.8 4h-2.2v-7.9zm2 6.7c1.6 0 2.5-.9 2.5-2.8s-.9-2.8-2.5-2.8H41v5.6z" class="st1"/><path d="M55.9 149.2h1.4v4.5c0 1.7.6 2.3 1.6 2.3s1.6-.6 1.6-2.3v-4.5h1.3v4.4c0 2.6-1.2 3.6-3 3.6s-3-1-3-3.6v-4.4z" class="st0"/></g><g id="unique"><path d="M72 142H54l-8-14h18z" class="st4"/><path d="M54 142H2v-14h44z" class="st3"/><path d="M6 131.2h1.4v6.7h3.2v1.2H6zM11.8 131.2h1.4v7.8h-1.4zM15 131.2h1.5L18 135l.5 1.5.5-1.5 1.4-3.9H22v7.8h-1.3v-3.6c0-.7.1-1.8.2-2.5l-.6 1.8-1.4 3.6h-.6l-1.4-3.6-.6-1.8c.1.7.2 1.8.2 2.5v3.6H15zM23.8 131.2h1.4v7.8h-1.4zM28.6 132.3h-2.3v-1.2h5.9v1.2H30v6.7h-1.4zM33.4 131.2h4.7v1.2h-3.3v2h2.8v1.2h-2.8v2.3h3.4v1.2h-4.8zM39.6 131.2h2.1c2.4 0 3.8 1.3 3.8 3.9s-1.4 4-3.8 4h-2.2v-7.9zm2 6.7c1.6 0 2.5-.9 2.5-2.8s-.9-2.8-2.5-2.8H41v5.6z" class="st1"/><path d="M55.9 131.2h1.4v4.5c0 1.7.6 2.3 1.6 2.3s1.6-.6 1.6-2.3v-4.5h1.3v4.4c0 2.6-1.2 3.6-3 3.6s-3-1-3-3.6v-4.4z" class="st0"/></g><g id="limited-obc"><path d="M54 124H2v-14h44z" class="st3"/><path d="M6 113.2h1.4v6.7h3.2v1.1H6zM11.8 113.2h1.4v7.8h-1.4zM15 113.2h1.5L18 117l.5 1.5.5-1.5 1.4-3.9H22v7.9h-1.3v-3.6c0-.7.1-1.8.2-2.5l-.6 1.8-1.4 3.6h-.6l-1.4-3.6-.6-1.8c.1.7.2 1.8.2 2.5v3.6H15zM23.8 113.2h1.4v7.8h-1.4zM28.6 114.3h-2.3v-1.2h5.9v1.2H30v6.7h-1.4zM33.4 113.2h4.7v1.2h-3.3v2h2.8v1.2h-2.8v2.3h3.4v1.1h-4.8zM39.6 113.2h2.1c2.4 0 3.8 1.3 3.8 3.9s-1.4 4-3.8 4h-2.2v-7.9zm2 6.7c1.6 0 2.5-.9 2.5-2.8s-.9-2.8-2.5-2.8H41v5.6z" class="st1"/><path d="M90 124H56l-8-14h34z" class="st0"/><path d="M59.6 117c0-2.5 1.4-4 3.5-4 2 0 3.5 1.5 3.5 4s-1.4 4.1-3.5 4.1-3.5-1.5-3.5-4.1m5.5 0c0-1.8-.8-2.8-2-2.8s-2 1.1-2 2.8c0 1.8.8 2.9 2 2.9s2-1.1 2-2.9M67.9 113.2h2.5c1.6 0 2.8.5 2.8 1.9 0 .7-.4 1.5-1.3 1.7 1.1.2 1.8.8 1.8 1.9 0 1.6-1.3 2.3-3 2.3H68zm2.4 3.2c1.1 0 1.6-.4 1.6-1.2 0-.7-.5-1-1.5-1h-1v2.2zm.2 3.5c1.2 0 1.8-.4 1.8-1.3q0-1.2-1.8-1.2h-1.2v2.5zM78.1 113c1 0 1.7.5 2.2 1l-.8.9q-.6-.6-1.5-.6c-1.3 0-2.2 1.1-2.2 2.8 0 1.8.9 2.9 2.2 2.9.7 0 1.2-.3 1.7-.8l.8.9c-.6.7-1.5 1.1-2.4 1.1-2 0-3.6-1.4-3.6-4 0-2.7 1.6-4.2 3.6-4.2" class="st1"/></g><g id="limited-tbc"><path d="M54 106H2V92h44z" class="st3"/><path d="M6 95.2h1.4v6.7h3.2v1.1H6zM11.8 95.2h1.4v7.8h-1.4zM15 95.2h1.5L18 99l.5 1.5.5-1.5 1.4-3.9H22v7.9h-1.3v-3.6c0-.7.1-1.8.2-2.5l-.6 1.8-1.4 3.6h-.6l-1.4-3.6-.6-1.8c.1.7.2 1.8.2 2.5v3.6H15zM23.8 95.2h1.4v7.8h-1.4zM28.6 96.3h-2.3v-1.2h5.9v1.2H30v6.7h-1.4zM33.4 95.2h4.7v1.2h-3.3v2h2.8v1.2h-2.8v2.3h3.4v1.1h-4.8zM39.6 95.2h2.1c2.4 0 3.8 1.3 3.8 3.9s-1.4 4-3.8 4h-2.2v-7.9zm2 6.7c1.6 0 2.5-.9 2.5-2.8s-.9-2.8-2.5-2.8H41v5.6z" class="st1"/><path d="M90 106H56l-8-14h34z" class="st5"/><path d="M61.6 96.3h-2.3v-1.2h5.9v1.2H63v6.7h-1.4zM66.4 95.2h2.5c1.6 0 2.8.5 2.8 1.9 0 .7-.4 1.5-1.3 1.7 1.1.2 1.8.8 1.8 1.9 0 1.6-1.3 2.3-3 2.3h-2.7v-7.8zm2.3 3.2c1.1 0 1.6-.4 1.6-1.2 0-.7-.5-1-1.5-1h-1v2.2zm.2 3.5c1.2 0 1.8-.4 1.8-1.3q0-1.2-1.8-1.2h-1.2v2.5zM76.5 95c1 0 1.7.5 2.2 1l-.7.9q-.6-.6-1.5-.6c-1.3 0-2.2 1.1-2.2 2.8 0 1.8.9 2.9 2.2 2.9.7 0 1.2-.3 1.7-.8l.8.9c-.6.7-1.5 1.1-2.4 1.1-2 0-3.6-1.4-3.6-4-.1-2.7 1.5-4.2 3.5-4.2" class="st1"/></g><g id="limited-bc"><path d="M54 88H2V74h44z" class="st3"/><path d="M6 77.2h1.4v6.7h3.2V85H6zM11.8 77.2h1.4V85h-1.4zM15 77.2h1.5L18 81l.5 1.5.5-1.5 1.4-3.9H22V85h-1.3v-3.6c0-.7.1-1.8.2-2.5l-.6 1.8-1.4 3.6h-.6l-1.4-3.6-.6-1.8c.1.7.2 1.8.2 2.5V85H15zM23.8 77.2h1.4V85h-1.4zM28.6 78.3h-2.3v-1.2h5.9v1.2H30V85h-1.4zM33.4 77.2h4.7v1.2h-3.3v2h2.8v1.2h-2.8v2.3h3.4V85h-4.8zM39.6 77.2h2.1c2.4 0 3.8 1.3 3.8 3.9s-1.4 4-3.8 4h-2.2v-7.9zm2 6.7c1.6 0 2.5-.9 2.5-2.8s-.9-2.8-2.5-2.8H41v5.6z" class="st1"/><path d="M82 88H56l-8-14h26z" class="st6"/><path d="M60 77.2h2.5c1.6 0 2.8.5 2.8 1.9 0 .7-.4 1.5-1.3 1.7 1.1.2 1.8.8 1.8 1.9 0 1.6-1.3 2.3-3 2.3H60zm2.4 3.2c1.1 0 1.6-.4 1.6-1.2 0-.7-.5-1-1.5-1h-1v2.2zm.1 3.5c1.2 0 1.8-.4 1.8-1.3q0-1.2-1.8-1.2h-1.2v2.5zM70.2 77c1 0 1.7.5 2.2 1l-.8.9q-.6-.6-1.5-.6c-1.3 0-2.2 1.1-2.2 2.8 0 1.8.9 2.9 2.2 2.9.7 0 1.2-.3 1.7-.8l.8.9c-.6.7-1.5 1.1-2.4 1.1-2 0-3.6-1.4-3.6-4-.1-2.7 1.6-4.2 3.6-4.2" class="st1"/></g><g id="limited"><path d="M54 70H2V56h44z" class="st3"/><path d="M6 59.2h1.4v6.7h3.2V67H6zM11.8 59.2h1.4V67h-1.4zM15 59.2h1.5L18 63l.5 1.5.5-1.5 1.4-3.9H22V67h-1.3v-3.6c0-.7.1-1.8.2-2.5l-.6 1.8-1.4 3.6h-.6l-1.4-3.6-.6-1.8c.1.7.2 1.8.2 2.5V67H15zM23.8 59.2h1.4V67h-1.4zM28.6 60.3h-2.3v-1.2h5.9v1.2H30V67h-1.4zM33.4 59.2h4.7v1.2h-3.3v2h2.8v1.2h-2.8v2.3h3.4V67h-4.8zM39.6 59.2h2.1c2.4 0 3.8 1.3 3.8 3.9s-1.4 4-3.8 4h-2.2v-7.9zm2 6.7c1.6 0 2.5-.9 2.5-2.8s-.9-2.8-2.5-2.8H41v5.6z" class="st1"/></g><g id="obc"><path d="M36 52H2V38h26z" class="st0"/><path d="M5.6 45c0-2.5 1.4-4 3.5-4 2 0 3.5 1.5 3.5 4s-1.4 4.1-3.5 4.1-3.5-1.5-3.5-4.1m5.5 0c0-1.8-.8-2.8-2-2.8s-2 1.1-2 2.8c0 1.8.8 2.9 2 2.9s2-1.1 2-2.9M13.9 41.2h2.5c1.6 0 2.8.5 2.8 1.9 0 .7-.4 1.5-1.3 1.7 1.1.2 1.8.8 1.8 1.9 0 1.6-1.3 2.3-3 2.3H14zm2.4 3.2c1.1 0 1.6-.4 1.6-1.2 0-.7-.5-1-1.5-1h-1v2.2zm.2 3.5c1.2 0 1.8-.4 1.8-1.3q0-1.2-1.8-1.2h-1.2v2.5zM24.1 41c1 0 1.7.5 2.2 1l-.8.9q-.6-.6-1.5-.6c-1.3 0-2.2 1.1-2.2 2.8 0 1.8.9 2.9 2.2 2.9.7 0 1.2-.3 1.7-.8l.8.9c-.6.7-1.5 1.1-2.4 1.1-2 0-3.6-1.4-3.6-4 0-2.7 1.6-4.2 3.6-4.2" class="st1"/></g><g id="tbc"><path d="M36 34H2V20h26z" class="st5"/><path d="M7.6 24.3H5.3v-1.2h5.9v1.2H9V31H7.6zM12.4 23.2h2.5c1.6 0 2.8.5 2.8 1.9 0 .7-.4 1.5-1.3 1.7 1.1.2 1.8.8 1.8 1.9 0 1.6-1.3 2.3-3 2.3h-2.7zm2.3 3.2c1.1 0 1.6-.4 1.6-1.2 0-.7-.5-1-1.5-1h-1v2.2zm.2 3.5c1.2 0 1.8-.4 1.8-1.3q0-1.2-1.8-1.2h-1.2v2.5zM22.5 23c1 0 1.7.5 2.2 1l-.7.9q-.6-.6-1.5-.6c-1.3 0-2.2 1.1-2.2 2.8 0 1.8.9 2.9 2.2 2.9.7 0 1.2-.3 1.7-.8l.8.9c-.6.7-1.5 1.1-2.4 1.1-2 0-3.6-1.4-3.6-4-.1-2.7 1.5-4.2 3.5-4.2" class="st1"/></g><g id="bc"><path d="M28 16H2V2h18z" class="st6"/><path d="M6 5.2h2.5c1.6 0 2.8.5 2.8 1.9 0 .7-.4 1.5-1.3 1.7 1.1.2 1.7.8 1.7 1.9 0 1.6-1.3 2.3-3 2.3H6zm2.4 3.2C9.5 8.4 10 8 10 7.2c0-.7-.5-1-1.5-1h-1v2.2zm.2 3.5c1.2 0 1.8-.4 1.8-1.3q0-1.2-1.8-1.2H7.4v2.5zM16.2 5c1 0 1.7.5 2.2 1l-.8.9q-.6-.6-1.5-.6c-1.3 0-2.2 1.1-2.2 2.8 0 1.8.9 2.9 2.2 2.9.7 0 1.2-.3 1.7-.8l.8.9c-.6.7-1.5 1.1-2.4 1.1-2 0-3.6-1.4-3.6-4-.1-2.7 1.6-4.2 3.6-4.2" class="st1"/></g><path id="limited_1_" d="M51 430H2v-14h41z" class="st7"/><g class="st8"><path d="M6.2 419.4h2.7c1.6 0 2.9.6 2.9 2.3 0 1.2-.6 1.9-1.6 2.2l1.9 3.3h-1.6l-1.7-3.1H7.6v3.1H6.2zm2.5 3.6c1.1 0 1.7-.5 1.7-1.3 0-.9-.6-1.2-1.7-1.2H7.6v2.6h1.1zM14.7 420.5h-2.3v-1.2h5.9v1.2H16v6.7h-1.4v-6.7zM19.7 419.4h1.4v3.2h3.2v-3.2h1.4v7.8h-1.4v-3.5h-3.2v3.5h-1.4zM27.6 419.4h2.7c1.6 0 2.9.6 2.9 2.3 0 1.2-.6 1.9-1.6 2.2l1.9 3.3h-1.6l-1.7-3.1H29v3.1h-1.4zm2.5 3.6c1.1 0 1.7-.5 1.7-1.3 0-.9-.6-1.2-1.7-1.2H29v2.6h1.1zM34.3 423.3c0-2.5 1.4-4 3.5-4s3.5 1.5 3.5 4-1.4 4.1-3.5 4.1-3.5-1.6-3.5-4.1m5.5 0c0-1.8-.8-2.8-2-2.8s-2 1.1-2 2.8c0 1.8.8 2.9 2 2.9 1.2-.1 2-1.2 2-2.9" class="st1"/></g><path id="limited_2_" d="M51 448H2v-14h41z" class="st7"/><g class="st8"><path d="M6.2 437.4h2.7c1.6 0 2.9.6 2.9 2.3 0 1.2-.6 1.9-1.6 2.2l1.9 3.3h-1.6l-1.7-3.1H7.6v3.1H6.2zm2.5 3.6c1.1 0 1.7-.5 1.7-1.3 0-.9-.6-1.2-1.7-1.2H7.6v2.6h1.1zM14.7 438.5h-2.3v-1.2h5.9v1.2H16v6.7h-1.4v-6.7zM19.7 437.4h1.4v3.2h3.2v-3.2h1.4v7.8h-1.4v-3.5h-3.2v3.5h-1.4zM27.6 437.4h2.7c1.6 0 2.9.6 2.9 2.3 0 1.2-.6 1.9-1.6 2.2l1.9 3.3h-1.6l-1.7-3.1H29v3.1h-1.4zm2.5 3.6c1.1 0 1.7-.5 1.7-1.3 0-.9-.6-1.2-1.7-1.2H29v2.6h1.1zM34.3 441.3c0-2.5 1.4-4 3.5-4s3.5 1.5 3.5 4-1.4 4.1-3.5 4.1-3.5-1.6-3.5-4.1m5.5 0c0-1.8-.8-2.8-2-2.8s-2 1.1-2 2.8c0 1.8.8 2.9 2 2.9 1.2-.1 2-1.2 2-2.9" class="st1"/></g><path d="M85 448H51l-8-14h34z" class="st3"/><path d="M55.5 437.1h1.4v6.7h3.2v1.2h-4.6zM62.9 438.2h-2.3V437h5.9v1.2h-2.3v6.7h-1.4zM67.8 437.1h2.1c2.4 0 3.8 1.3 3.8 3.9s-1.4 4-3.8 4h-2.2zm2 6.7c1.6 0 2.5-.9 2.5-2.8s-.9-2.8-2.5-2.8h-.6v5.6z" class="st1"/></svg>