<svg xmlns="http://www.w3.org/2000/svg" width="56" height="196" fill="none" viewBox="0 0 56 196"><path fill="#fff" d="M3 23.535V4.465c0-1.54 1.667-2.502 3-1.731L25.5 14 6 25.266c-1.333.77-3-.191-3-1.731"/><path fill="#393b3d" fill-rule="evenodd" d="M23.5 42a9.5 9.5 0 1 1-19 0 9.5 9.5 0 0 1 19 0m1.5 0c0 6.075-4.925 11-11 11S3 48.075 3 42s4.925-11 11-11 11 4.925 11 11m-9.5 0a1.5 1.5 0 1 1-3 0 1.5 1.5 0 0 1 3 0m3 1.5a1.5 1.5 0 1 0 0-3 1.5 1.5 0 0 0 0 3M11 42a1.5 1.5 0 1 1-3 0 1.5 1.5 0 0 1 3 0M15.8 59.7c0 .373-.12.717-.323.998 1.213.19 2.33.657 3.223 1.402 1.6 1.3 2.6 3.3 2.7 5.4l.1 3.8v.1c1.6.6 2.7 2.1 2.7 3.9v.5c-.39 2.541-5.177 3.267-8.1 3.486.06.19.1.392.1.614 0 1.1-1 2.1-2.1 2.1s-2.1-.9-2.1-2.1q-.002-.323.065-.602C8.96 79.095 3.8 78.389 3.8 75.5v-.3c0-1.8 1.2-3.3 2.7-3.8v-.1l.2-3.9q.15-2.55 1.8-4.5c1.031-1.19 2.503-2.002 4.166-2.287A1.7 1.7 0 1 1 15.8 59.7M14 62h.3c1.3 0 2.6.4 3.6 1.2 1.3 1 2.1 2.6 2.2 4.3l.1 3.8c-1.3.4-3.2.7-6.1.7-2.8 0-4.7-.3-6-.7l.2-3.8c0-1.4.5-2.7 1.4-3.6 1.1-1.3 2.7-1.9 4.3-1.9M7.6 72.6c1.6.5 3.7.8 6.5.8s5-.3 6.6-.7c1.3.2 2.2 1.3 2.2 2.7v.3c-.2 1.1-3 2-6.9 2.2h-3.8c-3.9-.2-6.9-1.2-6.9-2.3v-.2c0-1.5 1-2.6 2.3-2.8M15.8 87.7c0 .3-.078.581-.214.825 1.015.201 1.965.638 2.814 1.275 1.5 1.2 2.4 3 2.5 5l.2 4.3c-1.4.4-3.7.8-7 .8s-5.5-.4-7-.8l.2-4.4c0-1.6.6-3 1.6-4.1.982-1.133 2.306-1.81 3.714-2.073A1.7 1.7 0 1 1 15.8 87.7m.4 19c4.4-.3 7.8-1.3 7.9-2.6v-.3c0-1.5-1.1-2.8-2.6-3.1-1.8.5-4.3.9-7.6.9-3.2 0-5.7-.4-7.5-.9-1.3.3-2.5 1.5-2.5 3.1v.3c0 1.3 3.4 2.4 8 2.7l.286-.007a2.5 2.5 0 0 0-.286 1.107c0 1.1 1 2.1 2.2 2.1s2.1-1 2.1-2.1c0-.455-.166-.827-.346-1.192zM13.508 115.513a10.43 10.43 0 0 1 8.992 4.292v-3.555a.75.75 0 0 1 1.5 0V122h-5.75a.75.75 0 0 1 0-1.5h2.898a8.93 8.93 0 0 0-7.565-3.488c-3.356.167-6.13 2.093-7.652 4.882a.75.75 0 1 1-1.317-.718c1.752-3.211 4.977-5.467 8.894-5.663M4.75 130H4v5.75a.75.75 0 0 0 1.5 0v-3.565a10.43 10.43 0 0 0 8.992 4.291c3.906-.195 7.235-2.443 8.902-5.678a.75.75 0 0 0-1.333-.687c-1.425 2.765-4.277 4.699-7.644 4.867A8.93 8.93 0 0 1 6.86 131.5h2.89a.75.75 0 0 0 0-1.5zM12 143c-4.95 0-9 4.05-9 9s4.05 9 9 9c1.937 0 3.735-.62 5.208-1.671l.315.315 4.916 4.917a1.501 1.501 0 0 0 2.122-2.122l-4.917-4.916-.315-.315A8.94 8.94 0 0 0 21 152c0-4.95-4.05-9-9-9m7.5 9a7.5 7.5 0 1 1-15 0 7.5 7.5 0 0 1 15 0M18 182a4 4 0 1 1-8 0 4 4 0 0 1 8 0m-1.5 0a2.5 2.5 0 1 1-5 0 2.5 2.5 0 0 1 5 0" clip-rule="evenodd"/><path fill="#393b3d" fill-rule="evenodd" d="M22.687 187.452a12 12 0 0 1-.635-1.813q0-.012.003-.061a.9.9 0 0 1 .06-.216.9.9 0 0 1 .11-.195.3.3 0 0 1 .042-.046 11.7 11.7 0 0 1 1.73-.832l.866-.335.087-.924c.063-.673.07-1.362.003-2.059l-.087-.924-.866-.335a11.6 11.6 0 0 1-1.733-.833.3.3 0 0 1-.041-.046.9.9 0 0 1-.11-.195.9.9 0 0 1-.06-.216.4.4 0 0 1-.004-.06c.16-.62.374-1.223.637-1.818l.374-.848-.591-.714a11 11 0 0 0-1.459-1.453l-.714-.591-.848.375c-.591.261-1.194.476-1.812.635q-.012.002-.061-.004a.86.86 0 0 1-.457-.211 11.5 11.5 0 0 1-.832-1.73l-.334-.865-.924-.088a11 11 0 0 0-2.06-.003l-.923.088-.335.864a12 12 0 0 1-.833 1.734.4.4 0 0 1-.046.041.9.9 0 0 1-.412.17q-.049.006-.06.004a11.7 11.7 0 0 1-1.818-.637l-.848-.374-.714.591c-.54.446-1.022.937-1.453 1.458l-.591.714.375.849q.395.889.635 1.812.001.012-.004.061a.9.9 0 0 1-.06.216.9.9 0 0 1-.11.195.3.3 0 0 1-.041.046 11.5 11.5 0 0 1-1.73.832l-.865.335-.088.923c-.064.675-.069 1.364-.003 2.06l.087.923.865.335c.605.234 1.184.509 1.734.834q.01.008.04.046a.9.9 0 0 1 .111.195.9.9 0 0 1 .06.216.4.4 0 0 1 .004.061 12 12 0 0 1-.637 1.818l-.374.847.59.714a11 11 0 0 0 1.46 1.453l.713.591.848-.374a11.6 11.6 0 0 1 1.813-.636q.012-.001.06.004c.06.007.136.026.217.06a1 1 0 0 1 .196.11q.038.032.046.042c.324.548.598 1.125.832 1.73l.335.866.924.086c.673.063 1.362.069 2.058.003l.922-.087.335-.865c.235-.605.51-1.184.835-1.734a.4.4 0 0 1 .046-.041 1 1 0 0 1 .195-.11.8.8 0 0 1 .216-.06q.05-.005.061-.004a11.7 11.7 0 0 1 1.817.637l.848.374.714-.591a11 11 0 0 0 1.453-1.458l.59-.714zm-4.713 1.138c.72.182 1.414.429 2.088.727.46-.382.878-.805 1.253-1.259a13 13 0 0 1-.726-2.084c-.168-.723.25-1.732.88-2.124.638-.38 1.302-.696 1.987-.96.056-.587.06-1.182.004-1.778a13 13 0 0 1-1.99-.962c-.631-.392-1.05-1.4-.88-2.124.183-.72.43-1.414.726-2.088a9.5 9.5 0 0 0-1.258-1.253c-.672.297-1.365.543-2.084.725-.724.169-1.732-.249-2.124-.88a13 13 0 0 1-.96-1.987 9.4 9.4 0 0 0-1.778-.002 13 13 0 0 1-.961 1.989c-.393.631-1.402 1.049-2.125.88a13 13 0 0 1-2.088-.726c-.46.381-.877.804-1.253 1.258.296.672.543 1.365.725 2.084.169.724-.249 1.732-.88 2.124-.637.38-1.302.696-1.986.961a9.4 9.4 0 0 0-.004 1.777c.686.265 1.351.581 1.99.962.631.392 1.049 1.401.88 2.124-.182.721-.43 1.414-.727 2.088.382.461.805.878 1.26 1.253a13 13 0 0 1 2.083-.725c.723-.169 1.732.249 2.125.88.379.637.694 1.302.96 1.987.586.055 1.18.059 1.776.003a13 13 0 0 1 .963-1.99c.392-.631 1.4-1.049 2.124-.88" clip-rule="evenodd"/></svg>