<svg xmlns="http://www.w3.org/2000/svg" xml:space="preserve" id="navigation" width="56" height="532" x="0" y="0" preserveAspectRatio="none" viewBox="0 0 56 532"><style>.st0{fill:#393b3d}.st1{fill:#7b7c7d}.st2{fill:#767879}</style><path id="notification-hover" d="M48 450H36c-3.3 0-6 2.7-6 6v12c0 3.3 2.7 6 6 6h12c3.3 0 6-2.7 6-6v-12c0-3.3-2.7-6-6-6m1 19H35c-.6 0-1-.4-1-1s.4-1 1-1h14c.6 0 1 .4 1 1s-.4 1-1 1m0-4H35c-.6 0-1-.4-1-1s.4-1 1-1h14c.6 0 1 .4 1 1s-.4 1-1 1m0-4H35c-.6 0-1-.4-1-1s.4-1 1-1h14c.6 0 1 .4 1 1s-.4 1-1 1m0-4H35c-.6 0-1-.4-1-1s.4-1 1-1h14c.6 0 1 .4 1 1s-.4 1-1 1" class="st0"/><g id="notification_1_"><path d="M20 474H8c-3.4 0-6-2.6-6-6v-12c0-3.4 2.6-6 6-6h12c3.4 0 6 2.6 6 6v12c0 3.4-2.6 6-6 6M8 452c-2.2 0-4 1.8-4 4v12c0 2.2 1.8 4 4 4h12c2.2 0 4-1.8 4-4v-12c0-2.2-1.8-4-4-4z" class="st0"/><path d="M21 461H7c-.6 0-1-.4-1-1s.4-1 1-1h14c.6 0 1 .4 1 1s-.4 1-1 1M21 465H7c-.6 0-1-.4-1-1s.4-1 1-1h14c.6 0 1 .4 1 1s-.4 1-1 1M21 469H7c-.6 0-1-.4-1-1s.4-1 1-1h14c.6 0 1 .4 1 1s-.4 1-1 1M21 457H7c-.6 0-1-.4-1-1s.4-1 1-1h14c.6 0 1 .4 1 1s-.4 1-1 1" class="st0"/></g><g id="search-hover"><path d="M40 413c-5 0-9-4-9-9s4-9 9-9 9 4 9 9-4 9-9 9m0-16c-3.9 0-7 3.1-7 7s3.1 7 7 7 7-3.1 7-7-3.1-7-7-7" class="st0"/><path d="M52 417c-.3 0-.5-.1-.7-.3l-6-6c-.4-.4-.4-1 0-1.4s1-.4 1.4 0l6 6c.4.4.4 1 0 1.4-.2.2-.4.3-.7.3M44 405c-.6 0-1-.4-1-1 0-1.7-1.3-3-3-3-.6 0-1-.4-1-1s.4-1 1-1c2.8 0 5 2.2 5 5 0 .6-.4 1-1 1" class="st0"/></g><g id="search_4_"><path d="M12 413c-5 0-9-4-9-9s4-9 9-9 9 4 9 9-4 9-9 9m0-16c-3.9 0-7 3.1-7 7s3.1 7 7 7 7-3.1 7-7-3.1-7-7-7" class="st1"/><path d="M24 417c-.3 0-.5-.1-.7-.3l-6-6c-.4-.4-.4-1 0-1.4s1-.4 1.4 0l6 6c.4.4.4 1 0 1.4-.2.2-.4.3-.7.3M16 405c-.6 0-1-.4-1-1 0-1.7-1.3-3-3-3-.6 0-1-.4-1-1s.4-1 1-1c2.8 0 5 2.2 5 5 0 .6-.4 1-1 1" class="st1"/></g><g id="search_1_"><path d="M12 133c-5 0-9-4-9-9s4-9 9-9 9 4 9 9-4 9-9 9m0-16c-3.9 0-7 3.1-7 7s3.1 7 7 7 7-3.1 7-7-3.1-7-7-7" class="st1"/><path d="M24 137c-.3 0-.5-.1-.7-.3l-6-6c-.4-.4-.4-1 0-1.4s1-.4 1.4 0l6 6c.4.4.4 1 0 1.4-.2.2-.4.3-.7.3M16 125c-.6 0-1-.4-1-1 0-1.7-1.3-3-3-3-.6 0-1-.4-1-1s.4-1 1-1c2.8 0 5 2.2 5 5 0 .6-.4 1-1 1" class="st1"/></g><g id="search_2_"><path d="M40 133c-5 0-9-4-9-9s4-9 9-9 9 4 9 9-4 9-9 9m0-16c-3.9 0-7 3.1-7 7s3.1 7 7 7 7-3.1 7-7-3.1-7-7-7" class="st0"/><path d="M52 137c-.3 0-.5-.1-.7-.3l-6-6c-.4-.4-.4-1 0-1.4s1-.4 1.4 0l6 6c.4.4.4 1 0 1.4-.2.2-.4.3-.7.3M44 125c-.6 0-1-.4-1-1 0-1.7-1.3-3-3-3-.6 0-1-.4-1-1s.4-1 1-1c2.8 0 5 2.2 5 5 0 .6-.4 1-1 1" class="st0"/></g><path id="settings-on_1_" d="M53 96h-1.2c-.3-1.3-.8-2.5-1.5-3.5l.9-.9c.4-.4.4-1 0-1.4l-1.4-1.4c-.4-.4-1-.4-1.4 0l-.9.9c-1-.7-2.2-1.2-3.5-1.5V87c0-.6-.4-1-1-1h-2c-.6 0-1 .4-1 1v1.2c-1.3.3-2.5.8-3.5 1.5l-.9-.9c-.4-.4-1-.4-1.4 0l-1.4 1.4c-.4.4-.4 1 0 1.4l.9.9c-.7 1-1.2 2.2-1.5 3.5H31c-.6 0-1 .4-1 1v2c0 .6.4 1 1 1h1.2c.3 1.3.8 2.5 1.5 3.5l-.9.9c-.4.4-.4 1 0 1.4l1.4 1.4c.4.4 1 .4 1.4 0l.9-.9c1 .7 2.2 1.2 3.5 1.5v1.2c0 .6.4 1 1 1h2c.6 0 1-.4 1-1v-1.2c1.3-.3 2.5-.8 3.5-1.5l.9.9c.4.4 1 .4 1.4 0l1.4-1.4c.4-.4.4-1 0-1.4l-.9-.9c.7-1 1.2-2.2 1.5-3.5H53c.6 0 1-.4 1-1v-2c0-.6-.4-1-1-1m-11 8c-3.3 0-6-2.7-6-6s2.7-6 6-6 6 2.7 6 6-2.7 6-6 6" class="st0"/><g id="settings_1_"><path d="M16 110h-4c-.6 0-1-.4-1-1v-1.5c-.6-.2-1.1-.4-1.6-.7l-.9.9c-.4.4-1 .4-1.4 0L4.2 105c-.4-.4-.4-1 0-1.4l.9-.9c-.3-.5-.5-1.1-.7-1.6H3c-.6 0-1-.4-1-1v-4c0-.6.4-1 1-1h1.5c.2-.6.4-1.1.7-1.6l-.9-.9c-.4-.4-.4-1 0-1.4l2.7-3c.2-.2.4-.3.7-.3s.5.1.7.3l.9.9c.5-.3 1.1-.5 1.6-.7V87c0-.6.4-1 1-1h4c.6 0 1 .4 1 1v1.5c.6.2 1.1.4 1.6.7l.9-.9c.4-.4 1-.4 1.4 0l2.8 2.8c.4.4.4 1 0 1.4l-.9.9c.3.5.5 1.1.7 1.6H25c.6 0 1 .4 1 1v4c0 .6-.4 1-1 1h-1.5c-.2.6-.4 1.1-.7 1.6l.9.9c.4.4.4 1 0 1.4l-2.8 2.8c-.2.2-.4.3-.7.3s-.5-.1-.7-.3l-.9-.9c-.5.3-1.1.5-1.6.7v1.5c0 .6-.4 1-1 1m-3-2h2v-1.2c0-.5.3-.9.8-1 .9-.2 1.7-.5 2.5-1 .4-.2.9-.2 1.2.1l.8.8 1.4-1.4-.8-.8c-.3-.3-.4-.8-.1-1.2.5-.8.8-1.6 1-2.5.1-.5.5-.8 1-.8H24v-2h-1.2c-.5 0-.9-.3-1-.8-.2-.9-.5-1.7-1-2.5-.2-.4-.2-.9.1-1.2l.8-.8-1.4-1.4-.8.8c-.3.3-.8.4-1.2.1-.8-.5-1.6-.8-2.5-1-.5-.1-.8-.5-.8-1V88h-2v1.2c0 .5-.3.9-.8 1-.9.2-1.7.5-2.5 1-.4.2-.9.2-1.2-.1l-.8-.8-1.4 1.4.8.8c.3.3.4.8.1 1.2-.5.8-.8 1.6-1 2.5-.1.5-.5.8-1 .8H4v2h1.2c.5 0 .9.3 1 .8.2.9.5 1.7 1 2.5.2.4.2.9-.1 1.2l-.8.8 1.4 1.4.8-.8c.3-.3.8-.4 1.2-.1.8.5 1.6.8 2.5 1 .5.1.8.5.8 1z" class="st0"/><path d="M14 104c-3.3 0-6-2.7-6-6s2.7-6 6-6 6 2.7 6 6-2.7 6-6 6m0-10c-2.2 0-4 1.8-4 4s1.8 4 4 4 4-1.8 4-4-1.8-4-4-4" class="st0"/></g><path id="tix-on_1_" d="M51 65h-2l-2-2v-2l-3-3-14 14 3 3h2l2 2v2l3 3 14-14zm-6.3 7.7c-.2.2-.4.3-.7.3s-.5-.1-.7-.3L40 69.4l-1.3 1.3c-.2.2-.4.3-.7.3s-.5-.1-.7-.3c-.4-.4-.4-1 0-1.4l4-4c.4-.4 1-.4 1.4 0s.4 1 0 1.4L41.4 68l3.3 3.3c.4.4.4 1 0 1.4" class="st0"/><g id="tix_2_"><path d="M12 82c-.3 0-.5-.1-.7-.3l-3-3c-.2-.2-.3-.4-.3-.7v-1.6l-.4-.4H6c-.3 0-.5-.1-.7-.3l-3-3c-.4-.4-.4-1 0-1.4l13-13c.4-.4 1-.4 1.4 0l3 3c.2.2.3.4.3.7v1.6l.4.4H22c.3 0 .5.1.7.3l3 3c.4.4.4 1 0 1.4l-13 13c-.2.2-.4.3-.7.3m-2-4.4 2 2L23.6 68l-2-2H20c-.3 0-.5-.1-.7-.3l-1-1c-.2-.2-.3-.4-.3-.7v-1.6l-2-2L4.4 72l2 2H8c.3 0 .5.1.7.3l1 1c.2.2.3.4.3.7z" class="st0"/><path d="M10 71c-.3 0-.5-.1-.7-.3-.4-.4-.4-1 0-1.4l4-4c.4-.4 1-.4 1.4 0s.4 1 0 1.4l-4 4c-.2.2-.4.3-.7.3" class="st0"/><path d="M16 73c-.3 0-.5-.1-.7-.3l-4-4c-.4-.4-.4-1 0-1.4s1-.4 1.4 0l4 4c.4.4.4 1 0 1.4-.2.2-.4.3-.7.3" class="st0"/></g><g id="robux-on_1_"><path d="M37 39v2h2.6c.1-.5.1-1.5 0-2z" class="st0"/><path d="M42 30c-6.6 0-12 5.4-12 12s5.4 12 12 12 12-5.4 12-12-5.4-12-12-12m5 17v1c0 .6-.4 1-1 1s-1-.4-1-1v-1h-3c-.2 0-.4-.1-.6-.2L37 43.3V46c0 .6-.4 1-1 1s-1-.4-1-1v-8c0-.6.4-1 1-1h4c1.1 0 1.7 1.1 1.7 3 0 .6-.1 1.2-.2 1.7-.4 1.2-1.2 1.3-1.5 1.3h-.1l2.5 2H47c.3 0 .5-.5.5-1 0-.4-.1-1-.5-1h-2c-1.4 0-2.5-1.3-2.5-3 0-.7.2-1.4.5-1.9.5-.7 1.2-1.1 2-1.1v-1c0-.6.4-1 1-1s1 .4 1 1v1h1c.6 0 1 .4 1 1s-.4 1-1 1h-3c-.1 0-.2 0-.3.2s-.2.5-.2.8c0 .4.2 1 .5 1h2c1.4 0 2.5 1.3 2.5 3s-1.1 3-2.5 3" class="st0"/></g><g id="robux_2_"><path d="M14 54C7.4 54 2 48.6 2 42s5.4-12 12-12 12 5.4 12 12-5.4 12-12 12m0-22C8.5 32 4 36.5 4 42s4.5 10 10 10 10-4.5 10-10-4.5-10-10-10" class="st0"/><path d="M19 47h-5c-.2 0-.4-.1-.6-.2L9 43.3V46c0 .6-.4 1-1 1s-1-.4-1-1v-8c0-.6.4-1 1-1h4c1.1 0 1.7 1.1 1.7 3 0 .6-.1 1.2-.2 1.7-.4 1.2-1.2 1.3-1.5 1.3h-.1l2.5 2H19c.3 0 .5-.5.5-1 0-.4-.1-1-.5-1h-2c-1.4 0-2.5-1.3-2.5-3 0-.7.2-1.4.5-1.9.5-.7 1.2-1.1 2-1.1h3c.6 0 1 .4 1 1s-.4 1-1 1h-3c-.1 0-.2 0-.3.2s-.2.5-.2.8c0 .4.2 1 .5 1h2c1.4 0 2.5 1.3 2.5 3s-1.1 3-2.5 3M9 41h2.6c.1-.5.1-1.5 0-2H9z" class="st0"/><path d="M18 38c-.6 0-1-.4-1-1v-1c0-.6.4-1 1-1s1 .4 1 1v1c0 .6-.4 1-1 1M18 49c-.6 0-1-.4-1-1v-1c0-.6.4-1 1-1s1 .4 1 1v1c0 .6-.4 1-1 1" class="st0"/></g><g id="menu-on_1_"><path d="M50 10H34c-.6 0-1-.4-1-1s.4-1 1-1h16c.6 0 1 .4 1 1s-.4 1-1 1M50 15H34c-.6 0-1-.4-1-1s.4-1 1-1h16c.6 0 1 .4 1 1s-.4 1-1 1M50 20H34c-.6 0-1-.4-1-1s.4-1 1-1h16c.6 0 1 .4 1 1s-.4 1-1 1" class="st0"/></g><g id="menu_2_"><path d="M22 10H6c-.6 0-1-.4-1-1s.4-1 1-1h16c.6 0 1 .4 1 1s-.4 1-1 1M22 15H6c-.6 0-1-.4-1-1s.4-1 1-1h16c.6 0 1 .4 1 1s-.4 1-1 1M22 20H6c-.6 0-1-.4-1-1s.4-1 1-1h16c.6 0 1 .4 1 1s-.4 1-1 1" class="st0"/></g><g id="gift_card-hover"><path d="M43.5 511c0-.8-.7-1.5-1.5-1.5s-1.5.7-1.5 1.5H39c-.8 0-1.5.7-1.5 1.5s.7 1.5 1.5 1.5h6c.8 0 1.5-.7 1.5-1.5s-.7-1.5-1.5-1.5zM47 522c-.6 0-1 .4-1 1s.4 1 1 1h3.6l-4.3 4.3c-.4.4-.4 1 0 1.4.2.2.5.3.7.3s.5-.1.7-.3l4.3-4.3v3.5c0 .6.4 1 1 1s1-.4 1-1V522z" class="st0"/><path d="M44.2 524H38v-2h6.2c.4-1 1.2-1.7 2.3-1.9-.1 0-.3-.1-.5-.1h-8c-1.1 0-2 .9-2 2v2c0 1.1.9 2 2 2h7.8l.2-.2c-.9-.3-1.5-1-1.8-1.8" class="st0"/><path d="M34 528v-20h16v12h2v-12.1c0-1.1-.9-1.9-1.9-1.9H33.9c-1.1 0-1.9.9-1.9 1.9v20.2c0 1.1.9 1.9 1.9 1.9h10.3c-.1-.3-.2-.7-.2-1s.1-.7.2-1z" class="st0"/></g><g id="gift_card"><path d="M15.5 511c0-.8-.7-1.5-1.5-1.5s-1.5.7-1.5 1.5H11c-.8 0-1.5.7-1.5 1.5s.7 1.5 1.5 1.5h6c.8 0 1.5-.7 1.5-1.5s-.7-1.5-1.5-1.5zM19 522c-.6 0-1 .4-1 1s.4 1 1 1h3.6l-4.3 4.3c-.4.4-.4 1 0 1.4.2.2.5.3.7.3s.5-.1.7-.3l4.3-4.3v3.5c0 .6.4 1 1 1s1-.4 1-1V522z" class="st2"/><path d="M16.2 524H10v-2h6.2c.4-1 1.2-1.7 2.3-1.9-.1 0-.3-.1-.5-.1h-8c-1.1 0-2 .9-2 2v2c0 1.1.9 2 2 2h7.8l.2-.2c-.9-.3-1.5-1-1.8-1.8" class="st2"/><path d="M6 528v-20h16v12h2v-12.1c0-1.1-.9-1.9-1.9-1.9H5.9c-1.1 0-1.9.9-1.9 1.9v20.2c0 1.1.9 1.9 1.9 1.9h10.3c-.1-.3-.2-.7-.2-1s.1-.7.2-1z" class="st2"/></g><path id="my_feed-hover" d="M42 502c-.6 0-1.1-.3-1.5-.7-.3-.4-.4-.9-.3-1.3l1.4-6.9-10.2 1.3 9-15.5c.2-.5.9-.9 1.5-.9s1.1.3 1.5.7c.3.4.4.9.3 1.3l-1.4 6.8 10.2-1.3-8.9 15.5c-.1.3-.6 1-1.6 1m2.2-11.3-1.7 8.2 6.2-10.8-9 1.1 1.7-8.2-6.2 10.8zm-2-11c0 .1 0 0 0 0m-.4-.2" class="st0"/><path id="my_feed_2_" d="M14.1 502c-.6 0-1.1-.3-1.5-.7-.3-.4-.4-.9-.3-1.3l1.4-6.9-10.2 1.3 9-15.5c.2-.5.9-.9 1.5-.9s1.1.3 1.5.7c.3.4.4.9.3 1.3l-1.4 6.8 10.2-1.3-8.9 15.5c-.3.3-.8 1-1.6 1m2.1-11.3-1.7 8.2 6.2-10.8-9 1.1 1.7-8.2-6.2 10.8zm-2-11c0 .1 0 0 0 0m-.3-.2" class="st2"/><g id="store-hover"><circle cx="36.5" cy="444.5" r="1.5" class="st0"/><path d="M46 439c0 .6.4 1 1 1h3.6l-4.3 4.3c-.4.4-.4 1 0 1.4.2.2.5.3.7.3s.5-.1.7-.3l4.3-4.3v3.5c0 .6.4 1 1 1s1-.4 1-1V438h-7c-.6 0-1 .4-1 1" class="st0"/><path d="m37.1 425.8-.8-2.5-4.5-.8c-.5-.1-1.1.3-1.2.8s.3 1.1.8 1.2l3.3.6 3.2 10.5-1.4 3.6c-.2.6-.2 1.3.2 1.9.4.5 1 .9 1.7.9h7.3l.2-.2c-.8-.3-1.5-1-1.8-1.8h-5.7l1.4-3.5 13.1-2.2c.6-.1 1.1-.7 1.1-1.3v-4.8zm14.9 6.5-12.3 2-1.9-6.5 14.2 2z" class="st0"/></g><g id="store_1_"><circle cx="8.5" cy="444.5" r="1.5" class="st2"/><path d="M18 439c0 .6.4 1 1 1h3.6l-4.3 4.3c-.4.4-.4 1 0 1.4.2.2.5.3.7.3s.5-.1.7-.3l4.3-4.3v3.5c0 .6.4 1 1 1s1-.4 1-1V438h-7c-.6 0-1 .4-1 1" class="st2"/><path d="m9.1 425.8-.8-2.5-4.5-.8c-.5-.1-1.1.3-1.2.8s.3 1.1.8 1.2l3.3.6 3.2 10.5-1.4 3.6c-.2.6-.2 1.3.2 1.9.4.5 1 .9 1.7.9h7.3l.2-.2c-.8-.3-1.5-1-1.8-1.8h-5.7l1.4-3.5 13.1-2.2c.6-.1 1.1-.7 1.1-1.3v-4.8zm14.9 6.5-12.3 2-1.9-6.4 14.2 2z" class="st2"/></g><g id="blog-hover"><path d="M47 382c-.6 0-1 .4-1 1s.4 1 1 1h3.6l-4.3 4.3c-.4.4-.4 1 0 1.4.2.2.5.3.7.3s.5-.1.7-.3l4.3-4.3v3.5c0 .6.4 1 1 1s1-.4 1-1V382z" class="st0"/><path d="M33 385.8v-16.6c0-.1.1-.2.2-.2h17.6c.1 0 .2.1.2.2V380h2v-10.8c0-1.2-1-2.2-2.2-2.2H33.2c-1.2 0-2.2 1-2.2 2.2v16.6c0 1.2 1 2.2 2.2 2.2h11c.1-.4.4-.8.7-1.1l.9-.9H33.2c-.1 0-.2-.1-.2-.2" class="st0"/><path d="M42 378h-6c-.6 0-1 .4-1 1s.4 1 1 1h6c.6 0 1-.4 1-1s-.4-1-1-1M42 382h-6c-.6 0-1 .4-1 1s.4 1 1 1h6c.6 0 1-.4 1-1s-.4-1-1-1M49 373.9v-.8c0-1.2-.9-2.1-2.1-2.1h-9.8c-1.2 0-2.1.9-2.1 2.1v.8c0 1.2.9 2.1 2.1 2.1h9.8c1.2 0 2.1-.9 2.1-2.1m-12 0v-.8c0-.1 0-.1.1-.1h9.8c.1 0 .1 0 .1.1v.8c0 .1 0 .1-.1.1zq0 .15 0 0" class="st0"/></g><g id="blog_1_"><path d="M19 382c-.6 0-1 .4-1 1s.4 1 1 1h3.6l-4.3 4.3c-.4.4-.4 1 0 1.4.2.2.5.3.7.3s.5-.1.7-.3l4.3-4.3v3.5c0 .6.4 1 1 1s1-.4 1-1V382z" class="st2"/><path d="M5 385.8v-16.6c0-.1.1-.2.2-.2h17.6c.1 0 .2.1.2.2V380h2v-10.8c0-1.2-1-2.2-2.2-2.2H5.2C4 367 3 368 3 369.2v16.6c0 1.2 1 2.2 2.2 2.2h11c.1-.4.4-.8.7-1.1l.9-.9H5.2c-.1 0-.2-.1-.2-.2" class="st2"/><path d="M14 378H8c-.6 0-1 .4-1 1s.4 1 1 1h6c.6 0 1-.4 1-1s-.4-1-1-1M14 382H8c-.6 0-1 .4-1 1s.4 1 1 1h6c.6 0 1-.4 1-1s-.4-1-1-1M21 373.9v-.8c0-1.2-.9-2.1-2.1-2.1H9.1c-1.2 0-2.1.9-2.1 2.1v.8c0 1.2.9 2.1 2.1 2.1h9.8c1.2 0 2.1-.9 2.1-2.1m-12 0v-.8c0-.1 0-.1.1-.1h9.8c.1 0 .1 0 .1.1v.8c0 .1 0 .1-.1.1zq0 .15 0 0" class="st2"/></g><path id="groups-hover" d="M54 354.9v-.5c0-.3 0-1.1-.1-2 0-2-.1-3.4-.2-3.8-.1-1.3-1.1-2.6-2.3-3 .2-.3.4-.7.4-1.1.1-1 .1-1.9 0-3-.2-1.2-1.3-2.2-2.4-2.4-1-.1-2-.1-2.9 0-1.2.2-2.3 1.3-2.5 2.5v.7c-.2-.1-.4-.1-.6-.2-1-.1-2-.1-2.9 0-.2 0-.4.1-.6.2v-.8c-.2-1.2-1.3-2.2-2.4-2.4-1-.1-2-.1-2.9 0-1.2.2-2.3 1.3-2.5 2.5-.1 1-.1 1.9 0 2.9.1.4.2.7.4 1-1.1.3-2.1 1.7-2.3 3-.1.5-.1 1.9-.2 3.8 0 .9 0 1.7-.1 2v.5l.4.3c1.3 1.1 2.9 1.7 4.7 1.8 0 .9 0 1.7-.1 2v.5l.4.3c1.7 1.5 4 2.2 6.7 2.2s4.9-.7 6.6-2.2l.4-.3v-.5c0-.3 0-1-.1-2 1.9-.1 3.4-.8 4.7-1.9zm-7.9-13c0-.3.5-.7.7-.7.4 0 .8-.1 1.2-.1s.8 0 1.2.1c.3 0 .7.5.7.7q.15 1.2 0 2.4c0 .3-.5.7-.7.7q-1.2.15-2.4 0c-.3 0-.7-.5-.7-.7q-.15-1.2 0-2.4m-6 3c0-.3.5-.7.7-.7.4 0 .8-.1 1.2-.1s.8 0 1.2.1c.3 0 .7.5.7.7q.15 1.2 0 2.4c0 .3-.5.7-.7.7q-1.2.15-2.4 0c-.3 0-.7-.5-.7-.7q-.15-1.2 0-2.4m-6-3c0-.3.5-.7.7-.7.4 0 .8-.1 1.2-.1s.8 0 1.2.1c.3 0 .7.5.7.7q.15 1.2 0 2.4c0 .3-.5.7-.7.7q-1.2.15-2.4 0c-.3 0-.7-.5-.7-.7q-.15-1.2 0-2.4m1.2 10.2c-.1.4-.1 1.5-.1 2.9-1.2-.1-2.2-.5-3.1-1.1v-1.5c0-1.3.1-3.2.1-3.6.1-.7.6-1.3.9-1.3 1.7-.5 3.4-.5 5-.2v.2c0 .3.2.7.4 1-.2 0-.4.1-.5.1-1.4.4-2.5 1.9-2.7 3.5m6.7 8c-2 0-3.7-.5-5-1.5 0-.5 0-1.2.1-1.9 0-1.5.1-3.9.2-4.4.1-.9.8-1.7 1.2-1.8 2.4-.6 4.8-.6 7.1 0 .5.2 1.2 1 1.3 1.8.1.5.1 2.8.2 4.3 0 .8 0 1.5.1 1.9-1.6 1.1-3.2 1.6-5.2 1.6m7-5.1c0-1.5-.1-2.5-.1-2.9-.2-1.5-1.3-3-2.6-3.5-.2 0-.4-.1-.5-.1.2-.3.3-.6.4-1v-.2c1.7-.3 3.3-.3 4.9.2.4.1.9.8.9 1.4.1.4.1 2.3.1 3.6v1.5c-1 .6-2 .9-3.1 1" class="st0"/><path id="groups_1_" d="M26 354.9v-.5c0-.3 0-1.1-.1-2 0-2-.1-3.4-.2-3.8-.1-1.3-1.1-2.6-2.3-3 .2-.3.4-.7.4-1.1.1-1 .1-1.9 0-3-.2-1.2-1.3-2.2-2.4-2.4-1-.1-2-.1-2.9 0-1.2.2-2.3 1.3-2.5 2.5v.7c-.2-.1-.4-.1-.6-.2-1-.1-2-.1-2.9 0-.2 0-.4.1-.6.2v-.8c-.2-1.2-1.3-2.2-2.4-2.4-1-.1-2-.1-2.9 0-1.2.2-2.3 1.3-2.5 2.5-.1 1-.1 1.9 0 2.9.1.4.2.7.4 1-1.1.3-2.1 1.7-2.3 3-.1.5-.1 1.9-.2 3.8 0 .9 0 1.7-.1 2v.5l.4.3c1.3 1.1 2.9 1.7 4.7 1.8 0 .9 0 1.7-.1 2v.5l.4.3c1.7 1.5 4 2.2 6.7 2.2s4.9-.7 6.6-2.2l.4-.3v-.5c0-.3 0-1-.1-2 1.9-.1 3.4-.8 4.7-1.9zm-7.9-13c0-.3.5-.7.7-.7.4 0 .8-.1 1.2-.1s.8 0 1.2.1c.3 0 .7.5.7.7q.15 1.2 0 2.4c0 .3-.5.7-.7.7q-1.2.15-2.4 0c-.3 0-.7-.5-.7-.7q-.15-1.2 0-2.4m-5.9 3c0-.3.5-.7.7-.7.4 0 .8-.1 1.2-.1s.8 0 1.2.1c.3 0 .7.5.7.7q.15 1.2 0 2.4c0 .3-.5.7-.7.7q-1.2.15-2.4 0c-.3 0-.7-.5-.7-.7q-.15-1.2 0-2.4m-6-3c0-.3.5-.7.7-.7.4 0 .8-.1 1.2-.1s.8 0 1.2.1c.3 0 .7.5.7.7q.15 1.2 0 2.4c0 .3-.5.7-.7.7q-1.2.15-2.4 0c-.3 0-.7-.5-.7-.7q-.15-1.2 0-2.4m1.2 10.2c-.1.4-.1 1.5-.1 2.9-1.2-.1-2.2-.5-3.1-1.1v-1.5c0-1.3.1-3.2.1-3.6.1-.7.6-1.3.9-1.3 1.7-.5 3.4-.5 5-.2v.2c0 .3.2.7.4 1-.2 0-.4.1-.5.1-1.4.4-2.6 1.9-2.7 3.5m6.7 8c-2 0-3.7-.5-5-1.5 0-.5 0-1.2.1-1.9 0-1.5.1-3.9.2-4.4.1-.9.8-1.7 1.2-1.8 2.4-.6 4.8-.6 7.1 0 .5.2 1.2 1 1.3 1.8.1.5.1 2.8.2 4.3 0 .8 0 1.5.1 1.9-1.7 1.1-3.3 1.6-5.2 1.6m6.8-5.1c0-1.5-.1-2.5-.1-2.9-.2-1.5-1.3-3-2.6-3.5-.2 0-.4-.1-.5-.1.2-.3.3-.6.4-1v-.2c1.7-.3 3.3-.3 4.9.2.4.1.9.8.9 1.4.1.4.1 2.3.1 3.6v1.5c-.9.6-1.9.9-3.1 1" class="st2"/><g id="trade-hover"><path d="m34.7 315.2 4.8 3.3-4.8 3.3 1.1-2.5.4-.8-.4-.8zm-2.8-4.2c-.6 0-.9.4-.9.9 0 .3.1.5.3.7l2.7 5.9-2.7 6c-.2.1-.3.4-.3.6 0 .6.4.9.9.9.2 0 .3 0 .4-.1l10.7-7.4-10.6-7.3c-.1-.1-.3-.2-.5-.2M49.3 322.1l-1.2 2.6-.4.8.4.8 1.1 2.5-4.8-3.3zM52 318c-.2 0-.3 0-.4.1L41 325.5l10.6 7.3c.2.1.3.2.5.2.6 0 .9-.4.9-.9 0-.3-.1-.5-.3-.7l-2.7-5.9 2.7-6c.1-.2.2-.4.2-.6 0-.5-.4-.9-.9-.9" class="st0"/></g><g id="trade_2_"><path d="m6.7 315.2 4.8 3.3-4.8 3.3 1.1-2.5.4-.8-.4-.8zM3.9 311c-.6 0-.9.4-.9.9 0 .3.1.5.3.7l2.7 5.9-2.7 6c-.2.1-.3.4-.3.6 0 .6.4.9.9.9.2 0 .3 0 .4-.1l10.7-7.4-10.6-7.3c-.1-.1-.3-.2-.5-.2M21.3 322.1l-1.2 2.6-.4.8.4.8 1.1 2.5-4.8-3.3zM24 318c-.2 0-.3 0-.4.1L13 325.5l10.6 7.3c.2.1.3.2.5.2.6 0 .9-.4.9-.9 0-.3-.1-.5-.3-.7l-2.7-5.9 2.7-6c.1-.2.2-.4.2-.6 0-.5-.4-.9-.9-.9" class="st2"/></g><g id="inventory-hover"><path d="M51.9 296.3c-.1-.6-.6-1.2-1.1-1.4 0-2.1-.2-4.3-.6-6.4-.2-1.2-1.3-2.4-2.6-2.8-.5-.1-1.1-.2-1.6-.3v-1.6c0-1-.8-1.8-1.8-1.8h-4.4c-1 0-1.8.8-1.8 1.8v1.6c-.5.1-1.1.2-1.6.3-1.2.3-2.3 1.5-2.6 2.8-.4 2.1-.5 4.3-.6 6.4-.6.2-1 .8-1.1 1.4-.2 1.6-.2 3.1 0 4.7.1.7.6 1.3 1.3 1.4.1 0 .3.1.4.1v.1c.2 1.2 1.3 2.4 2.6 2.8 1.9.4 3.7.7 5.6.7s3.8-.2 5.6-.7c1.2-.3 2.3-1.5 2.6-2.8v-.1c.1 0 .3-.1.4-.1.6-.2 1.2-.8 1.3-1.4.3-1.6.3-3.2 0-4.7M40 284.5c0-.3.2-.5.5-.5h3c.3 0 .5.2.5.5v.6c-1.3-.1-2.7-.1-4 0zm10 16c-.2 0-.4.1-.7.1l-.8.1-.2 1.1c0 .2-.1.4-.1.5-.1.5-.6 1-1.1 1.2-3.4.8-6.9.8-10.3 0-.5-.1-1-.7-1.1-1.1 0-.2-.1-.4-.1-.5l-.2-1.1-.8-.1c-.3 0-.5-.1-.7-.1-.2-1.3-.2-2.5 0-3.8.1 0 .2 0 .3-.1l.8-.1v-.9q0-3.45.6-6.9c.1-.5.6-1 1.1-1.2 3.4-.8 6.9-.8 10.3 0 .5.1 1 .7 1.1 1.1q.6 3.45.6 6.9v.9l.8.1c.1 0 .2 0 .3.1.3 1.3.3 2.5.2 3.8" class="st0"/><path d="M44.1 295.2c-1.4-.2-2.7-.2-4.1 0-.8.1-1.6.9-1.8 1.7-.2 1.4-.2 2.9 0 4.3.1.8 1 1.5 1.8 1.7.7.1 1.4.2 2 .2.7 0 1.4-.1 2.1-.2.8-.1 1.6-.9 1.8-1.7.2-1.4.2-2.9 0-4.3-.2-.8-1-1.6-1.8-1.7m-.2 5.5c0 .1-.1.1-.1.1-1.2.2-2.4.2-3.4 0 0 0-.1-.1-.2-.1-.2-1.2-.2-2.3 0-3.5 0-.1.1-.1.1-.1 1.1-.2 2.3-.2 3.4 0 0 0 .1.1.2.1.2 1.2.2 2.4 0 3.5M45 290h-6c-.6 0-1 .4-1 1s.4 1 1 1h6c.6 0 1-.4 1-1s-.4-1-1-1" class="st0"/></g><g id="inventory"><path d="M23.9 296.3c-.1-.6-.6-1.2-1.1-1.4 0-2.1-.2-4.3-.6-6.4-.2-1.2-1.3-2.4-2.6-2.8-.5-.1-1.1-.2-1.6-.3v-1.6c0-1-.8-1.8-1.8-1.8h-4.4c-1 0-1.8.8-1.8 1.8v1.6c-.5.1-1.1.2-1.6.3-1.2.3-2.3 1.5-2.6 2.8-.4 2.1-.5 4.3-.6 6.4-.6.2-1 .8-1.1 1.4-.2 1.6-.2 3.1 0 4.7.1.7.6 1.3 1.3 1.4.1 0 .3.1.4.1v.1c.2 1.2 1.3 2.4 2.6 2.8 1.9.4 3.7.7 5.6.7s3.8-.2 5.6-.7c1.2-.3 2.3-1.5 2.6-2.8v-.1c.1 0 .3-.1.4-.1.6-.2 1.2-.8 1.3-1.4.2-1.6.2-3.2 0-4.7M12 284.5c0-.3.2-.5.5-.5h3c.3 0 .5.2.5.5v.6c-1.3-.1-2.7-.1-4 0zm9.9 16c-.2 0-.4.1-.7.1l-.8.1-.2 1.1c0 .2-.1.4-.1.5-.1.5-.6 1-1.1 1.2-3.4.8-6.9.8-10.3 0-.5-.1-1-.7-1.1-1.1 0-.2-.1-.4-.1-.5l-.2-1.1-.8-.1c-.3 0-.5-.1-.7-.1-.2-1.3-.2-2.5 0-3.8.1 0 .2 0 .3-.1l.8-.1v-.9q0-3.45.6-6.9c.1-.5.6-1 1.1-1.2 3.4-.8 6.9-.8 10.3 0 .5.1 1 .7 1.1 1.1q.6 3.45.6 6.9v.9l.8.1c.1 0 .2 0 .3.1.4 1.3.4 2.5.2 3.8" class="st2"/><path d="M16 295.2c-1.4-.2-2.7-.2-4.1 0-.8.1-1.6.9-1.8 1.7-.2 1.4-.2 2.9 0 4.3.1.8 1 1.5 1.8 1.7.7.1 1.4.2 2 .2.7 0 1.4-.1 2.1-.2.8-.1 1.6-.9 1.8-1.7.2-1.4.2-2.9 0-4.3-.1-.8-.9-1.6-1.8-1.7m-.1 5.5c0 .1-.1.1-.1.1-1.2.2-2.4.2-3.4 0 0 0-.1-.1-.2-.1-.2-1.2-.2-2.3 0-3.5 0-.1.1-.1.1-.1 1.1-.2 2.3-.2 3.4 0 0 0 .1.1.2.1.1 1.2.1 2.4 0 3.5M17 290h-6c-.6 0-1 .4-1 1s.4 1 1 1h6c.6 0 1-.4 1-1s-.4-1-1-1" class="st2"/></g><g id="avatar-hover"><path d="M51.9 272.9c-.7-.4-1.8-.7-2.9-.9v.8c.6.2 1.2.3 1.7.6 2.8 1.4-.2 3.5-8.7 3.5s-11.4-2-8.7-3.5c.4-.2 1-.4 1.7-.6v-.8c-1.1.3-2.2.6-2.9.9-3.8 1.9-1 5.1 9.9 5.1s13.7-3.2 9.9-5.1" class="st0"/><path d="M36.5 271v1.7c0 1.5 1.2 2.8 2.8 2.8h1.9c.5 0 .9-.4.9-.9 0 .5.4.9.9.9h1.9c1.5 0 2.8-1.2 2.8-2.8V271c1.4-.1 2.5-1.3 2.5-2.7v-1.8c0-.7-.1-1.4-.2-2.1-.2-1.5-1.8-2.9-3.4-3.2.1-1.1.1-2.2 0-3.4-.2-1.3-1.4-2.5-2.7-2.7-1.1-.1-2.2-.1-3.4 0-1.3.2-2.5 1.4-2.7 2.7-.1 1.1-.1 2.2 0 3.4-1.6.3-3.2 1.7-3.4 3.2-.1.7-.2 1.4-.2 2.1v1.8c-.2 1.4.9 2.6 2.3 2.7m3-12.9c.1-.4.6-1 1-1 1-.1 2-.1 2.9 0 .4.1 1 .6 1 1 .1 1 .1 1.9 0 2.9-.1.4-.5.9-1 1-1 .1-1.9.1-2.9 0-.5-.1-.9-.6-1-1-.1-1-.1-1.9 0-2.9m-3.5 8.4c0-.6 0-1.2.1-1.8s1-1.4 1.8-1.5c2.6-.2 5.5-.2 8.1 0 .8.1 1.7 1 1.8 1.5.2 1.1.1 2.6.1 3.6 0 .9-.9.8-1.5.8v-3c0-.3-.2-.5-.5-.5s-.5.2-.5.5v6.7c0 .4-.3.8-.8.8H44c-.6 0-1-.4-1-1v-2c0-.6-.4-1-1-1s-1 .4-1 1v2c0 .6-.4 1-1 1h-.8c-.4 0-.8-.4-.8-.8v-6.7c0-.3-.2-.5-.5-.5s-.5.2-.5.5v3h-.6c-.4 0-.8-.3-.8-.8z" class="st0"/></g><g id="avatar_1_"><path d="M23.9 272.9c-.7-.4-1.8-.7-2.9-.9v.8c.6.2 1.2.3 1.7.6 2.8 1.4-.2 3.5-8.7 3.5s-11.4-2-8.7-3.5c.4-.2 1-.4 1.7-.6v-.8c-1.1.3-2.2.6-2.9.9-3.8 1.9-1 5.1 9.9 5.1s13.7-3.2 9.9-5.1" class="st2"/><path d="M8.5 271v1.7c0 1.5 1.2 2.8 2.8 2.8h1.9c.5 0 .9-.4.9-.9 0 .5.4.9.9.9h1.9c1.5 0 2.8-1.2 2.8-2.8V271c1.4-.1 2.5-1.3 2.5-2.7v-1.8c0-.7-.1-1.4-.2-2.1-.2-1.5-1.8-2.9-3.4-3.2.1-1.1.1-2.2 0-3.4-.2-1.3-1.4-2.5-2.7-2.7-1.1-.1-2.2-.1-3.4 0-1.3.2-2.5 1.4-2.7 2.7-.1 1.1-.1 2.2 0 3.4-1.6.3-3.2 1.7-3.4 3.2-.1.7-.2 1.4-.2 2.1v1.8c-.2 1.4.9 2.6 2.3 2.7m3-12.9c.1-.4.6-1 1-1 1-.1 2-.1 2.9 0 .4.1 1 .6 1 1 .1 1 .1 1.9 0 2.9-.1.4-.5.9-1 1-1 .1-1.9.1-2.9 0-.5-.1-.9-.6-1-1-.1-1-.1-1.9 0-2.9M8 266.5c0-.6 0-1.2.1-1.8s1-1.4 1.8-1.5c2.6-.2 5.5-.2 8.1 0 .8.1 1.7 1 1.8 1.5.2 1.1.1 2.6.1 3.6 0 .9-.9.8-1.5.8v-3c0-.3-.2-.5-.5-.5s-.5.2-.5.5v6.7c0 .4-.3.8-.8.8H16c-.6 0-1-.4-1-1v-2c0-.6-.4-1-1-1s-1 .4-1 1v2c0 .6-.4 1-1 1h-.8c-.4 0-.8-.4-.8-.8v-6.7c0-.3-.2-.5-.5-.5s-.5.2-.5.5v3h-.6c-.4 0-.8-.3-.8-.8z" class="st2"/></g><g id="friends-hover_1_"><path d="M46.7 241.1c-.2-1.5-1.6-3-3.2-3.4-.2 0-.4-.1-.6-.1.5-.6.9-1.2.9-1.9.2-1.4.2-2.8 0-4.3-.3-1.5-1.8-3-3.2-3.2q-2.1-.3-4.2 0c-1.5.2-3 1.7-3.3 3.3q-.3 2.1 0 4.2c.1.7.5 1.3.9 1.9-.2 0-.4.1-.6.1-1.5.3-3 1.9-3.2 3.4-.2.9-.2 1.7-.3 2.6l-.1.6.5.3c2.4 1.6 5.2 2.5 8.1 2.5s5.7-.8 8.1-2.5l.5-.4-.1-.6c0-.9 0-1.7-.2-2.5m-11.6-9.5c.1-.7 1-1.5 1.5-1.5.6-.1 1.2-.1 1.8-.1s1.3 0 1.9.1 1.4.9 1.5 1.5c.1 1.2.1 2.5 0 3.7-.1.7-1 1.5-1.5 1.5-1.2.1-2.5.1-3.7 0-.7-.1-1.5-1-1.5-1.5-.1-1.1-.1-2.4 0-3.7m-3 11.6c.1-.6.1-1.2.3-1.9.1-.7.9-1.6 1.6-1.7 3-.7 6.1-.7 9.1 0 .8.2 1.6 1 1.7 1.8.1.6.2 1.2.2 1.8-3.9 2.4-9.1 2.3-12.9 0M54 243.6c-.1-.8-.2-1.7-.3-2.5-.2-1.5-1.6-3-3.2-3.4-.2 0-.4-.1-.6-.1.5-.6.9-1.2.9-1.9.2-1.4.2-2.8 0-4.3-.3-1.5-1.8-3-3.2-3.2-1.1-.1-2.2-.1-3.2-.1.5.6 1 1.2 1.2 2 .6 0 1.2 0 1.8.1s1.4.9 1.5 1.5c.1 1.2.1 2.5 0 3.7-.1.7-1 1.5-1.5 1.5-.3 0-.6 0-.9.1.8.6 1.4 1.4 1.8 2.3l1.8.3c.8.2 1.6 1 1.7 1.8.1.6.2 1.2.2 1.8-.9.5-1.8.9-2.8 1.2l.2 2.1c1.5-.4 2.9-1.1 4.2-1.9l.5-.4z" class="st0"/></g><g id="friends_1_"><path d="M18.7 241.1c-.2-1.5-1.6-3-3.2-3.4-.2 0-.4-.1-.6-.1.5-.6.9-1.2.9-1.9.2-1.4.2-2.8 0-4.3-.3-1.5-1.8-3-3.2-3.2q-2.1-.3-4.2 0c-1.5.2-3 1.7-3.3 3.3q-.3 2.1 0 4.2c.1.7.5 1.3.9 1.9-.2 0-.4.1-.6.1-1.5.3-3 1.9-3.2 3.4-.2.9-.2 1.7-.3 2.6l.1.5.5.3c2.4 1.6 5.2 2.5 8.1 2.5s5.7-.8 8.1-2.5l.5-.4-.1-.6c-.2-.8-.2-1.6-.4-2.4m-11.6-9.5c.1-.7 1-1.5 1.5-1.5.6-.1 1.2-.1 1.8-.1s1.3 0 1.9.1 1.4.9 1.5 1.5c.1 1.2.1 2.5 0 3.7-.1.7-1 1.5-1.5 1.5-1.2.1-2.5.1-3.7 0-.7-.1-1.5-1-1.5-1.5-.1-1.1-.1-2.4 0-3.7m-3 11.6c.1-.6.1-1.2.3-1.9.1-.7.9-1.6 1.6-1.7 3-.7 6.1-.7 9.1 0 .8.2 1.6 1 1.7 1.8.1.6.2 1.2.2 1.8-3.9 2.4-9.1 2.3-12.9 0M26 243.6c-.1-.8-.2-1.7-.3-2.5-.2-1.5-1.6-3-3.2-3.4-.2 0-.4-.1-.6-.1.5-.6.9-1.2.9-1.9.2-1.4.2-2.8 0-4.3-.3-1.5-1.8-3-3.2-3.2-1.1-.1-2.2-.1-3.2-.1.5.6 1 1.2 1.2 2 .6 0 1.2 0 1.8.1s1.4.9 1.5 1.5c.1 1.2.1 2.5 0 3.7-.1.7-1 1.5-1.5 1.5-.3 0-.6 0-.9.1.8.6 1.4 1.4 1.8 2.3l1.8.3c.8.2 1.6 1 1.7 1.8.1.6.2 1.2.2 1.8-.9.5-1.8.9-2.8 1.2l.2 2.1c1.5-.4 2.9-1.1 4.2-1.9l.5-.4z" class="st2"/></g><g id="messages-hover"><path d="M45 199h-6c-4.4 0-8 3.6-8 8v14h14c4.4 0 8-3.6 8-8v-6c0-4.5-3.6-8-8-8m6 14c0 3.3-2.7 6-6 6H33v-12c0-3.3 2.7-6 6-6h6c3.3 0 6 2.7 6 6z" class="st0"/><path d="M47 209H37c-.6 0-1 .4-1 1 0 .5.4.9.9 1H47c.6 0 1-.4 1-1s-.4-1-1-1M47 205H37c-.6 0-1 .4-1 1 0 .5.4.9.9 1H47c.6 0 1-.4 1-1s-.4-1-1-1M42 213h-5c-.6 0-1 .4-1 1s.4 1 1 1h5c.6 0 1-.4 1-1s-.4-1-1-1" class="st0"/></g><g id="messages_1_"><path d="M17 199h-6c-4.4 0-8 3.6-8 8v14h14c4.4 0 8-3.6 8-8v-6c0-4.5-3.6-8-8-8m6 14c0 3.3-2.7 6-6 6H5v-12c0-3.3 2.7-6 6-6h6c3.3 0 6 2.7 6 6z" class="st2"/><path d="M19 209H9c-.6 0-1 .4-1 1 0 .5.4.9.9 1H19c.6 0 1-.4 1-1s-.4-1-1-1M19 205H9c-.6 0-1 .4-1 1 0 .5.4.9.9 1H19c.6 0 1-.4 1-1s-.4-1-1-1M14 213H9c-.6 0-1 .4-1 1s.4 1 1 1h5c.6 0 1-.4 1-1s-.4-1-1-1" class="st2"/></g><path id="profile-hover_1_" d="M52 189c-.1-1.1-.2-2.2-.4-3.2-.2-1.8-1.8-3.6-3.6-4.1-.4-.1-.8-.2-1.2-.2.6-.6 1-1.4 1.1-2.1.2-1.6.2-3.1 0-4.7-.3-1.7-1.9-3.2-3.5-3.5-1.6-.2-3.1-.2-4.7 0-1.7.2-3.3 1.9-3.5 3.5s-.2 3.1 0 4.7c.1.7.5 1.5 1.1 2.1-.4.1-.8.1-1.2.2-1.7.4-3.4 2.3-3.6 4.1-.2 1.1-.3 2.2-.4 3.3l-.1.6.5.3c2.8 2 6.1 3.1 9.6 3.1 3.4 0 6.7-1.1 9.6-3.1l.5-.3zm-13.9-14.1c.1-.8 1.1-1.7 1.8-1.8s1.4-.1 2.1-.1 1.4 0 2.1.1c.8.1 1.6 1 1.8 1.8.2 1.3.2 2.8 0 4.2-.1.8-1.1 1.7-1.8 1.8q-2.1.3-4.2 0c-.8-.1-1.7-1.1-1.8-1.8q-.15-2.1 0-4.2M42 191c-2.8 0-5.6-.8-8-2.4.1-.9.2-1.7.3-2.6.1-1 1.2-2.2 2.1-2.4 3.7-.8 7.4-.8 11 0 1 .3 2 1.4 2.2 2.5.1.8.2 1.7.3 2.5-2.3 1.6-5.1 2.4-7.9 2.4" class="st0"/><path id="profile" d="M24 189c-.1-1.1-.2-2.2-.4-3.2-.2-1.8-1.8-3.6-3.6-4.1-.4-.1-.8-.2-1.2-.2.6-.6 1-1.4 1.1-2.1.2-1.6.2-3.1 0-4.7-.3-1.7-1.9-3.2-3.5-3.5-1.6-.2-3.1-.2-4.7 0-1.7.2-3.3 1.9-3.5 3.5s-.2 3.1 0 4.7c.1.7.5 1.5 1.1 2.1-.4.1-.8.1-1.2.2-1.7.4-3.4 2.3-3.6 4.1-.3 1.1-.4 2.2-.5 3.2v.6l.5.3c2.8 2 6.1 3.1 9.6 3.1 3.4 0 6.7-1.1 9.6-3.1l.5-.3zm-13.9-14.1c.1-.8 1.1-1.7 1.8-1.8s1.4-.1 2.1-.1 1.4 0 2.1.1c.8.1 1.6 1 1.8 1.8.2 1.3.2 2.8 0 4.2-.1.8-1.1 1.7-1.8 1.8q-2.1.3-4.2 0c-.8-.1-1.7-1.1-1.8-1.8q-.15-2.1 0-4.2M14 191c-2.8 0-5.6-.8-8-2.4.1-.9.2-1.7.3-2.6.1-1 1.2-2.2 2.1-2.4 3.7-.8 7.4-.8 11 0 1 .3 2 1.4 2.2 2.5.1.8.2 1.7.3 2.5-2.3 1.6-5.1 2.4-7.9 2.4" class="st2"/><path id="home-hover" d="m42 144.6 9 7.4v12s-.1.1-.2.1H46v-4c0-2.2-1.8-4-4-4s-4 1.8-4 4v4h-4.8c-.1 0-.2 0-.2-.1v-12zm0-2.6-11 9v13c0 1.1 1 2 2.2 2H40v-6c0-1.1.9-2 2-2s2 .9 2 2v6h6.8c1.2 0 2.2-.9 2.2-2v-13z" class="st0"/><path id="home_2_" d="m14 144.6 9 7.4v12s-.1.1-.2.1H18v-4c0-2.2-1.8-4-4-4s-4 1.8-4 4v4H5.2c-.1 0-.2 0-.2-.1v-12zm0-2.6-11 9v13c0 1.1 1 2 2.2 2H12v-6c0-1.1.9-2 2-2s2 .9 2 2v6h6.8c1.2 0 2.2-.9 2.2-2v-13z" class="st2"/></svg>