<svg xmlns="http://www.w3.org/2000/svg" xml:space="preserve" id="svg4" width="56" height="168" x="0" y="0" preserveAspectRatio="none" viewBox="0 0 56 168"><style>.st0{fill:#fff}</style><path id="path4526_1_" d="M22.6 19.1c-.2 0-.4 0-.6-.1l-3.8-1.4c-.6-.2-1-.8-1-1.6l.2-2c-2.3-.7-4.7-.7-6.9 0l.2 2c.1.6-.4 1.3-1 1.6l-3.8 1.6c-.7.2-1.4 0-1.8-.6l-1.9-3c-.4-.6-.2-1.3.2-1.9 6.3-6.3 16.6-6.3 23.1 0 .5.5.6 1.3.2 1.9l-1.9 3c-.3.2-.8.5-1.2.5m-8.7-7.2c1.6 0 3 .2 4.4.8l.5.2-.4 3.1 3.8 1.7 2-3.1v-.1c-5.6-5.9-15.1-5.9-20.9 0l1.9 3.1 4-1.4L9 13l.5-.2c1.4-.5 3-.9 4.4-.9" class="st0"/><path id="path4526_2_" d="M7 51.3c-.7 0-1.3-.5-1.4-1.2l-.8-3.5c-.2-.7.2-1.4.8-1.6l3.7-1.6c.6-.2 1.3-.1 1.8.5l1.3 1.6c2-1.1 3.8-2.8 4.9-4.9l-1.6-1.4c-.5-.5-.7-1.2-.5-1.8l1.6-3.7c.2-.7 1.1-1.1 1.8-.8l3.5.8c.7.1 1.2.7 1.2 1.4C23.3 44 16 51.3 7 51.3m3-6.7-3.8 1.6.7 3.6s0 .1.1.1c8.3 0 14.8-6.7 14.8-14.8l-3.6-1-1.7 3.8 2.5 2.2-.2.5c-1.3 2.8-3.6 5-6.3 6.3l-.5.2z" class="st0"/><path id="path847" d="M20.3 81.8c-.2 0-.4-.1-.6-.2-.2-.4-.2-.7.1-1 3-2.3 4.7-6.2 4.7-10.5s-1.7-8.3-4.7-10.7c-.4-.2-.4-.7-.1-1 .2-.4.7-.4 1-.1 3.3 2.7 5.2 7 5.2 11.7s-1.9 9.1-5.3 11.6c0 .2-.2.2-.3.2m-2.1-3.7c-.2 0-.5-.1-.6-.2-.2-.4-.1-.7.1-1 1.9-1.4 3.1-4.1 3.1-6.8s-1.2-5.3-3.1-6.8c-.4-.2-.4-.7-.1-1 .2-.4.7-.4 1-.1 2.3 1.8 3.6 4.7 3.6 7.9s-1.3 6.1-3.6 7.9c-.2 0-.3.1-.4.1M16 74.3c-.2 0-.5-.1-.6-.4-.2-.4-.1-.7.2-1 1-.6 1.4-1.8 1.4-3s-.6-2.4-1.4-3c-.4-.2-.4-.6-.2-1s.6-.4 1-.2c1.3.8 2.2 2.5 2.2 4.2s-.8 3.4-2.2 4.2c-.2.2-.3.2-.4.2" class="st0"/><path d="M11.8 79.8c-.5 0-.8-.2-1.2-.6l-3.2-4H3.7c-1 0-1.7-.8-1.7-1.8v-6.8c0-1 .7-1.8 1.7-1.8h3.7l3.2-4c.5-.5 1.1-.7 1.7-.5.7.2 1.1 1 1.1 1.8V78c0 .8-.5 1.4-1.1 1.8-.1-.1-.4 0-.5 0M3.7 66.3c-.1 0-.2.1-.2.5v6.7c0 .2.1.5.2.5H8l3.7 4.4.1.1c.1 0 .2-.2.2-.4V62.2c0-.2-.1-.4-.2-.4 0 0-.1 0-.1.1L8 66.3z" class="st0"/><path id="path873" d="M15.1 133.4H13c-4.1-.6-7.1-4.1-7.1-8.3v-1.7c0-.4.4-.7.7-.7.4 0 .7.4.7.7v1.7c0 3.5 2.5 6.5 5.7 6.9h2c3.2-.5 5.6-3.2 5.6-6.6v-2c0-.4.4-.7.7-.7.4 0 .7.4.7.7v2c.1 4-2.9 7.5-6.9 8" class="st0"/><path d="M14.1 130.1c-2.6 0-4.7-2.2-4.7-4.7v-6.7c0-2.6 2.2-4.7 4.7-4.7 2.6 0 4.7 2.2 4.7 4.7v6.7c-.1 2.6-2.1 4.7-4.7 4.7m0-14.7c-1.8 0-3.4 1.4-3.4 3.4v6.7c0 1.8 1.4 3.4 3.4 3.4 1.8 0 3.4-1.4 3.4-3.4v-6.7c-.1-2-1.6-3.4-3.4-3.4M14.1 137.4c-.4 0-.7-.4-.7-.7v-4.1c0-.4.4-.7.7-.7s.7.4.7.7v4.1c0 .5-.4.7-.7.7" class="st0"/><path d="M18.1 137.9H10c-.4 0-.7-.4-.7-.7 0-.4.4-.7.7-.7h8c.4 0 .7.4.7.7 0 .4-.2.7-.6.7" class="st0"/><path id="path873_2_" d="M15.1 161.4h-2.2c-4.1-.6-7.1-4.1-7.1-8.3v-1.7c0-.4.4-.7.7-.7.4 0 .7.4.7.7v1.7c0 3.5 2.5 6.5 5.7 6.9H15c3.2-.5 5.6-3.2 5.6-6.6v-2c0-.4.4-.7.7-.7.4 0 .7.4.7.7v2c0 4-3 7.5-6.9 8" class="st0"/><path d="M13.9 158.2c-2.6 0-4.7-2.2-4.7-4.7v-6.7c0-2.6 2.2-4.7 4.7-4.7 2.6 0 4.7 2.2 4.7 4.7v6.7c.1 2.5-2.1 4.7-4.7 4.7m0-14.8c-1.8 0-3.4 1.4-3.4 3.4v6.7c0 1.8 1.4 3.4 3.4 3.4 1.8 0 3.4-1.4 3.4-3.4v-6.7c-.1-1.9-1.5-3.4-3.4-3.4M13.9 165.5c-.4 0-.7-.4-.7-.7v-4.1c0-.4.4-.7.7-.7s.7.4.7.7v4.1c0 .4-.2.7-.7.7" class="st0"/><path d="M18 165.9h-8c-.4 0-.7-.4-.7-.7 0-.4.4-.7.7-.7h8c.4 0 .7.4.7.7 0 .4-.4.7-.7.7M23.6 162.6c-.2 0-.4-.1-.5-.2L3.9 143.2c-.2-.2-.2-.7 0-1 .2-.2.7-.2 1 0l19.2 19.2c.2.2.2.7 0 1-.2.2-.4.2-.5.2M23.7 102.1c-.2 0-.4-.1-.5-.2L16.1 95c-.2-.2-.2-.7 0-1 .2-.2.7-.2 1 0l7.1 7.1c.2.2.2.7 0 1z" class="st0"/><path d="M16.7 102.1c-.2 0-.4-.1-.5-.2-.2-.2-.2-.7 0-1l7.1-7.1c.2-.2.7-.2 1 0 .2.2.2.7 0 1l-7.1 7.1c-.1.2-.4.2-.5.2M11.8 107.6c-.5 0-.8-.2-1.2-.6l-3.2-4H3.7c-1 0-1.7-.8-1.7-1.8v-6.7c0-1 .7-1.8 1.7-1.8h3.7l3.2-4c.5-.5 1.1-.7 1.7-.5.7.2 1.1 1 1.1 1.8v15.8c0 .8-.5 1.4-1.1 1.8zM3.7 94.1c-.1 0-.2.1-.2.5v6.7c0 .2.1.5.2.5H8l3.7 4.4.1.1c.1 0 .2-.2.2-.4V90c0-.2-.1-.4-.2-.4 0 0-.1 0-.1.1L8 94.2zM53.5 13.5c-6.3-6.3-16.6-6.3-23.1 0-.5.5-.6 1.3-.2 1.9l1.9 3c.4.6 1.2.8 1.8.6l3.8-1.6c.6-.2 1-.8 1-1.6l-.1-1.8c2.3-.7 4.7-.7 6.9 0l-.2 2c-.1.7.4 1.3 1 1.6l3.8 1.6c.2.1.4.1.6.1.5 0 1-.2 1.3-.7l1.9-3c.2-.8.1-1.5-.4-2.1M50.1 33.6l-3.5-.8c-.7-.1-1.4.2-1.8.8l-1.6 3.7c-.2.6-.1 1.3.5 1.8l1.6 1.3c-1.1 2-2.8 3.8-4.9 4.9l-1.3-1.6c-.5-.5-1.2-.7-1.8-.5l-3.7 1.7c-.7.2-1.1 1.1-.8 1.7l.8 3.5c.1.7.7 1.2 1.4 1.2 9 0 16.3-7.3 16.3-16.3 0-.6-.5-1.2-1.2-1.4M44.2 65.8c-.4-.2-.7-.1-1 .2s-.1.7.2 1c1 .6 1.4 1.8 1.4 3s-.6 2.4-1.4 3c-.4.2-.4.6-.2 1 .1.2.4.4.6.4.1 0 .2 0 .4-.1 1.3-.8 2.2-2.5 2.2-4.2 0-1.8-.8-3.3-2.2-4.3m2.3-3.7c-.4-.2-.7-.1-1 .1-.2.4-.1.7.1 1 1.9 1.4 3.1 4.1 3.1 6.8 0 2.8-1.2 5.3-3.1 6.8-.4.2-.4.7-.1 1 .1.2.4.2.6.2.1 0 .4 0 .5-.1 2.3-1.8 3.6-4.7 3.6-7.9s-1.4-6.1-3.7-7.9m2.2-3.7c-.4-.2-.7-.2-1 .1s-.2.7.1 1c3 2.3 4.7 6.2 4.7 10.5s-1.8 8.1-4.7 10.5c-.4.2-.4.7-.1 1 .1.1.4.2.6.2.1 0 .4 0 .5-.1 3.4-2.6 5.3-6.9 5.3-11.6-.2-4.6-2.2-9-5.4-11.6m-8.4 2c-.6-.2-1.3 0-1.7.5l-3.2 4h-3.7c-1 0-1.7.8-1.7 1.8v6.7c0 1 .7 1.8 1.7 1.8h3.7l3.2 4c.4.4.7.6 1.2.6.1 0 .4 0 .5-.1.7-.2 1.1-1 1.1-1.8V62.2c0-.8-.4-1.5-1.1-1.8M49.3 122.7c-.4 0-.7.4-.7.7v2c0 3.4-2.5 6.1-5.6 6.6h-1.8c-3.2-.5-5.7-3.5-5.7-6.9v-1.7c0-.4-.4-.7-.7-.7s-.7.4-.7.7v1.7c0 4.2 3 7.8 7.1 8.3h.4v3.1H38c-.4 0-.7.4-.7.7s.4.7.7.7h8c.4 0 .7-.4.7-.7s-.4-.7-.7-.7h-3.4v-3.1h.4c4-.6 6.9-4 6.9-8v-2c.1-.3-.1-.7-.6-.7m-7.3 7.4c2.6 0 4.7-2.2 4.7-4.7v-6.7c0-2.6-2.2-4.7-4.7-4.7-2.6-.1-4.8 2-4.8 4.7v6.7c0 2.6 2.2 4.7 4.8 4.7M52.1 161.5l-3.5-3.5c.8-1.3 1.4-2.9 1.4-4.5v-2c0-.4-.4-.7-.7-.7-.4 0-.7.4-.7.7v2c0 1.3-.4 2.5-1.1 3.5l-1.4-1.4c.4-.6.5-1.3.5-2.2v-6.5c0-2.6-2.2-4.7-4.7-4.7s-4.7 2-4.7 4.5l-4.4-4.4c-.2-.2-.7-.2-1 0-.2.2-.2.7 0 1l5.4 5.4v4.8c0 2.6 2.2 4.7 4.7 4.7 1.3 0 2.5-.6 3.4-1.4l1.3 1.3c-1 1.1-2.3 1.8-3.7 1.9h-1.8c-3.2-.5-5.7-3.5-5.7-6.9v-1.7c0-.4-.4-.7-.7-.7s-.7.4-.7.7v1.7c0 4.2 3 7.8 7.1 8.3h.4v3.1H38c-.4 0-.7.4-.7.7 0 .4.4.7.7.7h8c.4 0 .7-.4.7-.7 0-.4-.4-.7-.7-.7h-3.4v-3.1h.4c1.8-.2 3.5-1.1 4.7-2.4l3.4 3.4c.1.1.4.2.5.2.2 0 .4-.1.5-.2q.45-.3 0-.9M49.2 98l3-3c.2-.2.2-.7 0-1-.2-.2-.7-.2-1 0l-3 3-3-3c-.2-.2-.7-.2-1 0-.2.2-.2.7 0 1l3 3-3 3c-.2.2-.2.7 0 1 .1.1.4.2.5.2.2 0 .4-.1.5-.2l3-3 3 3c.1.1.4.2.5.2.2 0 .4-.1.5-.2.2-.2.2-.7 0-1zm-8.9-9.6c-.6-.2-1.3 0-1.7.5l-3.2 4h-3.7c-1 0-1.7.8-1.7 1.8v6.7c0 1 .7 1.8 1.7 1.8h3.7l3.2 4c.4.4.7.6 1.2.6.1 0 .4 0 .5-.1.7-.2 1.1-1 1.1-1.8V90.1c0-.9-.4-1.4-1.1-1.7" class="st0"/></svg>