<svg xmlns="http://www.w3.org/2000/svg" width="64" height="704" fill="none" viewBox="0 0 64 704"><path fill="#5865f2" d="M60.667 2H3.333C2.597 2 2 2.597 2 3.333v57.334C2 61.403 2.597 62 3.333 62h57.334c.736 0 1.333-.597 1.333-1.333V3.333C62 2.597 61.403 2 60.667 2"/><path fill="#fff" d="M46.578 18.666A34.7 34.7 0 0 0 37.913 16q-.615 1.099-1.11 2.256a32.3 32.3 0 0 0-9.616 0A24 24 0 0 0 26.077 16a35 35 0 0 0-8.672 2.672c-5.483 8.114-6.97 16.025-6.227 23.825a34.9 34.9 0 0 0 10.627 5.335 25.7 25.7 0 0 0 2.277-3.67 22.6 22.6 0 0 1-3.585-1.711c.301-.218.595-.443.88-.661a24.96 24.96 0 0 0 21.247 0c.287.235.581.46.878.66a22.7 22.7 0 0 1-3.59 1.715 25.4 25.4 0 0 0 2.276 3.667A34.8 34.8 0 0 0 52.82 42.5c.873-9.045-1.49-16.884-6.243-23.834M25.023 37.7c-2.071 0-3.782-1.88-3.782-4.192s1.651-4.208 3.776-4.208 3.822 1.896 3.785 4.208-1.668 4.192-3.779 4.192m13.954 0c-2.075 0-3.78-1.88-3.78-4.192s1.652-4.208 3.78-4.208c2.127 0 3.812 1.896 3.776 4.208S41.088 37.7 38.977 37.7M60.667 66H3.333C2.597 66 2 66.597 2 67.333v57.334c0 .736.597 1.333 1.333 1.333h57.334c.736 0 1.333-.597 1.333-1.333V67.333c0-.736-.597-1.333-1.333-1.333"/><path fill="red" fill-rule="evenodd" d="M52.76 85.767a5.44 5.44 0 0 0-3.83-3.856C45.55 81 32 81 32 81s-13.55 0-16.93.911a5.45 5.45 0 0 0-3.831 3.856c-.906 3.402-.906 10.498-.906 10.498s0 7.096.906 10.498a5.45 5.45 0 0 0 3.83 3.856c3.38.911 16.93.911 16.93.911s13.552 0 16.93-.911a5.44 5.44 0 0 0 3.832-3.856c.906-3.402.906-10.498.906-10.498s0-7.096-.906-10.498" clip-rule="evenodd"/><path fill="#fff" fill-rule="evenodd" d="m27.568 102.709 11.326-6.443-11.326-6.444z" clip-rule="evenodd"/><path fill="#000" d="M60.667 130H3.333c-.736 0-1.333.597-1.333 1.333v57.334c0 .736.597 1.333 1.333 1.333h57.334c.736 0 1.333-.597 1.333-1.333v-57.334c0-.736-.597-1.333-1.333-1.333"/><path fill="#9146ff" d="M60.667 194H3.333c-.736 0-1.333.597-1.333 1.333v57.334c0 .736.597 1.333 1.333 1.333h57.334c.736 0 1.333-.597 1.333-1.333v-57.334c0-.736-.597-1.333-1.333-1.333"/><path fill="#0866ff" d="M61.999 287.999c0-16.568-13.431-29.999-30-29.999C15.431 258 2 271.431 2 287.999c0 14.069 9.686 25.874 22.753 29.117v-19.949h-6.186v-9.168h6.186v-3.95c0-10.211 4.62-14.943 14.645-14.943 1.901 0 5.18.373 6.522.745v8.31c-.708-.075-1.938-.112-3.465-.112-4.919 0-6.82 1.864-6.82 6.708v3.242h9.8l-1.684 9.168h-8.116v20.612C50.49 315.985 62 303.337 62 287.999z"/><path fill="#fff" d="m43.75 297.167 1.683-9.168h-9.799v-3.242c0-4.844 1.9-6.708 6.82-6.708 1.527 0 2.757.037 3.465.112v-8.31c-1.341-.373-4.621-.745-6.522-.745-10.024 0-14.645 4.732-14.645 14.943v3.95h-6.186v9.168h6.186v19.949a30 30 0 0 0 10.88.663v-20.612h8.118M47.714 224.119l-6.19 6.191h-6.19l-5.417 5.416v-5.416h-6.965v-23.215h24.762z"/><path fill="#000" d="m21.405 204-7.738 7.738v27.857h9.285v7.738l7.739-7.738h6.19l13.929-13.928V204zm26.31 20.119-6.191 6.191h-6.19l-5.417 5.416v-5.416h-6.965v-23.215h24.762z"/><path fill="#000" d="M43.071 212.512h-3.095v9.286h3.095zM34.56 212.512h-3.096v9.286h3.096z"/><path fill="#24292e" d="M60.667 322H3.333c-.736 0-1.333.597-1.333 1.333v57.334c0 .736.597 1.333 1.333 1.333h57.334c.736 0 1.333-.597 1.333-1.333v-57.334c0-.736-.597-1.333-1.333-1.333"/><path fill="#fff" fill-rule="evenodd" d="M31.999 330.333c-11.964 0-21.666 9.7-21.666 21.667 0 9.573 6.208 17.693 14.818 20.56 1.084.197 1.48-.473 1.48-1.047 0-.513-.02-1.876-.03-3.683-6.026 1.307-7.298-2.907-7.298-2.907-.985-2.503-2.406-3.166-2.406-3.166-1.967-1.347.15-1.32.15-1.32 2.174.156 3.318 2.233 3.318 2.233 1.932 3.31 5.07 2.357 6.305 1.803.197-1.403.756-2.356 1.376-2.896-4.811-.547-9.87-2.407-9.87-10.71 0-2.365.845-4.299 2.231-5.814-.223-.548-.967-2.75.212-5.734 0 0 1.82-.582 5.958 2.221 1.728-.481 3.582-.72 5.424-.73 1.84.01 3.694.249 5.424.73 4.137-2.803 5.952-2.221 5.952-2.221 1.183 2.984.44 5.186.216 5.734 1.388 1.515 2.228 3.449 2.228 5.814 0 8.323-5.067 10.156-9.893 10.69.778.67 1.47 1.993 1.47 4.013 0 2.897-.026 5.233-.026 5.943 0 .58.39 1.254 1.49 1.044 8.601-2.874 14.805-10.987 14.805-20.557 0-11.967-9.702-21.667-21.668-21.667" clip-rule="evenodd"/><path fill="#fff" d="M60.667 386H3.333c-.736 0-1.333.597-1.333 1.333v57.334c0 .736.597 1.333 1.333 1.333h57.334c.736 0 1.333-.597 1.333-1.333v-57.334c0-.736-.597-1.333-1.333-1.333"/><path fill="#db4437" d="M31.818 438.97c12.786 0 23.152-10.367 23.152-23.153 0-12.784-10.366-23.15-23.152-23.15s-23.151 10.366-23.151 23.15c0 12.786 10.365 23.153 23.151 23.153"/><path fill="#fff" fill-opacity=".2" d="M31.818 392.93c12.733 0 23.085 10.287 23.152 23.02v-.133c0-12.797-10.352-23.15-23.152-23.15S8.667 403.02 8.667 415.817v.133c.066-12.733 10.418-23.02 23.151-23.02"/><path fill="#3e2723" fill-opacity=".2" d="M31.818 438.703c-12.733 0-23.085-10.283-23.151-23.016v.13c0 12.8 10.352 23.153 23.151 23.153 12.8 0 23.152-10.353 23.152-23.153v-.13c-.067 12.733-10.419 23.016-23.152 23.016"/><path fill="url(#a)" d="M45.51 409.5H42.37v5.127h-3.142l-6.615-6.614c-1.82-1.72-4.2-2.746-7.045-2.746-4.1 0-7.673 2.35-9.393 5.79a10.3 10.3 0 0 0-1.124 4.73c0 1.716.397 3.306 1.124 4.726a10.5 10.5 0 0 0 2.183 2.91l2.91 2.914 12.999 12.996 17.595-3.573 3.67-16.303z"/><path fill="#eee" d="M49.711 413.7h-4.2v-4.2h-3.176v4.2h-4.2v3.177h4.2v4.2h3.176v-4.2h4.2"/><path fill="#fff" d="M42.335 409.5h3.142v.267h-3.142zm-4.2 4.2h4.2v.267h-4.2zm7.376 0h4.2v.267h-4.2z" opacity=".4"/><path fill="#3e2723" d="M42.335 421.077h3.142v.263h-3.142zm-4.2-4.2h4.2v.263h-4.2zm7.376 0h4.2v.263h-4.2z" opacity=".1"/><path fill="#eee" d="M25.501 417.803V413.9h9.856c.132.66.265 1.29.265 2.15 0 6.02-4.035 10.287-10.088 10.287-5.82 0-10.517-4.73-10.517-10.52 0-5.787 4.73-10.517 10.517-10.517 2.845 0 5.226 1.027 7.045 2.747l-2.977 2.91c-.76-.727-2.083-1.554-4.035-1.554-3.472 0-6.317 2.91-6.317 6.447 0 3.54 2.845 6.45 6.317 6.45 4.035 0 5.523-2.777 5.788-4.43z"/><path fill="#fff" d="M25.501 422.533c4.035 0 5.523-2.78 5.788-4.433h-.066c-.364 1.687-1.918 4.167-5.722 4.167-3.44 0-6.25-2.81-6.317-6.317v.133c0 3.57 2.844 6.45 6.317 6.45m0-8.37h9.856c.132.63.231 1.224.265 1.987v-.133c0-.86-.1-1.49-.265-2.15h-9.856zm0-8.596c2.778 0 5.093.99 6.88 2.61l.132-.13c-1.82-1.72-4.2-2.747-7.045-2.747-5.82 0-10.517 4.73-10.517 10.517v.133c.099-5.753 4.795-10.383 10.55-10.383" opacity=".4"/><path fill="#3e2723" d="M25.501 409.37c-3.473 0-6.317 2.91-6.317 6.447v.133c.066-3.507 2.877-6.317 6.317-6.317 1.984 0 3.307.86 4.035 1.554l2.977-2.91a4 4 0 0 0-.133-.13l-2.844 2.743c-.728-.66-2.05-1.52-4.035-1.52m0 16.967c-5.755 0-10.451-4.63-10.517-10.387v.133c0 5.82 4.73 10.517 10.517 10.517 6.086 0 10.087-4.267 10.087-10.287v-.13c-.033 5.954-4.035 10.154-10.087 10.154m0-8.534v.264h5.722c.033-.1.033-.164.066-.264z" opacity=".1"/><path fill="url(#b)" d="M31.818 438.97c12.786 0 23.152-10.367 23.152-23.153 0-12.784-10.366-23.15-23.152-23.15s-23.151 10.366-23.151 23.15c0 12.786 10.365 23.153 23.151 23.153"/><path fill="#181818" d="M60.667 450H3.333c-.736 0-1.333.597-1.333 1.333v57.334c0 .736.597 1.333 1.333 1.333h57.334c.736 0 1.333-.597 1.333-1.333v-57.334c0-.736-.597-1.333-1.333-1.333"/><g clip-path="url(#c)"><path fill="#fff" d="M19.298 458 10 492.702 44.702 502 54 467.298zm16.252 28.15-9.697-2.6 2.6-9.697 9.7 2.6z"/></g><path fill="#04d168" d="M60.667 514H3.333c-.736 0-1.333.597-1.333 1.333v57.334c0 .736.597 1.333 1.333 1.333h57.334c.736 0 1.333-.597 1.333-1.333v-57.334c0-.736-.597-1.333-1.333-1.333"/><path fill="#fff" d="M49.067 558.623c2.812-2.006 4.6-4.98 4.6-8.303 0-6.023-5.86-10.917-13.082-10.917s-13.083 4.894-13.083 10.917c0 6.02 5.86 10.913 13.083 10.913 1.567 0 3.061-.236 4.453-.646a.9.9 0 0 1 .733.09l2.842 1.64c.63.366.996.086.805-.617l-.615-2.343a.72.72 0 0 1 .264-.734M36.234 548.59c-.982 0-1.773-.79-1.773-1.773a1.771 1.771 0 1 1 3.545 0 1.78 1.78 0 0 1-1.772 1.773m8.672 0c-.981 0-1.772-.79-1.772-1.773a1.771 1.771 0 1 1 3.545 0 1.78 1.78 0 0 1-1.773 1.773"/><path fill="#fff" d="M26.052 527.333c-8.687 0-15.719 5.86-15.719 13.084 0 3.97 2.124 7.53 5.48 9.93.321.22.453.616.365.996l-.732 2.754c-.22.836.205 1.16.952.72l3.37-1.964c.307-.176.659-.22.996-.116 1.655.496 3.442.76 5.303.76.278 0 .571 0 .85-.014a9.9 9.9 0 0 1-.528-3.223c0-6.577 6.446-11.91 14.386-11.91.278 0 .557 0 .82.013-1.2-6.24-7.705-11.03-15.543-11.03m-5.274 10.974a2.096 2.096 0 0 1-2.094-2.097c0-1.157.937-2.093 2.094-2.093 1.158 0 2.095.936 2.095 2.093-.014 1.157-.937 2.097-2.095 2.097m10.49 0a2.096 2.096 0 0 1-2.095-2.097c0-1.157.937-2.093 2.095-2.093 1.157 0 2.094.936 2.094 2.093a2.096 2.096 0 0 1-2.095 2.097M60.667 578H3.333c-.736 0-1.333.597-1.333 1.333v57.334c0 .736.597 1.333 1.333 1.333h57.334c.736 0 1.333-.597 1.333-1.333v-57.334c0-.736-.597-1.333-1.333-1.333"/><path fill="#050606" d="M44.762 601.777c0 1.743.063 3.476-.02 5.22-.084 1.986.522 3.686 1.775 5.193.146.177.282.353.407.543.45.677.366 1.147-.25 1.67-1.316 1.107-2.622 2.224-3.938 3.33-.783.66-1.274.65-2.068 0-1.065-.866-1.9-1.93-2.642-3.07-.178-.27-.272-.26-.49-.05-1.317 1.284-2.706 2.474-4.47 3.07-2.727.93-5.494 1.074-8.23.104-2.633-.94-4.21-2.884-4.794-5.587-.648-3.02-.314-5.89 1.545-8.45 1.41-1.933 3.363-3.07 5.609-3.77 2.318-.71 4.71-.983 7.112-1.223.679-.074 1.347-.134 2.026-.197.167-.01.313-.033.303-.25-.02-1.107.094-2.237-.167-3.323-.334-1.387-1.243-2.204-2.632-2.507a5.4 5.4 0 0 0-2.935.167c-1.462.503-2.37 1.516-2.736 3.02-.198.823-.585 1.116-1.389 1.033-1.713-.177-3.426-.353-5.128-.533-.7-.074-1.065-.604-.92-1.284.889-4.333 3.73-6.766 7.823-7.886 3.144-.854 6.33-.907 9.483-.02 2.538.71 4.67 1.963 5.86 4.45.678 1.41.835 2.933.856 4.46.02 1.953 0 3.926.01 5.89m-8.125 3.256c0-.52-.02-1.043.01-1.566.021-.324-.094-.437-.417-.407-.794.073-1.598.083-2.392.19-1.389.177-2.747.52-3.875 1.4-1.64 1.283-1.984 3.037-1.712 5.01.323 2.32 2.391 3.603 4.605 2.833 1.504-.523 2.423-1.63 3.06-3.02.669-1.41.721-2.923.721-4.44"/><path fill="#f6a61f" d="M32.773 628.607c-7.969-.054-15.123-2.1-21.588-6.414a34 34 0 0 1-3.76-2.893 2 2 0 0 1-.292-.3c-.115-.157-.199-.347-.063-.533.136-.21.366-.23.564-.137.46.22.898.46 1.347.69a51.1 51.1 0 0 0 12.993 4.73c4.115.9 8.271 1.317 12.49 1.2a50.1 50.1 0 0 0 17.421-3.623c.272-.114.554-.23.836-.294.397-.07.793-.02.971.41.167.397-.052.71-.345.96-.209.177-.449.324-.689.48-3.603 2.34-7.551 3.844-11.729 4.774-2.757.626-5.556.93-8.156.95"/><path fill="#f6a61f" d="M52.877 619.3c-1.2-.01-2.391.147-3.582.273-.23.02-.49.084-.595-.166-.126-.284.115-.45.313-.587 1.483-.98 3.144-1.367 4.888-1.46 1.201-.073 2.391-.023 3.561.333.533.157.794.47.783 1.014-.062 2.903-1.033 5.43-3.133 7.486a2 2 0 0 1-.24.2c-.188.137-.418.26-.616.094-.188-.157-.084-.387 0-.574.616-1.536 1.243-3.06 1.546-4.7.041-.21.052-.42.062-.616.01-.68-.23-.974-.898-1.14-.7-.187-1.4-.157-2.089-.157"/><path fill="#fff" d="M43.071 142.332h5.904l-12.898 14.741 15.173 20.059H39.37l-9.305-12.166-10.648 12.166H13.51l13.795-15.767-14.555-19.033h12.182l8.41 11.12zm-2.072 31.267h3.271L23.154 145.68h-3.51z"/><path fill="#f5c400" d="M62 642H2v60h60z"/><path fill="#111820" d="M23.062 664.34s.027 3.795 1.976 7.72c2.002 3.779 4.762 6.206 7.04 7.172 2.353-1.1 4.626-3.009 5.866-5.066h-6.46c-1.67-1.385-2.986-3.683-3.288-6.34h18.95c-.934 4.271-2.917 8.155-4.806 10.629A22.8 22.8 0 0 1 32.092 686h-.06c-6.797-2.708-10.453-6.974-12.866-11.786C17.618 671.129 16 665.529 16 658h32a46 46 0 0 1-.427 6.34z"/><defs><radialGradient id="b" cx="0" cy="0" r="1" gradientTransform="translate(19.193 398.717)scale(43.9043)" gradientUnits="userSpaceOnUse"><stop stop-color="#fff" stop-opacity=".1"/><stop offset="1" stop-color="#fff" stop-opacity="0"/></radialGradient><linearGradient id="a" x1="20.195" x2="49.577" y1="418.847" y2="429.28" gradientUnits="userSpaceOnUse"><stop stop-color="#3e2723" stop-opacity=".2"/><stop offset="1" stop-color="#3e2723" stop-opacity=".02"/></linearGradient><clipPath id="c"><path fill="#fff" d="M10 458h44v44H10z"/></clipPath></defs></svg>