<svg xmlns="http://www.w3.org/2000/svg" width="56" height="196" fill="none" viewBox="0 0 56 196"><path fill="#fff" d="M3 23.535V4.465c0-1.54 1.667-2.502 3-1.731L25.5 14 6 25.266c-1.333.77-3-.191-3-1.731"/><path fill="#fff" fill-rule="evenodd" d="M23.5 42a9.5 9.5 0 1 1-19 0 9.5 9.5 0 0 1 19 0m1.5 0c0 6.075-4.925 11-11 11S3 48.075 3 42s4.925-11 11-11 11 4.925 11 11m-9.5 0a1.5 1.5 0 1 1-3 0 1.5 1.5 0 0 1 3 0m3 1.5a1.5 1.5 0 1 0 0-3 1.5 1.5 0 0 0 0 3M11 42a1.5 1.5 0 1 1-3 0 1.5 1.5 0 0 1 3 0M15.8 59.7c0 .373-.12.717-.323.998 1.213.19 2.33.657 3.223 1.402 1.6 1.3 2.6 3.3 2.7 5.4l.1 3.8v.1c1.6.6 2.7 2.1 2.7 3.9v.5c-.39 2.541-5.177 3.267-8.1 3.486.06.19.1.392.1.614 0 1.1-1 2.1-2.1 2.1s-2.1-.9-2.1-2.1q-.002-.323.065-.602C8.96 79.095 3.8 78.389 3.8 75.5v-.3c0-1.8 1.2-3.3 2.7-3.8v-.1l.2-3.9q.15-2.55 1.8-4.5c1.031-1.19 2.503-2.002 4.166-2.287A1.7 1.7 0 1 1 15.8 59.7M14 62h.3c1.3 0 2.6.4 3.6 1.2 1.3 1 2.1 2.6 2.2 4.3l.1 3.8c-1.3.4-3.2.7-6.1.7-2.8 0-4.7-.3-6-.7l.2-3.8c0-1.4.5-2.7 1.4-3.6 1.1-1.3 2.7-1.9 4.3-1.9M7.6 72.6c1.6.5 3.7.8 6.5.8s5-.3 6.6-.7c1.3.2 2.2 1.3 2.2 2.7v.3c-.2 1.1-3 2-6.9 2.2h-3.8c-3.9-.2-6.9-1.2-6.9-2.3v-.2c0-1.5 1-2.6 2.3-2.8M15.8 87.7c0 .3-.078.581-.214.825 1.015.201 1.965.638 2.814 1.275 1.5 1.2 2.4 3 2.5 5l.2 4.3c-1.4.4-3.7.8-7 .8s-5.5-.4-7-.8l.2-4.4c0-1.6.6-3 1.6-4.1.982-1.133 2.306-1.81 3.714-2.073A1.7 1.7 0 1 1 15.8 87.7m.4 19c4.4-.3 7.8-1.3 7.9-2.6v-.3c0-1.5-1.1-2.8-2.6-3.1-1.8.5-4.3.9-7.6.9-3.2 0-5.7-.4-7.5-.9-1.3.3-2.5 1.5-2.5 3.1v.3c0 1.3 3.4 2.4 8 2.7l.286-.007a2.5 2.5 0 0 0-.286 1.107c0 1.1 1 2.1 2.2 2.1s2.1-1 2.1-2.1c0-.455-.166-.827-.346-1.192zM13.508 115.513a10.43 10.43 0 0 1 8.992 4.292v-3.555a.75.75 0 0 1 1.5 0V122h-5.75a.75.75 0 0 1 0-1.5h2.898a8.93 8.93 0 0 0-7.565-3.488c-3.356.167-6.13 2.093-7.652 4.882a.75.75 0 1 1-1.317-.718c1.752-3.211 4.977-5.467 8.894-5.663M4.75 130H4v5.75a.75.75 0 0 0 1.5 0v-3.565a10.43 10.43 0 0 0 8.992 4.291c3.906-.195 7.235-2.443 8.902-5.678a.75.75 0 0 0-1.333-.687c-1.425 2.765-4.277 4.699-7.644 4.867A8.93 8.93 0 0 1 6.86 131.5h2.89a.75.75 0 0 0 0-1.5zM12 143c-4.95 0-9 4.05-9 9s4.05 9 9 9c1.937 0 3.735-.62 5.208-1.671l.315.315 4.916 4.917a1.501 1.501 0 0 0 2.122-2.122l-4.917-4.916-.315-.315A8.94 8.94 0 0 0 21 152c0-4.95-4.05-9-9-9m7.5 9a7.5 7.5 0 1 1-15 0 7.5 7.5 0 0 1 15 0" clip-rule="evenodd"/><mask id="a" width="23" height="23" x="2.5" y="170.5" fill="#000" maskUnits="userSpaceOnUse"><path fill="#fff" d="M2.5 170.5h23v23h-23z"/><path fill-rule="evenodd" d="M15.85 189.47c.392-.631 1.4-1.049 2.124-.88.72.182 1.414.429 2.088.727.46-.382.878-.805 1.253-1.259a13 13 0 0 1-.726-2.084c-.168-.723.25-1.732.88-2.124.638-.38 1.302-.696 1.987-.96.056-.587.06-1.182.004-1.778a13 13 0 0 1-1.99-.962c-.631-.392-1.05-1.4-.88-2.124.183-.72.43-1.414.726-2.088a9.5 9.5 0 0 0-1.258-1.253c-.672.297-1.365.543-2.084.725-.724.169-1.732-.249-2.124-.88a13 13 0 0 1-.96-1.987 9.4 9.4 0 0 0-1.778-.002 13 13 0 0 1-.961 1.989c-.393.631-1.402 1.049-2.125.88a13 13 0 0 1-2.088-.726c-.46.381-.877.804-1.253 1.258.296.672.543 1.365.725 2.084.169.724-.249 1.732-.88 2.124-.637.38-1.302.696-1.986.961a9.4 9.4 0 0 0-.004 1.777c.686.265 1.351.581 1.99.962.631.392 1.049 1.401.88 2.124-.182.721-.43 1.414-.727 2.088.382.461.805.878 1.26 1.253a13 13 0 0 1 2.083-.725c.723-.169 1.732.249 2.125.88.379.637.694 1.302.96 1.987.586.055 1.18.059 1.776.003a13 13 0 0 1 .963-1.99" clip-rule="evenodd"/></mask><path fill="#fff" d="m17.974 188.59.369-1.454-.014-.004-.014-.003zm2.088.727-.606 1.372.848.374.714-.591zm1.253-1.259 1.156.956.59-.714-.374-.848zm-.726-2.084-1.46.341.003.014.004.014zm.88-2.124-.768-1.288-.012.007-.011.007zm1.987-.96.54 1.399.867-.335.087-.924zm.004-1.778 1.493-.141-.087-.924-.866-.335zm-1.99-.962-.792 1.274.012.008.011.007zm-.88-2.124-1.454-.369-.004.014-.003.014zm.726-2.088 1.373.606.374-.848-.591-.714zm-1.258-1.253.955-1.156-.714-.591-.848.375zm-2.084.725.341 1.461.014-.003.015-.004zm-2.124-.88-1.289.769.007.011.008.012zm-.96-1.987 1.399-.54-.334-.865-.924-.088zm-1.778-.002-.141-1.494-.923.088-.335.864zm-.961 1.989 1.273.793.008-.013.008-.013zm-2.125.88-.37 1.454.015.004.014.003zm-2.088-.726.606-1.373-.848-.374-.714.591zm-1.253 1.258-1.156-.956-.591.714.375.849zm.725 2.084 1.46-.341-.002-.013-.004-.013zm-.88 2.124.768 1.289.012-.007.012-.008zm-1.986.961-.541-1.4-.865.335-.088.923zm-.004 1.777-1.493.141.087.923.865.335zm1.99.962.792-1.274-.012-.007-.012-.007zm.88 2.124 1.454.368.004-.013.003-.014zm-.727 2.088-1.372-.605-.374.847.59.714zm1.26 1.253-.957 1.156.714.591.848-.374zm2.083-.725-.341-1.461-.013.003-.014.004zm2.125.88 1.289-.767-.008-.013-.008-.013zm.96 1.987-1.399.541.335.866.924.086zm1.776.003.142 1.493.922-.087.335-.865zm2.237-1.198c-.013.02-.007.002.043-.036a1 1 0 0 1 .195-.11.8.8 0 0 1 .216-.06c.062-.008.078 0 .055-.005l.682-2.922c-.748-.175-1.508-.031-2.102.215s-1.232.682-1.637 1.334zm.482-.218c.63.16 1.244.378 1.85.645l1.212-2.745a14.7 14.7 0 0 0-2.325-.808zm3.412.428a11 11 0 0 0 1.453-1.458l-2.312-1.912c-.32.386-.67.742-1.054 1.059zm1.67-3.02a11.7 11.7 0 0 1-.645-1.847l-2.907.738c.205.809.48 1.581.807 2.321zm-.638-1.819c.006.023-.002.007.005-.055a.9.9 0 0 1 .06-.216.9.9 0 0 1 .11-.195c.04-.049.056-.055.036-.043l-1.583-2.548c-.653.405-1.088 1.044-1.334 1.637-.246.594-.39 1.354-.215 2.102zm.188-.495a11.6 11.6 0 0 1 1.759-.849l-1.08-2.799c-.756.292-1.498.644-2.216 1.072zm2.712-2.108c.063-.673.07-1.362.003-2.059l-2.986.282q.068.744-.004 1.497zm-.95-3.318a11.5 11.5 0 0 1-1.762-.85l-1.537 2.577c.72.428 1.462.781 2.22 1.072zm-1.739-.836c.02.013.003.006-.035-.043a.9.9 0 0 1-.11-.195.9.9 0 0 1-.06-.216c-.008-.061 0-.078-.006-.054l-2.921-.683c-.175.749-.031 1.509.215 2.102s.681 1.232 1.334 1.637zm-.218-.48c.16-.632.379-1.246.646-1.852l-2.745-1.211a15 15 0 0 0-.808 2.324zm.429-3.414a11 11 0 0 0-1.459-1.453l-1.911 2.312q.58.478 1.059 1.054zm-3.02-1.669c-.603.266-1.218.484-1.847.644l.739 2.907a14.7 14.7 0 0 0 2.32-.807zm-1.819.637c.023-.006.007.002-.055-.006a.86.86 0 0 1-.412-.17c-.049-.038-.055-.056-.042-.036l-2.548 1.584c.405.653 1.044 1.088 1.637 1.334.594.246 1.354.39 2.102.215zm-.495-.188a11.6 11.6 0 0 1-.85-1.759l-2.798 1.081c.292.755.643 1.497 1.071 2.215zm-2.107-2.712a11 11 0 0 0-2.06-.003l.282 2.987a8 8 0 0 1 1.495.003zm-3.318.949q-.355.925-.851 1.764l2.578 1.534c.427-.718.779-1.46 1.071-2.215zm-.836 1.738c.012-.019.006-.002-.043.037a.9.9 0 0 1-.412.17c-.062.008-.078 0-.055.006l-.682 2.921c.748.175 1.508.031 2.101-.215.594-.246 1.232-.681 1.638-1.333zm-.481.22a12 12 0 0 1-1.852-.646l-1.212 2.745c.742.327 1.515.602 2.324.808zm-3.414-.429c-.54.446-1.022.937-1.453 1.458l2.311 1.913q.48-.582 1.054-1.06zm-1.67 3.021c.267.603.485 1.217.644 1.845l2.908-.735a14.6 14.6 0 0 0-.807-2.323zm.637 1.819c-.005-.024.003-.007-.005.054a.9.9 0 0 1-.06.216.9.9 0 0 1-.11.195c-.038.049-.056.056-.036.043l1.584 2.548c.652-.405 1.088-1.044 1.334-1.637s.39-1.353.215-2.102zm-.187.494c-.557.332-1.144.612-1.76.849l1.083 2.799a14.6 14.6 0 0 0 2.213-1.071zm-2.712 2.107c-.064.675-.069 1.364-.003 2.06l2.987-.282a8 8 0 0 1 .003-1.495zM4 184.287c.616.238 1.205.519 1.763.851l1.536-2.576a14.6 14.6 0 0 0-2.216-1.073zm1.74.837c-.02-.012-.003-.006.035.043a.9.9 0 0 1 .11.195.9.9 0 0 1 .06.216c.008.062 0 .078.005.055l2.922.682c.175-.748.03-1.508-.215-2.102-.246-.593-.682-1.232-1.334-1.637zm.217.482a12 12 0 0 1-.645 1.851l2.745 1.21c.327-.741.603-1.514.808-2.325zm-.428 3.412a11 11 0 0 0 1.458 1.453l1.912-2.312a8 8 0 0 1-1.06-1.054zm3.02 1.67a11.6 11.6 0 0 1 1.846-.644l-.736-2.908a14.6 14.6 0 0 0-2.322.807zm1.82-.637c-.024.005-.008-.003.054.005.06.007.135.026.216.06a1 1 0 0 1 .196.11c.049.039.056.056.043.037l2.547-1.586c-.406-.652-1.044-1.087-1.638-1.333s-1.353-.39-2.101-.215zm.494.186c.332.558.611 1.145.85 1.761l2.798-1.083a14.7 14.7 0 0 0-1.07-2.212zm2.109 2.713c.673.063 1.362.069 2.058.003l-.283-2.987a8 8 0 0 1-1.495-.003zm3.315-.949c.239-.616.52-1.205.852-1.763l-2.577-1.536c-.428.719-.78 1.461-1.072 2.216z" mask="url(#a)"/><circle cx="14" cy="182" r="3.25" stroke="#fff" stroke-width="1.5"/></svg>