<svg xmlns="http://www.w3.org/2000/svg" xml:space="preserve" id="games" width="56" height="952" x="0" y="0" preserveAspectRatio="none" viewBox="0 0 56 952"><style>.st0,.st1,.st3{fill:none;stroke:#bdbebe;stroke-width:2;stroke-linecap:round;stroke-linejoin:round;stroke-miterlimit:10}.st1,.st3{fill:#fff;stroke:#fff}.st3{fill:none}.st4,.st5{fill:#bdbebe}.st5{opacity:.5;enable-background:new}.st6,.st7{fill:none;stroke:#bdbebe;stroke-width:2;stroke-linecap:round;stroke-linejoin:round}.st7{stroke:#fff}.st8{fill:#fff}</style><g id="profile_1_"><circle cx="14" cy="932" r="5" class="st0"/><path d="M14 940s5 0 6 1 2 6 2 6-3.1 2-8 2-8-2-8-2 1-5 2-6 6-1 6-1" class="st0"/></g><path id="like_2_" d="m9 909 4-5 1-4h3l1 2v3l-2 4h7l1 3-4 8H10l-6-2v-9z" class="st0"/><g id="profile"><circle cx="14" cy="876" r="5" class="st0"/><path d="M14 884s5 0 6 1 2 6 2 6-3.1 2-8 2-8-2-8-2 1-5 2-6 6-1 6-1" class="st0"/></g><path id="like_1_" d="m9 853 4-5 1-4h3l1 2v3l-2 4h7l1 3-4 8H10l-6-2v-9z" class="st0"/><g id="sharetochat-on"><path d="m39 815 8 5-8 5v-3c-4 0-7 2-8 6 0-7 4-10 8-10zM51 820h2v12h-7l-5 5v-5h-6v-5h1l2 3 13-8z" class="st1"/></g><g id="sharetochat" style="opacity:.7"><path d="m11 815 8 5-8 5v-3c-4 0-7 2-8 6 0-7 4-10 8-10zM22 820h3v12h-7l-5 5v-5H7v-5" class="st3"/></g><g id="red-ping"><path d="M7 807H3c-.6 0-1-.4-1-1v-8c0-.6.4-1 1-1h4c.6 0 1 .4 1 1v8c0 .6-.4 1-1 1" class="st4"/><path d="M16 807h-4c-.6 0-1-.4-1-1v-12c0-.6.4-1 1-1h4c.6 0 1 .4 1 1v12c0 .6-.4 1-1 1M25 807h-4c-.6 0-1-.4-1-1v-16c0-.6.4-1 1-1h4c.6 0 1 .4 1 1v16c0 .6-.4 1-1 1" class="st5"/></g><g id="orange-ping"><path d="M7 779H3c-.6 0-1-.4-1-1v-8c0-.6.4-1 1-1h4c.6 0 1 .4 1 1v8c0 .6-.4 1-1 1M16 779h-4c-.6 0-1-.4-1-1v-12c0-.6.4-1 1-1h4c.6 0 1 .4 1 1v12c0 .6-.4 1-1 1" class="st4"/><path d="M25 779h-4c-.6 0-1-.4-1-1v-16c0-.6.4-1 1-1h4c.6 0 1 .4 1 1v16c0 .6-.4 1-1 1" class="st5"/></g><g id="green-ping"><path d="M7 751H3c-.6 0-1-.4-1-1v-8c0-.6.4-1 1-1h4c.6 0 1 .4 1 1v8c0 .6-.4 1-1 1M16 751h-4c-.6 0-1-.4-1-1v-12c0-.6.4-1 1-1h4c.6 0 1 .4 1 1v12c0 .6-.4 1-1 1M25 751h-4c-.6 0-1-.4-1-1v-16c0-.6.4-1 1-1h4c.6 0 1 .4 1 1v16c0 .6-.4 1-1 1" class="st4"/></g><g id="lab_x5F_gray1"><path d="M9 703h10M8 717h12M11 703v8l-8 14h22l-8-14v-8" class="st6"/></g><g id="lab_x5F_gray2"><path d="M37 675h10M36 689h12M39 675v8l-8 14h22l-8-14v-8" class="st6"/></g><g id="lab_x5F_white"><path d="M9 675h10M8 689h12M11 675v8l-8 14h22l-8-14v-8" class="st7"/></g><path id="dislike2-on" d="m41 669-2-3v-3l1.4-3H33l-2-4 4-9h11l7 3v10h-5l-4 5-1 4z" class="st8"/><path id="dislike-gray" d="m13 669-2-3v-3l1.4-3H5l-2-4 4-9h11l7 3v10h-5l-4 5-1 4z" class="st4"/><path id="like2-on" d="m42.9 619 2.1 3v3l-1.5 3h7.4l2.1 4.1-4.5 8.9H37.8l-6.8-3v-10h4.9l4-5 1-4z" class="st8"/><path id="like-gray" d="m14.9 619 2.1 3v3l-1.5 3h7.4l2.1 4.1-4.5 8.9H9.8L3 638v-10h4.9l4-5 1-4z" class="st4"/><g id="personaltransport"><path d="M14 613c-5.5 0-11-1.5-11-4.5 0-.8.4-2 2.6-3 .5-.2 1.1 0 1.3.5s0 1.1-.5 1.3c-1.1.5-1.4 1-1.4 1.2 0 .9 3.4 2.5 9 2.5s9-1.6 9-2.5c0-.2-.3-.7-1.4-1.2-.5-.2-.7-.8-.5-1.3s.8-.7 1.3-.5c2.1 1 2.6 2.2 2.6 3 0 3-5.5 4.5-11 4.5" class="st4"/><path d="M19 609H9c-.6 0-1-.4-1-1v-15c0-.6.4-1 1-1h10c.6 0 1 .4 1 1v15c0 .6-.4 1-1 1m-9-2h8v-13h-8z" class="st4"/><path d="M16 603c-.6 0-1-.4-1-1v-2c0-.6.4-1 1-1s1 .4 1 1v2c0 .6-.4 1-1 1" class="st4"/></g><g id="social"><path d="M21 573c-2.2 0-4-1.8-4-4s1.8-4 4-4 4 1.8 4 4-1.8 4-4 4m0-6c-1.1 0-2 .9-2 2s.9 2 2 2 2-.9 2-2-.9-2-2-2M7 573c-2.2 0-4-1.8-4-4s1.8-4 4-4 4 1.8 4 4-1.8 4-4 4m0-6c-1.1 0-2 .9-2 2s.9 2 2 2 2-.9 2-2-.9-2-2-2M14 585c-2.2 0-4-1.8-4-4s1.8-4 4-4 4 1.8 4 4-1.8 4-4 4m0-6c-1.1 0-2 .9-2 2s.9 2 2 2 2-.9 2-2-.9-2-2-2" class="st4"/><path d="M8 579.3c-.3 0-.6-.1-.8-.3-1.5-1.6-2.3-3.8-2.3-6 0-.4 0-.8.1-1.1.1-.5.6-.9 1.1-.9.5.1.9.6.9 1.1 0 .3-.1.6-.1.9 0 1.7.6 3.4 1.7 4.6.4.4.3 1-.1 1.4 0 .2-.3.3-.5.3M17 581.4c-.4 0-.8-.2-.9-.6-.2-.5 0-1.1.6-1.3 2.1-.8 3.6-2.6 4.2-4.7.1-.5.7-.9 1.2-.7.5.1.9.7.7 1.2-.7 2.7-2.7 5-5.3 6.1zM19 567.8c-.2 0-.4-.1-.6-.2-1.7-1.4-4-1.9-6.1-1.3-.5.1-1.1-.2-1.2-.7s.2-1.1.7-1.2c2.7-.7 5.7-.1 7.9 1.7.4.3.5 1 .2 1.4-.3.1-.6.3-.9.3" class="st4"/></g><path id="buildingtool" d="M14 558c-.1 0-.2 0-.3-.1l-3-1c-.4-.1-.7-.5-.7-.9v-9.5l-3.6-2.7c-.3-.2-.4-.5-.4-.8v-5c0-.3.1-.6.4-.8l4-3c.3-.2.7-.3 1-.1s.6.5.6.9v4.5l2 1.3 2-1.3V535q0-.6.6-.9c.3-.2.7-.1 1 .1l4 3c.3.2.4.5.4.8v5c0 .3-.1.6-.4.8l-3.6 2.7v9.5c0 .4-.3.8-.7.9l-3 1c-.1.1-.2.1-.3.1m-2-2.7 2 .7 2-.7V546c0-.3.1-.6.4-.8l3.6-2.7v-4l-2-1.5v3c0 .3-.2.6-.4.8l-3 2c-.3.2-.8.2-1.1 0l-3-2c-.3-.2-.4-.5-.4-.8v-3l-2 1.5v4l3.6 2.7c.3.2.4.5.4.8v9.3z" class="st4"/><g id="navigation"><path d="M18.6 524c-.2 0-.3 0-.4-.1l-4.2-2.1-4.2 2.1c-.4.2-.8.1-1.1-.2s-.4-.8-.2-1.1l4.6-10q.3-.6.9-.6c.6 0 .7.2.9.6l4.6 10c.2.4.1.8-.2 1.1-.2.2-.4.3-.7.3m-4.6-4.3c.2 0 .3 0 .4.1l2.1 1-2.5-5.4-2.5 5.4 2.1-1c.1-.1.2-.1.4-.1" class="st4"/><path d="M14 530c-6.6 0-12-5.4-12-12s5.4-12 12-12 12 5.4 12 12-5.4 12-12 12m0-22c-5.5 0-10 4.5-10 10s4.5 10 10 10 10-4.5 10-10-4.5-10-10-10" class="st4"/><path d="M5 519H3c-.6 0-1-.4-1-1s.4-1 1-1h2c.6 0 1 .4 1 1s-.4 1-1 1M25 519h-2c-.6 0-1-.4-1-1s.4-1 1-1h2c.6 0 1 .4 1 1s-.4 1-1 1M14 510c-.6 0-1-.4-1-1v-2c0-.6.4-1 1-1s1 .4 1 1v2c0 .6-.4 1-1 1M14 530c-.6 0-1-.4-1-1v-2c0-.6.4-1 1-1s1 .4 1 1v2c0 .6-.4 1-1 1" class="st4"/></g><g id="musical"><path d="M11 498c-.6 0-1-.4-1-1v-15c0-.5.4-.9.8-1l12-2c.3 0 .6 0 .8.2s.4.5.4.8v16c0 .6-.4 1-1 1s-1-.4-1-1v-14.8l-10 1.7V497c0 .6-.4 1-1 1" class="st4"/><path d="M8 501c-2.2 0-4-1.8-4-4s1.8-4 4-4 4 1.8 4 4-1.8 4-4 4m0-6c-1.1 0-2 .9-2 2s.9 2 2 2 2-.9 2-2-.9-2-2-2M20 500c-2.2 0-4-1.8-4-4s1.8-4 4-4 4 1.8 4 4-1.8 4-4 4m0-6c-1.1 0-2 .9-2 2s.9 2 2 2 2-.9 2-2-.9-2-2-2M11 489c-.5 0-.9-.3-1-.8s.3-1.1.8-1.2l12-2c.5-.1 1.1.3 1.2.8s-.3 1.1-.8 1.2l-12 2z" class="st4"/></g><g id="explosive"><path d="M14 474c-4.4 0-8-3.6-8-8s3.6-8 8-8 8 3.6 8 8-3.6 8-8 8m0-14c-3.3 0-6 2.7-6 6s2.7 6 6 6 6-2.7 6-6-2.7-6-6-6" class="st4"/><path d="M17 460c-.6 0-1-.4-1-1v-2h-4v2c0 .6-.4 1-1 1s-1-.4-1-1v-3c0-.6.4-1 1-1h6c.6 0 1 .4 1 1v3c0 .6-.4 1-1 1" class="st4"/><path d="M14 457c-.6 0-1-.4-1-1 0-2.1 1.1-3.8 3.1-4.6s4.3-.5 5.6.8c.4.4.4 1 0 1.4s-1 .4-1.4 0c-.7-.7-2.2-.9-3.5-.4-.7.3-1.8 1-1.8 2.7 0 .7-.4 1.1-1 1.1" class="st4"/></g><path id="powerup" d="M13 446h-.3c-.4-.1-.7-.5-.7-1v-5h-2c-.3 0-.6-.1-.8-.4-.2-.2-.2-.6-.2-.9l1.6-5.7H8c-.4 0-.7-.2-.9-.5s-.2-.7 0-1l6-9c.4-.6 1.3-.6 1.7 0l6 9c.2.3.2.7 0 1s-.5.5-.9.5h-3.2l-.5 2H18c.4 0 .7.2.9.5s.2.7 0 1l-5 9c-.2.3-.5.5-.9.5m-1.7-8H13c.6 0 1 .4 1 1v2.1l2.3-4.1H15c-.3 0-.6-.1-.8-.4-.2-.2-.3-.6-.2-.9l1-4c.1-.4.5-.8 1-.8h2.1l-4.1-6.2-4.1 6.3H12c.3 0 .6.1.8.4s.2.6.2.9z" class="st4"/><g id="range"><path d="M14 415c-5 0-9-4-9-9s4-9 9-9 9 4 9 9-4 9-9 9m0-16c-3.9 0-7 3.1-7 7s3.1 7 7 7 7-3.1 7-7-3.1-7-7-7" class="st4"/><path d="M14 404c-1.1 0-2 .9-2 2s.9 2 2 2 2-.9 2-2-.9-2-2-2M14 401c-.6 0-1-.4-1-1v-4c0-.6.4-1 1-1s1 .4 1 1v4c0 .6-.4 1-1 1M14 417c-.6 0-1-.4-1-1v-4c0-.6.4-1 1-1s1 .4 1 1v4c0 .6-.4 1-1 1M24 407h-4c-.6 0-1-.4-1-1s.4-1 1-1h4c.6 0 1 .4 1 1s-.4 1-1 1M8 407H4c-.6 0-1-.4-1-1s.4-1 1-1h4c.6 0 1 .4 1 1s-.4 1-1 1" class="st4"/></g><path id="melee" d="M15 390h-2c-.5 0-.9-.3-1-.8l-.8-4.2H8c-.6 0-1-.4-1-1v-3c0-.6.4-1 1-1h2.8L9 372.2c-.1-.3 0-.6.2-.8l4-5c.4-.5 1.2-.5 1.6 0l4 5c.2.2.3.5.2.8l-1.7 7.8H20c.6 0 1 .4 1 1v3c0 .6-.4 1-1 1h-3.2l-.8 4.2c-.1.5-.5.8-1 .8m-1.2-2h.4l.8-4.2c.1-.5.5-.8 1-.8h3v-1h-3c-.3 0-.6-.1-.8-.4-.2-.2-.3-.5-.2-.8l1.9-8.5-2.9-3.7-2.9 3.7 1.9 8.5c.1.3 0 .6-.2.8s-.5.4-.8.4H9v1h3c.5 0 .9.3 1 .8z" class="st4"/><g id="nogear"><path d="M11 354c-.3 0-.5-.1-.7-.3-.4-.4-.4-1 0-1.4l6-6c.4-.4 1-.4 1.4 0s.4 1 0 1.4l-6 6c-.2.2-.4.3-.7.3" class="st4"/><path d="M17 354c-.3 0-.5-.1-.7-.3l-6-6c-.4-.4-.4-1 0-1.4s1-.4 1.4 0l6 6c.4.4.4 1 0 1.4-.2.2-.4.3-.7.3M3 346c-.6 0-1-.4-1-1v-3c0-.6.4-1 1-1h3c.6 0 1 .4 1 1s-.4 1-1 1H4v2c0 .6-.4 1-1 1M12 343h-2c-.6 0-1-.4-1-1s.4-1 1-1h2c.6 0 1 .4 1 1s-.4 1-1 1M18 343h-2c-.6 0-1-.4-1-1s.4-1 1-1h2c.6 0 1 .4 1 1s-.4 1-1 1M12 359h-2c-.6 0-1-.4-1-1s.4-1 1-1h2c.6 0 1 .4 1 1s-.4 1-1 1M18 359h-2c-.6 0-1-.4-1-1s.4-1 1-1h2c.6 0 1 .4 1 1s-.4 1-1 1M25 346c-.6 0-1-.4-1-1v-2h-2c-.6 0-1-.4-1-1s.4-1 1-1h3c.6 0 1 .4 1 1v3c0 .6-.4 1-1 1M25 359h-3c-.6 0-1-.4-1-1s.4-1 1-1h2v-2c0-.6.4-1 1-1s1 .4 1 1v3c0 .6-.4 1-1 1M6 359H3c-.6 0-1-.4-1-1v-3c0-.6.4-1 1-1s1 .4 1 1v2h2c.6 0 1 .4 1 1s-.4 1-1 1M3 352c-.6 0-1-.4-1-1v-2c0-.6.4-1 1-1s1 .4 1 1v2c0 .6-.4 1-1 1M25 352c-.6 0-1-.4-1-1v-2c0-.6.4-1 1-1s1 .4 1 1v2c0 .6-.4 1-1 1" class="st4"/></g><g id="partialgears"><path d="M10 332H3c-.6 0-1-.4-1-1v-15c0-.6.4-1 1-1h5c.2 0 .4.1.6.2l2.7 1.8H17c.6 0 1 .4 1 1s-.4 1-1 1h-6c-.2 0-.4-.1-.6-.2L7.7 317H4v13h6c.6 0 1 .4 1 1s-.4 1-1 1" class="st4"/><path d="M6 319c-.6 0-1-.4-1-1v-2c0-.6.4-1 1-1s1 .4 1 1v2c0 .6-.4 1-1 1M10 332c-.2 0-.3 0-.5-.1-.5-.3-.7-.9-.4-1.4l7-13c0-.1.1-.2.2-.2l1.6-1.6-.6-1.7h-6.6l-.8 2.3c-.2.5-.7.8-1.3.6-.5-.2-.8-.7-.6-1.3l1-3c.1-.4.5-.7.9-.7h8c.4 0 .8.3.9.7l1 3c.1.4 0 .8-.2 1l-1.9 1.9-6.9 12.9c-.1.4-.4.6-.8.6M25 320c-.6 0-1-.4-1-1v-2h-2c-.6 0-1-.4-1-1s.4-1 1-1h3c.6 0 1 .4 1 1v3c0 .6-.4 1-1 1M25 326c-.6 0-1-.4-1-1v-3c0-.6.4-1 1-1s1 .4 1 1v3c0 .6-.4 1-1 1M25 332h-3c-.6 0-1-.4-1-1s.4-1 1-1h2v-2c0-.6.4-1 1-1s1 .4 1 1v3c0 .6-.4 1-1 1M19 332h-3c-.6 0-1-.4-1-1s.4-1 1-1h3c.6 0 1 .4 1 1s-.4 1-1 1" class="st4"/><path d="M13 332h-3c-.6 0-1-.4-1-1s.4-1 1-1h3c.6 0 1 .4 1 1s-.4 1-1 1" class="st4"/></g><g id="allgears"><path d="M25 304H3c-.6 0-1-.4-1-1v-14c0-.6.4-1 1-1h5c.2 0 .4.1.6.2l2.7 1.8h5.4l2.7-1.8c.2-.1.4-.2.6-.2h5c.6 0 1 .4 1 1v14c0 .6-.4 1-1 1m-21-2h20v-12h-3.7l-2.7 1.8c-.2.1-.4.2-.6.2h-6c-.2 0-.4-.1-.6-.2L7.7 290H4z" class="st4"/><path d="M20 290q-.6 0-.9-.6l-1.7-3.4h-6.8l-1.7 3.4c-.2.5-.8.7-1.3.4-.5-.2-.7-.8-.4-1.3l2-4c.2-.3.5-.6.9-.6h8q.6 0 .9.6l2 4c.2.5 0 1.1-.4 1.3-.3.2-.4.2-.6.2M6 293c-.6 0-1-.4-1-1v-3c0-.6.4-1 1-1s1 .4 1 1v3c0 .6-.4 1-1 1" class="st4"/><path d="M22 293c-.6 0-1-.4-1-1v-3c0-.6.4-1 1-1s1 .4 1 1v3c0 .6-.4 1-1 1" class="st4"/></g><g id="privateserver"><path d="M10 277H5c-.6 0-1-.4-1-1v-20c0-.6.4-1 1-1h14c.6 0 1 .4 1 1v5c0 .6-.4 1-1 1s-1-.4-1-1v-4H6v18h4c.6 0 1 .4 1 1s-.4 1-1 1" class="st4"/><path d="M8.5 258c-.8 0-1.5.7-1.5 1.5s.7 1.5 1.5 1.5 1.5-.7 1.5-1.5-.7-1.5-1.5-1.5M23 278h-9.1c-.6 0-1-.4-1-1v-6c0-.6.4-1 1-1H23c.6 0 1 .4 1 1v6c0 .6-.4 1-1 1m-8.1-2H22v-4h-7.1z" class="st4"/><path d="M21 272c-.6 0-1-.4-1-1v-4c0-.8-.7-1.5-1.5-1.5s-1.5.7-1.5 1.5v4c0 .6-.4 1-1 1s-1-.4-1-1v-4c0-1.9 1.6-3.5 3.5-3.5s3.5 1.6 3.5 3.5v4c0 .6-.4 1-1 1M12 269H5c-.6 0-1-.4-1-1s.4-1 1-1h7c.6 0 1 .4 1 1s-.4 1-1 1M10 273H5c-.6 0-1-.4-1-1s.4-1 1-1h5c.6 0 1 .4 1 1s-.4 1-1 1" class="st4"/></g><g id="publicserver"><path d="M25 250H3c-.6 0-1-.4-1-1v-3c0-2.8 2.2-5 5-5q.9 0 1.8.3c1.1-2 3.3-3.3 5.7-3.3 3.1 0 5.8 2.2 6.4 5.2.4-.1.7-.2 1.1-.2 2.3 0 3.9 1.6 4 3.9v2.1c0 .6-.4 1-1 1m-21-2h20v-1c0-1.7-1.3-2-2-2-.6 0-1.1.3-1.3.5-.3.3-.7.3-1.1.2-.4-.2-.6-.5-.6-1v-.2c0-2.5-2-4.5-4.5-4.5-1.9 0-3.6 1.2-4.3 3.1q-.15.45-.6.6c-.45.15-.6 0-.9-.1-.5-.4-1.1-.6-1.7-.6-1.7 0-3 1.4-3 3z" class="st4"/><path d="M21 240c-.6 0-1-.4-1-1v-10H8v10c0 .6-.4 1-1 1s-1-.4-1-1v-11c0-.6.4-1 1-1h14c.6 0 1 .4 1 1v11c0 .6-.4 1-1 1" class="st4"/><path d="M10.5 230c-.8 0-1.5.7-1.5 1.5s.7 1.5 1.5 1.5 1.5-.7 1.5-1.5-.7-1.5-1.5-1.5" class="st4"/></g><g id="nocopylocked"><path d="M14 221c-6.1 0-11-4.9-11-11s4.9-11 11-11 11 4.9 11 11-4.9 11-11 11m0-20c-5 0-9 4-9 9s4 9 9 9 9-4 9-9-4-9-9-9" class="st4"/><path d="M14 216c-1.6 0-3.1-.6-4.2-1.8-1.2-1.1-1.8-2.6-1.8-4.2s.6-3.1 1.8-4.2c1.1-1.1 2.6-1.8 4.2-1.8s3.1.6 4.2 1.8c.4.4.4 1 0 1.4s-1 .4-1.4 0c-1.5-1.5-4.1-1.5-5.7 0-.8.8-1.2 1.8-1.2 2.8s.4 2.1 1.2 2.8c1.5 1.5 4.1 1.5 5.7 0 .4-.4 1-.4 1.4 0s.4 1 0 1.4c-1.1 1.2-2.6 1.8-4.2 1.8" class="st4"/><path d="M20.5 218c-.3 0-.5-.1-.7-.3L6.3 204.2c-.4-.4-.4-1 0-1.4s1-.4 1.4 0l13.5 13.5c.4.4.4 1 0 1.4-.2.2-.4.3-.7.3" class="st4"/></g><g id="copylocked"><path d="M14 193c-6.1 0-11-4.9-11-11s4.9-11 11-11 11 4.9 11 11-4.9 11-11 11m0-20c-5 0-9 4-9 9s4 9 9 9 9-4 9-9-4-9-9-9" class="st4"/><path d="M13.7 188c-1.6 0-3.1-.6-4.2-1.8-1.1-1.1-1.8-2.6-1.8-4.2s.6-3.1 1.8-4.2c1.1-1.1 2.6-1.8 4.2-1.8s3.1.6 4.2 1.8c.4.4.4 1 0 1.4s-1 .4-1.4 0c-1.5-1.5-4.1-1.5-5.7 0-.8.8-1.2 1.8-1.2 2.8s.4 2.1 1.2 2.8c1.5 1.5 4.1 1.5 5.7 0 .4-.4 1-.4 1.4 0s.4 1 0 1.4c-1.1 1.2-2.6 1.8-4.2 1.8" class="st4"/></g><path id="playaudio-on" d="M33 144c0-.6.4-.8.9-.5l16.3 10c.5.3.5.8 0 1l-16.3 10c-.5.3-.9.1-.9-.5z" class="st8"/><path id="playaudio" d="M6 165c-.2 0-.3 0-.5-.1-.3-.2-.5-.5-.5-.9v-20c0-.4.2-.7.5-.9s.7-.2 1 0l16 10c.3.2.5.5.5.8s-.2.7-.5.8l-16 10c-.1.2-.3.3-.5.3m1-19.2v16.4l13.1-8.2z" class="st4"/><path id="dislike-on" d="m41 137-2-3v-3l1.4-3H33l-2-4 4-9h11l7 3v10h-5l-4 5-1 4z" class="st8"/><path id="dislike" d="m19 127-4 5-1 4h-3l-1-2v-3l2-4H5l-1-3 4-8h10l6 2v9z" class="st0"/><path id="like-on" d="m42.9 87 2.1 3v3l-1.5 3h7.4l2.1 4.1-4.5 8.9H37.8l-6.8-3V96h4.9l4-5 1-4z" class="st8"/><path id="like" d="M20 109H10c-.1 0-.2 0-.3-.1l-6-2c-.4-.1-.7-.5-.7-.9v-9c0-.6.4-1 1-1h4.5l3.6-4.5.9-3.8c.1-.4.5-.8 1-.8h3q.6 0 .9.6l1 2c.1.2.1.3.1.5v3c0 .2 0 .3-.1.4L17.6 96H23c.4 0 .8.3.9.7l1 3c.1.3.1.5-.1.8l-4 8c-.1.3-.4.5-.8.5m-9.8-2h9.2l3.5-7.1-.6-1.9H16c-.3 0-.7-.2-.9-.5s-.2-.7 0-1l1.9-3.8v-2.5l-.6-1.2h-1.6l-.8 3.2c0 .1-.1.3-.2.4l-4 5c-.2.3-.5.4-.8.4H5v7.3z" class="st4"/><g id="catalog-on"><path d="M53.2 60c-.5-.1-1.1.3-1.2.8v.2H36.2l-.2-1.2c-.1-.5-.5-.8-1-.8h-4c-.6 0-1 .4-1 1s.4 1 1 1h3.2L36 72.2c.1.5.5.8 1 .8h14c.5 0 .9-.3 1-.8l2-11c.1-.6-.3-1.1-.8-1.2M48 70h-8c-.6 0-1-.4-1-1s.4-1 1-1h8c.6 0 1 .4 1 1s-.4 1-1 1m1-4H39c-.6 0-1-.4-1-1s.4-1 1-1h10c.6 0 1 .4 1 1s-.4 1-1 1" class="st8"/><circle cx="39.5" cy="77.5" r="2.5" class="st8"/><circle cx="48.5" cy="77.5" r="2.5" class="st8"/></g><g id="catalog"><path d="M23 73H9c-.5 0-.9-.4-1-.8L6.2 61H3c-.6 0-1-.4-1-1s.4-1 1-1h4c.5 0 .9.4 1 .8L9.8 71h12.3L24 60.8c.1-.5.6-.9 1.2-.8.5.1.9.6.8 1.2l-2 11c-.1.5-.5.8-1 .8" class="st4"/><path d="M21 65H11c-.6 0-1-.4-1-1s.4-1 1-1h10c.6 0 1 .4 1 1s-.4 1-1 1M20 69h-8c-.6 0-1-.4-1-1s.4-1 1-1h8c.6 0 1 .4 1 1s-.4 1-1 1M11 81c-1.9 0-3.5-1.6-3.5-3.5S9.1 74 11 74s3.5 1.6 3.5 3.5S12.9 81 11 81m0-5c-.8 0-1.5.7-1.5 1.5S10.2 79 11 79s1.5-.7 1.5-1.5S11.8 76 11 76M21 81c-1.9 0-3.5-1.6-3.5-3.5S19.1 74 21 74s3.5 1.6 3.5 3.5S22.9 81 21 81m0-5c-.8 0-1.5.7-1.5 1.5S20.2 79 21 79s1.5-.7 1.5-1.5S21.8 76 21 76" class="st4"/></g><path id="games-on" d="m53.2 37.4-4.3-2.9c-.5-.3-1.4-.5-1.9-.5H37c-.5 0-1.4.2-1.8.6l-4.3 2.9c-.5.3-.8 1-.8 1.6v10c0 .5.5 1 1 1h3c.5 0 1.4-.2 1.9-.4l2.2-1.1c.5-.2 1.3-.4 1.9-.4h4c.5 0 1.4.2 1.9.4l2.2 1.1c.5.2 1.3.4 1.9.4h3c.5 0 1-.5 1-1V39c-.1-.5-.5-1.2-.9-1.6M39 43h-1v1c0 .6-.4 1-1 1s-1-.4-1-1v-1h-1c-.6 0-1-.4-1-1s.4-1 1-1h1v-1c0-.6.4-1 1-1s1 .4 1 1v1h1c.6 0 1 .4 1 1s-.4 1-1 1m7-1c-.8 0-1.5-.7-1.5-1.5S45.2 39 46 39s1.5.7 1.5 1.5S46.8 42 46 42m3 3c-.8 0-1.5-.7-1.5-1.5S48.2 42 49 42s1.5.7 1.5 1.5S49.8 45 49 45" class="st8"/><g id="games_1_"><path d="M25 50h-4c-.1 0-.3 0-.4-.1L15.8 48h-3.6l-4.8 1.9c-.1.1-.3.1-.4.1H3c-.6 0-1-.4-1-1V38c0-.4.2-.7.5-.9l5-3c.1-.1.3-.1.5-.1h12.2c.2 0 .4.1.5.2l4.8 3c.3.2.5.5.5.8v11c0 .6-.4 1-1 1m-3.8-2H24v-9.4L20 36H8.3L4 38.6V48h2.8l4.8-1.9c.1 0 .2-.1.4-.1h4c.1 0 .3 0 .4.1z" class="st4"/><path d="M11 43H7c-.6 0-1-.4-1-1s.4-1 1-1h4c.6 0 1 .4 1 1s-.4 1-1 1" class="st4"/><path d="M9 45c-.6 0-1-.4-1-1v-4c0-.6.4-1 1-1s1 .4 1 1v4c0 .6-.4 1-1 1M18 39c-.8 0-1.5.7-1.5 1.5S17.2 42 18 42s1.5-.7 1.5-1.5S18.8 39 18 39M21 42c-.8 0-1.5.7-1.5 1.5S20.2 45 21 45s1.5-.7 1.5-1.5S21.8 42 21 42" class="st4"/></g><g id="inventory-on"><path d="m50.9 12.4-.7 1.3c-.7 1.4-1.9 2.4-3.3 2.9V18c0 .6-.4 1-1 1s-1-.4-1-1v-1h-6v1c0 .6-.4 1-1 1s-1-.4-1-1v-1.4c-1.4-.5-2.6-1.5-3.3-2.9l-.6-1.5V25c0 .6.4 1 1 1h16c.6 0 1-.4 1-1V12.2z" class="st8"/><path d="M39.1 15h5.8c1.5 0 2.9-.8 3.6-2.2l.6-1.2 1.2-3c-.7-1.3-2-2.3-3.9-2.5-.2-2.3-2.1-4-4.5-4-2.3 0-4.2 1.8-4.5 4-2 .2-3.4 1.4-4 2.8l2 4c.8 1.3 2.2 2.1 3.7 2.1M42 4c1.2 0 2.2.9 2.4 2h-4.9c.3-1.1 1.3-2 2.5-2" class="st8"/></g><g id="inventory"><path d="M22 26H6c-.6 0-1-.4-1-1V11c0-2.8 2.2-5 5-5h8c2.8 0 5 2.2 5 5v14c0 .6-.4 1-1 1M7 24h14V11c0-1.7-1.3-3-3-3h-8c-1.7 0-3 1.3-3 3z" class="st4"/><path d="M10 19c-.6 0-1-.4-1-1v-2c0-.6.4-1 1-1s1 .4 1 1v2c0 .6-.4 1-1 1M18 19c-.6 0-1-.4-1-1v-2c0-.6.4-1 1-1s1 .4 1 1v2c0 .6-.4 1-1 1M17.5 8c-.6 0-1-.4-1-1v-.5C16.5 5.1 15.4 4 14 4s-2.5 1.1-2.5 2.5V7c0 .6-.4 1-1 1s-1-.4-1-1v-.5C9.5 4 11.5 2 14 2s4.5 2 4.5 4.5V7c0 .6-.4 1-1 1" class="st4"/><path d="M16.9 17h-5.8c-2.3 0-4.3-1.3-5.4-3.3l-.6-1.2 1.8-.9.6 1.2c.7 1.4 2.1 2.2 3.6 2.2h5.8c1.5 0 2.9-.8 3.6-2.2l.6-1.2 1.8.9-.6 1.2c-1 2-3.1 3.3-5.4 3.3" class="st4"/></g></svg>