<svg width="72" height="73" viewBox="0 0 72 73" fill="none" xmlns="http://www.w3.org/2000/svg">
<path d="M34.5752 5.6886C35.4987 5.38074 36.4983 5.38089 37.4219 5.6886L59.9229 13.1886C61.7603 13.8011 63.0015 15.5282 62.999 17.465L62.9922 19.9005C62.8812 44.6717 61.2643 57.1275 37.7373 67.4708L37.5293 67.5558C36.55 67.9253 35.4509 67.9254 34.4717 67.5558L34.2637 67.4708C10.736 57.1276 9.11884 44.6716 9.00782 19.9005L9.00098 17.465C8.99863 15.6494 10.0892 14.0171 11.7393 13.3156L12.0772 13.1886L34.5752 5.6886ZM36.4727 8.5343C36.165 8.43197 35.832 8.4318 35.5244 8.5343L13.0254 16.0343C12.4171 16.2373 12.0003 16.8148 12.001 17.4611C12.0193 30.8092 12.3057 39.9998 15.3076 47.2111C18.1849 54.1221 23.7486 59.5714 35.4707 64.7247C35.7998 64.8694 36.2012 64.8693 36.5303 64.7247C48.2522 59.5714 53.8152 54.1222 56.6924 47.2111C59.6943 39.9997 59.9807 30.8094 59.999 17.4611C59.9998 16.8147 59.5831 16.2372 58.9746 16.0343L36.4727 8.5343Z" fill="#202227"/>
<path d="M36.3809 18.4741C40.2214 18.6691 43.2754 21.8449 43.2754 25.7339V28.1567H45.6992L45.8857 28.1616C47.8063 28.2589 49.334 29.8468 49.334 31.7915V46.0435L49.3271 46.2144C49.2667 47.0634 48.7574 47.8152 47.9473 48.105L47.5469 48.2437C45.424 48.9592 41.4693 49.9643 36.0068 49.9644L34.9346 49.9517C30.0253 49.832 26.4483 48.9115 24.4668 48.2437L24.0664 48.105C23.2022 47.796 22.6797 46.9612 22.6797 46.0435V31.7915C22.6797 29.847 24.2067 28.2591 26.127 28.1616L26.3145 28.1567H28.7373V25.7339C28.7373 21.7193 31.9923 18.4646 36.0068 18.4644L36.3809 18.4741ZM26.3145 31.1567C25.964 31.1567 25.6797 31.441 25.6797 31.7915V45.4819C27.6061 46.1052 31.1382 46.9644 36.0068 46.9644C40.8757 46.9643 44.4077 46.1052 46.334 45.4819V31.7915C46.334 31.4411 46.0496 31.1569 45.6992 31.1567H26.3145ZM36.0068 35.1372C36.8351 35.1373 37.5067 35.809 37.5068 36.6372V41.4829C37.5068 42.3113 36.8352 42.9828 36.0068 42.9829C35.1784 42.9829 34.5068 42.3113 34.5068 41.4829V36.6372C34.507 35.8089 35.1785 35.1372 36.0068 35.1372ZM36.0068 21.4644C33.6492 21.4646 31.7373 23.3762 31.7373 25.7339V28.1538H40.2754V25.7339C40.2754 23.3763 38.3644 21.4647 36.0068 21.4644Z" fill="#202227"/>
</svg>
