<svg xmlns="http://www.w3.org/2000/svg" xml:space="preserve" id="navigation" width="56" height="504" x="0" y="0" preserveAspectRatio="none" viewBox="0 0 56 504"><style>.st0,.st1{fill:none;stroke:#00a2ff;stroke-width:2;stroke-linecap:round;stroke-linejoin:round;stroke-miterlimit:10}.st1{stroke:#191919}.st2{fill:#fff}.st3{fill:#00a2ff}.st4{fill:#191919}.st5{fill:#02b757}.st6{fill:#f68802}</style><g id="my_feed-on"><path d="M31 480h22v20H31zM41 485h8M41 495h8" class="st0"/><path d="M35 484h2v2h-2zM35 494h2v2h-2zM41 490h8M35 489h2v2h-2z" class="st0"/></g><g id="my_feed"><path d="M3 480h22v20H3zM13 485h8M13 495h8" class="st1"/><path d="M7 484h2v2H7zM7 494h2v2H7zM13 490h8M7 489h2v2H7z" class="st1"/></g><path id="notification-on_1_" d="M48 450H36c-3.3 0-6 2.7-6 6v12c0 3.3 2.7 6 6 6h12c3.3 0 6-2.7 6-6v-12c0-3.3-2.7-6-6-6m1 19H35c-.6 0-1-.4-1-1s.4-1 1-1h14c.6 0 1 .4 1 1s-.4 1-1 1m0-4H35c-.6 0-1-.4-1-1s.4-1 1-1h14c.6 0 1 .4 1 1s-.4 1-1 1m0-4H35c-.6 0-1-.4-1-1s.4-1 1-1h14c.6 0 1 .4 1 1s-.4 1-1 1m0-4H35c-.6 0-1-.4-1-1s.4-1 1-1h14c.6 0 1 .4 1 1s-.4 1-1 1" class="st2"/><g id="notification_1_"><path d="M20 474H8c-3.4 0-6-2.6-6-6v-12c0-3.4 2.6-6 6-6h12c3.4 0 6 2.6 6 6v12c0 3.4-2.6 6-6 6M8 452c-2.2 0-4 1.8-4 4v12c0 2.2 1.8 4 4 4h12c2.2 0 4-1.8 4-4v-12c0-2.2-1.8-4-4-4z" class="st2"/><path d="M21 461H7c-.6 0-1-.4-1-1s.4-1 1-1h14c.6 0 1 .4 1 1s-.4 1-1 1M21 465H7c-.6 0-1-.4-1-1s.4-1 1-1h14c.6 0 1 .4 1 1s-.4 1-1 1M21 469H7c-.6 0-1-.4-1-1s.4-1 1-1h14c.6 0 1 .4 1 1s-.4 1-1 1M21 457H7c-.6 0-1-.4-1-1s.4-1 1-1h14c.6 0 1 .4 1 1s-.4 1-1 1" class="st2"/></g><path id="shop-on" d="M50 429.9c0-.5-.5-.9-1-.9h-2v-2c0-2.8-2.2-5-5-5s-5 2.2-5 5v2h-2c-.5 0-1 .4-1 .9l-1 15c0 .3.1.5.3.8.2.2.5.3.7.3h16c.3 0 .5-.1.7-.3s.3-.5.3-.8zM39 427c0-1.7 1.3-3 3-3s3 1.3 3 3v2h-6zm-3.9 17 .9-13h1v2c0 .6.4 1 1 1s1-.4 1-1v-2h6v2c0 .6.4 1 1 1s1-.4 1-1v-2h1.1l.9 13z" class="st3"/><path id="shop" d="M22 429.9c0-.5-.5-.9-1-.9h-2v-2c0-2.8-2.2-5-5-5s-5 2.2-5 5v2H7c-.5 0-1 .4-1 .9l-1 15c0 .3.1.5.3.8.2.2.5.3.7.3h16c.3 0 .5-.1.7-.3s.3-.5.3-.8zM11 427c0-1.7 1.3-3 3-3s3 1.3 3 3v2h-6zm-3.9 17 .9-13h1v2c0 .6.4 1 1 1s1-.4 1-1v-2h6v2c0 .6.4 1 1 1s1-.4 1-1v-2h1.1l.9 13z" class="st4"/><g id="blog-on_1_"><path d="M51 388c-.1 0-.3 0-.4-.1L36.8 382h-1.6l-1.8.9c-.3.2-.7.1-1 0-.3-.2-.5-.5-.5-.9v-7c0-.3.2-.7.5-.9s.7-.2 1 0l1.8.9h1.5l13.8-6.9c.3-.2.7-.1 1 0 .3.2.5.5.5.9v18c0 .3-.2.6-.4.8-.2.1-.4.2-.6.2m-16-8h2c.1 0 .3 0 .4.1l12.6 5.4v-14.9l-12.6 6.3c-.1.1-.3.1-.4.1h-2c-.2 0-.3 0-.4-.1l-.6-.3v3.8l.6-.3c.1-.1.2-.1.4-.1" class="st3"/><path d="M42 389c-.1 0-.3 0-.4-.1l-6-3c-.3-.2-.6-.5-.6-.9v-3c0-.6.4-1 1-1s1 .4 1 1v2.4l4.6 2.3 1.6-3.1c.2-.5.8-.7 1.3-.4.5.2.7.8.4 1.3l-2 4c-.2.3-.5.5-.9.5" class="st3"/></g><g id="blog_3_"><path d="M23 388c-.1 0-.3 0-.4-.1L8.8 382H7.2l-1.8.9c-.3.2-.7.1-1 0-.2-.2-.4-.6-.4-.9v-7c0-.3.2-.7.5-.9s.7-.2 1 0l1.8.9h1.5l13.8-6.9c.3-.2.7-.1 1 0 .3.2.5.5.5.9v18c0 .3-.2.6-.4.8-.3.1-.5.2-.7.2m-16-8h2c.1 0 .3 0 .4.1l12.6 5.4v-14.9l-12.6 6.3c-.1.1-.2.1-.4.1H7c-.2 0-.3 0-.4-.1l-.6-.3v3.8l.6-.3c.1-.1.2-.1.4-.1" class="st4"/><path d="M14 389c-.1 0-.3 0-.4-.1l-6-3q-.6-.3-.6-.9v-3c0-.6.4-1 1-1s1 .4 1 1v2.4l4.6 2.3 1.6-3.1c.2-.5.8-.7 1.3-.4.5.2.7.8.4 1.3l-2 4c-.2.3-.5.5-.9.5" class="st4"/></g><g id="group-on_1_"><path d="M42 350c-2.8 0-5-2.2-5-5s2.2-5 5-5 5 2.2 5 5-2.2 5-5 5m0-8c-1.7 0-3 1.3-3 3s1.3 3 3 3 3-1.3 3-3-1.3-3-3-3M42 361c-4.2 0-6.6-2.2-6.7-2.3-.2-.2-.3-.5-.3-.8.1-1.7.4-4.7 1.3-5.7s3.9-1.2 5.7-1.3h.1c1.7.1 4.7.4 5.7 1.3s1.2 3.9 1.3 5.7c0 .3-.1.6-.3.8-.2.1-2.6 2.3-6.8 2.3m-5-3.5c.7.5 2.4 1.5 5 1.5s4.3-1 5-1.5c-.1-1.8-.4-3.5-.7-3.9-.3-.2-2.4-.6-4.3-.7-1.9.1-3.9.4-4.3.7-.2.4-.5 2.2-.7 3.9M36 351c-2.2 0-4-1.8-4-4 0-1.7 1.1-3.2 2.7-3.8.5-.2 1.1.1 1.3.6s-.1 1.1-.6 1.3c-.8.3-1.3 1-1.3 1.9 0 1.1.9 2 2 2 .6 0 1 .4 1 1s-.5 1-1.1 1" class="st3"/><path d="M33 358h-.2c-1.3-.3-2.3-1.1-2.4-1.2-.3-.2-.4-.6-.3-1 .3-1.4.8-3.9 1.6-4.6.4-.4 3.3-2 4.2-2.2.5-.1 1.1.3 1.2.8s-.3 1.1-.8 1.2-2.8 1.3-3.2 1.7c-.2.2-.6 1.5-.9 2.9.3.2.7.4 1.1.5.5.1.9.6.8 1.2-.2.4-.6.7-1.1.7M48 351c-.6 0-1-.4-1-1s.4-1 1-1c1.1 0 2-.9 2-2 0-.8-.5-1.6-1.3-1.9-.5-.2-.8-.8-.6-1.3s.8-.8 1.3-.6c1.6.6 2.7 2.1 2.7 3.8-.1 2.2-1.9 4-4.1 4" class="st3"/><path d="M51 358c-.5 0-.9-.3-1-.8s.2-1.1.8-1.2c.4-.1.8-.3 1.1-.5-.3-1.4-.7-2.7-.9-3-.4-.3-2.6-1.5-3.1-1.6s-.9-.6-.8-1.2c.1-.5.6-.9 1.1-.8.9.2 3.8 1.8 4.2 2.2.8.8 1.3 3.2 1.6 4.6.1.4-.1.7-.3 1-.1.1-1.1.9-2.4 1.2-.2.1-.2.1-.3.1" class="st3"/></g><g id="group_3_"><path d="M14 350c-2.8 0-5-2.2-5-5s2.2-5 5-5 5 2.2 5 5-2.2 5-5 5m0-8c-1.7 0-3 1.3-3 3s1.3 3 3 3 3-1.3 3-3-1.3-3-3-3M14 361c-4.2 0-6.6-2.2-6.7-2.3-.2-.2-.3-.5-.3-.8.1-1.7.4-4.7 1.3-5.7s3.9-1.2 5.7-1.3h.1c1.7.1 4.7.4 5.7 1.3s1.2 3.9 1.3 5.7c0 .3-.1.6-.3.8-.2.1-2.6 2.3-6.8 2.3m-5-3.5c.7.5 2.4 1.5 5 1.5s4.3-1 5-1.5c-.1-1.8-.4-3.5-.7-3.9-.3-.2-2.4-.6-4.3-.7-1.9.1-3.9.4-4.3.7-.2.4-.5 2.2-.7 3.9M8 351c-2.2 0-4-1.8-4-4 0-1.7 1.1-3.2 2.7-3.8.5-.2 1.1.1 1.3.6s-.1 1.1-.6 1.3c-.8.3-1.3 1-1.3 1.9 0 1.1.9 2 2 2 .6 0 1 .4 1 1s-.5 1-1.1 1" class="st4"/><path d="M5 358h-.2c-1.3-.3-2.3-1.1-2.4-1.2-.3-.2-.4-.6-.3-1 .3-1.4.8-3.9 1.6-4.6.4-.4 3.3-2 4.2-2.2.5-.1 1.1.3 1.2.8s-.3 1.1-.8 1.2-2.8 1.3-3.2 1.7c-.2.2-.6 1.5-.9 2.9.3.2.7.4 1.1.5.5.1.9.6.8 1.2-.2.4-.6.7-1.1.7M20 351c-.6 0-1-.4-1-1s.4-1 1-1c1.1 0 2-.9 2-2 0-.8-.5-1.6-1.3-1.9-.5-.2-.8-.8-.6-1.3s.8-.8 1.3-.6c1.6.6 2.7 2.1 2.7 3.8-.1 2.2-1.9 4-4.1 4" class="st4"/><path d="M23 358c-.5 0-.9-.3-1-.8s.2-1.1.8-1.2c.4-.1.8-.3 1.1-.5-.3-1.4-.7-2.7-.9-3-.4-.3-2.6-1.5-3.1-1.6s-.9-.6-.8-1.2c.1-.5.6-.9 1.1-.8.9.2 3.8 1.8 4.2 2.2.8.8 1.3 3.2 1.6 4.6.1.4-.1.7-.3 1-.1.1-1.1.9-2.4 1.2-.2.1-.2.1-.3.1" class="st4"/></g><g id="trade-on_1_"><path d="M34 323c-.2 0-.3 0-.4-.1-.3-.2-.6-.5-.6-.9v-5c0-.3.1-.6.4-.8l4-3c.2-.1.4-.2.6-.2h5v-2c0-.4.2-.8.6-.9.4-.2.8-.1 1.1.2l9 8c.3.3.4.7.3 1.1s-.6.6-1 .6H38.3l-3.7 2.8c-.2.1-.4.2-.6.2m1-5.5v2.5l2.4-1.8c.2-.1.4-.2.6-.2h12.4l-5.4-4.8v.8c0 .6-.4 1-1 1h-5.7zM40 334c-.2 0-.5-.1-.7-.3l-9-8c-.3-.3-.4-.7-.3-1.1s.5-.6.9-.6h14.7l3.7-2.8c.3-.2.7-.3 1-.1s.6.5.6.9v5c0 .3-.1.6-.4.8l-4 3c-.2.1-.4.2-.6.2h-5v2c0 .4-.2.8-.6.9 0 .1-.2.1-.3.1m-6.4-8 5.4 4.8v-.8c0-.6.4-1 1-1h5.7l3.3-2.5V324l-2.4 1.8c-.2.1-.4.2-.6.2z" class="st3"/></g><g id="trade_3_"><path d="M6 323c-.2 0-.3 0-.4-.1q-.6-.3-.6-.9v-5c0-.3.1-.6.4-.8l4-3c.2-.1.4-.2.6-.2h5v-2c0-.4.2-.8.6-.9.4-.2.8-.1 1.1.2l9 8c.3.3.4.7.3 1.1s-.6.6-1 .6H10.3l-3.7 2.8c-.2.1-.4.2-.6.2m1-5.5v2.5l2.4-1.8c.2-.1.4-.2.6-.2h12.4l-5.4-4.8v.8c0 .6-.4 1-1 1h-5.7zM12 334c-.2 0-.5-.1-.7-.3l-9-8c-.3-.3-.4-.7-.3-1.1s.6-.6 1-.6h14.7l3.7-2.8c.3-.2.7-.3 1-.1s.6.5.6.9v5c0 .3-.1.6-.4.8l-4 3c-.2.1-.4.2-.6.2h-5v2c0 .4-.2.8-.6.9-.1.1-.3.1-.4.1m-6.4-8 5.4 4.8v-.8c0-.6.4-1 1-1h5.7l3.3-2.5V324l-2.4 1.8c-.2.1-.4.2-.6.2z" class="st4"/></g><g id="inventory-on_1_"><path d="M50 306H34c-.6 0-1-.4-1-1v-14c0-2.8 2.2-5 5-5h8c2.8 0 5 2.2 5 5v14c0 .6-.4 1-1 1m-15-2h14v-13c0-1.7-1.3-3-3-3h-8c-1.7 0-3 1.3-3 3z" class="st5"/><path d="M38 299c-.6 0-1-.4-1-1v-2c0-.6.4-1 1-1s1 .4 1 1v2c0 .6-.4 1-1 1M46 299c-.6 0-1-.4-1-1v-2c0-.6.4-1 1-1s1 .4 1 1v2c0 .6-.4 1-1 1M45.5 288c-.6 0-1-.4-1-1v-.5c0-1.4-1.1-2.5-2.5-2.5s-2.5 1.1-2.5 2.5v.5c0 .6-.4 1-1 1s-1-.4-1-1v-.5c0-2.5 2-4.5 4.5-4.5s4.5 2 4.5 4.5v.5c0 .6-.4 1-1 1" class="st5"/><path d="M44.9 297h-5.8c-2.3 0-4.3-1.3-5.4-3.3l-.6-1.2 1.8-.9.6 1.2c.7 1.4 2.1 2.2 3.6 2.2h5.8c1.5 0 2.9-.8 3.6-2.2l.6-1.2 1.8.9-.6 1.2c-1 2-3.1 3.3-5.4 3.3" class="st5"/></g><g id="inventory_1_"><path d="M22 306H6c-.6 0-1-.4-1-1v-14c0-2.8 2.2-5 5-5h8c2.8 0 5 2.2 5 5v14c0 .6-.4 1-1 1m-15-2h14v-13c0-1.7-1.3-3-3-3h-8c-1.7 0-3 1.3-3 3z" class="st4"/><path d="M10 299c-.6 0-1-.4-1-1v-2c0-.6.4-1 1-1s1 .4 1 1v2c0 .6-.4 1-1 1M18 299c-.6 0-1-.4-1-1v-2c0-.6.4-1 1-1s1 .4 1 1v2c0 .6-.4 1-1 1M17.5 288c-.6 0-1-.4-1-1v-.5c0-1.4-1.1-2.5-2.5-2.5s-2.5 1.1-2.5 2.5v.5c0 .6-.4 1-1 1s-1-.4-1-1v-.5c0-2.5 2-4.5 4.5-4.5s4.5 2 4.5 4.5v.5c0 .6-.4 1-1 1" class="st4"/><path d="M16.9 297h-5.8c-2.3 0-4.3-1.3-5.4-3.3l-.6-1.2 1.8-.9.6 1.2c.7 1.4 2.1 2.2 3.6 2.2h5.8c1.5 0 2.9-.8 3.6-2.2l.6-1.2 1.8.9-.6 1.2c-1 2-3.1 3.3-5.4 3.3" class="st4"/></g><g id="character-on"><path d="M39 262c2.2 0 4-1.8 4-4s-1.8-4-4-4-4 1.8-4 4 1.8 4 4 4m0-6c1.1 0 2 .9 2 2s-.9 2-2 2-2-.9-2-2 .9-2 2-2M39.4 270.1c-.5-.2-1.1 0-1.3.4l-2.7 5.5h-1.2l1.7-7.8c.1-.5-.2-1.1-.7-1.2l-3.2-.8V265h10c.6 0 1-.4 1-1s-.4-1-1-1H31c-.6 0-1 .4-1 1v3c0 .5.3.9.8 1l3.1.8-1.8 8c-.1.3 0 .6.2.8s.5.4.8.4h3q.6 0 .9-.6l3-6c.1-.4-.1-1-.6-1.3M53.8 257.4c-.2-.3-.5-.4-.8-.4h-2c-.3 0-.6.2-.8.4l-7 10c-.2.2-.2.6-.1.9q.15.45.6.6l5 2c.1 0 .2.1.4.1.1 0 .3 0 .4-.1.2-.1.4-.3.5-.6l4-12c.1-.3 0-.6-.2-.9m-5.4 11.3-2.8-1.1 6-8.5h.1zM44 270c-2.6 0-3.2 1.9-3.6 3.5-.3.9-.6 1.9-1.2 3-.2.3-.2.7 0 1s.5.5.9.5c7 0 8-2.5 8-4-.1-2.6-2.4-4-4.1-4m-2.3 5.9c.3-.7.5-1.3.6-1.9.5-1.7.7-2.1 1.7-2.1.5 0 2 .5 2 2 0 1.1-1.7 1.8-4.3 2" class="st6"/></g><g id="character_1_"><path d="M11 262c2.2 0 4-1.8 4-4s-1.8-4-4-4-4 1.8-4 4 1.8 4 4 4m0-6c1.1 0 2 .9 2 2s-.9 2-2 2-2-.9-2-2 .9-2 2-2M11.4 270.1c-.5-.2-1.1 0-1.3.4L7.4 276H6.2l1.7-7.8c.1-.5-.2-1.1-.7-1.2l-3.2-.8V265h10c.6 0 1-.4 1-1s-.4-1-1-1H3c-.6 0-1 .4-1 1v3c0 .5.3.9.8 1l3.1.8-1.8 8c-.1.3 0 .6.2.8s.5.4.8.4h3q.6 0 .9-.6l3-6c.1-.4-.1-1-.6-1.3M25.8 257.4c-.2-.3-.5-.4-.8-.4h-2c-.3 0-.6.2-.8.4l-7 10c-.2.2-.2.6-.1.9q.15.45.6.6l5 2c.1 0 .2.1.4.1.1 0 .3 0 .4-.1.2-.1.4-.3.5-.6l4-12c.1-.3 0-.6-.2-.9m-5.4 11.3-2.8-1.1 6-8.5h.1zM16 270c-2.6 0-3.2 1.9-3.6 3.5-.3.9-.6 1.9-1.2 3-.2.3-.2.7 0 1s.5.5.9.5c7 0 8-2.5 8-4-.1-2.6-2.4-4-4.1-4m-2.3 5.9c.3-.7.5-1.3.6-1.9.5-1.7.7-2.1 1.7-2.1.5 0 2 .5 2 2 0 1.1-1.7 1.8-4.3 2" class="st4"/></g><g id="friends-on_1_"><path d="M39 238c-3.3 0-6-2.7-6-6s2.7-6 6-6 6 2.7 6 6-2.7 6-6 6m0-10c-2.2 0-4 1.8-4 4s1.8 4 4 4 4-1.8 4-4-1.8-4-4-4M47 238.6c-.4 0-.8-.2-.9-.6-.2-.5 0-1.1.5-1.3 1.5-.6 2.4-2.1 2.4-3.7 0-1.9-1.3-3.5-3.2-3.9-.5-.1-.9-.6-.8-1.2.1-.5.6-.9 1.2-.8 2.8.6 4.8 3 4.8 5.9 0 2.4-1.4 4.5-3.6 5.5-.1.1-.3.1-.4.1M39 250c-5.2 0-8.4-2.1-8.5-2.2-.3-.2-.5-.6-.4-1 .2-1.2 1.1-5.4 2.3-6.5 1.2-1.2 5.1-1.3 6.7-1.3s5.5.1 6.7 1.3c1.1 1.1 2 5.3 2.3 6.5.1.4-.1.8-.4 1-.3.1-3.5 2.2-8.7 2.2m-6.9-3.5c1.1.5 3.5 1.5 6.9 1.5s5.8-1 6.9-1.5c-.5-2.1-1.2-4.3-1.6-4.8-.4-.4-2.9-.7-5.3-.7s-4.9.3-5.3.7-1.1 2.7-1.6 4.8" class="st3"/><path d="M50 249c-.4 0-.8-.3-1-.7-.2-.5.1-1.1.7-1.2 1.1-.3 1.8-1 2.2-1.3-.5-2.2-1.2-4.6-1.6-5-.6-.6-2.6-2-3.4-2.1-.5-.1-.9-.6-.9-1.1.1-.5.5-1 1.1-.9 1.7.2 4.3 2.4 4.6 2.7 1.1 1.1 2 5.3 2.3 6.5.1.3 0 .6-.2.8-.1.1-1.3 1.7-3.5 2.4-.1-.1-.2-.1-.3-.1" class="st3"/></g><g id="friends_3_"><path d="M11 238c-3.3 0-6-2.7-6-6s2.7-6 6-6 6 2.7 6 6-2.7 6-6 6m0-10c-2.2 0-4 1.8-4 4s1.8 4 4 4 4-1.8 4-4-1.8-4-4-4M19 238.6c-.4 0-.8-.2-.9-.6-.2-.5 0-1.1.5-1.3 1.5-.6 2.4-2.1 2.4-3.7 0-1.9-1.3-3.5-3.2-3.9-.5-.1-.9-.6-.8-1.2.1-.5.6-.9 1.2-.8 2.8.6 4.8 3 4.8 5.9 0 2.4-1.4 4.5-3.6 5.5-.1.1-.3.1-.4.1M11 250c-5.2 0-8.4-2.1-8.5-2.2-.3-.2-.5-.6-.4-1 .2-1.2 1.1-5.4 2.3-6.5 1.2-1.2 5.1-1.3 6.7-1.3s5.5.1 6.7 1.3c1.1 1.1 2 5.3 2.3 6.5.1.4-.1.8-.4 1-.3.1-3.5 2.2-8.7 2.2m-6.9-3.5c1.1.5 3.5 1.5 6.9 1.5s5.8-1 6.9-1.5c-.5-2.1-1.2-4.3-1.6-4.8-.4-.4-2.9-.7-5.3-.7s-4.9.3-5.3.7-1.1 2.7-1.6 4.8" class="st4"/><path d="M22 249c-.4 0-.8-.3-1-.7-.2-.5.1-1.1.7-1.2 1.1-.3 1.8-1 2.2-1.3-.5-2.2-1.2-4.6-1.6-5-.6-.6-2.6-2-3.4-2.1-.5-.1-.9-.6-.9-1.1.1-.5.5-1 1.1-.9 1.7.2 4.3 2.4 4.6 2.7 1.1 1.1 2 5.3 2.3 6.5.1.3 0 .6-.2.8-.1.1-1.3 1.7-3.5 2.4-.1-.1-.2-.1-.3-.1" class="st4"/></g><g id="message-on_1_"><path d="M42 221c-.3 0-.5-.1-.7-.3l-3.7-3.7H31c-.6 0-1-.4-1-1v-16c0-.6.4-1 1-1h22c.6 0 1 .4 1 1v16c0 .6-.4 1-1 1h-6.6l-3.7 3.7c-.2.2-.4.3-.7.3m-10-6h6c.3 0 .5.1.7.3l3.3 3.3 3.3-3.3c.2-.2.4-.3.7-.3h6v-14H32z" class="st3"/><path d="M48 207H36c-.6 0-1-.4-1-1s.4-1 1-1h12c.6 0 1 .4 1 1s-.4 1-1 1M48 211H36c-.6 0-1-.4-1-1s.4-1 1-1h12c.6 0 1 .4 1 1s-.4 1-1 1" class="st3"/></g><g id="message_3_"><path d="M14 221c-.3 0-.5-.1-.7-.3L9.6 217H3c-.6 0-1-.4-1-1v-16c0-.6.4-1 1-1h22c.6 0 1 .4 1 1v16c0 .6-.4 1-1 1h-6.6l-3.7 3.7c-.2.2-.4.3-.7.3m-10-6h6c.3 0 .5.1.7.3l3.3 3.3 3.3-3.3c.2-.2.4-.3.7-.3h6v-14H4z" class="st4"/><path d="M20 207H8c-.6 0-1-.4-1-1s.4-1 1-1h12c.6 0 1 .4 1 1s-.4 1-1 1M20 211H8c-.6 0-1-.4-1-1s.4-1 1-1h12c.6 0 1 .4 1 1s-.4 1-1 1" class="st4"/></g><g id="profile-on_1_"><path d="M42 182c-3.3 0-6-2.7-6-6s2.7-6 6-6 6 2.7 6 6-2.7 6-6 6m0-10c-2.2 0-4 1.8-4 4s1.8 4 4 4 4-1.8 4-4-1.8-4-4-4M42 194c-5.2 0-8.4-2.1-8.5-2.2-.3-.2-.5-.6-.4-1 .2-1.2 1.1-5.4 2.3-6.5 1.2-1.2 5.1-1.3 6.7-1.3s5.5.1 6.7 1.3c1.1 1.1 2 5.3 2.3 6.5.1.4-.1.8-.4 1-.3.1-3.5 2.2-8.7 2.2m-6.9-3.5c1.1.5 3.5 1.5 6.9 1.5s5.8-1 6.9-1.5c-.5-2.1-1.2-4.3-1.6-4.8-.4-.4-2.9-.7-5.3-.7s-4.9.3-5.3.7-1.1 2.7-1.6 4.8" class="st6"/></g><g id="profile_3_"><path d="M14 182c-3.3 0-6-2.7-6-6s2.7-6 6-6 6 2.7 6 6-2.7 6-6 6m0-10c-2.2 0-4 1.8-4 4s1.8 4 4 4 4-1.8 4-4-1.8-4-4-4M14 194c-5.2 0-8.4-2.1-8.5-2.2-.3-.2-.5-.6-.4-1 .2-1.2 1.1-5.4 2.3-6.5 1.2-1.2 5.1-1.3 6.7-1.3s5.5.1 6.7 1.3c1.1 1.1 2 5.3 2.3 6.5.1.4-.1.8-.4 1-.3.1-3.5 2.2-8.7 2.2m-6.9-3.5c1.1.5 3.5 1.5 6.9 1.5s5.8-1 6.9-1.5c-.5-2.1-1.2-4.3-1.6-4.8-.4-.4-2.9-.7-5.3-.7s-4.9.3-5.3.7-1.1 2.7-1.6 4.8" class="st4"/></g><path id="home-on_1_" d="M51 165h-7c-.6 0-1-.4-1-1v-6h-2v6c0 .6-.4 1-1 1h-7c-.6 0-1-.4-1-1v-9h-1c-.4 0-.8-.3-.9-.6-.1-.4 0-.8.3-1.1l11-10c.4-.3 1-.3 1.3 0l11 10c.3.3.4.7.3 1.1s-.5.6-.9.6h-1v9c-.1.6-.5 1-1.1 1m-6-2h5v-9c0-.4.2-.7.5-.9l-8.5-7.8-8.5 7.8c.3.2.5.5.5.9v9h5v-6c0-.6.4-1 1-1h4c.6 0 1 .4 1 1z" class="st5"/><path id="home_1_" d="M23 165h-7c-.6 0-1-.4-1-1v-6h-2v6c0 .6-.4 1-1 1H5c-.6 0-1-.4-1-1v-9H3c-.4 0-.8-.3-.9-.6-.1-.4 0-.8.3-1.1l11-10c.4-.3 1-.3 1.3 0l11 10c.3.3.4.7.3 1.1s-.5.6-.9.6h-1v9c-.1.6-.5 1-1.1 1m-6-2h5v-9c0-.4.2-.7.5-.9l-8.5-7.8-8.5 7.8c.3.2.5.5.5.9v9h5v-6c0-.6.4-1 1-1h4c.6 0 1 .4 1 1z" class="st4"/><path id="settings-on_1_" d="M53 96h-1.2c-.3-1.3-.8-2.5-1.5-3.5l.9-.9c.4-.4.4-1 0-1.4l-1.4-1.4c-.4-.4-1-.4-1.4 0l-.9.9c-1-.7-2.2-1.2-3.5-1.5V87c0-.6-.4-1-1-1h-2c-.6 0-1 .4-1 1v1.2c-1.3.3-2.5.8-3.5 1.5l-.9-.9c-.4-.4-1-.4-1.4 0l-1.4 1.4c-.4.4-.4 1 0 1.4l.9.9c-.7 1-1.2 2.2-1.5 3.5H31c-.6 0-1 .4-1 1v2c0 .6.4 1 1 1h1.2c.3 1.3.8 2.5 1.5 3.5l-.9.9c-.4.4-.4 1 0 1.4l1.4 1.4c.4.4 1 .4 1.4 0l.9-.9c1 .7 2.2 1.2 3.5 1.5v1.2c0 .6.4 1 1 1h2c.6 0 1-.4 1-1v-1.2c1.3-.3 2.5-.8 3.5-1.5l.9.9c.4.4 1 .4 1.4 0l1.4-1.4c.4-.4.4-1 0-1.4l-.9-.9c.7-1 1.2-2.2 1.5-3.5H53c.6 0 1-.4 1-1v-2c0-.6-.4-1-1-1m-11 8c-3.3 0-6-2.7-6-6s2.7-6 6-6 6 2.7 6 6-2.7 6-6 6" class="st2"/><g id="settings_1_"><path d="M16 110h-4c-.6 0-1-.4-1-1v-1.5c-.6-.2-1.1-.4-1.6-.7l-.9.9c-.4.4-1 .4-1.4 0L4.2 105c-.4-.4-.4-1 0-1.4l.9-.9c-.3-.5-.5-1.1-.7-1.6H3c-.6 0-1-.4-1-1v-4c0-.6.4-1 1-1h1.5c.2-.6.4-1.1.7-1.6l-.9-.9c-.4-.4-.4-1 0-1.4l2.7-3c.2-.2.4-.3.7-.3s.5.1.7.3l.9.9c.5-.3 1.1-.5 1.6-.7V87c0-.6.4-1 1-1h4c.6 0 1 .4 1 1v1.5c.6.2 1.1.4 1.6.7l.9-.9c.4-.4 1-.4 1.4 0l2.8 2.8c.4.4.4 1 0 1.4l-.9.9c.3.5.5 1.1.7 1.6H25c.6 0 1 .4 1 1v4c0 .6-.4 1-1 1h-1.5c-.2.6-.4 1.1-.7 1.6l.9.9c.4.4.4 1 0 1.4l-2.8 2.8c-.2.2-.4.3-.7.3s-.5-.1-.7-.3l-.9-.9c-.5.3-1.1.5-1.6.7v1.5c0 .6-.4 1-1 1m-3-2h2v-1.2c0-.5.3-.9.8-1 .9-.2 1.7-.5 2.5-1 .4-.2.9-.2 1.2.1l.8.8 1.4-1.4-.8-.8c-.3-.3-.4-.8-.1-1.2.5-.8.8-1.6 1-2.5.1-.5.5-.8 1-.8H24v-2h-1.2c-.5 0-.9-.3-1-.8-.2-.9-.5-1.7-1-2.5-.2-.4-.2-.9.1-1.2l.8-.8-1.4-1.4-.8.8c-.3.3-.8.4-1.2.1-.8-.5-1.6-.8-2.5-1-.5-.1-.8-.5-.8-1V88h-2v1.2c0 .5-.3.9-.8 1-.9.2-1.7.5-2.5 1-.4.2-.9.2-1.2-.1l-.8-.8-1.4 1.4.8.8c.3.3.4.8.1 1.2-.5.8-.8 1.6-1 2.5-.1.5-.5.8-1 .8H4v2h1.2c.5 0 .9.3 1 .8.2.9.5 1.7 1 2.5.2.4.2.9-.1 1.2l-.8.8 1.4 1.4.8-.8c.3-.3.8-.4 1.2-.1.8.5 1.6.8 2.5 1 .5.1.8.5.8 1z" class="st2"/><path d="M14 104c-3.3 0-6-2.7-6-6s2.7-6 6-6 6 2.7 6 6-2.7 6-6 6m0-10c-2.2 0-4 1.8-4 4s1.8 4 4 4 4-1.8 4-4-1.8-4-4-4" class="st2"/></g><path id="tix-on_1_" d="M51 65h-2l-2-2v-2l-3-3-14 14 3 3h2l2 2v2l3 3 14-14zm-6.3 7.7c-.2.2-.4.3-.7.3s-.5-.1-.7-.3L40 69.4l-1.3 1.3c-.2.2-.4.3-.7.3s-.5-.1-.7-.3c-.4-.4-.4-1 0-1.4l4-4c.4-.4 1-.4 1.4 0s.4 1 0 1.4L41.4 68l3.3 3.3c.4.4.4 1 0 1.4" class="st2"/><g id="tix_2_"><path d="M12 82c-.3 0-.5-.1-.7-.3l-3-3c-.2-.2-.3-.4-.3-.7v-1.6l-.4-.4H6c-.3 0-.5-.1-.7-.3l-3-3c-.4-.4-.4-1 0-1.4l13-13c.4-.4 1-.4 1.4 0l3 3c.2.2.3.4.3.7v1.6l.4.4H22c.3 0 .5.1.7.3l3 3c.4.4.4 1 0 1.4l-13 13c-.2.2-.4.3-.7.3m-2-4.4 2 2L23.6 68l-2-2H20c-.3 0-.5-.1-.7-.3l-1-1c-.2-.2-.3-.4-.3-.7v-1.6l-2-2L4.4 72l2 2H8c.3 0 .5.1.7.3l1 1c.2.2.3.4.3.7z" class="st2"/><path d="M10 71c-.3 0-.5-.1-.7-.3-.4-.4-.4-1 0-1.4l4-4c.4-.4 1-.4 1.4 0s.4 1 0 1.4l-4 4c-.2.2-.4.3-.7.3" class="st2"/><path d="M16 73c-.3 0-.5-.1-.7-.3l-4-4c-.4-.4-.4-1 0-1.4s1-.4 1.4 0l4 4c.4.4.4 1 0 1.4-.2.2-.4.3-.7.3" class="st2"/></g><g id="robux-on_1_"><path d="M37 39v2h2.6c.1-.5.1-1.5 0-2z" class="st2"/><path d="M42 30c-6.6 0-12 5.4-12 12s5.4 12 12 12 12-5.4 12-12-5.4-12-12-12m5 17v1c0 .6-.4 1-1 1s-1-.4-1-1v-1h-3c-.2 0-.4-.1-.6-.2L37 43.3V46c0 .6-.4 1-1 1s-1-.4-1-1v-8c0-.6.4-1 1-1h4c1.1 0 1.7 1.1 1.7 3 0 .6-.1 1.2-.2 1.7-.4 1.2-1.2 1.3-1.5 1.3h-.1l2.5 2H47c.3 0 .5-.5.5-1 0-.4-.1-1-.5-1h-2c-1.4 0-2.5-1.3-2.5-3 0-.7.2-1.4.5-1.9.5-.7 1.2-1.1 2-1.1v-1c0-.6.4-1 1-1s1 .4 1 1v1h1c.6 0 1 .4 1 1s-.4 1-1 1h-3c-.1 0-.2 0-.3.2s-.2.5-.2.8c0 .4.2 1 .5 1h2c1.4 0 2.5 1.3 2.5 3s-1.1 3-2.5 3" class="st2"/></g><g id="robux_2_"><path d="M14 54C7.4 54 2 48.6 2 42s5.4-12 12-12 12 5.4 12 12-5.4 12-12 12m0-22C8.5 32 4 36.5 4 42s4.5 10 10 10 10-4.5 10-10-4.5-10-10-10" class="st2"/><path d="M19 47h-5c-.2 0-.4-.1-.6-.2L9 43.3V46c0 .6-.4 1-1 1s-1-.4-1-1v-8c0-.6.4-1 1-1h4c1.1 0 1.7 1.1 1.7 3 0 .6-.1 1.2-.2 1.7-.4 1.2-1.2 1.3-1.5 1.3h-.1l2.5 2H19c.3 0 .5-.5.5-1 0-.4-.1-1-.5-1h-2c-1.4 0-2.5-1.3-2.5-3 0-.7.2-1.4.5-1.9.5-.7 1.2-1.1 2-1.1h3c.6 0 1 .4 1 1s-.4 1-1 1h-3c-.1 0-.2 0-.3.2s-.2.5-.2.8c0 .4.2 1 .5 1h2c1.4 0 2.5 1.3 2.5 3s-1.1 3-2.5 3M9 41h2.6c.1-.5.1-1.5 0-2H9z" class="st2"/><path d="M18 38c-.6 0-1-.4-1-1v-1c0-.6.4-1 1-1s1 .4 1 1v1c0 .6-.4 1-1 1M18 49c-.6 0-1-.4-1-1v-1c0-.6.4-1 1-1s1 .4 1 1v1c0 .6-.4 1-1 1" class="st2"/></g><g id="menu-on_1_"><path d="M50 10H34c-.6 0-1-.4-1-1s.4-1 1-1h16c.6 0 1 .4 1 1s-.4 1-1 1M50 15H34c-.6 0-1-.4-1-1s.4-1 1-1h16c.6 0 1 .4 1 1s-.4 1-1 1M50 20H34c-.6 0-1-.4-1-1s.4-1 1-1h16c.6 0 1 .4 1 1s-.4 1-1 1" class="st2"/></g><g id="menu_2_"><path d="M22 10H6c-.6 0-1-.4-1-1s.4-1 1-1h16c.6 0 1 .4 1 1s-.4 1-1 1M22 15H6c-.6 0-1-.4-1-1s.4-1 1-1h16c.6 0 1 .4 1 1s-.4 1-1 1M22 20H6c-.6 0-1-.4-1-1s.4-1 1-1h16c.6 0 1 .4 1 1s-.4 1-1 1" class="st2"/></g><g id="search_1_"><path d="M12 133c-5 0-9-4-9-9s4-9 9-9 9 4 9 9-4 9-9 9m0-16c-3.9 0-7 3.1-7 7s3.1 7 7 7 7-3.1 7-7-3.1-7-7-7" class="st4"/><path d="M24 137c-.3 0-.5-.1-.7-.3l-6-6c-.4-.4-.4-1 0-1.4s1-.4 1.4 0l6 6c.4.4.4 1 0 1.4-.2.2-.4.3-.7.3M16 125c-.6 0-1-.4-1-1 0-1.7-1.3-3-3-3-.6 0-1-.4-1-1s.4-1 1-1c2.8 0 5 2.2 5 5 0 .6-.4 1-1 1" class="st4"/></g><g id="search_2_"><path d="M40 133c-5 0-9-4-9-9s4-9 9-9 9 4 9 9-4 9-9 9m0-16c-3.9 0-7 3.1-7 7s3.1 7 7 7 7-3.1 7-7-3.1-7-7-7" class="st3"/><path d="M52 137c-.3 0-.5-.1-.7-.3l-6-6c-.4-.4-.4-1 0-1.4s1-.4 1.4 0l6 6c.4.4.4 1 0 1.4-.2.2-.4.3-.7.3M44 125c-.6 0-1-.4-1-1 0-1.7-1.3-3-3-3-.6 0-1-.4-1-1s.4-1 1-1c2.8 0 5 2.2 5 5 0 .6-.4 1-1 1" class="st3"/></g><g id="search_4_"><path d="M12 413c-5 0-9-4-9-9s4-9 9-9 9 4 9 9-4 9-9 9m0-16c-3.9 0-7 3.1-7 7s3.1 7 7 7 7-3.1 7-7-3.1-7-7-7" class="st2"/><path d="M24 417c-.3 0-.5-.1-.7-.3l-6-6c-.4-.4-.4-1 0-1.4s1-.4 1.4 0l6 6c.4.4.4 1 0 1.4-.2.2-.4.3-.7.3M16 405c-.6 0-1-.4-1-1 0-1.7-1.3-3-3-3-.6 0-1-.4-1-1s.4-1 1-1c2.8 0 5 2.2 5 5 0 .6-.4 1-1 1" class="st2"/></g><g id="search_3_"><path d="M40 413c-5 0-9-4-9-9s4-9 9-9 9 4 9 9-4 9-9 9m0-16c-3.9 0-7 3.1-7 7s3.1 7 7 7 7-3.1 7-7-3.1-7-7-7" class="st3"/><path d="M52 417c-.3 0-.5-.1-.7-.3l-6-6c-.4-.4-.4-1 0-1.4s1-.4 1.4 0l6 6c.4.4.4 1 0 1.4-.2.2-.4.3-.7.3M44 405c-.6 0-1-.4-1-1 0-1.7-1.3-3-3-3-.6 0-1-.4-1-1s.4-1 1-1c2.8 0 5 2.2 5 5 0 .6-.4 1-1 1" class="st3"/></g></svg>