<svg xmlns="http://www.w3.org/2000/svg" xml:space="preserve" id="svg4" x="0" y="0" viewBox="0 0 41 121.6"><style>.st0{fill:#414346}.st1,.st2{fill:none;stroke:#414346;stroke-miterlimit:10}.st2{stroke-linecap:round}</style><path id="path4526_1_" d="M17.2 14.3c-.2 0-.3 0-.5-.1L13.5 13c-.5-.2-.8-.7-.8-1.3l.2-1.7C11 9.4 9 9.4 7.1 10l.2 1.7c.1.5-.3 1.1-.8 1.3l-3.2 1.3c-.6.2-1.2 0-1.5-.5L.2 11.3c-.3-.5-.2-1.1.2-1.6 5.3-5.3 13.9-5.3 19.3 0 .4.4.5 1.1.2 1.6l-1.6 2.5c-.3.3-.7.5-1.1.5m-7.2-6c1.3 0 2.5.2 3.7.7l.4.2-.3 2.6 3.2 1.4 1.7-2.6v-.1C14 5.6 6.1 5.6 1.2 10.5l1.6 2.6 3.3-1.2-.2-2.7.4-.2c1.2-.4 2.5-.7 3.7-.7" class="st0"/><path id="path4526_2_" d="M4.2 38.2c-.6 0-1.1-.4-1.2-1l-.7-2.9c-.1-.6.2-1.2.7-1.4l3.1-1.3c.5-.2 1.1-.1 1.5.4l1.1 1.3c1.7-.9 3.2-2.3 4.1-4.1L11.5 28c-.4-.4-.6-1-.4-1.5l1.3-3.1c.2-.6.9-.9 1.5-.7l2.9.7c.6.1 1 .6 1 1.2 0 7.5-6.1 13.6-13.6 13.6m2.5-5.6-3.2 1.3.6 3s0 .1.1.1c6.9 0 12.4-5.6 12.4-12.4l-3-.8-1.4 3.2 2.1 1.8-.2.4c-1.1 2.3-3 4.2-5.3 5.3l-.4.2z" class="st0"/><path id="path847" d="M15.3 59.7c-.2 0-.3-.1-.5-.2-.2-.3-.2-.6.1-.8 2.5-1.9 3.9-5.2 3.9-8.8S17.4 43 14.9 41c-.3-.2-.3-.6-.1-.8.2-.3.6-.3.8-.1 2.8 2.2 4.4 5.8 4.4 9.7s-1.6 7.6-4.4 9.7c-.1.2-.2.2-.3.2m-1.8-3.1c-.2 0-.4-.1-.5-.2-.2-.3-.1-.6.1-.8 1.6-1.2 2.6-3.4 2.6-5.7s-1-4.4-2.6-5.7c-.3-.2-.3-.6-.1-.8.2-.3.6-.3.8-.1 1.9 1.5 3 3.9 3 6.6s-1.1 5.1-3 6.6c-.1 0-.2.1-.3.1m-1.8-3.2c-.2 0-.4-.1-.5-.3-.2-.3-.1-.6.2-.8.8-.5 1.2-1.5 1.2-2.5s-.5-2-1.2-2.5c-.3-.2-.3-.5-.2-.8.2-.3.5-.3.8-.2 1.1.7 1.8 2.1 1.8 3.5s-.7 2.8-1.8 3.5c-.1.1-.2.1-.3.1" class="st0"/><path d="M8.2 58c-.4 0-.7-.2-1-.5l-2.7-3.3H1.4c-.8 0-1.4-.7-1.4-1.5V47c0-.8.6-1.5 1.4-1.5h3.1l2.7-3.3c.4-.4.9-.6 1.4-.4.6.2.9.8.9 1.5v13.2c0 .7-.4 1.2-.9 1.5-.1-.1-.3 0-.4 0M1.4 46.7c-.1 0-.2.1-.2.4v5.6c0 .2.1.4.2.4H5l3.1 3.7.1.1c.1 0 .2-.2.2-.3V43.3c0-.2-.1-.3-.2-.3 0 0-.1 0-.1.1L5 46.7z" class="st0"/><path id="path873" d="M10.9 96.2H9.1c-3.4-.5-5.9-3.4-5.9-6.9v-1.4c0-.3.3-.6.6-.6s.6.3.6.6v1.4c0 2.9 2.1 5.4 4.8 5.8h1.6c2.7-.4 4.7-2.7 4.7-5.5v-1.7c0-.3.3-.6.6-.6s.6.3.6.6v1.7c0 3.3-2.5 6.2-5.8 6.6" class="st0"/><path d="M10 93.5c-2.2 0-3.9-1.8-3.9-3.9V84c0-2.2 1.8-3.9 3.9-3.9 2.2 0 3.9 1.8 3.9 3.9v5.6c0 2.1-1.7 3.9-3.9 3.9m0-12.3c-1.5 0-2.8 1.2-2.8 2.8v5.6c0 1.5 1.2 2.8 2.8 2.8 1.5 0 2.8-1.2 2.8-2.8V84c0-1.6-1.3-2.8-2.8-2.8M10 99.6c-.3 0-.6-.3-.6-.6v-3.4c0-.3.3-.6.6-.6s.6.3.6.6V99c0 .4-.3.6-.6.6" class="st0"/><path d="M13.4 100H6.6c-.3 0-.6-.3-.6-.6s.3-.6.6-.6h6.7c.3 0 .6.3.6.6s-.2.6-.5.6" class="st0"/><path id="path873_2_" d="M11 116.2H9.2c-3.4-.5-5.9-3.4-5.9-6.9v-1.4c0-.3.3-.6.6-.6s.6.3.6.6v1.4c0 2.9 2.1 5.4 4.8 5.8h1.6c2.7-.4 4.7-2.7 4.7-5.5v-1.7c0-.3.3-.6.6-.6s.6.3.6.6v1.7c0 3.3-2.5 6.2-5.8 6.6" class="st0"/><path d="M10 113.5c-2.2 0-3.9-1.8-3.9-3.9V104c0-2.2 1.8-3.9 3.9-3.9 2.2 0 3.9 1.8 3.9 3.9v5.6c.1 2.1-1.7 3.9-3.9 3.9m0-12.3c-1.5 0-2.8 1.2-2.8 2.8v5.6c0 1.5 1.2 2.8 2.8 2.8 1.5 0 2.8-1.2 2.8-2.8V104c0-1.6-1.2-2.8-2.8-2.8M10 119.6c-.3 0-.6-.3-.6-.6v-3.4c0-.3.3-.6.6-.6s.6.3.6.6v3.4q0 .6-.6.6" class="st0"/><path d="M13.4 120H6.7c-.3 0-.6-.3-.6-.6s.3-.6.6-.6h6.7c.3 0 .6.3.6.6s-.3.6-.6.6M18.1 117.2c-.2 0-.3-.1-.4-.2l-16-16c-.2-.2-.2-.6 0-.8s.6-.2.8 0l16 16c.2.2.2.6 0 .8-.1.2-.3.2-.4.2M18.3 73.5c-.2 0-.3-.1-.4-.2L12 67.5c-.2-.2-.2-.6 0-.8s.6-.2.8 0l5.9 5.9c.2.2.2.6 0 .8-.1.1-.2.1-.4.1" class="st0"/><path d="M12.5 73.5c-.2 0-.3-.1-.4-.2-.2-.2-.2-.6 0-.8l5.9-5.9c.2-.2.6-.2.8 0s.2.6 0 .8l-5.9 5.9c-.1.2-.3.2-.4.2M8.4 78.1c-.4 0-.7-.2-1-.5l-2.7-3.3H1.6c-.8 0-1.4-.7-1.4-1.5v-5.6c0-.8.6-1.5 1.4-1.5h3.1l2.7-3.3c.4-.4.9-.6 1.4-.4.6.2.9.8.9 1.5v13.2c0 .7-.4 1.2-.9 1.5-.1-.1-.3-.1-.4-.1M1.6 66.8c-.1 0-.2.1-.2.4v5.6c0 .2.1.4.2.4h3.6l3.1 3.7.1.1c.1 0 .2-.2.2-.3V63.4c0-.2-.1-.3-.2-.3 0 0-.1 0-.1.1l-3.1 3.7H1.6zM40.6 9.6c-5.3-5.3-13.9-5.3-19.3 0-.4.4-.5 1.1-.2 1.6l1.6 2.5c.3.5 1 .7 1.5.5l3.2-1.3c.5-.2.8-.7.8-1.3l-.1-1.6c1.9-.6 3.9-.6 5.8 0l-.2 1.7c-.1.6.3 1.1.8 1.3l3.2 1.3c.2.1.3.1.5.1.4 0 .8-.2 1.1-.6l1.6-2.5c.2-.6.1-1.2-.3-1.7M37.8 23.3l-2.9-.7c-.6-.1-1.2.2-1.5.7l-1.3 3.1c-.2.5-.1 1.1.4 1.5l1.3 1.1c-.9 1.7-2.3 3.2-4.1 4.1l-1.1-1.3c-.4-.4-1-.6-1.5-.4L24 32.8c-.6.2-.9.9-.7 1.4l.7 2.9c.1.6.6 1 1.2 1 7.5 0 13.6-6.1 13.6-13.6 0-.5-.4-1-1-1.2M32.9 46.3c-.3-.2-.6-.1-.8.2s-.1.6.2.8c.8.5 1.2 1.5 1.2 2.5s-.5 2-1.2 2.5c-.3.2-.3.5-.2.8.1.2.3.3.5.3.1 0 .2 0 .3-.1 1.1-.7 1.8-2.1 1.8-3.5s-.7-2.7-1.8-3.5m1.9-3.1c-.3-.2-.6-.1-.8.1-.2.3-.1.6.1.8 1.6 1.2 2.6 3.4 2.6 5.7s-1 4.4-2.6 5.7c-.3.2-.3.6-.1.8.1.2.3.2.5.2.1 0 .3 0 .4-.1 1.9-1.5 3-3.9 3-6.6s-1.2-5.1-3.1-6.6m1.8-3.1c-.3-.2-.6-.2-.8.1s-.2.6.1.8c2.5 1.9 3.9 5.2 3.9 8.8s-1.5 6.8-3.9 8.8c-.3.2-.3.6-.1.8.1.1.3.2.5.2.1 0 .3 0 .4-.1 2.8-2.2 4.4-5.8 4.4-9.7-.1-3.9-1.8-7.5-4.5-9.7m-7 1.7c-.5-.2-1.1 0-1.4.4l-2.7 3.3h-3.1c-.8 0-1.4.7-1.4 1.5v5.6c0 .8.6 1.5 1.4 1.5h3.1l2.7 3.3c.3.3.6.5 1 .5.1 0 .3 0 .4-.1.6-.2.9-.8.9-1.5v-13c0-.7-.3-1.3-.9-1.5M37.1 87.3c-.3 0-.6.3-.6.6v1.7c0 2.8-2.1 5.1-4.7 5.5h-1.5c-2.7-.4-4.8-2.9-4.8-5.8v-1.4c0-.3-.3-.6-.6-.6s-.6.3-.6.6v1.4c0 3.5 2.5 6.5 5.9 6.9h.3v2.6h-2.8c-.3 0-.6.3-.6.6s.3.6.6.6h6.7c.3 0 .6-.3.6-.6s-.3-.6-.6-.6h-2.8v-2.6h.3c3.3-.5 5.8-3.3 5.8-6.7v-1.7c0-.2-.2-.5-.6-.5M31 93.5c2.2 0 3.9-1.8 3.9-3.9V84c0-2.2-1.8-3.9-3.9-3.9-2.2-.1-4 1.7-4 3.9v5.6c0 2.1 1.8 3.9 4 3.9M39.4 116.2l-2.9-2.9c.7-1.1 1.2-2.4 1.2-3.8v-1.7c0-.3-.3-.6-.6-.6s-.6.3-.6.6v1.7c0 1.1-.3 2.1-.9 2.9l-1.2-1.2c.3-.5.4-1.1.4-1.8V104c0-2.2-1.8-3.9-3.9-3.9s-3.9 1.7-3.9 3.8l-3.7-3.7c-.2-.2-.6-.2-.8 0s-.2.6 0 .8l4.5 4.5v4c0 2.2 1.8 3.9 3.9 3.9 1.1 0 2.1-.5 2.8-1.2l1.1 1.1c-.8.9-1.9 1.5-3.1 1.6h-1.5c-2.7-.4-4.8-2.9-4.8-5.8v-1.4c0-.3-.3-.6-.6-.6s-.6.3-.6.6v1.4c0 3.5 2.5 6.5 5.9 6.9h.3v2.6h-2.8c-.3 0-.6.3-.6.6s.3.6.6.6h6.7c.3 0 .6-.3.6-.6s-.3-.6-.6-.6h-2.8V116h.3c1.5-.2 2.9-.9 3.9-2l2.8 2.8c.1.1.3.2.4.2.2 0 .3-.1.4-.2.4 0 .4-.3.1-.6M37 70l2.5-2.5c.2-.2.2-.6 0-.8s-.6-.2-.8 0l-2.5 2.5-2.5-2.5c-.2-.2-.6-.2-.8 0s-.2.6 0 .8l2.5 2.5-2.5 2.5c-.2.2-.2.6 0 .8.1.1.3.2.4.2.2 0 .3-.1.4-.2l2.5-2.5 2.5 2.5c.1.1.3.2.4.2.2 0 .3-.1.4-.2.2-.2.2-.6 0-.8zm-7.4-8c-.5-.2-1.1 0-1.4.4l-2.7 3.3h-3.1c-.8 0-1.4.7-1.4 1.5v5.6c0 .8.6 1.5 1.4 1.5h3.1l2.7 3.3c.3.3.6.5 1 .5.1 0 .3 0 .4-.1.6-.2.9-.8.9-1.5V63.4c0-.7-.3-1.2-.9-1.4" class="st0"/><path id="path4526_5_" d="m-35.3 9.5-1.3 2.1c-.1.2-.4.3-.7.2l-2.7-1.1c-.2-.1-.4-.3-.4-.6l.2-1.8c-1.9-.7-4-.7-5.9 0l.2 1.8c0 .3-.1.5-.4.6l-2.7 1.1c-.3.1-.6 0-.7-.2L-51 9.5c-.1-.2-.1-.5.1-.7 4.3-4.3 11.3-4.3 15.6 0 .1.2.1.5 0 .7z" class="st1"/><path id="path4526_4_" d="m-48.6 34.1-.6-2.5c-.1-.3.1-.5.3-.7l2.7-1.1c.2-.1.5 0 .7.2l1.2 1.4c1.8-.9 3.3-2.3 4.2-4.2l-1.4-1.2c-.2-.2-.3-.4-.2-.7l1.1-2.7c.1-.3.4-.4.7-.3l2.5.6c.3.1.4.3.4.6 0 6.1-4.9 11-11 11-.4 0-.6-.2-.6-.4z" class="st1"/><path id="path847_2_" d="M-38.7 55.3c2.2-1.7 3.5-4.7 3.5-7.9s-1.3-6.1-3.5-7.9m-1.5 13.1c1.5-1.1 2.4-3.1 2.4-5.2s-.9-4.1-2.4-5.2m-1.6 7.8c.8-.5 1.3-1.5 1.3-2.6s-.5-2-1.3-2.6" class="st2"/><path d="m-45.2 41.3-2.5 3h-2.8c-.4 0-.7.4-.7.8v4.8c0 .4.3.8.7.8h2.8l2.5 3c.4.5 1.1.1 1.1-.6V41.8c.1-.7-.7-1-1.1-.5z" class="st1"/><path d="m-41.3 63.8 5 5M-36.3 63.8l-5 5" class="st2"/><path id="path873_4_" d="M-48.4 83.5v1.2c0 2.7 1.9 5 4.5 5.4h1.4c2.6-.3 4.5-2.5 4.5-5.2v-1.4" class="st2"/><path d="M-43.2 87.8c1.6 0 2.9-1.3 2.9-2.9v-4.8c0-1.6-1.3-2.9-2.9-2.9s-2.9 1.3-2.9 2.9V85c.1 1.5 1.4 2.8 2.9 2.8z" class="st1"/><path d="M-43.2 90.1V93M-46 93.4h5.7" class="st2"/><path id="path873_3_" d="M-48.4 102.5v1.2c0 2.7 1.9 5 4.5 5.4h1.4c2.6-.3 4.5-2.5 4.5-5.2v-1.4" class="st2"/><path d="M-43.2 106.8c1.6 0 2.9-1.3 2.9-2.9v-4.8c0-1.6-1.3-2.9-2.9-2.9s-2.9 1.3-2.9 2.9v4.8c.1 1.6 1.4 2.9 2.9 2.9z" class="st1"/><path d="M-43.2 109.1v2.9M-46 112.3h5.7M-50 96.3l13.7 13.7" class="st2"/><path d="M-52.6 0h19v19h-19zM-52.6 19h19v19h-19z" class="st1"/><path d="M-52.6 37.9h19v19h-19zM-52.6 56.9h19v19h-19zM-52.6 75.9h19v19h-19z" class="st1"/><path d="M-52.6 94.8h19v19h-19zM-45.2 60.2l-2.5 3h-2.8c-.4 0-.7.4-.7.8v4.8c0 .4.3.8.7.8h2.8l2.5 3c.4.5 1.1.1 1.1-.6V60.7c.1-.7-.7-1-1.1-.5z" class="st1"/></svg>