<svg xmlns="http://www.w3.org/2000/svg" width="96" height="192" fill="none" viewBox="0 0 96 192"><path fill="#bcbdbd" fill-rule="evenodd" d="M24.25 90.427s.604-4.61 4.634-4.098 9.249 2.39 9.249 2.39l-3.507 4.61z" clip-rule="evenodd"/><path stroke="#767879" stroke-linejoin="round" d="M24.25 90.427s.604-4.61 4.634-4.098 9.249 2.39 9.249 2.39l-3.507 4.61z" clip-rule="evenodd"/><path fill="#bcbdbd" fill-rule="evenodd" d="m32.605 61.826-3.722 24.503 9.25 2.39 4.902-25.698z" clip-rule="evenodd"/><path stroke="#767879" stroke-linejoin="round" d="m32.605 61.826-3.722 24.503 9.25 2.39 4.902-25.698z" clip-rule="evenodd"/><path fill="#767879" fill-rule="evenodd" d="m49.864 63.021-4.51 27.917-10.728 2.391s-.273-4.439 3.507-4.61l4.902-25.698z" clip-rule="evenodd"/><path stroke="#767879" stroke-linejoin="round" d="m49.864 63.021-4.51 27.917-10.728 2.391s-.273-4.439 3.507-4.61l4.902-25.698z" clip-rule="evenodd"/><path fill="#bcbdbd" fill-rule="evenodd" d="M46.178 88.48s-4.147 1.529-2.082 5.09l10.595.846 3.758-7.297z" clip-rule="evenodd"/><path stroke="#767879" stroke-linejoin="round" d="M46.178 88.48s-4.147 1.529-2.082 5.09l10.595.846 3.758-7.297z" clip-rule="evenodd"/><path fill="#bcbdbd" fill-rule="evenodd" d="m42.534 63.12 3.644 25.36 9.563.846-1.41-23.288z" clip-rule="evenodd"/><path stroke="#767879" stroke-linejoin="round" d="m42.534 63.12 3.644 25.36 9.563.846-1.41-23.288z" clip-rule="evenodd"/><path fill="#767879" fill-rule="evenodd" d="m61.11 59.947.473 29.394-6.892 5.075s-2.63-4.071 1.05-5.09l-1.41-23.288z" clip-rule="evenodd"/><path stroke="#767879" stroke-linejoin="round" d="m61.11 59.947.473 29.394-6.892 5.075s-2.63-4.071 1.05-5.09l-1.41-23.288z" clip-rule="evenodd"/><path fill="#bcbdbd" fill-rule="evenodd" d="m63.759 16.003-.637-4.79.429-.437.198-.008c3.9-.152 3.9-1.475 3.9-1.91 0-1.287-1.18-1.472-1.881-1.472-1.26 0-2.348.524-3.424 1.647l-.373.389-2.848-3.164.293-.334c1.722-1.965 3.823-2.921 6.424-2.921 3.98 0 6.452 2.187 6.452 5.708 0 2.955-1.67 4.807-4.965 5.555l-.275 1.737zm-.766 7h5v-5h-5z" clip-rule="evenodd"/><path fill="#767879" fill-rule="evenodd" d="M68.493 17.503h-6v6h6v-6m-2.653-15c-2.715 0-5.003 1.04-6.8 3.092l-.585.668.594.659 2.19 2.435.72.8.745-.778c.977-1.018 1.95-1.493 3.063-1.493 1.381 0 1.381.695 1.381.923 0 .896-1.15 1.37-3.419 1.46l-.396.015-.278.283-.12.122-.34.348.063.484.547 4.114.116.868h4.158l.133-.843.157-.987c4.13-1.066 5.023-3.772 5.023-5.912 0-3.821-2.729-6.258-6.952-6.258m-2.347 20h4v-4h-4zm2.347-19c3.547 0 5.952 1.874 5.952 5.208v.05c0 3.212-2.192 4.552-4.904 5.087l-.263 1.655h-2.429l-.547-4.114.12-.121c3.12-.122 4.38-.998 4.38-2.41v-.05c0-1.192-.88-1.922-2.382-1.922-1.427 0-2.642.609-3.785 1.802l-2.19-2.435c1.43-1.63 3.333-2.75 6.048-2.75M64.498 53.38s5.992-.036 9.985-1.5c3.994-1.464 16.003-19.512 16.003-19.512l-10.306 2.47z" clip-rule="evenodd"/><path stroke="#767879" stroke-linejoin="round" d="M64.498 53.38s5.992-.036 9.985-1.5c3.994-1.464 16.003-19.512 16.003-19.512l-10.306 2.47z" clip-rule="evenodd"/><path fill="#bdbebe" fill-rule="evenodd" d="M13.338 26.95c.201.244.324.553.318.895-.014.786-.68 1.424-1.487 1.426-.808.002-1.45-.634-1.435-1.42.005-.332.132-.634.333-.877L9.362 25.94c-.875.734-1.439 1.79-1.461 2.965-.04 2.211 1.84 4 4.201 3.993 2.36-.005 4.306-1.8 4.347-4.012.022-1.168-.497-2.215-1.335-2.945z" clip-rule="evenodd"/><path stroke="#767879" stroke-linejoin="round" d="M13.338 26.95c.201.244.324.553.318.895-.014.786-.68 1.424-1.487 1.426-.808.002-1.45-.634-1.435-1.42.005-.332.132-.634.333-.877L9.362 25.94c-.875.734-1.439 1.79-1.461 2.965-.04 2.211 1.84 4 4.201 3.993 2.36-.005 4.306-1.8 4.347-4.012.022-1.168-.497-2.215-1.335-2.945z" clip-rule="evenodd"/><path fill="#767879" fill-rule="evenodd" d="m10.246 28.899 8.466-.544s7.1 8.14 11.515 9.106-6.623 6.209-6.623 6.209l-10.83-4.691z" clip-rule="evenodd"/><path stroke="#767879" stroke-linejoin="round" d="m10.246 28.899 8.466-.544s7.1 8.14 11.515 9.106-6.623 6.209-6.623 6.209l-10.83-4.691z" clip-rule="evenodd"/><path fill="#bdbebe" fill-rule="evenodd" d="M24.852 34.797s-1.096 6.566-3.872 6.313c-2.262-.205-10.734-12.21-10.734-12.21L6.5 33.652S13.264 48.055 21.353 49.3c4.375.674 7.05-5.86 6.696-9.45-.299-3.047-3.197-5.052-3.197-5.052" clip-rule="evenodd"/><path stroke="#767879" stroke-linejoin="round" d="M24.852 34.797s-1.096 6.566-3.872 6.313c-2.262-.205-10.734-12.21-10.734-12.21L6.5 33.652S13.264 48.055 21.353 49.3c4.375.674 7.05-5.86 6.696-9.45-.299-3.047-3.197-5.052-3.197-5.052Z" clip-rule="evenodd"/><path fill="#bdbebe" fill-rule="evenodd" d="M54.485 65.963 30.79 63.667 22.964 33.88l31.52 2.275z" clip-rule="evenodd"/><path stroke="#767879" stroke-linejoin="round" d="M54.485 65.963 30.79 63.667 22.964 33.88l31.52 2.275z" clip-rule="evenodd"/><path fill="#767879" fill-rule="evenodd" d="m65.668 28.983-11.185 7.171.002 29.808L62.744 60z" clip-rule="evenodd"/><path stroke="#767879" stroke-linejoin="round" d="m65.668 28.983-11.185 7.171.002 29.808L62.744 60z" clip-rule="evenodd"/><path fill="#bdbebe" fill-rule="evenodd" d="m63.62 32.667-7.21 4.659s3.637 10.15 6.588 10.15 7.454-7.92 7.454-7.92z" clip-rule="evenodd"/><path stroke="#767879" stroke-linejoin="round" d="m63.62 32.667-7.21 4.659s3.637 10.15 6.588 10.15 7.454-7.92 7.454-7.92z" clip-rule="evenodd"/><path fill="#bdbebe" fill-rule="evenodd" d="M56.41 37.326s4.728 5.85 6.595 5.974 7.841-12.819 7.841-12.819l9.334 4.356S69.476 53.879 64.498 53.381s-7.965-4.854-7.965-4.854z" clip-rule="evenodd"/><path stroke="#767879" stroke-linejoin="round" d="M56.41 37.326s4.728 5.85 6.595 5.974 7.841-12.819 7.841-12.819l9.334 4.356S69.476 53.879 64.498 53.381s-7.965-4.854-7.965-4.854z" clip-rule="evenodd"/><path fill="#bdbebe" fill-rule="evenodd" d="m22.965 33.88 10.354-8.028 32.349 3.132-11.184 7.17z" clip-rule="evenodd"/><path stroke="#767879" stroke-linejoin="round" d="m22.965 33.88 10.354-8.028 32.349 3.132-11.184 7.17z" clip-rule="evenodd"/><path fill="#767879" fill-rule="evenodd" d="M45.54 26.36s-13.144 4.858-11.326 6.574 30.707-3.848 30.707-3.848z" clip-rule="evenodd"/><path fill="#bdbebe" fill-rule="evenodd" d="m44.156 30.56-4.725.863c-3.99 1.095-11.346-1.82-12.405-7.613l-1.42-7.776c-1.058-5.793 2.78-11.347 8.572-12.405l4.725-.863c5.793-1.06 11.348 2.78 12.406 8.573l1.42 7.775c1.06 5.794-5.286 10.737-8.573 11.446" clip-rule="evenodd"/><path stroke="#767879" stroke-linejoin="round" d="m44.156 30.56-4.725.863c-3.99 1.095-11.346-1.82-12.405-7.613l-1.42-7.776c-1.058-5.793 2.78-11.347 8.572-12.405l4.725-.863c5.793-1.06 11.348 2.78 12.406 8.573l1.42 7.775c1.06 5.794-5.286 10.737-8.573 11.446Z" clip-rule="evenodd"/><path fill="#767879" fill-rule="evenodd" d="M40.749 12.44c1.538-1.015 2.3 2.707 1.042 3.376-1.258.668-2.303-2.545-1.042-3.377M34.354 13.705c1.537-1.014 2.3 2.708 1.042 3.377s-2.304-2.545-1.042-3.377" clip-rule="evenodd"/><path stroke="#767879" stroke-linecap="round" d="M44.184 23.698s-2.371-3.557-4.905-2.802c-2.553.76-3.266 4.04-3.266 4.04"/><path fill="#bdbebe" fill-rule="evenodd" d="m70.846 30.481 5.855-1.609 3.084 2.451 4.86-1.396 5.842 2.44-10.307 2.47z" clip-rule="evenodd"/><path stroke="#767879" stroke-linejoin="round" d="m70.846 30.481 5.855-1.609 3.084 2.451 4.86-1.396 5.842 2.44-10.307 2.47z" clip-rule="evenodd"/><path fill="#bdbebe" fill-rule="evenodd" d="m84.237 25.186-2.364 1.819c.292.325.48.758.493 1.264.03 1.163-.839 2.229-1.942 2.382s-2.023-.666-2.053-1.83a2.37 2.37 0 0 1 .401-1.356l-2.396-1.212a6.78 6.78 0 0 0-1.745 3.664l5.024 2.598 6.304-1.198a6.3 6.3 0 0 0 .291-2.032c-.045-1.73-.82-3.178-2.013-4.1" clip-rule="evenodd"/><path stroke="#767879" stroke-linejoin="round" d="m84.237 25.186-2.364 1.819c.292.325.48.758.493 1.264.03 1.163-.839 2.229-1.942 2.382s-2.023-.666-2.053-1.83a2.37 2.37 0 0 1 .401-1.356l-2.396-1.212a6.78 6.78 0 0 0-1.745 3.664l5.024 2.598 6.304-1.198a6.3 6.3 0 0 0 .291-2.032c-.045-1.73-.82-3.178-2.013-4.1Z" clip-rule="evenodd"/><path fill="#767879" fill-rule="evenodd" d="M44.256 2.853s3.368 2.329 4.339 6.349 3.15 11.467.479 16.188c-2.253 3.98-13.692 5.46-17.159 4.489 0 0 1.832 2.598 9.567.97 6.722-1.413 10.85-4.42 10.989-10.243S51.465 9.359 48.83 6.17c-2.634-3.19-4.574-3.318-4.574-3.318M37.338 150.871l-4.248-6.54 19.498 7.381 4.816 6.87z" clip-rule="evenodd"/><path stroke="#767879" stroke-linejoin="round" d="m37.338 150.871-4.248-6.54 19.498 7.381 4.816 6.87z" clip-rule="evenodd"/><path fill="#767879" fill-rule="evenodd" d="M90 187c0 1.657-12.088 3-27 3-14.911 0-27-1.343-27-3s12.089-3 27-3c14.912 0 27 1.343 27 3" clip-rule="evenodd"/><path fill="#bdbebe" fill-rule="evenodd" d="M39.624 101.142c-.04.262-.17.53-.403.759-.536.527-1.378.644-1.881.262-.502-.381-.475-1.118.062-1.645a1.7 1.7 0 0 1 .796-.437l-.363-1.51a4.7 4.7 0 0 0-2.898 1.318c-1.508 1.481-1.541 3.587-.072 4.704s3.883.821 5.392-.66c.797-.783 1.178-1.739 1.147-2.632z" clip-rule="evenodd"/><path stroke="#767879" stroke-linejoin="round" d="M39.624 101.142c-.04.262-.17.53-.403.759-.536.527-1.378.644-1.881.262-.502-.381-.475-1.118.062-1.645a1.7 1.7 0 0 1 .796-.437l-.363-1.51a4.7 4.7 0 0 0-2.898 1.318c-1.508 1.481-1.541 3.587-.072 4.704s3.883.821 5.392-.66c.797-.783 1.178-1.739 1.147-2.632z" clip-rule="evenodd"/><path fill="#767879" fill-rule="evenodd" d="m41.964 106.853-2.776-3.624-5.097 4.15-.016 15.516 7.829 1.122s-3.06-7.087-2.49-10.379c.617-3.563 2.55-6.785 2.55-6.785" clip-rule="evenodd"/><path stroke="#767879" stroke-linejoin="round" d="m41.964 106.853-2.776-3.624-5.097 4.15-.016 15.516 7.829 1.122s-3.06-7.087-2.49-10.379c.617-3.563 2.55-6.785 2.55-6.785Z" clip-rule="evenodd"/><path fill="#bdbebe" fill-rule="evenodd" d="M31.653 99.94s3.432.901 7.534 3.29c-2.25 4.031-5.913 12.233-.767 18.542l-9.799 2.794s-6.966-12.308 3.032-24.625" clip-rule="evenodd"/><path stroke="#767879" stroke-linejoin="round" d="M31.653 99.94s3.432.901 7.534 3.29c-2.25 4.031-5.913 12.233-.767 18.542l-9.799 2.794s-6.966-12.308 3.032-24.625Z" clip-rule="evenodd"/><path fill="#767879" fill-rule="evenodd" d="m32.718 126.826-4.097-2.26 9.799-2.795 3.485 2.245z" clip-rule="evenodd"/><path stroke="#767879" stroke-linejoin="round" d="m32.718 126.826-4.097-2.26 9.799-2.795 3.485 2.245z" clip-rule="evenodd"/><path fill="#bdbebe" fill-rule="evenodd" d="m55.575 126.556-3.14-1.511a7.737 7.737 0 0 1-3.615-10.325l2.487-5.166a7.736 7.736 0 0 1 10.325-3.616l3.14 1.512a7.735 7.735 0 0 1 3.615 10.324l-2.487 5.167a7.736 7.736 0 0 1-10.325 3.615" clip-rule="evenodd"/><path stroke="#767879" stroke-linejoin="round" d="m55.575 126.556-3.14-1.511a7.737 7.737 0 0 1-3.615-10.325l2.487-5.166a7.736 7.736 0 0 1 10.325-3.616l3.14 1.512a7.735 7.735 0 0 1 3.615 10.324l-2.487 5.167a7.736 7.736 0 0 1-10.325 3.615Z" clip-rule="evenodd"/><path fill="#bdbebe" fill-rule="evenodd" d="M84.416 117.439c.196.218.323.51.332.851.021.784-.565 1.502-1.309 1.605-.743.103-1.362-.449-1.382-1.232a1.6 1.6 0 0 1 .27-.914l-1.615-.817c-.775.84-1.249 1.961-1.218 3.133.058 2.204 1.866 3.746 4.04 3.445s3.89-2.332 3.83-4.535c-.03-1.165-.552-2.141-1.356-2.762z" clip-rule="evenodd"/><path stroke="#767879" stroke-linejoin="round" d="M84.416 117.439c.196.218.323.51.332.851.021.784-.565 1.502-1.309 1.605-.743.103-1.362-.449-1.382-1.232a1.6 1.6 0 0 1 .27-.914l-1.615-.817c-.775.84-1.249 1.961-1.218 3.133.058 2.204 1.866 3.746 4.04 3.445s3.89-2.332 3.83-4.535c-.03-1.165-.552-2.141-1.356-2.762z" clip-rule="evenodd"/><path fill="#767879" fill-rule="evenodd" d="m88.936 126.759-1.345-4.756-17.205 21.52-.713 5.133s8.67-4.405 13.248-10.467 6.015-11.43 6.015-11.43" clip-rule="evenodd"/><path stroke="#767879" stroke-linejoin="round" d="m88.936 126.759-1.345-4.756-17.205 21.52-.713 5.133s8.67-4.405 13.248-10.467 6.015-11.43 6.015-11.43Z" clip-rule="evenodd"/><path fill="#767879" fill-rule="evenodd" d="M56.64 157.708s-2.368 6.782 2.272 12.878l-2.697 4.371-5.623-1.073-3.68-15.242 5.344-12.912z" clip-rule="evenodd"/><path stroke="#767879" stroke-linejoin="round" d="M56.64 157.708s-2.368 6.782 2.272 12.878l-2.697 4.371-5.623-1.073-3.68-15.242 5.344-12.912z" clip-rule="evenodd"/><path fill="#bdbebe" fill-rule="evenodd" d="M46.814 141.69s-12.397 19.63 1.263 33.295l7.108-2.401s-6.285-9.778-2.598-20.872z" clip-rule="evenodd"/><path stroke="#767879" stroke-linejoin="round" d="M46.814 141.69s-12.397 19.63 1.263 33.295l7.108-2.401s-6.285-9.778-2.598-20.872z" clip-rule="evenodd"/><path fill="#bdbebe" fill-rule="evenodd" d="M47.819 178.293s-2.44-1.292.258-3.308l7.108-2.401s-.468.868-.207 1.563c.261.696 1.236.81 1.236.81z" clip-rule="evenodd"/><path stroke="#767879" stroke-linejoin="round" d="M47.819 178.293s-2.44-1.292.258-3.308l7.108-2.401s-.468.868-.207 1.563c.261.696 1.236.81 1.236.81z" clip-rule="evenodd"/><path fill="#bdbebe" fill-rule="evenodd" d="m52.588 151.712-19.498-7.38 5.319-24.088 26.25 9.235z" clip-rule="evenodd"/><path stroke="#767879" stroke-linejoin="round" d="m52.588 151.712-19.498-7.38 5.319-24.088 26.25 9.235z" clip-rule="evenodd"/><path fill="#767879" fill-rule="evenodd" d="m67.296 137.536-2.636-8.057-12.072 22.233 4.816 6.871z" clip-rule="evenodd"/><path stroke="#767879" stroke-linejoin="round" d="m67.296 137.536-2.636-8.057-12.072 22.233 4.816 6.871z" clip-rule="evenodd"/><path fill="#bdbebe" fill-rule="evenodd" d="M63.773 135.758s11.984-6.246 14.626-16.81c0 0 7.856 1.402 9.191 3.054 0 0-1.646 13.543-17.205 21.521z" clip-rule="evenodd"/><path stroke="#767879" stroke-linejoin="round" d="M63.773 135.758s11.984-6.246 14.626-16.81c0 0 7.856 1.402 9.191 3.054 0 0-1.646 13.543-17.205 21.521z" clip-rule="evenodd"/><path fill="#bdbebe" fill-rule="evenodd" d="m63.188 141.876.585-6.118 6.612 7.765-.713 5.133z" clip-rule="evenodd"/><path stroke="#767879" stroke-linejoin="round" d="m63.188 141.876.585-6.118 6.612 7.765-.713 5.133z" clip-rule="evenodd"/><path fill="#767879" fill-rule="evenodd" d="M56.52 109.784c.937.355-.684 3.209-1.551 2.806-.867-.404.616-3.162 1.552-2.806M60.9 111.269c1.105.25-.351 3.015-1.178 2.71s.274-2.916 1.179-2.71" clip-rule="evenodd"/><path stroke="#767879" stroke-linecap="round" d="M52.845 115.887s.1 2.891 1.956 3.178c1.857.288 4.014-1.198 4.014-1.198"/><path fill="#767879" fill-rule="evenodd" d="M65.772 108.17s.95 1.902.777 4.928-3.11 9.509-5.878 10.892c-2.766 1.384-7.003 1.038-9.423.173-2.42-.864 7.608 3.285 7.608 3.285s4.235.519 7.09-4.668c2.851-5.187 3.975-7.694 2.938-10.547-1.038-2.853-3.112-4.063-3.112-4.063M38.331 144.387l-5.668-3.204-8.502-.8-4.2 7.441-2.328 1.724 4.005 7.04 1.25-1.857c5.432-5.778 9.34-4.993 14.284-1.625l6.117-4.463z" clip-rule="evenodd"/><path stroke="#767879" stroke-linejoin="round" d="m38.331 144.387-5.668-3.204-8.502-.8-4.2 7.441-2.328 1.724 4.005 7.04 1.25-1.857c5.432-5.778 9.34-4.993 14.284-1.625l6.117-4.463z" clip-rule="evenodd"/><path fill="#bdbebe" fill-rule="evenodd" d="M8.07 148.121s.042-2.12 3.424-1.838l8.815 1.691-2.676 1.574z" clip-rule="evenodd"/><path stroke="#767879" stroke-linejoin="round" d="M8.07 148.121s.042-2.12 3.424-1.838l8.815 1.691-2.676 1.574z" clip-rule="evenodd"/><path fill="#bdbebe" fill-rule="evenodd" d="M11.494 146.283s6.09-8.056 12.896-7.847c5.44.311 14.22 3.031 18.504 10.353-8.224-9.614-13.576-11.019-22.585-.816z" clip-rule="evenodd"/><path stroke="#767879" stroke-linejoin="round" d="M11.494 146.283s6.09-8.056 12.896-7.847c5.44.311 14.22 3.031 18.504 10.353-8.224-9.614-13.576-11.019-22.585-.816z" clip-rule="evenodd"/><path fill="#bdbebe" fill-rule="evenodd" d="m21.638 156.588-8.768-1.211-4.8-7.256 9.563 1.427z" clip-rule="evenodd"/><path stroke="#767879" stroke-linejoin="round" d="m21.638 156.588-8.768-1.211-4.8-7.256 9.563 1.427z" clip-rule="evenodd"/></svg>