<svg xmlns="http://www.w3.org/2000/svg" width="56" height="812" fill="none" viewBox="0 0 56 812"><path fill="#121212" fill-rule="evenodd" d="M15.25 3h-2.5A3.25 3.25 0 0 0 9.5 6.25v2.5c0 .644.188 1.245.51 1.75H9A3.5 3.5 0 0 0 5.5 14v3A2.5 2.5 0 0 0 8 19.5h1v2a2 2 0 0 0 2 2h2a1 1 0 0 0 1-1 1 1 0 0 0 1 1h2a2 2 0 0 0 2-2v-2h1a2.5 2.5 0 0 0 2.5-2.5v-3a3.5 3.5 0 0 0-3.5-3.5h-1.01c.323-.505.51-1.106.51-1.75v-2.5A3.25 3.25 0 0 0 15.25 3m0 7.5A1.75 1.75 0 0 0 17 8.75v-2.5a1.75 1.75 0 0 0-1.75-1.75h-2.5A1.75 1.75 0 0 0 11 6.25v2.5c0 .966.784 1.75 1.75 1.75zm-2.5 1.5H9a2 2 0 0 0-2 2v3a1 1 0 0 0 1 1h1v-3.5a.5.5 0 0 1 1 0V21a1 1 0 0 0 1 1h2v-3a1 1 0 1 1 2 0v3h2a1 1 0 0 0 1-1v-6.5a.5.5 0 0 1 1 0V18h1a1 1 0 0 0 1-1v-3a2 2 0 0 0-2-2h-6.25m-8.227 9.273c.622-.37 1.498-.656 2.484-.887v.658c-.506.142-.95.309-1.29.501-2.663 1.364.183 3.273 8.263 3.273s10.926-1.909 8.264-3.273c-.324-.183-.74-.343-1.214-.48v-.726c.925.247 1.745.545 2.407.843C27.11 23.09 24.447 26 13.98 26S.942 23.09 4.523 21.273M10 34a3 3 0 0 1 3-3h2a3 3 0 0 1 3 3v2a3 3 0 0 1-3 3h4a3 3 0 0 1 3 3v3a2 2 0 0 1-2 2h-1v-4.5a.5.5 0 0 0-1 0V50a1 1 0 0 1-1 1h-1a1 1 0 0 1-1-1v-3a1 1 0 1 0-2 0v3a1 1 0 0 1-1 1h-1a1 1 0 0 1-1-1v-7.5a.5.5 0 0 0-1 0V47H8a2 2 0 0 1-2-2v-3a3 3 0 0 1 3-3h4a3 3 0 0 1-3-3zM4.523 49.273c.62-.37 1.494-.655 2.477-.886v.659c-.503.141-.944.307-1.284.5-2.662 1.363.184 3.272 8.264 3.272s10.926-1.909 8.264-3.273c-.33-.186-.758-.35-1.244-.488v-.726c.938.249 1.768.55 2.437.85C27.11 51.092 24.447 54 13.98 54S.942 51.09 4.523 49.273M22 61.5H6a.5.5 0 0 0-.5.5v16.5H14V76a6 6 0 0 1 6-6h2.5v-8a.5.5 0 0 0-.5-.5M14 80h2l8-8V62a2 2 0 0 0-2-2H6a2 2 0 0 0-2 2v18h10m1.5-1.621 6.879-6.879H20a4.5 4.5 0 0 0-4.5 4.5zM9 64.5h10a.5.5 0 0 1 .5.5v1.5a.5.5 0 0 1-.5.5H9a.5.5 0 0 1-.5-.5V65a.5.5 0 0 1 .5-.5M7 65a2 2 0 0 1 2-2h10a2 2 0 0 1 2 2v1.5a2 2 0 0 1-2 2H9a2 2 0 0 1-2-2zm0 5.75a.75.75 0 0 1 .75-.75h4a.75.75 0 0 1 0 1.5h-4a.75.75 0 0 1-.75-.75M7.75 73a.75.75 0 0 0 0 1.5h4a.75.75 0 0 0 0-1.5zM10 89.5h8a4.5 4.5 0 0 1 4.5 4.5v8a4.5 4.5 0 0 1-4.5 4.5H5.5V94a4.5 4.5 0 0 1 4.5-4.5M4 94a6 6 0 0 1 6-6h8a6 6 0 0 1 6 6v8a6 6 0 0 1-6 6H4V94m5.75-1a.75.75 0 0 0 0 1.5h8.5a.75.75 0 0 0 0-1.5zm0 4a.75.75 0 0 0 0 1.5h8.5a.75.75 0 0 0 0-1.5zM9 101.75a.75.75 0 0 1 .75-.75h4.333a.75.75 0 0 1 0 1.5H9.75a.75.75 0 0 1-.75-.75M10 116a6 6 0 0 0-6 6v14h14a6 6 0 0 0 6-6v-8a6 6 0 0 0-6-6zm-.25 5a.75.75 0 0 0 0 1.5h8.5a.75.75 0 0 0 0-1.5zm0 4a.75.75 0 0 0 0 1.5h8.5a.75.75 0 0 0 0-1.5zM9 129.75a.75.75 0 0 1 .75-.75h4.333a.75.75 0 0 1 0 1.5H9.75a.75.75 0 0 1-.75-.75M10.25 143.5h2.5a3.25 3.25 0 0 1 3.25 3.25v2.5q0 .346-.07.672a8 8 0 0 0-3.675 2.578H6.5a2 2 0 0 0-2 2v3a1 1 0 0 0 1 1H7V155a.5.5 0 0 1 1 0v6.5a1 1 0 0 0 1 1h2v-2.21c.25.672.588 1.302 1 1.875V163a1 1 0 0 1-1 1H9a2 2 0 0 1-2-2v-2H5.5a2.5 2.5 0 0 1-2.5-2.5v-3a3.5 3.5 0 0 1 3.5-3.5h1.01a3.24 3.24 0 0 1-.51-1.75v-2.5a3.25 3.25 0 0 1 3.25-3.25m4.25 5.75a1.75 1.75 0 0 1-1.75 1.75h-2.5a1.75 1.75 0 0 1-1.75-1.75v-2.5c0-.966.784-1.75 1.75-1.75h2.5c.966 0 1.75.784 1.75 1.75zm-2.405 6.887.38-.942c.229-.564.532-1.087.9-1.558l.626-.798.974.283q.483.14.969.204a.3.3 0 0 0 .1-.057 6.4 6.4 0 0 0 .31-.947l.245-.985 1.005-.14a6.5 6.5 0 0 1 1.74-.01l.057.008.997.119.248 1.008q.12.495.308.945.015.015.048.035.032.017.053.024.48-.062.973-.206l.975-.283.625.801c.371.476.67 1.001.895 1.552l.383.941-.732.705a6.5 6.5 0 0 0-.664.741.3.3 0 0 0 0 .115q.291.385.661.738l.733.703-.38.942a6.5 6.5 0 0 1-.898 1.556l-.624.8-.975-.282a6.4 6.4 0 0 0-.973-.204.2.2 0 0 0-.052.024c-.013.007-.008.013-.004.019q.006.006.002.012l-.065.153c-.108.253-.221.519-.29.794l-.243.984-1.004.141a6.4 6.4 0 0 1-1.744.011 1 1 0 0 1-.118-.02l-.006-.001-.944-.172-.232-.943a6.4 6.4 0 0 0-.308-.943.3.3 0 0 0-.102-.059q-.483.062-.969.204l-.976.285-.626-.802a6.5 6.5 0 0 1-.896-1.552l-.384-.941.732-.705q.368-.353.665-.742a.3.3 0 0 0 0-.115 6 6 0 0 0-.662-.737zm2.631.588c.36.502.36 1.319 0 1.82-.26.35-.55.671-.86.969.175.429.406.832.69 1.195q.619-.182 1.26-.26h.01c.614-.061 1.32.348 1.576.91q.256.6.409 1.23l.012.002.024.004c.457.061.907.052 1.343-.009a8 8 0 0 1 .405-1.22l.004-.008c.254-.562.962-.971 1.576-.909.432.05.855.14 1.269.259.28-.36.514-.761.689-1.195a7.7 7.7 0 0 1-.854-.962l-.006-.006c-.36-.502-.359-1.319 0-1.82.261-.35.55-.67.86-.969a5 5 0 0 0-.688-1.195c-.413.12-.835.21-1.262.26l-.008.001c-.615.061-1.322-.348-1.576-.91a8 8 0 0 1-.41-1.231l-.018-.003-.019-.003a5 5 0 0 0-1.342.008 8 8 0 0 1-.406 1.221l-.003.008c-.255.563-.962.971-1.577.911a8 8 0 0 1-1.268-.261c-.281.36-.514.761-.69 1.195.31.298.598.617.855.961zM20 157.5a1.5 1.5 0 1 1-3 0 1.5 1.5 0 0 1 3 0" clip-rule="evenodd"/><path stroke="#121212" stroke-width="1.5" d="m12.559 191.132-.003.015-.003.015c-.078.469.085.898.398 1.19.294.275.684.398 1.056.398.701 0 1.109-.517 1.302-.891l7.203-12.338.763-1.307-1.502.184-7.674.944 1.356-6.474.002-.007c.096-.479-.107-.9-.375-1.168a1.53 1.53 0 0 0-1.075-.443c-.507 0-1.03.256-1.25.782l-7.255 12.447-.762 1.307 1.501-.184 7.674-.944z"/><path fill="#121212" fill-rule="evenodd" d="M21.443 217.521a12.9 12.9 0 0 0 3.797-1.797l.719-.497-.078-.87a40 40 0 0 0-.272-2.339l-.002-.008v-.009c-.137-.845-.58-1.617-1.098-2.196-.515-.576-1.244-1.116-2.102-1.318l-.01-.002-.011-.002q-.435-.095-.87-.173c.412-.443.782-1.052.885-1.76l.002-.016.002-.015a12.3 12.3 0 0 0 0-3.038l-.002-.016-.002-.015c-.112-.766-.536-1.416-.985-1.865-.45-.45-1.1-.874-1.866-.986l-.016-.002-.015-.002a12.2 12.2 0 0 0-3.038 0l-.016.002-.015.002a3 3 0 0 0-.497.119 5.6 5.6 0 0 1 .952 1.338q1.215-.124 2.428.027c.718.105 1.48.867 1.584 1.584q.165 1.333 0 2.666c-.105.718-.866 1.479-1.584 1.584q-1.03.128-2.06.058a5 5 0 0 1-.116.38c.7.292 1.303.716 1.795 1.17q1.555.081 3.111.423c.951.223 1.902 1.299 2.062 2.291.112.75.195 1.501.262 2.251a11.4 11.4 0 0 1-3.08 1.506l.072.811zm-8.686-16.911.015.003c.826.12 1.538.581 2.036 1.079.499.499.959 1.21 1.08 2.035l.002.016.002.016q.216 1.741 0 3.482l-.002.016-.003.015c-.12.826-.58 1.537-1.079 2.036l-.01.01q.592.099 1.183.229l.01.002.01.002c.927.218 1.723.805 2.292 1.44.573.64 1.055 1.485 1.203 2.401l.001.009.001.009c.133.893.232 1.781.31 2.66l.077.87-.718.497c-2.335 1.612-5.138 2.563-8.16 2.563-3.021 0-5.825-.951-8.16-2.563l-.718-.497.077-.87c.078-.879.177-1.767.31-2.66l.001-.009.001-.009c.148-.916.63-1.761 1.203-2.401.569-.635 1.365-1.222 2.292-1.44l.01-.002.01-.002q.585-.13 1.17-.227l-.01-.012c-.5-.499-.96-1.211-1.08-2.037l-.002-.014-.002-.015a14 14 0 0 1 0-3.484l.002-.015.002-.014c.12-.827.58-1.538 1.08-2.037.498-.499 1.21-.959 2.034-1.079l.016-.003.016-.002a14 14 0 0 1 3.482 0zm-5.16 3.334c.122-.837 1.011-1.725 1.847-1.847a12.6 12.6 0 0 1 3.112 0c.837.122 1.725 1.011 1.847 1.847q.195 1.556 0 3.112c-.122.837-1.01 1.725-1.847 1.847a12.6 12.6 0 0 1-3.112 0c-.836-.122-1.725-1.011-1.847-1.847a12.5 12.5 0 0 1 0-3.112m10.717 12.258a12.8 12.8 0 0 1-7.307 2.298c-2.7 0-5.21-.848-7.307-2.298.076-.857.172-1.714.3-2.571.182-1.135 1.27-2.364 2.356-2.619q4.651-1.024 9.302 0c1.087.255 2.174 1.484 2.357 2.619.127.857.223 1.714.299 2.571M24.5 238c0 5.799-4.701 10.5-10.5 10.5S3.5 243.799 3.5 238s4.701-10.5 10.5-10.5 10.5 4.701 10.5 10.5m1.5 0c0 6.627-5.373 12-12 12s-12-5.373-12-12 5.373-12 12-12 12 5.373 12 12m-9.83 0-3.67 2.294v-4.588zm-3.64-4.044 5.055 3.16L19 238l-1.415.884-5.055 3.16a1 1 0 0 1-1.53-.848v-6.392a1 1 0 0 1 1.53-.848M14 278c6.627 0 12-5.373 12-12s-5.373-12-12-12-12 5.373-12 12 5.373 12 12 12m-1.47-16.044a1 1 0 0 0-1.53.848v6.392a1 1 0 0 0 1.53.848L19 266z" clip-rule="evenodd"/><path fill="#121212" d="M14 285a.75.75 0 0 0-.75.75v.75h-2.5a.75.75 0 0 0 0 1.5h6.5a.75.75 0 0 0 0-1.5h-2.5v-.75A.75.75 0 0 0 14 285"/><path fill="#121212" fill-rule="evenodd" d="M8 298a2 2 0 0 1 2-2h8a2 2 0 0 1 2 2v2.5a2 2 0 0 1-2 2h-8a2 2 0 0 1-2-2zm1.5 0a.5.5 0 0 1 .5-.5h8a.5.5 0 0 1 .5.5v2.5a.5.5 0 0 1-.5.5h-8a.5.5 0 0 1-.5-.5z" clip-rule="evenodd"/><path fill="#121212" fill-rule="evenodd" d="M7 282a2 2 0 0 0-2 2v20a2 2 0 0 0 2 2h14a2 2 0 0 0 2-2v-20a2 2 0 0 0-2-2zm14 1.5H7a.5.5 0 0 0-.5.5v20a.5.5 0 0 0 .5.5h14a.5.5 0 0 0 .5-.5v-20a.5.5 0 0 0-.5-.5M9.5 312h-2a2.5 2.5 0 0 0-2.5 2.5v2c0 .516.156.995.424 1.393l-.151.04a2.3 2.3 0 0 0-.893.488 3.4 3.4 0 0 0-.55.612c-.29.411-.562.974-.637 1.601-.043.317-.07.959-.09 1.551-.023.662-.043 1.424-.058 2.026l-.001.056c-.016.624-.03 1.144-.043 1.493l-.03.785.627.472c1.13.85 2.45 1.305 3.927 1.44l.019-.715.001-.059.02-.729c-1.207-.124-2.218-.499-3.065-1.136.014-.36.027-.887.043-1.503l.001-.063c.031-1.211.078-3.034.137-3.427.072-.648.603-1.345.979-1.443.941-.254 1.89-.382 2.838-.382H8.5q.5 0 1 .047V318q0-.255.036-.501l-.036.001h-2a1 1 0 0 1-1-1v-2a1 1 0 0 1 1-1h2a1 1 0 0 1 1 1v1.051c.41-.419.924-.735 1.5-.906v-.145a2.5 2.5 0 0 0-2.5-2.5m14.897 15.018c-1.135.846-2.45 1.303-3.922 1.438l-.019-.724-.001-.049-.019-.73c1.2-.125 2.21-.5 3.064-1.137-.014-.361-.027-.891-.043-1.509v-.001l-.001-.054c-.03-1.211-.077-3.034-.133-3.398-.075-.675-.59-1.32-1.01-1.478A10.8 10.8 0 0 0 19.5 319h-.002q-.5 0-.998.047V318q0-.255-.035-.501l.035.001h2a1 1 0 0 0 1-1v-2a1 1 0 0 0-1-1h-2a1 1 0 0 0-1 1v1.05a3.5 3.5 0 0 0-1.5-.905v-.145a2.5 2.5 0 0 1 2.5-2.5h2a2.5 2.5 0 0 1 2.5 2.5v2c0 .516-.156.996-.424 1.394l.125.033.071.019.069.026c.586.221 1.035.671 1.325 1.074.304.424.57.984.645 1.618.042.309.067.945.087 1.525.023.657.042 1.418.057 2.02l.002.048c.015.628.029 1.15.042 1.501l.03.789zM13 315.5h2a2.5 2.5 0 0 1 2.5 2.5v2c0 .516-.156.996-.424 1.394l.125.033.071.019.069.026c.586.221 1.035.671 1.325 1.074.304.424.57.984.645 1.618.042.309.067.945.087 1.525.023.658.042 1.419.057 2.021v.013l.002.034c.015.628.029 1.15.042 1.501l.03.789-.632.471C17.517 331.547 15.87 332 14 332c-1.877 0-3.528-.451-4.902-1.483l-.627-.472.03-.785c.014-.349.027-.869.043-1.493v-.056c.016-.602.036-1.364.059-2.026.02-.592.047-1.234.09-1.551.075-.627.347-1.19.638-1.601.153-.217.337-.43.55-.612.193-.167.495-.383.892-.488l.151-.04A2.5 2.5 0 0 1 10.5 320v-2a2.5 2.5 0 0 1 2.5-2.5m.998 7H14q1.412 0 2.812.376c.422.158.936.803 1.011 1.478.056.364.102 2.187.133 3.398v.009l.001.045c.016.619.03 1.148.043 1.51-1.068.796-2.38 1.184-4 1.184-1.63 0-2.943-.387-4-1.182.014-.36.027-.887.043-1.503l.001-.054v-.009c.031-1.211.078-3.034.137-3.427.072-.648.603-1.345.979-1.443.941-.254 1.89-.382 2.838-.382M15 321h-2a1 1 0 0 1-1-1v-2a1 1 0 0 1 1-1h2a1 1 0 0 1 1 1v2a1 1 0 0 1-1 1" clip-rule="evenodd"/><mask id="a" fill="#fff"><path fill-rule="evenodd" d="m14 339-10 8v10a4 4 0 0 0 4 4h4v-6a2 2 0 1 1 4 0v6h4a4 4 0 0 0 4-4v-10z" clip-rule="evenodd"/></mask><path fill="#121212" d="m4 347-.937-1.171-.563.45V347zm10-8 .937-1.171-.937-.75-.937.75zm-2 22v1.5h1.5V361zm4 0h-1.5v1.5H16zm8-14h1.5v-.721l-.563-.45zm-19.063 1.171 10-8-1.874-2.342-10 8zM5.5 357v-10h-3v10zm2.5 2.5a2.5 2.5 0 0 1-2.5-2.5h-3a5.5 5.5 0 0 0 5.5 5.5zm4 0H8v3h4zm-1.5-4.5v6h3v-6zm3.5-3.5a3.5 3.5 0 0 0-3.5 3.5h3a.5.5 0 0 1 .5-.5zm3.5 3.5a3.5 3.5 0 0 0-3.5-3.5v3a.5.5 0 0 1 .5.5zm0 6v-6h-3v6zm2.5-1.5h-4v3h4zm2.5-2.5a2.5 2.5 0 0 1-2.5 2.5v3a5.5 5.5 0 0 0 5.5-5.5zm0-10v10h3v-10zm-9.437-6.829 10 8 1.874-2.342-10-8z" mask="url(#a)"/><path fill="#121212" fill-rule="evenodd" d="m14 367-10 8v10a4 4 0 0 0 4 4h3v-5a3 3 0 1 1 6 0v5h3a4 4 0 0 0 4-4v-10zM16 395.5h-4a.5.5 0 0 0-.5.5v1.021q.248-.021.5-.021h4q.252 0 .5.021V396a.5.5 0 0 0-.5-.5m2 1.841V396a2 2 0 0 0-2-2h-4a2 2 0 0 0-2 2v1.341c-2.33.824-4 3.047-4 5.659v4.268c-.598.345-1 .992-1 1.732v4.5c0 .833.509 1.547 1.233 1.847A4 4 0 0 0 10 418h8a4 4 0 0 0 3.767-2.653A2 2 0 0 0 23 413.5V409c0-.74-.402-1.387-1-1.732V403a6 6 0 0 0-4-5.659m3 11.159h-.5V403a4.5 4.5 0 0 0-4.5-4.5h-4a4.5 4.5 0 0 0-4.5 4.5v5.5H7a.5.5 0 0 0-.5.5v4.5a.5.5 0 0 0 .5.5h.5a2.5 2.5 0 0 0 2.5 2.5h8a2.5 2.5 0 0 0 2.5-2.5h.5a.5.5 0 0 0 .5-.5V409a.5.5 0 0 0-.5-.5m-10 .5h6a.5.5 0 0 1 .5.5v3.5a.5.5 0 0 1-.5.5h-6a.5.5 0 0 1-.5-.5v-3.5a.5.5 0 0 1 .5-.5m-2 .5a2 2 0 0 1 2-2h6a2 2 0 0 1 2 2v3.5a2 2 0 0 1-2 2h-6a2 2 0 0 1-2-2zm3-6.75a.75.75 0 0 1 .75-.75h2.5a.75.75 0 0 1 0 1.5h-2.5a.75.75 0 0 1-.75-.75M16 423.5h-4a.5.5 0 0 0-.5.5v1.021q.248-.021.5-.021h4q.252 0 .5.021V424a.5.5 0 0 0-.5-.5m2 1.841V424a2 2 0 0 0-2-2h-4a2 2 0 0 0-2 2v1.341c-2.33.824-4 3.047-4 5.659v4.268c-.598.345-1 .992-1 1.732v4.5c0 .833.509 1.547 1.233 1.847A4 4 0 0 0 10 446h8a4 4 0 0 0 3.767-2.653A2 2 0 0 0 23 441.5V437c0-.74-.402-1.387-1-1.732V431a6 6 0 0 0-4-5.659M11 437h6a.5.5 0 0 1 .5.5v3.5a.5.5 0 0 1-.5.5h-6a.5.5 0 0 1-.5-.5v-3.5a.5.5 0 0 1 .5-.5m-2 .5a2 2 0 0 1 2-2h6a2 2 0 0 1 2 2v3.5a2 2 0 0 1-2 2h-6a2 2 0 0 1-2-2zm3-6.75a.75.75 0 0 1 .75-.75h2.5a.75.75 0 0 1 0 1.5h-2.5a.75.75 0 0 1-.75-.75M23.5 462a9.5 9.5 0 0 1-9.5 9.5 9.5 9.5 0 0 1-9.5-9.5 9.5 9.5 0 0 1 9.5-9.5 9.5 9.5 0 0 1 9.5 9.5m1.5 0c0 6.075-4.925 11-11 11s-11-4.925-11-11 4.925-11 11-11 11 4.925 11 11m-9.5 0a1.5 1.5 0 1 1-3 0 1.5 1.5 0 0 1 3 0m3 1.5a1.5 1.5 0 1 0 0-3 1.5 1.5 0 0 0 0 3M11 462a1.5 1.5 0 1 1-3 0 1.5 1.5 0 0 1 3 0M14 501c6.075 0 11-4.925 11-11s-4.925-11-11-11-11 4.925-11 11 4.925 11 11 11m-4.5-9.5a1.5 1.5 0 1 0 0-3 1.5 1.5 0 0 0 0 3m6-1.5a1.5 1.5 0 1 1-3 0 1.5 1.5 0 0 1 3 0m4.5 0a1.5 1.5 0 1 1-3 0 1.5 1.5 0 0 1 3 0M16.217 506.641l-.016-.003-.015-.002a17.7 17.7 0 0 0-4.372 0l-.016.002-.016.003c-.944.138-1.778.67-2.375 1.266-.596.596-1.129 1.431-1.266 2.376l-.003.015-.002.016a17.6 17.6 0 0 0 0 4.372l.002.015.003.015c.137.946.67 1.78 1.266 2.376.162.162.342.32.536.466q-1.08.163-2.16.415l-.01.002c-.908.225-1.742.852-2.366 1.591-.629.743-1.116 1.68-1.26 2.626l-.002.008a63 63 0 0 0-.392 3.579l-.035.42.34.248c2.845 2.078 6.26 3.303 9.942 3.303s7.098-1.225 9.942-3.303l.34-.248-.035-.42a63 63 0 0 0-.392-3.579l-.002-.008c-.144-.946-.631-1.883-1.26-2.626-.625-.739-1.458-1.366-2.365-1.591l-.01-.002q-1.08-.252-2.161-.415c.194-.146.374-.304.536-.466.596-.596 1.128-1.43 1.266-2.376l.003-.015.002-.015a17.6 17.6 0 0 0 0-4.372l-.002-.016-.003-.015c-.138-.945-.67-1.78-1.266-2.376s-1.431-1.129-2.376-1.266M12 508.125c-1.076.157-2.218 1.299-2.375 2.375a16 16 0 0 0 0 4c.157 1.075 1.3 2.218 2.375 2.375q2 .25 4 0c1.076-.157 2.218-1.3 2.375-2.375a16 16 0 0 0 0-4c-.157-1.076-1.3-2.218-2.375-2.375a16 16 0 0 0-4 0m-5.448 12.41c.493-.583 1.07-.976 1.576-1.103a25.6 25.6 0 0 1 11.744 0c.505.127 1.083.52 1.576 1.103.49.578.827 1.265.922 1.879.143 1.019.255 2.041.346 3.065-2.536 1.756-5.52 2.771-8.716 2.771s-6.18-1.015-8.716-2.772c.09-1.023.202-2.045.346-3.064.095-.614.432-1.301.922-1.879M15 537.5h-2a2.5 2.5 0 0 0-2.5 2.5v1h7v-1a2.5 2.5 0 0 0-2.5-2.5m4 3.5h5l-.2 1.5-1.569 11.764A2 2 0 0 1 20.25 556H7.751a2 2 0 0 1-1.982-1.736L4.2 542.5 4 541h5v-1a4 4 0 0 1 4-4h2a4 4 0 0 1 4 4zM7.255 554.066 5.713 542.5h16.574l-1.542 11.566a.5.5 0 0 1-.496.434H7.751a.5.5 0 0 1-.496-.434M9 544.75a.75.75 0 0 1 1.5 0v1.5a.75.75 0 0 1-1.5 0zm9.25-.75a.75.75 0 0 0-.75.75v1.5a.75.75 0 0 0 1.5 0v-1.5a.75.75 0 0 0-.75-.75M14.84 571.743l1.841-1.246-1.843-1.241-7.893-5.316a2.04 2.04 0 0 0-1.253-.44c-.545 0-1.118.187-1.559.625a2.18 2.18 0 0 0-.633 1.563c0 .279.049.579.183.879.111.248.257.442.395.591l2.67 3.34-2.756 3.434a2 2 0 0 0-.37.671 2.3 2.3 0 0 0-.122.709c0 .551.192 1.124.633 1.563a2.2 2.2 0 0 0 1.56.625h.004c.062.004.65.039 1.174-.368zM5.692 565a.53.53 0 0 1 .346.138l.116.078.134.089.162.11.163.109 6.046 4.072L14 570.5l-1.34.906-6.111 4.133-.103.07-.23.155-.131.089-.116.078c-.069.069-.138.069-.277.069-.415 0-.692-.275-.692-.688 0-.086.028-.201.066-.291a.4.4 0 0 1 .072-.121l.073-.09.2-.249.11-.137 3.148-3.924-3.084-3.86-.135-.169-.168-.21-.074-.092a1 1 0 0 1-.09-.104.6.6 0 0 1-.118-.377c0-.413.277-.688.692-.688m15.432 19.107.082.055.084.042.019.011.005.002a1.876 1.876 0 0 0 .994.283c.545 0 1.118-.187 1.559-.625a2.18 2.18 0 0 0 .633-1.563c0-.279-.049-.579-.183-.879a2.2 2.2 0 0 0-.395-.591l-2.67-3.34 2.756-3.434a2 2 0 0 0 .37-.671c.06-.177.122-.429.122-.709 0-.551-.192-1.124-.633-1.563a2.2 2.2 0 0 0-1.56-.625h-.004a1.8 1.8 0 0 0-1.174.368l-7.97 5.389-1.84 1.246 1.843 1.241zm1.594-2.368.074.092a.62.62 0 0 1 .208.481c0 .413-.277.688-.692.688a.46.46 0 0 1-.247-.084l-.1-.054-.115-.078-.134-.089-.163-.11-.162-.109-6.046-4.072L14 577.5l1.34-.906 6.111-4.133.103-.07.23-.155.131-.089.116-.078c.069-.069.138-.069.277-.069.415 0 .692.275.692.688a.8.8 0 0 1-.066.291.4.4 0 0 1-.073.121l-.072.09-.2.249-.11.137-3.148 3.924 3.085 3.86.132.166.048.059zM4.5 596.175V608a.5.5 0 0 0 .5.5h18a.5.5 0 0 0 .5-.5v-11.825l-9.114 5.468-.386.232-.386-.232zm17.209-.675H6.29L14 600.125zM5 610a2 2 0 0 1-2-2v-12a2 2 0 0 1 2-2h18a2 2 0 0 1 2 2v12a2 2 0 0 1-2 2zM5.5 638.5v-17h17v17zM4 621a1 1 0 0 1 1-1h18a1 1 0 0 1 1 1v18a1 1 0 0 1-1 1H5a1 1 0 0 1-1-1zm4.75 4a.75.75 0 0 0-.75.75v8.5a.75.75 0 0 0 1.5 0v-8.5a.75.75 0 0 0-.75-.75m2.25.75a.75.75 0 0 1 1.5 0v8.5a.75.75 0 0 1-1.5 0zm4.14-.391a.75.75 0 1 0-1.28.782l5.216 8.536a.75.75 0 0 0 1.28-.783zM10 648.5h8a1.5 1.5 0 0 1 1.5 1.5v16a1.5 1.5 0 0 1-1.5 1.5h-8a1.5 1.5 0 0 1-1.5-1.5v-16a1.5 1.5 0 0 1 1.5-1.5M7 650a3 3 0 0 1 3-3h8a3 3 0 0 1 3 3v16a3 3 0 0 1-3 3h-8a3 3 0 0 1-3-3zm9.25 16.5a.75.75 0 0 0 0-1.5h-4.5a.75.75 0 0 0 0 1.5zM6.751 685.874a7.25 7.25 0 1 1 14.484.601.75.75 0 1 0 1.497.097q.018-.284.018-.572a8.75 8.75 0 0 0-17.498-.18l-1.522-1.522a.75.75 0 1 0-1.06 1.061l2.828 2.828.53.531.53-.531 2.83-2.828a.75.75 0 0 0-1.061-1.061zm7.749-3.624a.75.75 0 0 0-1.5 0V687h4.75a.75.75 0 0 0 0-1.5H14.5zm7.009 6.617a.75.75 0 0 1 .34 1.004q-.256.516-.573.991a.75.75 0 1 1-1.247-.834q.264-.394.475-.821a.75.75 0 0 1 1.005-.34m-2.44 3.368a.75.75 0 0 1-.207 1.041 9 9 0 0 1-.99.573.75.75 0 0 1-.665-1.345q.426-.21.82-.475a.75.75 0 0 1 1.041.206m-3.797 1.7a.75.75 0 0 1-.7.797q-.285.018-.572.018a.75.75 0 0 1 0-1.5q.24 0 .475-.015a.75.75 0 0 1 .797.7M7.5 714v-4.379l4.121-4.121H20.5v17h-13V714M6 709l5-5h10a1 1 0 0 1 1 1v18a1 1 0 0 1-1 1H7a1 1 0 0 1-1-1v-14m12.25-1a.75.75 0 0 0-.75.75v2.5a.75.75 0 0 0 1.5 0v-2.5a.75.75 0 0 0-.75-.75m-3.75.75a.75.75 0 0 1 1.5 0v2.5a.75.75 0 0 1-1.5 0zm-2.25-.75a.75.75 0 0 0-.75.75v2.5a.75.75 0 0 0 1.5 0v-2.5a.75.75 0 0 0-.75-.75M21.414 736.414l-3.828-3.828a2 2 0 0 0-1.414-.586H8a2 2 0 0 0-2 2v16a2 2 0 0 0 2 2h12a2 2 0 0 0 2-2v-12.172a2 2 0 0 0-.586-1.414m-1.06 1.061-3.829-3.829-.025-.023v3.627c0 .138.112.25.25.25h3.627zM20.5 739h-3.75a1.75 1.75 0 0 1-1.75-1.75v-3.75H8a.5.5 0 0 0-.5.5v16a.5.5 0 0 0 .5.5h12a.5.5 0 0 0 .5-.5z" clip-rule="evenodd"/><path fill="#121212" d="M16.853 766.84a3.6 3.6 0 0 1-.345 1.071 12.5 12.5 0 0 0 3.048-.008c.836-.122 1.725-1.01 1.847-1.847q.195-1.556 0-3.112c-.122-.836-1.01-1.725-1.847-1.847a12.5 12.5 0 0 0-3.048-.008c.168.337.29.697.345 1.071l.001.012.002.011a18.7 18.7 0 0 1 0 4.634l-.002.011zM9.222 761.111a14.3 14.3 0 0 1 3.556 0c.956.139 1.972 1.155 2.111 2.111q.222 1.778 0 3.556c-.14.956-1.155 1.972-2.111 2.111q-1.777.222-3.556 0c-.956-.139-1.972-1.155-2.11-2.111a14.3 14.3 0 0 1 0-3.556c.138-.956 1.154-1.972 2.11-2.111M11 779c2.957 0 5.703-.955 8-2.585a50 50 0 0 0-.328-2.893c-.2-1.276-1.39-2.659-2.58-2.946a22.8 22.8 0 0 0-10.184 0c-1.19.287-2.38 1.67-2.58 2.946-.14.964-.245 1.929-.328 2.893 2.297 1.63 5.043 2.585 8 2.585M25 774.702a12.2 12.2 0 0 1-4.058 1.922 65 65 0 0 0-.366-3.449l-.002-.014c-.15-1.022-.65-2.006-1.274-2.772-.45-.553-1.018-1.057-1.658-1.386q2.408-.044 4.814.509c1.04.255 2.082 1.484 2.257 2.619.123.857.214 1.714.287 2.571"/><path fill="#121212" fill-rule="evenodd" d="M22 791.75a2.75 2.75 0 0 0-2.75-2.75H8.75A4.75 4.75 0 0 0 4 793.75v8.5A4.75 4.75 0 0 0 8.75 807h12.5a2.75 2.75 0 0 0 2.75-2.75v-8.5a2.75 2.75 0 0 0-2-2.646zm-1.5 0V793H9a.75.75 0 0 0 0 1.5h12.25c.69 0 1.25.56 1.25 1.25v8.5c0 .69-.56 1.25-1.25 1.25H8.75a3.25 3.25 0 0 1-3.25-3.25v-8.5a3.25 3.25 0 0 1 3.25-3.25h10.5c.69 0 1.25.56 1.25 1.25m-.5 7.75a1.5 1.5 0 1 1-3 0 1.5 1.5 0 0 1 3 0" clip-rule="evenodd"/></svg>