<svg xmlns="http://www.w3.org/2000/svg" xml:space="preserve" id="Generic" width="56" height="2240" x="0" y="0" preserveAspectRatio="none" viewBox="0 0 56 2240"><style>.st0{fill:#fff}.st1{fill:#7b7c7d}.st2{stroke-linecap:round;stroke-linejoin:round}.st2,.st3,.st4,.st6{fill:none;stroke:#7b7c7d;stroke-width:2;stroke-miterlimit:10}.st4,.st6{stroke-linecap:round}.st6{stroke-width:1.9928}.st7{opacity:.5}.st8{fill:#393b3d}.st10,.st9{stroke-linecap:round;stroke-linejoin:round}.st9{fill:#393b3d;stroke:#393b3d;stroke-width:2;stroke-miterlimit:10}.st10{opacity:.5;stroke:#000;enable-background:new}.st10,.st11,.st12,.st13,.st14{fill:none;stroke-width:2;stroke-miterlimit:10}.st11{stroke:#000;stroke-linecap:round;stroke-linejoin:round}.st12,.st13,.st14{stroke:#393b3d}.st13,.st14{stroke:#000}.st14{stroke:#393b3d;stroke-linecap:round;stroke-linejoin:round}.st17{fill:#e2231a}</style><path id="check-selection" d="M22 2214H6c-2.2 0-4 1.8-4 4v16c0 2.2 1.8 4 4 4h16c2.2 0 4-1.8 4-4v-16c0-2.2-1.8-4-4-4m-.6 9.4-9.4 9.4-5.4-5.4c-.8-.8-.8-2 0-2.8s2-.8 2.8 0l2.6 2.6 6.6-6.6c.8-.8 2-.8 2.8 0s.8 2 0 2.8" class="st0"/><g id="femaleWhite-on"><circle id="XMLID_149_" cx="42" cy="2134" r="4" class="st1"/><g id="XMLID_146_"><path id="XMLID_147_" d="M41 2139c-.5 0-1.2.4-1.6.8l-4.9 7.3c-.3.5-.1.9.4 1.1l6.1 1.5c.5.1 1.4.1 1.9 0l6.1-1.5c.5-.1.7-.6.4-1.1l-4.9-7.3c-.3-.5-1-.8-1.6-.8z" class="st1"/></g><g id="XMLID_138_"><path id="XMLID_139_" d="M39 2146c-.5 0-.9.4-.8 1l1.5 6.1c.1.5.7 1 1.2 1h2c.5 0 1.1-.4 1.2-1l1.5-6.1c.1-.5-.2-1-.8-1z" class="st1"/></g></g><g id="femaleWhite"><g id="XMLID_128_"><path id="XMLID_129_" d="M14 2138c-2.2 0-4-1.8-4-4s1.8-4 4-4 4 1.8 4 4-1.8 4-4 4m0-6c-1.1 0-2 .9-2 2s.9 2 2 2 2-.9 2-2-.9-2-2-2" class="st1"/></g><g id="XMLID_124_"><path id="XMLID_125_" d="M16 2154h-4c-.5 0-.9-.3-1-.8l-.9-4.4-3.3-.8c-.3-.1-.6-.3-.7-.6s-.1-.7.1-.9l5-7c.2-.3.5-.4.8-.4h4c.3 0 .6.2.8.4l5 7c.2.3.2.6.1.9s-.4.5-.7.6l-3.4.8-.9 4.4c0 .5-.4.8-.9.8m-3.2-2h2.4l.8-4.2c.1-.4.4-.7.7-.8l2.6-.6-3.8-5.4h-3l-3.8 5.4 2.6.6c.4.1.7.4.7.8z" class="st1"/></g></g><g id="maleWhite-on"><circle id="XMLID_119_" cx="42" cy="2106" r="4" class="st1"/><g id="XMLID_104_"><path id="XMLID_118_" d="M39 2118c-.5 0-.9.4-.8 1l1.5 6.1c.1.5.7 1 1.2 1h2c.5 0 1.1-.4 1.2-1l1.5-6.1c.1-.5-.2-1-.8-1z" class="st1"/></g><g id="XMLID_100_"><path id="XMLID_103_" d="M36 2112c0-.6.5-1 1-1h10c.5 0 1 .4 1 1v5c0 .6-.4 1.2-.9 1.4l-4.2 2.1c-.5.2-1.3.2-1.8 0l-4.2-2.1c-.5-.2-.9-.9-.9-1.4z" class="st1"/></g></g><g id="maleWhite"><g id="XMLID_95_"><path id="XMLID_99_" d="M14 2110c-2.2 0-4-1.8-4-4s1.8-4 4-4 4 1.8 4 4-1.8 4-4 4m0-6c-1.1 0-2 .9-2 2s.9 2 2 2 2-.9 2-2-.9-2-2-2" class="st1"/></g><g id="XMLID_89_"><path id="XMLID_92_" d="M16 2126h-4c-.5 0-.9-.4-1-.8l-.9-5.5-1.5-.8q-.6-.3-.6-.9v-6c0-.6.4-1 1-1h10c.6 0 1 .4 1 1v6q0 .6-.6.9l-1.5.8-.9 5.5c-.1.4-.5.8-1 .8m-3.2-2h2.3l.9-5.2c.1-.3.3-.6.5-.7l1.4-.7v-4.4h-8v4.4l1.4.7c.3.1.5.4.5.7z" class="st1"/></g></g><path id="trashbin-on" d="M53 2079h-5v-3c0-1.1-.9-2-2-2h-8c-1.1 0-2 .9-2 2v3h-5c-.6 0-1 .4-1 1s.4 1 1 1h1v14c0 1.7 1.3 3 3 3h14c1.7 0 3-1.3 3-3v-14h1c.6 0 1-.4 1-1s-.4-1-1-1m-15-3h8v3h-8zm1 17c0 .6-.4 1-1 1s-1-.4-1-1v-9c0-.6.4-1 1-1s1 .4 1 1zm4 0c0 .6-.4 1-1 1s-1-.4-1-1v-9c0-.6.4-1 1-1s1 .4 1 1zm4 0c0 .6-.4 1-1 1s-1-.4-1-1v-9c0-.6.4-1 1-1s1 .4 1 1z" class="st1"/><g id="trashbin"><path d="M3 2080h22M5 2080v15c0 1.1.9 2 2 2h14c1.1 0 2-.9 2-2v-15M14 2084v9M10 2084v9M18 2084v9M9 2079v-3c0-.6.4-1 1-1h8c.6 0 1 .4 1 1v3" class="st2"/></g><g id="password-hide"><path d="M11.9 2060.5c-1.2-.7-2-2-1.9-3.4 0-2.2 1.8-4 4-4 1.5 0 2.7.8 3.4 1.9" class="st3"/><path d="M17.9 2058c-.4 1.4-1.5 2.6-2.9 2.9M21.9 2054.2c1.1.6 2.1 1.4 3.1 2.3M3 2056.4c2.9-2.7 6.8-4.4 11-4.3 1.7 0 3.4.3 4.9.8M8.7 2063q-1.5-.6-2.7-1.5M22 2061.6c-2.3 1.6-5 2.5-8 2.5-.7 0-1.4-.1-2-.2M23.9 2048l-20 20" class="st4"/></g><g id="password"><circle cx="14" cy="2028.9" r="4" style="fill:none;stroke:#7b7c7d;stroke-width:1.9928;stroke-miterlimit:10"/><path d="M3 2028.3c2.9-2.7 6.8-4.4 11-4.3 4.3 0 8.1 1.7 11 4.4M21.9 2033.5c-2.3 1.6-5 2.5-8 2.5s-5.7-.9-8-2.5" class="st6"/></g><g id="more_x5F_vertical"><path d="M14.5 2001.5v1h-1v-1zm2-2h-5v5h5zM14.5 2009v1h-1v-1zm2-2h-5v5h5zM14.5 1994v1h-1v-1zm2-2h-5v5h5z" class="st1"/></g><g id="pause-fill" class="st7"><path d="M10 1984H6c-.6 0-1-.4-1-1v-18c0-.6.4-1 1-1h4c.6 0 1 .4 1 1v18c0 .6-.4 1-1 1M22 1984h-4c-.6 0-1-.4-1-1v-18c0-.6.4-1 1-1h4c.6 0 1 .4 1 1v18c0 .6-.4 1-1 1"/></g><g id="regenerate"><path d="M22 1945.2v.8c0 5-4 9-9 9s-9-4-9-9 4-9 9-9c2.8 0 5.3 1.3 7 3.3" class="st4"/><path d="m19.2 1947 2.8-2.8 2.8 2.8" class="st2"/></g><g id="playgame-on"><path d="m53.5 1913.2-4.8-3c-.2-.1-.3-.2-.5-.2H36c-.2 0-.4 0-.5.1l-5 3c-.3.2-.5.5-.5.9v11c0 .6.4 1 1 1h4c.1 0 .3 0 .4-.1l4.8-1.9H42c.6 0 1-.4 1-1v-7.3l9.5 5.2c.3.2.7.2 1 0s.5-.5.5-.9v-6c0-.3-.2-.7-.5-.8M39 1919h-1v1c0 .6-.4 1-1 1s-1-.4-1-1v-1h-1c-.6 0-1-.4-1-1s.4-1 1-1h1v-1c0-.6.4-1 1-1s1 .4 1 1v1h1c.6 0 1 .4 1 1s-.4 1-1 1" class="st8"/><path d="M46 1930c-.2 0-.3 0-.5-.1-.3-.2-.5-.5-.5-.9v-8c0-.4.2-.7.5-.9s.7-.2 1 0l7 4c.3.2.5.5.5.9s-.2.7-.5.9l-7 4c-.2.1-.3.1-.5.1" class="st8"/></g><g id="playgame"><path d="M7 1926H3c-.6 0-1-.4-1-1v-11c0-.4.2-.7.5-.9l5-3c.2-.1.3-.1.5-.1h12.2c.2 0 .4.1.5.2l4.8 3c.3.2.5.5.5.8v7c0 .6-.4 1-1 1s-1-.4-1-1v-6.4l-4.1-2.6H8.3l-4.3 2.6v9.4h2.8l4.8-1.9c.1 0 .2-.1.4-.1h2c.6 0 1 .4 1 1s-.4 1-1 1h-1.8l-4.8 1.9c-.1.1-.3.1-.4.1" class="st1"/><path d="M11 1919H7c-.6 0-1-.4-1-1s.4-1 1-1h4c.6 0 1 .4 1 1s-.4 1-1 1" class="st1"/><path d="M9 1921c-.6 0-1-.4-1-1v-4c0-.6.4-1 1-1s1 .4 1 1v4c0 .6-.4 1-1 1M18 1915c-.8 0-1.5.7-1.5 1.5s.7 1.5 1.5 1.5 1.5-.7 1.5-1.5-.7-1.5-1.5-1.5M18 1930c-.2 0-.3 0-.5-.1-.3-.2-.5-.5-.5-.9v-8c0-.4.2-.7.5-.9s.7-.2 1 0l7 4c.3.2.5.5.5.9s-.2.7-.5.9l-7 4c-.2.1-.3.1-.5.1m1-7.3v4.6l4-2.3z" class="st1"/></g><g id="viewdetails-on"><path d="m53.7 1900.3-3.8-3.8c.7-1 1.1-2.2 1.1-3.5 0-3.3-2.7-6-6-6s-6 2.7-6 6 2.7 6 6 6c1.3 0 2.5-.4 3.5-1.1l3.8 3.8c.2.2.5.3.7.3s.5-.1.7-.3c.4-.4.4-1 0-1.4M45 1897c-2.2 0-4-1.8-4-4s1.8-4 4-4 4 1.8 4 4-1.8 4-4 4" class="st8"/><path d="M41.2 1900c-.2-.1-.5-.2-.7-.4-2.2-1.5-3.6-4-3.6-6.7 0-.3 0-.7.1-1h-2c-.6 0-1-.4-1-1s.4-1 1-1h2.6c.3-.7.7-1.4 1.2-2H35c-.6 0-1-.4-1-1s.4-1 1-1h6.1c1.6-.9 3.6-1.3 5.7-.8.5.1 1.1-.2 1.2-.8v-5.5c0-.6-.4-1-1-1H31c-.6 0-1 .4-1 1v22c0 .6.4 1 1 1h10.3c.2-.1.4-.2.6-.5.1-.1.1-.3.1-.5v-.1c0-.2-.3-.5-.8-.7m-6.2-18h8c.6 0 1 .4 1 1s-.4 1-1 1h-8c-.6 0-1-.4-1-1s.4-1 1-1" class="st8"/></g><g id="viewdetails"><path d="M14 1902H3c-.6 0-1-.4-1-1v-22c0-.6.4-1 1-1h16c.6 0 1 .4 1 1v5c0 .6-.4 1-1 1s-1-.4-1-1v-4H4v20h10c.6 0 1 .4 1 1s-.4 1-1 1" class="st1"/><path d="M17 1899c-3.3 0-6-2.7-6-6s2.7-6 6-6 6 2.7 6 6-2.7 6-6 6m0-10c-2.2 0-4 1.8-4 4s1.8 4 4 4 4-1.8 4-4-1.8-4-4-4" class="st1"/><path d="M25 1902c-.3 0-.5-.1-.7-.3l-4-4c-.4-.4-.4-1 0-1.4s1-.4 1.4 0l4 4c.4.4.4 1 0 1.4-.2.2-.4.3-.7.3M15 1884H7c-.6 0-1-.4-1-1s.4-1 1-1h8c.6 0 1 .4 1 1s-.4 1-1 1M10 1888H7c-.6 0-1-.4-1-1s.4-1 1-1h3c.6 0 1 .4 1 1s-.4 1-1 1M8 1892H7c-.6 0-1-.4-1-1s.4-1 1-1h1c.6 0 1 .4 1 1s-.4 1-1 1" class="st1"/></g><path id="chat-on_1_" d="M54 1852v14c0 .6-.4 1-1 1h-8.4l-4.8 5.6c-.2.2-.5.4-.8.4-.1 0-.2 0-.3-.1-.4-.1-.7-.5-.7-.9v-5h-7c-.6 0-1-.4-1-1v-14c0-.6.4-1 1-1h22c.6 0 1 .4 1 1m-16 7c0-1.1-.9-2-2-2s-2 .9-2 2 .9 2 2 2 2-.9 2-2m6 0c0-1.1-.9-2-2-2s-2 .9-2 2 .9 2 2 2 2-.9 2-2m6 0c0-1.1-.9-2-2-2s-2 .9-2 2 .9 2 2 2 2-.9 2-2" class="st8"/><g id="chat"><path d="M11 1873c-.1 0-.2 0-.3-.1-.4-.1-.7-.5-.7-.9v-5H3c-.6 0-1-.4-1-1v-14c0-.6.4-1 1-1h22c.6 0 1 .4 1 1v14c0 .6-.4 1-1 1h-8.4l-4.8 5.6c-.2.3-.5.4-.8.4m-7-8h7c.6 0 1 .4 1 1v3.3l3.3-3.9c.2-.2.5-.4.8-.4H24v-12H4z" class="st1"/><circle cx="8" cy="1859" r="2" class="st1"/><circle cx="14" cy="1859" r="2" class="st1"/><circle cx="20" cy="1859" r="2" class="st1"/></g><path id="global-on" d="M42 1822c-6.6 0-12 5.4-12 12s5.4 12 12 12 12-5.4 12-12-5.4-12-12-12m9.8 13.8-.8-.4v-.8l1-.5c0 .6-.1 1.2-.2 1.7m-12.7-11.4 1 2c.2.3.5.6.9.6h3c.3 0 .5-.1.7-.3l1.7-1.7c.2.1.3.2.5.3l-.9 3.5v2.8l-2.5 2.5-4.7.9c-.5.1-.8.5-.8 1v2.6l-3.1-3.1-1.9-4.8c-.1-.1-.1-.2-.2-.3 1-2.9 3.4-5.1 6.3-6m1.9 19.5v-1.5l1.2-1.2 1.4.7c.1 0 .2.1.3.1l3.2.6c-1.5.9-3.2 1.4-5 1.4-.4 0-.8 0-1.1-.1" class="st8"/><g id="global_3_"><path d="M14 1846c-6.6 0-12-5.4-12-12s5.4-12 12-12 12 5.4 12 12-5.4 12-12 12m0-22c-5.5 0-10 4.5-10 10s4.5 10 10 10 10-4.5 10-10-4.5-10-10-10" class="st1"/><path d="M10 1841c-.3 0-.5-.1-.7-.3l-4-4c-.1-.1-.2-.2-.2-.3l-2-5c-.2-.5 0-1.1.6-1.3.5-.2 1.1 0 1.3.6l1.9 4.8 3.1 3.1v-2.6c0-.5.3-.9.8-1l4.7-.9 2.5-2.5v-2.8l1-4c.1-.5.7-.9 1.2-.7.5.1.9.7.7 1.2l-1 3.9v2.9c0 .3-.1.5-.3.7l-3 3c-.1.1-.3.2-.5.3l-4.2.8v2.2c0 .3-.1.5-.3.7l-1 1c-.1.1-.3.2-.6.2" class="st1"/><path d="M16 1827h-3q-.6 0-.9-.6l-1-2c-.2-.5 0-1.1.4-1.3.5-.2 1.1 0 1.3.4l.7 1.4h2l1.7-1.7c.4-.4 1-.4 1.4 0s.4 1 0 1.4l-2 2c-.1.3-.3.4-.6.4M12 1845c-.6 0-1-.4-1-1v-2c0-.3.1-.5.3-.7l2-2c.3-.3.8-.4 1.2-.2l1.9.9 4.9 1c.5.1.9.6.8 1.2-.1.5-.6.9-1.2.8l-5-1c-.1 0-.2 0-.3-.1l-1.4-.7-1.2 1.2v1.6c0 .6-.4 1-1 1M24 1838c-.1 0-.3 0-.4-.1l-2-1c-.3-.2-.6-.5-.6-.9v-2q0-.6.6-.9l2-1c.5-.2 1.1 0 1.3.4s0 1.1-.4 1.3l-1.4.7v.8l1.4.7c.5.2.7.8.4 1.3-.2.5-.5.7-.9.7" class="st1"/></g><path id="windows" d="m32 1798.8 8.1-1.1v7.9H32zm8.2 7.7v7.9l-8.1-1.1v-6.8zm.9-8.9 10.8-1.6v9.5l-10.8.1zm10.9 9v9.4l-10.8-1.5v-7.9z" class="st1"/><path id="apple" d="M21.9 1811.6c-.3.7-.7 1.3-1.1 1.9-.6.8-1 1.4-1.4 1.7-.6.5-1.1.8-1.8.8-.5 0-1-.1-1.6-.4s-1.2-.4-1.8-.4-1.2.1-1.8.4-1.2.4-1.6.4c-.6 0-1.2-.2-1.8-.8-.4-.3-.9-.9-1.4-1.7q-.9-1.35-1.5-3c-.4-1.2-.6-2.5-.6-3.6 0-1.3.3-2.5.9-3.5q.75-1.2 1.8-1.8c1.05-.6 1.6-.7 2.5-.7.5 0 1.1.1 1.9.4s1.3.4 1.5.4.7-.2 1.7-.5c.9-.3 1.7-.5 2.3-.4 1.7.1 2.9.8 3.8 2-1.5.9-2.2 2.2-2.2 3.8 0 1.3.5 2.3 1.4 3.2.4.4.9.7 1.4.9-.3.4-.4.7-.6.9m-3.8-15.2c0 1-.4 1.9-1.1 2.8-.9 1-1.9 1.6-3.1 1.5v-.4c0-1 .4-2 1.2-2.8.4-.4.8-.8 1.4-1.1s1.1-.4 1.6-.5z" class="st1"/><g id="right-link" class="st7"><path id="XMLID_11_" d="M10 1787c-.3 0-.5-.1-.7-.3-.4-.4-.4-1 0-1.4l7.3-7.3-7.3-7.3c-.4-.4-.4-1 0-1.4s1-.4 1.4 0l8 8c.4.4.4 1 0 1.4l-8 8c-.2.2-.4.3-.7.3"/></g><g id="close-white_1_"><g id="XMLID_91_"><path id="XMLID_94_" d="M7 1758c-.3 0-.5-.1-.7-.3-.4-.4-.4-1 0-1.4l14-14c.4-.4 1-.4 1.4 0s.4 1 0 1.4l-14 14c-.2.2-.4.3-.7.3" class="st1"/></g><g id="XMLID_17_"><path id="XMLID_23_" d="M21 1758c-.3 0-.5-.1-.7-.3l-14-14c-.4-.4-.4-1 0-1.4s1-.4 1.4 0l14 14c.4.4.4 1 0 1.4-.2.2-.4.3-.7.3" class="st1"/></g></g><path id="stop-on" d="M33 1713h18v18H33z" class="st9"/><path id="stop" d="M5 1713h18v18H5z" class="st10"/><path id="play2-on" d="m35 1685 16 9-16 9z" class="st9"/><path id="play2" d="m7 1685 16 9-16 9z" class="st10"/><g id="unlock" class="st7"><path d="M11 1665h14v12H11z" class="st11"/><circle cx="18" cy="1670" r="2" class="st11"/><path d="M18 1672v2M3 1665v-5c0-2.8 2.2-5 5-5s5 2.2 5 5v5" class="st11"/></g><g id="lock" class="st7"><path d="M7 1637h14v12H7z" class="st11"/><circle cx="14" cy="1642" r="2" class="st11"/><path d="M14 1644v2M9 1637v-5c0-2.8 2.2-5 5-5s5 2.2 5 5v5" class="st11"/></g><g id="copy-on"><path d="M37 1603.1v-3.8q0-.3.3-.3h11.6c.1 0 .2 0 .2.1l3.8 4c.1.1.1.1.1.2v13.4q0 .3-.3.3H47" class="st12"/><path d="M48 1600v3.7q0 .3.3.3H52" class="st12"/><path d="m47.6 1606.4-3.7-3.9c-.2-.3-.5-.5-1-.5H31.3c-.8 0-1.3.6-1.3 1.3v17.4c0 .8.5 1.3 1.3 1.3h15.4c.8 0 1.3-.6 1.3-1.3v-13.4c0-.4-.2-.7-.4-.9M34 1608h6c.5 0 1 .5 1 1s-.5 1-1 1h-6c-.5 0-1-.5-1-1s.4-1 1-1m10 10H34c-.5 0-1-.5-1-1s.5-1 1-1h10c.5 0 1 .5 1 1s-.5 1-1 1m0-4H34c-.5 0-1-.4-1-1s.5-1 1-1h10c.5 0 1 .4 1 1s-.5 1-1 1m-1-7v-3l3 3z" class="st8"/></g><g id="copy" class="st7"><path id="minus_2_" d="M6 1613h10" class="st11"/><path id="minus_8_" d="M6 1609h5" class="st11"/><path id="minus_1_" d="M6 1617h10" class="st11"/><path d="M3.3 1603h11.6c.1 0 .2 0 .2.1l3.8 4c.1.1.1.1.1.2v13.4q0 .3-.3.3H3.3q-.3 0-.3-.3v-17.4q0-.3.3-.3z" class="st13"/><path d="M14 1604v3.7q0 .3.3.3H18" class="st13"/><path d="M9 1603.1v-3.8q0-.3.3-.3h11.6c.1 0 .2 0 .2.1l3.8 4c.1.1.1.1.1.2v13.4q0 .3-.3.3H19" class="st13"/><path d="M20 1600v3.7q0 .3.3.3H24" class="st13"/></g><path id="minus-on" d="M32 1582h20" class="st14"/><path id="minus" d="M4 1582h20" class="st2"/><g id="plus-on"><path d="M32 1554h20M42 1544v20" class="st14"/></g><g id="plus"><path d="M4 1554h20M14 1544v20" class="st2"/></g><path id="checkmark-blue-thick" d="m33 1526 6 6 12-12" style="fill:none;stroke:#232527;stroke-width:4;stroke-linecap:round;stroke-linejoin:round;stroke-miterlimit:10"/><path id="checkmark-blue" d="m5 1526 6 6 12-12" style="fill:none;stroke:#232527;stroke-width:2;stroke-linecap:round;stroke-linejoin:round;stroke-miterlimit:10"/><g id="menu-black"><g id="XMLID_14_"><path id="XMLID_15_" d="M22 1494H6c-.6 0-1-.4-1-1s.4-1 1-1h16c.6 0 1 .4 1 1s-.4 1-1 1" class="st8"/></g><g id="XMLID_9_"><path id="XMLID_10_" d="M22 1499H6c-.6 0-1-.4-1-1s.4-1 1-1h16c.6 0 1 .4 1 1s-.4 1-1 1" class="st8"/></g><g id="XMLID_6_"><path id="XMLID_8_" d="M22 1504H6c-.6 0-1-.4-1-1s.4-1 1-1h16c.6 0 1 .4 1 1s-.4 1-1 1" class="st8"/></g></g><path id="clear-on" d="M42.1 1458c-6.6 0-12 5.4-12 12s5.4 12 12 12 12-5.4 12-12-5.4-12-12-12m4.5 14.5c.6.6.6 1.5 0 2.1-.3.3-.7.4-1.1.4s-.8-.1-1.1-.4l-2.5-2.5-2.5 2.5c-.3.3-.7.4-1.1.4s-.8-.1-1.1-.4c-.6-.6-.6-1.5 0-2.1l2.5-2.5-2.5-2.5c-.6-.6-.6-1.5 0-2.1s1.5-.6 2.1 0l2.5 2.5 2.5-2.5c.6-.6 1.5-.6 2.1 0s.6 1.5 0 2.1l-2.5 2.5z" class="st8"/><g id="clear"><path d="M13.8 1461c5 0 9 4 9 9s-4 9-9 9-9-4-9-9 4-9 9-9m0-3c-6.6 0-12 5.4-12 12s5.4 12 12 12 12-5.4 12-12-5.4-12-12-12" class="st1"/><path d="M17.3 1475c-.4 0-.8-.1-1.1-.4l-7-7c-.6-.6-.6-1.5 0-2.1s1.5-.6 2.1 0l7 7c.6.6.6 1.5 0 2.1-.2.3-.6.4-1 .4" class="st1"/><path d="M10.3 1475c-.4 0-.8-.1-1.1-.4-.6-.6-.6-1.5 0-2.1l7-7c.6-.6 1.5-.6 2.1 0s.6 1.5 0 2.1l-7 7c-.2.3-.6.4-1 .4" class="st1"/></g><g id="alarmclock-red"><g id="XMLID_362_"><path id="XMLID_363_" d="M14 1453c-5.5 0-10-4.5-10-10s4.5-10 10-10 10 4.5 10 10-4.5 10-10 10m0-18c-4.4 0-8 3.6-8 8s3.6 8 8 8 8-3.6 8-8-3.6-8-8-8" class="st17"/></g><g id="XMLID_240_"><g id="XMLID_360_"><path id="XMLID_361_" d="M23.2 1436.3c-.3 0-.6-.1-.8-.4-1.2-1.5-2.8-2.6-4.7-3.3-.5-.2-.8-.8-.6-1.3s.8-.8 1.3-.6c2.1.8 4.1 2.1 5.5 3.9.4.4.3 1.1-.1 1.4q-.3.3-.6.3" class="st17"/></g><g id="XMLID_241_"><path id="XMLID_359_" d="M4.8 1436.3c-.2 0-.5-.1-.6-.2-.4-.4-.5-1-.1-1.4 1.5-1.7 3.4-3.1 5.5-3.9.5-.2 1.1.1 1.3.6s-.1 1.1-.6 1.3c-1.8.7-3.4 1.8-4.7 3.3-.2.2-.5.3-.8.3" class="st17"/></g></g><g id="XMLID_237_"><path id="XMLID_238_" d="M17 1447c-.3 0-.5-.1-.7-.3l-3-3c-.2-.2-.3-.4-.3-.7v-6c0-.6.4-1 1-1s1 .4 1 1v5.6l2.7 2.7c.4.4.4 1 0 1.4-.2.2-.4.3-.7.3" class="st17"/></g></g><path id="notification-on_1_" d="M48 1290H36c-3.3 0-6 2.7-6 6v12c0 3.3 2.7 6 6 6h12c3.3 0 6-2.7 6-6v-12c0-3.3-2.7-6-6-6m1 19H35c-.6 0-1-.4-1-1s.4-1 1-1h14c.6 0 1 .4 1 1s-.4 1-1 1m0-4H35c-.6 0-1-.4-1-1s.4-1 1-1h14c.6 0 1 .4 1 1s-.4 1-1 1m0-4H35c-.6 0-1-.4-1-1s.4-1 1-1h14c.6 0 1 .4 1 1s-.4 1-1 1m0-4H35c-.6 0-1-.4-1-1s.4-1 1-1h14c.6 0 1 .4 1 1s-.4 1-1 1" class="st8"/><g id="notification_1_"><path d="M20 1313H8c-2.8 0-5-2.2-5-5v-12c0-2.8 2.2-5 5-5h12c2.8 0 5 2.2 5 5v12c0 2.8-2.2 5-5 5M7 1300h14M7 1304h14M7 1308h14M7 1296h14" class="st14"/></g><g id="sandglass-white"><path d="M35 1263h14v7l-4 4 4 4v7H35v-7l4-4-4-4z" class="st14"/><path d="M38 1282v-2l4-3 4 3v2zM46 1268v1l-4 3-4-3v-1z" class="st14"/></g><g id="sandglass"><path d="M7 1263h14v7l-4 4 4 4v7H7v-7l4-4-4-4z" class="st2"/><path d="M10 1282v-2l4-3 4 3v2zM18 1268v1l-4 3-4-3v-1z" class="st2"/></g><g id="close-white"><g id="XMLID_3_"><path id="XMLID_4_" d="M7 1254c-.3 0-.5-.1-.7-.3-.4-.4-.4-1 0-1.4l14-14c.4-.4 1-.4 1.4 0s.4 1 0 1.4l-14 14c-.2.2-.4.3-.7.3" class="st0"/></g><g id="XMLID_1_"><path id="XMLID_2_" d="M21 1254c-.3 0-.5-.1-.7-.3l-14-14c-.4-.4-.4-1 0-1.4s1-.4 1.4 0l14 14c.4.4.4 1 0 1.4-.2.2-.4.3-.7.3" class="st0"/></g></g><path id="checkmark-gray-thick" d="m33 1218 6 6 12-12" style="fill:none;stroke:#656668;stroke-width:4;stroke-linecap:round;stroke-linejoin:round;stroke-miterlimit:10"/><path id="checkmark-white-thick" d="m5 1218 6 6 12-12" style="fill:none;stroke:#e3e5e8;stroke-width:4;stroke-linecap:round;stroke-linejoin:round;stroke-miterlimit:10"/><path id="checkmark-gray" d="m33 1190 6 6 12-12" style="fill:none;stroke:#656668;stroke-width:2;stroke-linecap:round;stroke-linejoin:round;stroke-miterlimit:10"/><path id="checkmark-white" d="m5 1190 6 6 12-12" style="fill:none;stroke:#e3e5e8;stroke-width:2;stroke-linecap:round;stroke-linejoin:round;stroke-miterlimit:10"/><g id="first-white"><path d="m48 1170-8-8 8-8M36 1170v-16" class="st14"/></g><g id="first" class="st7"><path d="m20 1170-8-8 8-8M8 1170v-16" class="st11"/></g><g id="last-white"><path d="m36 1126 8 8-8 8M48 1126v16" class="st14"/></g><g id="last" class="st7"><path d="m8 1126 8 8-8 8M20 1126v16" class="st11"/></g><g id="first_1_" class="st7"><path d="m20 1422-8-8 8-8M8 1422v-16" class="st11"/></g><g id="last_1_" class="st7"><path d="m8 1378 8 8-8 8M20 1378v16" class="st11"/></g><g id="history-on"><path d="M34.9 1113c-1.8-1.8-2.9-4.3-2.9-7 0-5.5 4.5-10 10-10s10 4.5 10 10-4.5 10-10 10c-1 0-2.1-.2-3-.5" class="st14"/><path d="M42 1100.5v5.5l3 3.2M36 1109l-1 4-4-1" class="st14"/></g><g id="history" class="st7"><path d="M6.9 1113c-1.8-1.8-2.9-4.3-2.9-7 0-5.5 4.5-10 10-10s10 4.5 10 10-4.5 10-10 10c-1 0-2.1-.2-3-.5" class="st11"/><path d="M14 1100.5v5.5l3 3.2M8 1109l-1 4-4-1" class="st11"/></g><g id="slideshow-w"><path id="XMLID_356_" d="M53 1085H31c-.6 0-1-.4-1-1v-12c0-.6.4-1 1-1h22c.6 0 1 .4 1 1v12c0 .6-.4 1-1 1m-21-2h20v-10H32z" class="st8"/></g><g id="slideshow" class="st7"><path id="XMLID_353_" d="M25 1085H3c-.6 0-1-.4-1-1v-12c0-.6.4-1 1-1h22c.6 0 1 .4 1 1v12c0 .6-.4 1-1 1m-21-2h20v-10H4z"/></g><g id="grid-w"><g id="XMLID_349_"><path id="XMLID_350_" d="M35 1049h-4c-.6 0-1-.4-1-1v-4c0-.6.4-1 1-1h4c.6 0 1 .4 1 1v4c0 .6-.4 1-1 1m-3-2h2v-2h-2z" class="st8"/></g><g id="XMLID_345_"><path id="XMLID_346_" d="M53 1049h-4c-.6 0-1-.4-1-1v-4c0-.6.4-1 1-1h4c.6 0 1 .4 1 1v4c0 .6-.4 1-1 1m-3-2h2v-2h-2z" class="st8"/></g><g id="XMLID_341_"><path id="XMLID_342_" d="M44 1049h-4c-.6 0-1-.4-1-1v-4c0-.6.4-1 1-1h4c.6 0 1 .4 1 1v4c0 .6-.4 1-1 1m-3-2h2v-2h-2z" class="st8"/></g><g id="XMLID_337_"><path id="XMLID_338_" d="M35 1057h-4c-.6 0-1-.4-1-1v-4c0-.6.4-1 1-1h4c.6 0 1 .4 1 1v4c0 .6-.4 1-1 1m-3-2h2v-2h-2z" class="st8"/></g><g id="XMLID_333_"><path id="XMLID_334_" d="M53 1057h-4c-.6 0-1-.4-1-1v-4c0-.6.4-1 1-1h4c.6 0 1 .4 1 1v4c0 .6-.4 1-1 1m-3-2h2v-2h-2z" class="st8"/></g><g id="XMLID_329_"><path id="XMLID_330_" d="M44 1057h-4c-.6 0-1-.4-1-1v-4c0-.6.4-1 1-1h4c.6 0 1 .4 1 1v4c0 .6-.4 1-1 1m-3-2h2v-2h-2z" class="st8"/></g></g><g id="grid" class="st7"><g id="XMLID_325_"><path id="XMLID_326_" d="M7 1049H3c-.6 0-1-.4-1-1v-4c0-.6.4-1 1-1h4c.6 0 1 .4 1 1v4c0 .6-.4 1-1 1m-3-2h2v-2H4z"/></g><g id="XMLID_321_"><path id="XMLID_322_" d="M25 1049h-4c-.6 0-1-.4-1-1v-4c0-.6.4-1 1-1h4c.6 0 1 .4 1 1v4c0 .6-.4 1-1 1m-3-2h2v-2h-2z"/></g><g id="XMLID_317_"><path id="XMLID_318_" d="M16 1049h-4c-.6 0-1-.4-1-1v-4c0-.6.4-1 1-1h4c.6 0 1 .4 1 1v4c0 .6-.4 1-1 1m-3-2h2v-2h-2z"/></g><g id="XMLID_313_"><path id="XMLID_314_" d="M7 1057H3c-.6 0-1-.4-1-1v-4c0-.6.4-1 1-1h4c.6 0 1 .4 1 1v4c0 .6-.4 1-1 1m-3-2h2v-2H4z"/></g><g id="XMLID_309_"><path id="XMLID_310_" d="M25 1057h-4c-.6 0-1-.4-1-1v-4c0-.6.4-1 1-1h4c.6 0 1 .4 1 1v4c0 .6-.4 1-1 1m-3-2h2v-2h-2z"/></g><g id="XMLID_305_"><path id="XMLID_306_" d="M16 1057h-4c-.6 0-1-.4-1-1v-4c0-.6.4-1 1-1h4c.6 0 1 .4 1 1v4c0 .6-.4 1-1 1m-3-2h2v-2h-2z"/></g></g><g id="alarmclock-white"><g id="XMLID_290_"><path id="XMLID_291_" d="M42 1033c-5.5 0-10-4.5-10-10s4.5-10 10-10 10 4.5 10 10-4.5 10-10 10m0-18c-4.4 0-8 3.6-8 8s3.6 8 8 8 8-3.6 8-8-3.6-8-8-8" class="st8"/></g><g id="XMLID_285_"><g id="XMLID_288_"><path id="XMLID_289_" d="M51.2 1016.3c-.3 0-.6-.1-.8-.4-1.2-1.5-2.8-2.6-4.7-3.3-.5-.2-.8-.8-.6-1.3s.8-.8 1.3-.6c2.1.8 4.1 2.1 5.5 3.9.4.4.3 1.1-.1 1.4q-.3.3-.6.3" class="st8"/></g><g id="XMLID_286_"><path id="XMLID_287_" d="M32.8 1016.3c-.2 0-.5-.1-.6-.2-.4-.4-.5-1-.1-1.4 1.5-1.7 3.4-3.1 5.5-3.9.5-.2 1.1.1 1.3.6s-.1 1.1-.6 1.3c-1.8.7-3.4 1.8-4.7 3.3-.2.2-.5.3-.8.3" class="st8"/></g></g><g id="XMLID_283_"><path id="XMLID_284_" d="M45 1027c-.3 0-.5-.1-.7-.3l-3-3c-.2-.2-.3-.4-.3-.7v-6c0-.6.4-1 1-1s1 .4 1 1v5.6l2.7 2.7c.4.4.4 1 0 1.4-.2.2-.4.3-.7.3" class="st8"/></g></g><g id="alarmclock"><g id="XMLID_301_"><path id="XMLID_302_" d="M14 1033c-5.5 0-10-4.5-10-10s4.5-10 10-10 10 4.5 10 10-4.5 10-10 10m0-18c-4.4 0-8 3.6-8 8s3.6 8 8 8 8-3.6 8-8-3.6-8-8-8" class="st1"/></g><g id="XMLID_296_"><g id="XMLID_299_"><path id="XMLID_300_" d="M23.2 1016.3c-.3 0-.6-.1-.8-.4-1.2-1.5-2.8-2.6-4.7-3.3-.5-.2-.8-.8-.6-1.3s.8-.8 1.3-.6c2.1.8 4.1 2.1 5.5 3.9.4.4.3 1.1-.1 1.4q-.3.3-.6.3" class="st1"/></g><g id="XMLID_297_"><path id="XMLID_298_" d="M4.8 1016.3c-.2 0-.5-.1-.6-.2-.4-.4-.5-1-.1-1.4 1.5-1.7 3.4-3.1 5.5-3.9.5-.2 1.1.1 1.3.6s-.1 1.1-.6 1.3c-1.8.7-3.4 1.8-4.7 3.3-.2.2-.5.3-.8.3" class="st1"/></g></g><g id="XMLID_294_"><path id="XMLID_295_" d="M17 1027c-.3 0-.5-.1-.7-.3l-3-3c-.2-.2-.3-.4-.3-.7v-6c0-.6.4-1 1-1s1 .4 1 1v5.6l2.7 2.7c.4.4.4 1 0 1.4-.2.2-.4.3-.7.3" class="st1"/></g></g><g id="left-gray1"><path id="XMLID_402_" d="M45 1003c-.3 0-.5-.1-.7-.3l-8-8c-.4-.4-.4-1 0-1.4l8-8c.4-.4 1-.4 1.4 0s.4 1 0 1.4l-7.3 7.3 7.3 7.3c.4.4.4 1 0 1.4-.2.2-.4.3-.7.3" class="st8"/></g><g id="left-gray2"><path id="XMLID_425_" d="M17 1003c-.3 0-.5-.1-.7-.3l-8-8c-.4-.4-.4-1 0-1.4l8-8c.4-.4 1-.4 1.4 0s.4 1 0 1.4l-7.3 7.3 7.3 7.3c.4.4.4 1 0 1.4-.2.2-.4.3-.7.3" class="st8"/></g><g id="right-gray1"><path id="XMLID_458_" d="M38 975c-.3 0-.5-.1-.7-.3-.4-.4-.4-1 0-1.4l7.3-7.3-7.3-7.3c-.4-.4-.4-1 0-1.4s1-.4 1.4 0l8 8c.4.4.4 1 0 1.4l-8 8c-.2.2-.4.3-.7.3" class="st8"/></g><g id="right-gray2"><path id="XMLID_543_" d="M10 975c-.3 0-.5-.1-.7-.3-.4-.4-.4-1 0-1.4l7.3-7.3-7.3-7.3c-.4-.4-.4-1 0-1.4s1-.4 1.4 0l8 8c.4.4.4 1 0 1.4l-8 8c-.2.2-.4.3-.7.3" class="st8"/></g><g id="left-on_2_" class="st7"><path id="XMLID_20_" d="M18 947c-.3 0-.5-.1-.7-.3l-8-8c-.4-.4-.4-1 0-1.4l8-8c.4-.4 1-.4 1.4 0s.4 1 0 1.4l-7.3 7.3 7.3 7.3c.4.4.4 1 0 1.4-.2.2-.4.3-.7.3"/></g><g id="right-on_2_" class="st7"><path id="XMLID_19_" d="M11 919c-.3 0-.5-.1-.7-.3-.4-.4-.4-1 0-1.4l7.3-7.3-7.3-7.3c-.4-.4-.4-1 0-1.4s1-.4 1.4 0l8 8c.4.4.4 1 0 1.4l-8 8c-.2.2-.4.3-.7.3"/></g><g id="close-on_1_"><g id="XMLID_52_"><path id="XMLID_53_" d="M35 890c-.3 0-.5-.1-.7-.3-.4-.4-.4-1 0-1.4l14-14c.4-.4 1-.4 1.4 0s.4 1 0 1.4l-14 14c-.2.2-.4.3-.7.3" class="st8"/></g><g id="XMLID_49_"><path id="XMLID_50_" d="M49 890c-.3 0-.5-.1-.7-.3l-14-14c-.4-.4-.4-1 0-1.4s1-.4 1.4 0l14 14c.4.4.4 1 0 1.4-.2.2-.4.3-.7.3" class="st8"/></g></g><g id="close_1_"><g id="XMLID_45_"><path id="XMLID_46_" d="M7 890c-.3 0-.5-.1-.7-.3-.4-.4-.4-1 0-1.4l14-14c.4-.4 1-.4 1.4 0s.4 1 0 1.4l-14 14c-.2.2-.4.3-.7.3" class="st1"/></g><g id="XMLID_41_"><path id="XMLID_42_" d="M21 890c-.3 0-.5-.1-.7-.3l-14-14c-.4-.4-.4-1 0-1.4s1-.4 1.4 0l14 14c.4.4.4 1 0 1.4-.2.2-.4.3-.7.3" class="st1"/></g></g><g id="checkmark-on_1_"><path id="XMLID_34_" d="M40 860c-.3 0-.5-.1-.7-.3l-7-7c-.4-.4-.4-1 0-1.4s1-.4 1.4 0l6.3 6.3 10.3-10.3c.4-.4 1-.4 1.4 0s.4 1 0 1.4l-11 11c-.2.2-.4.3-.7.3" class="st8"/></g><g id="checkmark_1_"><path id="XMLID_33_" d="M12 860c-.3 0-.5-.1-.7-.3l-7-7c-.4-.4-.4-1 0-1.4s1-.4 1.4 0l6.3 6.3 10.3-10.3c.4-.4 1-.4 1.4 0s.4 1 0 1.4l-11 11c-.2.2-.4.3-.7.3" class="st1"/></g><g id="down-small-on"><path id="XMLID_27_" d="M42 831c-.3 0-.5-.1-.7-.3l-8-8c-.4-.4-.4-1 0-1.4s1-.4 1.4 0l7.3 7.3 7.3-7.3c.4-.4 1-.4 1.4 0s.4 1 0 1.4l-8 8c-.2.2-.4.3-.7.3" class="st8"/></g><g id="down-small"><path id="XMLID_25_" d="M14 831c-.3 0-.5-.1-.7-.3l-8-8c-.4-.4-.4-1 0-1.4s1-.4 1.4 0l7.3 7.3 7.3-7.3c.4-.4 1-.4 1.4 0s.4 1 0 1.4l-8 8c-.2.2-.4.3-.7.3" class="st1"/></g><g id="up-small-on"><path id="XMLID_24_" d="M50 803c-.3 0-.5-.1-.7-.3l-7.3-7.3-7.3 7.3c-.4.4-1 .4-1.4 0s-.4-1 0-1.4l8-8c.4-.4 1-.4 1.4 0l8 8c.4.4.4 1 0 1.4-.2.2-.4.3-.7.3" class="st8"/></g><g id="up-small"><path id="XMLID_22_" d="M22 803c-.3 0-.5-.1-.7-.3l-7.3-7.3-7.3 7.3c-.4.4-1 .4-1.4 0s-.4-1 0-1.4l8-8c.4-.4 1-.4 1.4 0l8 8c.4.4.4 1 0 1.4-.2.2-.4.3-.7.3" class="st1"/></g><g id="left-small-on"><path id="XMLID_18_" d="M46 779c-.3 0-.5-.1-.7-.3l-8-8c-.4-.4-.4-1 0-1.4l8-8c.4-.4 1-.4 1.4 0s.4 1 0 1.4l-7.3 7.3 7.3 7.3c.4.4.4 1 0 1.4-.2.2-.4.3-.7.3" class="st8"/></g><g id="left-small" class="st7"><path id="XMLID_16_" d="M18 779c-.3 0-.5-.1-.7-.3l-8-8c-.4-.4-.4-1 0-1.4l8-8c.4-.4 1-.4 1.4 0s.4 1 0 1.4l-7.3 7.3 7.3 7.3c.4.4.4 1 0 1.4-.2.2-.4.3-.7.3"/></g><g id="right-small-on_1_"><path id="XMLID_13_" d="M38 751c-.3 0-.5-.1-.7-.3-.4-.4-.4-1 0-1.4l7.3-7.3-7.3-7.3c-.4-.4-.4-1 0-1.4s1-.4 1.4 0l8 8c.4.4.4 1 0 1.4l-8 8c-.2.2-.4.3-.7.3" class="st8"/></g><g id="right-small_1_" class="st7"><path id="XMLID_12_" d="M10 751c-.3 0-.5-.1-.7-.3-.4-.4-.4-1 0-1.4l7.3-7.3-7.3-7.3c-.4-.4-.4-1 0-1.4s1-.4 1.4 0l8 8c.4.4.4 1 0 1.4l-8 8c-.2.2-.4.3-.7.3"/></g><g id="edit-small-on_1_"><g id="XMLID_85_"><path id="XMLID_88_" d="M51 724H33c-.6 0-1-.4-1-1v-18c0-.6.4-1 1-1h8c.6 0 1 .4 1 1s-.4 1-1 1h-7v16h16v-7c0-.6.4-1 1-1s1 .4 1 1v8c0 .6-.4 1-1 1" class="st8"/></g><g id="XMLID_77_"><path id="XMLID_84_" d="m52.3 708.7-9 9c-.2.2-.4.3-.7.3H39c-.6 0-1-.4-1-1v-3.6c0-.3.1-.5.3-.7l9-9c.4-.4 1-.4 1.4 0l3.6 3.6c.4.4.4 1 0 1.4" class="st8"/></g></g><g id="edit-small_1_"><g id="XMLID_75_"><path id="XMLID_76_" d="M23 724H5c-.6 0-1-.4-1-1v-18c0-.6.4-1 1-1h8c.6 0 1 .4 1 1s-.4 1-1 1H6v16h16v-7c0-.6.4-1 1-1s1 .4 1 1v8c0 .6-.4 1-1 1" class="st1"/></g><g id="XMLID_56_"><path id="XMLID_57_" d="M15 719h-5c-.6 0-1-.4-1-1v-5c0-.3.1-.5.3-.7l9-9c.4-.4 1-.4 1.4 0l5 5c.4.4.4 1 0 1.4l-9 9c-.2.2-.4.3-.7.3m-4-2h3.6l8-8-3.6-3.6-8 8z" class="st1"/></g></g><path id="additem-on" d="M53 686c0 6.1-4.9 11-11 11s-11-4.9-11-11 4.9-11 11-11 11 4.9 11 11m-5-1h-5v-5c0-.6-.4-1-1-1s-1 .4-1 1v5h-5c-.6 0-1 .4-1 1s.4 1 1 1h5v5c0 .6.4 1 1 1s1-.4 1-1v-5h5c.6 0 1-.4 1-1s-.4-1-1-1" class="st8"/><g id="XMLID_249_"><path id="XMLID_253_" d="M20 685h-5v-5c0-.6-.4-1-1-1s-1 .4-1 1v5H8c-.6 0-1 .4-1 1s.4 1 1 1h5v5c0 .6.4 1 1 1s1-.4 1-1v-5h5c.6 0 1-.4 1-1s-.4-1-1-1" class="st1"/><path id="XMLID_250_" d="M14 675c-6.1 0-11 4.9-11 11s4.9 11 11 11 11-4.9 11-11-4.9-11-11-11m0 20c-5 0-9-4-9-9s4-9 9-9 9 4 9 9-4 9-9 9" class="st1"/></g><g id="sorting"><path id="XMLID_248_" d="M6 654h10c.6 0 1-.4 1-1s-.4-1-1-1H6c-.6 0-1 .4-1 1s.4 1 1 1" class="st1"/><path id="XMLID_247_" d="M6 659h6c.6 0 1-.4 1-1s-.4-1-1-1H6c-.6 0-1 .4-1 1s.4 1 1 1" class="st1"/><path id="XMLID_246_" d="M6 664h2c.6 0 1-.4 1-1s-.4-1-1-1H6c-.6 0-1 .4-1 1s.4 1 1 1" class="st1"/><path id="XMLID_245_" d="M16.9 661.5c-.4-.4-1-.4-1.4 0s-.4 1 0 1.4l2.8 2.8c.1.1.2.2.3.2.1.1.3.1.4.1s.3 0 .4-.1.2-.1.3-.2l2.8-2.8c.4-.4.4-1 0-1.4s-1-.4-1.4 0l-1.1 1.1V656c0-.6-.4-1-1-1s-1 .4-1 1v6.6z" class="st1"/><path id="XMLID_242_" d="M26 648c0-.6-.4-1-1-1H3c-.6 0-1 .4-1 1v20c0 .6.4 1 1 1h22c.6 0 1-.4 1-1zm-2 19H4v-18h20z" class="st1"/></g><g id="more-on"><g id="XMLID_239_"><path id="XMLID_106_" d="M39 627h6v6h-6z" class="st8"/></g><g id="XMLID_236_"><path id="XMLID_113_" d="M48 627h6v6h-6z" class="st8"/></g><g id="XMLID_233_"><path id="XMLID_234_" d="M30 627h6v6h-6z" class="st8"/></g></g><g id="more"><g id="XMLID_229_"><path id="XMLID_230_" d="M15 629v2h-2v-2zm2-2h-6v6h6z" class="st1"/></g><g id="XMLID_225_"><path id="XMLID_226_" d="M24 629v2h-2v-2zm2-2h-6v6h6z" class="st1"/></g><g id="XMLID_221_"><path id="XMLID_222_" d="M6 629v2H4v-2zm2-2H2v6h6z" class="st1"/></g></g><g id="close-on"><g id="XMLID_219_"><path id="XMLID_220_" d="M35 610c-.3 0-.5-.1-.7-.3-.4-.4-.4-1 0-1.4l14-14c.4-.4 1-.4 1.4 0s.4 1 0 1.4l-14 14c-.2.2-.4.3-.7.3" class="st8"/></g><g id="XMLID_217_"><path id="XMLID_218_" d="M49 610c-.3 0-.5-.1-.7-.3l-14-14c-.4-.4-.4-1 0-1.4s1-.4 1.4 0l14 14c.4.4.4 1 0 1.4-.2.2-.4.3-.7.3" class="st8"/></g></g><g id="close"><g id="XMLID_215_"><path id="XMLID_216_" d="M7 610c-.3 0-.5-.1-.7-.3-.4-.4-.4-1 0-1.4l14-14c.4-.4 1-.4 1.4 0s.4 1 0 1.4l-14 14c-.2.2-.4.3-.7.3" class="st8"/></g><g id="XMLID_213_"><path id="XMLID_214_" d="M21 610c-.3 0-.5-.1-.7-.3l-14-14c-.4-.4-.4-1 0-1.4s1-.4 1.4 0l14 14c.4.4.4 1 0 1.4-.2.2-.4.3-.7.3" class="st8"/></g></g><g id="checkmark-on"><path id="XMLID_212_" d="M40 580c-.3 0-.5-.1-.7-.3l-7-7c-.4-.4-.4-1 0-1.4s1-.4 1.4 0l6.3 6.3 10.3-10.3c.4-.4 1-.4 1.4 0s.4 1 0 1.4l-11 11c-.2.2-.4.3-.7.3" class="st8"/></g><g id="checkmark"><path id="XMLID_211_" d="M12 580c-.3 0-.5-.1-.7-.3l-7-7c-.4-.4-.4-1 0-1.4s1-.4 1.4 0l6.3 6.3 10.3-10.3c.4-.4 1-.4 1.4 0s.4 1 0 1.4l-11 11c-.2.2-.4.3-.7.3" class="st1"/></g><g id="back-on"><g id="XMLID_209_"><path id="XMLID_210_" d="M43 555c-.3 0-.5-.1-.7-.3l-8-8c-.4-.4-.4-1 0-1.4l8-8c.4-.4 1-.4 1.4 0s.4 1 0 1.4l-7.3 7.3 7.3 7.3c.4.4.4 1 0 1.4-.2.2-.4.3-.7.3" class="st8"/></g><g id="XMLID_207_"><path id="XMLID_208_" d="M48 547H36c-.6 0-1-.4-1-1s.4-1 1-1h12c.6 0 1 .4 1 1s-.4 1-1 1" class="st8"/></g></g><g id="back"><g id="XMLID_205_"><path id="XMLID_206_" d="M15 555c-.3 0-.5-.1-.7-.3l-8-8c-.4-.4-.4-1 0-1.4l8-8c.4-.4 1-.4 1.4 0s.4 1 0 1.4L8.4 546l7.3 7.3c.4.4.4 1 0 1.4-.2.2-.4.3-.7.3" class="st1"/></g><g id="XMLID_203_"><path id="XMLID_204_" d="M20 547H8c-.6 0-1-.4-1-1s.4-1 1-1h12c.6 0 1 .4 1 1s-.4 1-1 1" class="st1"/></g></g><g id="next-on"><g id="XMLID_201_"><path id="XMLID_202_" d="M40 527c-.3 0-.5-.1-.7-.3-.4-.4-.4-1 0-1.4l7.3-7.3-7.3-7.3c-.4-.4-.4-1 0-1.4s1-.4 1.4 0l8 8c.4.4.4 1 0 1.4l-8 8c-.2.2-.4.3-.7.3" class="st8"/></g><g id="XMLID_199_"><path id="XMLID_200_" d="M47 519H35c-.6 0-1-.4-1-1s.4-1 1-1h12c.6 0 1 .4 1 1s-.4 1-1 1" class="st8"/></g></g><g id="next"><g id="XMLID_197_"><path id="XMLID_198_" d="M12 527c-.3 0-.5-.1-.7-.3-.4-.4-.4-1 0-1.4l7.3-7.3-7.3-7.3c-.4-.4-.4-1 0-1.4s1-.4 1.4 0l8 8c.4.4.4 1 0 1.4l-8 8c-.2.2-.4.3-.7.3" class="st1"/></g><g id="XMLID_195_"><path id="XMLID_196_" d="M19 519H7c-.6 0-1-.4-1-1s.4-1 1-1h12c.6 0 1 .4 1 1s-.4 1-1 1" class="st1"/></g></g><g id="down-on"><path id="XMLID_194_" d="M42 495c-.3 0-.5-.1-.7-.3l-8-8c-.4-.4-.4-1 0-1.4s1-.4 1.4 0l7.3 7.3 7.3-7.3c.4-.4 1-.4 1.4 0s.4 1 0 1.4l-8 8c-.2.2-.4.3-.7.3" class="st8"/></g><g id="down"><path id="XMLID_193_" d="M14 495c-.3 0-.5-.1-.7-.3l-8-8c-.4-.4-.4-1 0-1.4s1-.4 1.4 0l7.3 7.3 7.3-7.3c.4-.4 1-.4 1.4 0s.4 1 0 1.4l-8 8c-.2.2-.4.3-.7.3" class="st1"/></g><g id="up-on"><path id="XMLID_192_" d="M50 467c-.3 0-.5-.1-.7-.3l-7.3-7.3-7.3 7.3c-.4.4-1 .4-1.4 0s-.4-1 0-1.4l8-8c.4-.4 1-.4 1.4 0l8 8c.4.4.4 1 0 1.4-.2.2-.4.3-.7.3" class="st8"/></g><g id="up"><path id="XMLID_191_" d="M22 467c-.3 0-.5-.1-.7-.3l-7.3-7.3-7.3 7.3c-.4.4-1 .4-1.4 0s-.4-1 0-1.4l8-8c.4-.4 1-.4 1.4 0l8 8c.4.4.4 1 0 1.4-.2.2-.4.3-.7.3" class="st1"/></g><g id="left-on"><path id="XMLID_190_" d="M46 443c-.3 0-.5-.1-.7-.3l-8-8c-.4-.4-.4-1 0-1.4l8-8c.4-.4 1-.4 1.4 0s.4 1 0 1.4l-7.3 7.3 7.3 7.3c.4.4.4 1 0 1.4-.2.2-.4.3-.7.3" class="st8"/></g><g id="left" class="st7"><path id="XMLID_189_" d="M18 443c-.3 0-.5-.1-.7-.3l-8-8c-.4-.4-.4-1 0-1.4l8-8c.4-.4 1-.4 1.4 0s.4 1 0 1.4l-7.3 7.3 7.3 7.3c.4.4.4 1 0 1.4-.2.2-.4.3-.7.3"/></g><g id="right-on"><path id="XMLID_188_" d="M39 415c-.3 0-.5-.1-.7-.3-.4-.4-.4-1 0-1.4l7.3-7.3-7.3-7.3c-.4-.4-.4-1 0-1.4s1-.4 1.4 0l8 8c.4.4.4 1 0 1.4l-8 8c-.2.2-.4.3-.7.3" class="st8"/></g><g id="right" class="st7"><path id="XMLID_187_" d="M11 415c-.3 0-.5-.1-.7-.3-.4-.4-.4-1 0-1.4l7.3-7.3-7.3-7.3c-.4-.4-.4-1 0-1.4s1-.4 1.4 0l8 8c.4.4.4 1 0 1.4l-8 8c-.2.2-.4.3-.7.3"/></g><g id="left_3_" class="st7"><path id="XMLID_7_" d="M18 1367c-.3 0-.5-.1-.7-.3l-8-8c-.4-.4-.4-1 0-1.4l8-8c.4-.4 1-.4 1.4 0s.4 1 0 1.4l-7.3 7.3 7.3 7.3c.4.4.4 1 0 1.4-.2.2-.4.3-.7.3"/></g><g id="right_3_" class="st7"><path id="XMLID_5_" d="M10 1339c-.3 0-.5-.1-.7-.3-.4-.4-.4-1 0-1.4l7.3-7.3-7.3-7.3c-.4-.4-.4-1 0-1.4s1-.4 1.4 0l8 8c.4.4.4 1 0 1.4l-8 8c-.2.2-.4.3-.7.3"/></g><g id="menu-on"><g id="XMLID_185_"><path id="XMLID_186_" d="M50 374H34c-.6 0-1-.4-1-1s.4-1 1-1h16c.6 0 1 .4 1 1s-.4 1-1 1" class="st8"/></g><g id="XMLID_183_"><path id="XMLID_184_" d="M50 379H34c-.6 0-1-.4-1-1s.4-1 1-1h16c.6 0 1 .4 1 1s-.4 1-1 1" class="st8"/></g><g id="XMLID_181_"><path id="XMLID_182_" d="M50 384H34c-.6 0-1-.4-1-1s.4-1 1-1h16c.6 0 1 .4 1 1s-.4 1-1 1" class="st8"/></g></g><g id="menu"><g id="XMLID_179_"><path id="XMLID_180_" d="M22 374H6c-.6 0-1-.4-1-1s.4-1 1-1h16c.6 0 1 .4 1 1s-.4 1-1 1" class="st8"/></g><g id="XMLID_177_"><path id="XMLID_178_" d="M22 379H6c-.6 0-1-.4-1-1s.4-1 1-1h16c.6 0 1 .4 1 1s-.4 1-1 1" class="st8"/></g><g id="XMLID_175_"><path id="XMLID_176_" d="M22 384H6c-.6 0-1-.4-1-1s.4-1 1-1h16c.6 0 1 .4 1 1s-.4 1-1 1" class="st8"/></g></g><g id="pause-on"><path id="XMLID_171_" d="M41.9 339.1c-6.1 0-11 4.9-11 11s4.9 11 11 11 11-4.9 11-11-4.9-11-11-11M40 353c0 .6-.4 1-1 1s-1-.4-1-1v-6c0-.6.4-1 1-1s1 .4 1 1zm6 0c0 .6-.4 1-1 1s-1-.4-1-1v-6c0-.6.4-1 1-1s1 .4 1 1z" class="st8"/></g><g id="pause"><g id="XMLID_167_"><path id="XMLID_168_" d="M13.9 361.1c-6.1 0-11-4.9-11-11s4.9-11 11-11 11 4.9 11 11-4.9 11-11 11m0-20c-5 0-9 4-9 9s4 9 9 9 9-4 9-9-4-9-9-9" class="st1"/></g><g id="XMLID_165_"><path id="XMLID_166_" d="M11 354c-.6 0-1-.4-1-1v-6c0-.6.4-1 1-1s1 .4 1 1v6c0 .6-.4 1-1 1" class="st1"/></g><g id="XMLID_163_"><path id="XMLID_164_" d="M17 354c-.6 0-1-.4-1-1v-6c0-.6.4-1 1-1s1 .4 1 1v6c0 .6-.4 1-1 1" class="st1"/></g></g><g id="play-on_1_"><path id="XMLID_160_" d="M41.9 311.1c-6.1 0-11 4.9-11 11s4.9 11 11 11 11-4.9 11-11-4.9-11-11-11M40 326v-8l6 4.1z" class="st8"/></g><g id="play_1_"><g id="XMLID_156_"><path id="XMLID_157_" d="M13.9 333.1c-6.1 0-11-4.9-11-11s4.9-11 11-11 11 4.9 11 11-4.9 11-11 11m0-20c-5 0-9 4-9 9s4 9 9 9 9-4 9-9-4-9-9-9" class="st1"/></g><g id="XMLID_152_"><path id="XMLID_153_" d="M12 327c-.2 0-.3 0-.5-.1-.3-.2-.5-.5-.5-.9v-8c0-.4.2-.7.5-.9s.7-.2 1 .1l6 4.1c.3.2.4.5.4.8s-.2.6-.5.8l-6 3.9c0 .1-.2.2-.4.2m1-7.1v4.3l3.2-2.1z" class="st1"/></g></g><g id="moreinfo-on"><path id="XMLID_148_" d="M42 283c-6.1 0-11 4.9-11 11s4.9 11 11 11 11-4.9 11-11-4.9-11-11-11m.7 16.7c-.2.2-.5.3-.7.3s-.5-.1-.7-.3-.3-.5-.3-.7c0-.3.1-.5.3-.7.4-.4 1-.4 1.4 0 .2.2.3.5.3.7s-.1.5-.3.7m1.6-5.9c-.8.6-1.3 1.1-1.3 2.2 0 .6-.4 1-1 1s-1-.4-1-1c0-2.1 1.2-3 2.1-3.8.7-.6.9-.8.9-1.2 0-1.1-.9-2-2-2s-2 .9-2 2c0 .6-.4 1-1 1s-1-.4-1-1c0-2.2 1.8-4 4-4s4 1.8 4 4c0 1.4-.9 2.2-1.7 2.8" class="st8"/></g><g id="moreinfo"><g id="XMLID_144_"><path id="XMLID_145_" d="M14 305c-6.1 0-11-4.9-11-11s4.9-11 11-11 11 4.9 11 11-4.9 11-11 11m0-20c-5 0-9 4-9 9s4 9 9 9 9-4 9-9-4-9-9-9" class="st1"/></g><g id="XMLID_142_"><path id="XMLID_143_" d="M14 300c-.3 0-.5-.1-.7-.3s-.3-.5-.3-.7.1-.5.3-.7c.4-.4 1-.4 1.4 0 .2.2.3.4.3.7s-.1.5-.3.7-.4.3-.7.3" class="st1"/></g><g id="XMLID_140_"><path id="XMLID_141_" d="M14 297c-.6 0-1-.4-1-1 0-2.1 1.2-3 2.1-3.8.7-.6.9-.8.9-1.2 0-1.1-.9-2-2-2s-2 .9-2 2c0 .6-.4 1-1 1s-1-.4-1-1c0-2.2 1.8-4 4-4s4 1.8 4 4c0 1.4-.9 2.2-1.7 2.8S15 294.9 15 296c0 .6-.4 1-1 1" class="st1"/></g></g><g id="audio"><g id="XMLID_136_"><path id="XMLID_137_" d="M11 274c-.2 0-.4-.1-.6-.2L5.6 270H3c-.6 0-1-.4-1-1v-5c0-.6.4-1 1-1h2.6l4.7-3.8c.3-.2.7-.3 1.1-.1.3.2.6.5.6.9v13q0 .6-.6.9c-.1.1-.3.1-.4.1m-7-6h2c.2 0 .4.1.6.2l3.4 2.7v-8.8l-3.4 2.7c-.2.1-.4.2-.6.2H4z" class="st1"/></g><g id="XMLID_134_"><path id="XMLID_135_" d="M21 275c-.3 0-.6-.1-.8-.4-.3-.4-.3-1.1.2-1.4 2.1-1.6 3.2-4 3.4-6.5.1-2.9-1.1-5.8-3.4-8-.4-.4-.4-1 0-1.4s1-.4 1.4 0c2.7 2.6 4.2 6 4 9.5-.1 3.2-1.6 6-4.1 8-.3.1-.5.2-.7.2" class="st1"/></g><g id="XMLID_132_"><path id="XMLID_133_" d="M18 272c-.3 0-.5-.1-.7-.3-.4-.4-.4-1 0-1.4 1.3-1.3 2-2.7 2-4.3 0-1.5-.7-3-2-4.3-.4-.4-.4-1 0-1.4s1-.4 1.4 0c1.7 1.7 2.5 3.6 2.5 5.7s-.9 4.1-2.5 5.7c-.2.2-.4.3-.7.3" class="st1"/></g><g id="XMLID_130_"><path id="XMLID_131_" d="M15 269c-.3 0-.5-.1-.7-.3-.4-.4-.4-1 0-1.4.6-.6.6-1.8-.1-2.6-.4-.4-.3-1.1.1-1.4.4-.4 1.1-.3 1.4.1 1.3 1.6 1.3 4-.1 5.3q-.15.3-.6.3" class="st1"/></g></g><g id="brokenpage"><g id="XMLID_126_"><path id="XMLID_127_" d="M22 240c-.1 0-.3 0-.4-.1l-4.7-1.9-5.7 1.9c-.2.1-.5.1-.7 0l-5-2c-.3-.1-.5-.5-.5-.9v-10c0-.6.4-1 1-1h10c.3 0 .5.1.7.3l6 6c.2.2.3.4.3.7v6c0 .3-.2.6-.4.8-.2.1-.4.2-.6.2m-15-3.7 4 1.6 5.7-1.9c.2-.1.5-.1.7 0l3.6 1.5v-4.1l-5.4-5.4H7z" class="st1"/></g><g id="XMLID_122_"><path id="XMLID_123_" d="M22 250H6c-.6 0-1-.4-1-1v-8c0-.3.2-.6.4-.8.3-.2.6-.2.9-.1L11 242l5.7-1.9c.2-.1.5-.1.7 0l5 2q.6.3.6.9v6c0 .6-.4 1-1 1m-15-2h14v-4.3l-4-1.6-5.7 1.9c-.2.1-.5.1-.7 0L7 242.5z" class="st1"/></g><g id="XMLID_120_"><path id="XMLID_121_" d="M22 234h-6c-.6 0-1-.4-1-1v-6c0-.6.4-1 1-1s1 .4 1 1v5h5c.6 0 1 .4 1 1s-.4 1-1 1" class="st1"/></g></g><g id="page"><g id="XMLID_116_"><path id="XMLID_117_" d="M22 222H6c-.6 0-1-.4-1-1v-22c0-.6.4-1 1-1h10c.3 0 .5.1.7.3l6 6c.2.2.3.4.3.7v16c0 .6-.4 1-1 1m-15-2h14v-14.6l-5.4-5.4H7z" class="st1"/></g><g id="XMLID_114_"><path id="XMLID_115_" d="M22 206h-6c-.6 0-1-.4-1-1v-6c0-.6.4-1 1-1s1 .4 1 1v5h5c.6 0 1 .4 1 1s-.4 1-1 1" class="st1"/></g></g><g id="female-on"><circle id="XMLID_111_" cx="42" cy="174" r="4" class="st8"/><g id="XMLID_108_"><path id="XMLID_107_" d="M41 179c-.5 0-1.2.4-1.6.8l-4.9 7.3c-.3.5-.1.9.4 1.1l6.1 1.5c.5.1 1.4.1 1.9 0l6.1-1.5c.5-.1.7-.6.4-1.1l-4.9-7.3c-.3-.5-1-.8-1.6-.8z" class="st8"/></g><g id="XMLID_105_"><path id="XMLID_109_" d="M39 186c-.5 0-.9.4-.8 1l1.5 6.1c.1.5.7 1 1.2 1h2c.5 0 1.1-.4 1.2-1l1.5-6.1c.1-.5-.2-1-.8-1z" class="st8"/></g></g><g id="female"><g id="XMLID_101_"><path id="XMLID_102_" d="M14 178c-2.2 0-4-1.8-4-4s1.8-4 4-4 4 1.8 4 4-1.8 4-4 4m0-6c-1.1 0-2 .9-2 2s.9 2 2 2 2-.9 2-2-.9-2-2-2" class="st1"/></g><g id="XMLID_97_"><path id="XMLID_98_" d="M16 194h-4c-.5 0-.9-.3-1-.8l-.9-4.4-3.3-.8c-.3-.1-.6-.3-.7-.6s-.1-.7.1-.9l5-7c.2-.3.5-.4.8-.4h4c.3 0 .6.2.8.4l5 7c.2.3.2.6.1.9s-.4.5-.7.6l-3.4.8-.9 4.4c0 .5-.4.8-.9.8m-3.2-2h2.4l.8-4.2c.1-.4.4-.7.7-.8l2.6-.6-3.8-5.4h-3l-3.8 5.4 2.6.6c.4.1.7.4.7.8z" class="st1"/></g></g><g id="male-on"><circle id="XMLID_96_" cx="42" cy="146" r="4" class="st8"/><g id="XMLID_93_"><path id="XMLID_112_" d="M39 158c-.5 0-.9.4-.8 1l1.5 6.1c.1.5.7 1 1.2 1h2c.5 0 1.1-.4 1.2-1l1.5-6.1c.1-.5-.2-1-.8-1z" class="st8"/></g><g id="XMLID_90_"><path id="XMLID_110_" d="M36 152c0-.6.5-1 1-1h10c.5 0 1 .4 1 1v5c0 .6-.4 1.2-.9 1.4l-4.2 2.1c-.5.2-1.3.2-1.8 0l-4.2-2.1c-.5-.2-.9-.9-.9-1.4z" class="st8"/></g></g><g id="male"><g id="XMLID_86_"><path id="XMLID_87_" d="M14 150c-2.2 0-4-1.8-4-4s1.8-4 4-4 4 1.8 4 4-1.8 4-4 4m0-6c-1.1 0-2 .9-2 2s.9 2 2 2 2-.9 2-2-.9-2-2-2" class="st1"/></g><g id="XMLID_82_"><path id="XMLID_83_" d="M16 166h-4c-.5 0-.9-.4-1-.8l-.9-5.5-1.5-.8q-.6-.3-.6-.9v-6c0-.6.4-1 1-1h10c.6 0 1 .4 1 1v6q0 .6-.6.9l-1.5.8-.9 5.5c-.1.4-.5.8-1 .8m-3.2-2h2.3l.9-5.2c.1-.3.3-.6.5-.7l1.4-.7V153h-8v4.4l1.4.7c.3.1.5.4.5.7z" class="st1"/></g></g><g id="active"><g id="XMLID_80_"><path id="XMLID_81_" d="M44 138h-4c-.6 0-1-.4-1-1s.4-1 1-1h4c.6 0 1 .4 1 1s-.4 1-1 1" class="st8"/></g><g id="XMLID_78_"><path id="XMLID_79_" d="M45 135h-6c-.6 0-1-.4-1-1s.4-1 1-1h6c.6 0 1 .4 1 1s-.4 1-1 1" class="st8"/></g><path id="XMLID_74_" d="m48.8 124-3.4 8h-6.8l-3.4-8c-1.1-3-.6-5.8 1.6-8 2.9-2.9 7.5-2.8 10.3 0 2.2 2.2 2.8 5 1.7 8m-1.8-4c0-2.2-1.8-4-4-4-.6 0-1 .4-1 1s.4 1 1 1c1.1 0 2 .9 2 2 0 .6.4 1 1 1s1-.4 1-1" class="st8"/></g><g id="inactive"><g id="XMLID_72_"><path id="XMLID_73_" d="M16 138h-4c-.6 0-1-.4-1-1s.4-1 1-1h4c.6 0 1 .4 1 1s-.4 1-1 1" class="st1"/></g><g id="XMLID_70_"><path id="XMLID_71_" d="M17 135h-6c-.6 0-1-.4-1-1s.4-1 1-1h6c.6 0 1 .4 1 1s-.4 1-1 1" class="st1"/></g><g id="XMLID_68_"><path id="XMLID_69_" d="M20 125c-.1 0-.3 0-.4-.1-.5-.2-.8-.8-.5-1.3.9-2.1.4-4.4-1.2-6-2.1-2.1-5.6-2.1-7.8 0-1.6 1.6-2 3.9-1.2 6 .2.5 0 1.1-.5 1.3s-1.1 0-1.3-.5c-1.2-2.8-.5-6 1.6-8.2 2.9-2.9 7.7-2.9 10.6 0 2.2 2.2 2.8 5.4 1.6 8.2-.1.4-.5.6-.9.6" class="st1"/></g><g id="XMLID_66_"><path id="XMLID_67_" d="M17 132h-6c-.4 0-.8-.2-.9-.6l-3-7c-.2-.5 0-1.1.5-1.3s1.1 0 1.3.5l2.7 6.4h4.7l2.7-6.4c.2-.5.8-.7 1.3-.5s.7.8.5 1.3l-3 7c0 .4-.4.6-.8.6" class="st1"/></g><g id="XMLID_64_"><path id="XMLID_65_" d="M17 122c-.6 0-1-.4-1-1 0-1.1-.9-2-2-2-.6 0-1-.4-1-1s.4-1 1-1c2.2 0 4 1.8 4 4 0 .6-.4 1-1 1" class="st1"/></g></g><g id="edit-on"><g id="XMLID_62_"><path id="XMLID_63_" d="M51 108H33c-.6 0-1-.4-1-1V89c0-.6.4-1 1-1h8c.6 0 1 .4 1 1s-.4 1-1 1h-7v16h16v-7c0-.6.4-1 1-1s1 .4 1 1v8c0 .6-.4 1-1 1" class="st8"/></g><g id="XMLID_60_"><path id="XMLID_61_" d="m52.3 92.7-9 9c-.2.2-.4.3-.7.3H39c-.6 0-1-.4-1-1v-3.6c0-.3.1-.5.3-.7l9-9c.4-.4 1-.4 1.4 0l3.6 3.6c.4.4.4 1 0 1.4" class="st8"/></g></g><g id="edit"><g id="XMLID_58_"><path id="XMLID_59_" d="M23 108H5c-.6 0-1-.4-1-1V89c0-.6.4-1 1-1h8c.6 0 1 .4 1 1s-.4 1-1 1H6v16h16v-7c0-.6.4-1 1-1s1 .4 1 1v8c0 .6-.4 1-1 1" class="st1"/></g><g id="XMLID_54_"><path id="XMLID_55_" d="M15 103h-5c-.6 0-1-.4-1-1v-5c0-.3.1-.5.3-.7l9-9c.4-.4 1-.4 1.4 0l5 5c.4.4.4 1 0 1.4l-9 9c-.2.2-.4.3-.7.3m-4-2h3.6l8-8-3.6-3.6-8 8z" class="st1"/></g></g><g id="settings-on"><path id="XMLID_51_" d="M53 68h-1.2c-.3-1.3-.8-2.5-1.5-3.5l.9-.9c.4-.4.4-1 0-1.4l-1.4-1.4c-.4-.4-1-.4-1.4 0l-.9.9c-1-.7-2.2-1.2-3.5-1.5V59c0-.6-.4-1-1-1h-2c-.6 0-1 .4-1 1v1.2c-1.3.3-2.5.8-3.5 1.5l-.9-.9c-.4-.4-1-.4-1.4 0l-1.4 1.4c-.4.4-.4 1 0 1.4l.9.9c-.7 1-1.2 2.2-1.5 3.5H31c-.6 0-1 .4-1 1v2c0 .6.4 1 1 1h1.2c.3 1.3.8 2.5 1.5 3.5l-.9.9c-.4.4-.4 1 0 1.4l1.4 1.4c.4.4 1 .4 1.4 0l.9-.9c1 .7 2.2 1.2 3.5 1.5V81c0 .6.4 1 1 1h2c.6 0 1-.4 1-1v-1.2c1.3-.3 2.5-.8 3.5-1.5l.9.9c.4.4 1 .4 1.4 0l1.4-1.4c.4-.4.4-1 0-1.4l-.9-.9c.7-1 1.2-2.2 1.5-3.5H53c.6 0 1-.4 1-1v-2c0-.6-.4-1-1-1m-11 8c-3.3 0-6-2.7-6-6s2.7-6 6-6 6 2.7 6 6-2.7 6-6 6" class="st8"/></g><g id="settings"><g id="XMLID_47_"><path id="XMLID_48_" d="M16 82h-4c-.6 0-1-.4-1-1v-1.5c-.6-.2-1.1-.4-1.6-.7l-.9.9c-.4.4-1 .4-1.4 0L4.2 77c-.4-.4-.4-1 0-1.4l.9-.9c-.3-.5-.5-1.1-.7-1.6H3c-.6 0-1-.4-1-1v-4c0-.6.4-1 1-1h1.5c.2-.6.4-1.1.7-1.6l-.9-.9c-.4-.4-.4-1 0-1.4l2.7-3c.2-.2.4-.3.7-.3s.5.1.7.3l.9.9c.5-.3 1.1-.5 1.6-.7V59c0-.6.4-1 1-1h4c.6 0 1 .4 1 1v1.5c.6.2 1.1.4 1.6.7l.9-.9c.4-.4 1-.4 1.4 0l2.8 2.8c.4.4.4 1 0 1.4l-.9.9c.3.5.5 1.1.7 1.6H25c.6 0 1 .4 1 1v4c0 .6-.4 1-1 1h-1.5c-.2.6-.4 1.1-.7 1.6l.9.9c.4.4.4 1 0 1.4L21 79.8c-.2.2-.4.3-.7.3s-.5-.1-.7-.3l-.9-.9c-.5.3-1.1.5-1.6.7V81c-.1.6-.5 1-1.1 1m-3-2h2v-1.2c0-.5.3-.9.8-1 .9-.2 1.7-.5 2.5-1 .4-.2.9-.2 1.2.1l.8.8 1.4-1.4-.8-.8c-.3-.3-.4-.8-.1-1.2.5-.8.8-1.6 1-2.5.1-.5.5-.8 1-.8H24v-2h-1.2c-.5 0-.9-.3-1-.8-.2-.9-.5-1.7-1-2.5-.2-.4-.2-.9.1-1.2l.8-.8-1.4-1.4-.8.8c-.3.3-.8.4-1.2.1-.8-.5-1.6-.8-2.5-1-.5-.1-.8-.5-.8-1V60h-2v1.2c0 .5-.3.9-.8 1-.9.2-1.7.5-2.5 1-.4.2-.9.2-1.2-.1l-.8-.8-1.4 1.4.8.8c.3.3.4.8.1 1.2-.5.8-.8 1.6-1 2.5-.1.5-.5.8-1 .8H4v2h1.2c.5 0 .9.3 1 .8.2.9.5 1.7 1 2.5.2.4.2.9-.1 1.2l-.8.8 1.4 1.4.8-.8c.3-.3.8-.4 1.2-.1.8.5 1.6.8 2.5 1 .5.1.8.5.8 1z" class="st1"/></g><g id="XMLID_43_"><path id="XMLID_44_" d="M14 76c-3.3 0-6-2.7-6-6s2.7-6 6-6 6 2.7 6 6-2.7 6-6 6m0-10c-2.2 0-4 1.8-4 4s1.8 4 4 4 4-1.8 4-4-1.8-4-4-4" class="st1"/></g></g><g id="search"><g id="XMLID_39_"><path id="XMLID_40_" d="M12 49c-5 0-9-4-9-9s4-9 9-9 9 4 9 9-4 9-9 9m0-16c-3.9 0-7 3.1-7 7s3.1 7 7 7 7-3.1 7-7-3.1-7-7-7" class="st1"/></g><g id="XMLID_37_"><path id="XMLID_38_" d="M24 53c-.3 0-.5-.1-.7-.3l-6-6c-.4-.4-.4-1 0-1.4s1-.4 1.4 0l6 6c.4.4.4 1 0 1.4-.2.2-.4.3-.7.3" class="st1"/></g><g id="XMLID_35_"><path id="XMLID_36_" d="M16 41c-.6 0-1-.4-1-1 0-1.7-1.3-3-3-3-.6 0-1-.4-1-1s.4-1 1-1c2.8 0 5 2.2 5 5 0 .6-.4 1-1 1" class="st1"/></g></g><g id="search_5_"><g id="XMLID_31_"><path id="XMLID_32_" d="M40 49c-5 0-9-4-9-9s4-9 9-9 9 4 9 9-4 9-9 9m0-16c-3.9 0-7 3.1-7 7s3.1 7 7 7 7-3.1 7-7-3.1-7-7-7" class="st8"/></g><g id="XMLID_29_"><path id="XMLID_30_" d="M52 53c-.3 0-.5-.1-.7-.3l-6-6c-.4-.4-.4-1 0-1.4s1-.4 1.4 0l6 6c.4.4.4 1 0 1.4-.2.2-.4.3-.7.3" class="st8"/></g><g id="XMLID_26_"><path id="XMLID_28_" d="M44 41c-.6 0-1-.4-1-1 0-1.7-1.3-3-3-3-.6 0-1-.4-1-1s.4-1 1-1c2.8 0 5 2.2 5 5 0 .6-.4 1-1 1" class="st8"/></g></g><path id="home-on" d="M42.7 3.6c-.4-.4-1-.4-1.4 0L30.2 14H32v10c0 .6.4 1 1 1h7v-8h4v8h7c.6 0 1-.4 1-1V14h1.9z" class="st8"/><g id="home"><path id="XMLID_21_" d="M23 25h-7c-.6 0-1-.4-1-1v-6h-2v6c0 .6-.4 1-1 1H5c-.6 0-1-.4-1-1v-9H3c-.4 0-.8-.3-.9-.6-.1-.4 0-.8.3-1.1l11-10c.4-.3 1-.3 1.3 0l11 10c.3.3.4.7.3 1.1-.2.3-.6.6-1 .6h-1v9c0 .6-.4 1-1 1m-6-2h5v-9c0-.4.2-.7.5-.9L14 5.4l-8.5 7.8c.3.1.5.4.5.8v9h5v-6c0-.6.4-1 1-1h4c.6 0 1 .4 1 1z" class="st1"/></g><path d="M14 2156c-7.7 0-14 6.3-14 14s6.3 14 14 14 14-6.3 14-14-6.3-14-14-14m8.3 20.7-4.8 4.8c-1.1.3-2.3.5-3.5.5h-1l1.2-1.2c.4-.4.4-1 0-1.4L13 2178v-4c0-1.1-.9-2-2-2H7c-1.1 0-2-.9-2-2v-7.9c2.2-2.5 5.4-4.1 9-4.1 1 0 2 .1 3 .4v.6c0 .6-.4 1-1 1s-1 .4-1 1v1l1.3 1.3c.4.4.4 1 0 1.4l-3.6 3.6c-.4.4-.4 1 0 1.4l2.3 2.3h4l3.3 3.3c.4.4.4 1 0 1.4M19 2197h-2v-7c0-1.6-1-3-2.2-3h-1.6c-1.2 0-2.2 1.4-2.2 3v7H9v-7c0-2.8 1.9-5 4.2-5h1.6c2.3 0 4.2 2.2 4.2 5z" class="st1"/><path d="M19 2196H9c-2.2 0-4 1.8-4 4v9c0 1.1.9 2 2 2h14c1.1 0 2-.9 2-2v-9c0-2.2-1.8-4-4-4" class="st1"/></svg>